<svg width="255" height="91" viewBox="0 0 255 91" fill="none" xmlns="http://www.w3.org/2000/svg">
<g clip-path="url(#clip0_1476_40576)">
<path fill-rule="evenodd" clip-rule="evenodd" d="M55.2173 4.22438C49.5847 -1.40813 40.4526 -1.40812 34.8201 4.22439L4.22438 34.8201C-1.40813 40.4526 -1.40812 49.5847 4.22439 55.2173L34.8201 85.813C40.4526 91.4455 49.5847 91.4455 55.2173 85.813L85.813 55.2173C91.4455 49.5847 91.4455 40.4526 85.813 34.8201L55.2173 4.22438ZM32.545 47.9918C32.5389 49.0447 32.5572 50.1037 32.6668 51.1566C32.6854 51.3278 32.7089 51.4991 32.7323 51.6696C32.7545 51.8323 32.7767 51.9942 32.7946 52.1547C32.7069 52.2131 32.6193 52.2092 32.5317 52.2053C32.5097 52.2043 32.4878 52.2034 32.4659 52.2034H28.7108C28.6946 52.2034 28.6783 52.2027 28.6621 52.202C28.6296 52.2007 28.5972 52.1993 28.5647 52.2034C28.4065 52.2216 28.3578 52.1425 28.3517 51.9904C28.3408 51.6775 28.3234 51.3667 28.3059 51.0556C28.2941 50.8462 28.2824 50.6367 28.2726 50.4262C28.2686 50.3434 28.2698 50.2605 28.2711 50.1678V50.1677V50.1676V50.1675C28.2718 50.1172 28.2726 50.064 28.2726 50.0063C28.1199 50.0588 28.0645 50.1524 28.0125 50.2403C27.9981 50.2645 27.9841 50.2882 27.9683 50.3106C27.3536 51.187 26.5989 51.8808 25.5704 52.246C24.9313 52.4773 24.2679 52.5625 23.5985 52.5442C22.6247 52.5199 21.6692 52.3555 20.7806 51.9173C19.5147 51.2965 18.7296 50.3167 18.4983 48.9108C18.4801 48.8013 18.4618 48.6917 18.3644 48.6187V47.5232C18.4721 47.4668 18.4847 47.3629 18.497 47.2624C18.4992 47.2436 18.5015 47.2249 18.5044 47.2067C18.7235 45.9225 19.4417 44.9853 20.5554 44.3462C21.4318 43.8411 22.3934 43.5794 23.3855 43.4333C24.8218 43.2203 26.2642 43.202 27.7066 43.4151C27.9987 43.4577 28.0231 43.4394 27.9926 43.1412C27.9074 42.3135 27.5301 41.6927 26.7572 41.3397C26.392 41.1693 26.0025 41.0658 25.6008 41.0354C24.0184 40.9197 22.4664 41.078 20.9875 41.6927C20.8651 41.7456 20.7463 41.8022 20.6281 41.8584L20.628 41.8584L20.6279 41.8585C20.5288 41.9056 20.4301 41.9526 20.3302 41.997C20.2439 41.949 20.2521 41.8784 20.2594 41.8149C20.2614 41.7978 20.2633 41.7812 20.2633 41.7657L20.2614 41.6957L20.2614 41.6944L20.2613 41.6941C20.2377 40.8175 20.2141 39.9464 20.1963 39.0696C20.1903 38.7615 20.1962 38.7592 20.47 38.6521L20.4763 38.6496C21.6753 38.1871 22.9229 37.9315 24.201 37.8219C25.1322 37.7428 26.0633 37.7124 27.0006 37.8158C28.0839 37.9376 29.1246 38.1932 30.0741 38.7592C31.4313 39.5686 32.1738 40.7798 32.4477 42.3074C32.5268 42.7273 32.545 43.1533 32.545 43.5794V47.9918ZM23.0385 48.1622C23.2211 48.7404 23.6593 49.0569 24.2192 49.1908C26.5076 49.7507 27.9318 47.8518 28.0048 46.1295C28.0109 45.9956 27.9683 45.9347 27.8222 45.9286C27.5362 45.9164 27.2517 45.9027 26.9672 45.889H26.9672H26.9671C26.6826 45.8754 26.3981 45.8617 26.112 45.8495C25.7469 45.8312 25.3817 45.8738 25.0226 45.9225C24.5357 45.9834 24.0671 46.1112 23.6593 46.3972C23.0872 46.7928 22.8316 47.511 23.0385 48.1622ZM45.7093 42.0639L45.7092 42.0638C45.5388 41.9786 45.3806 41.8995 45.2102 41.8265C44.1147 41.3396 42.9706 41.1814 41.7959 41.4553C40.3048 41.8083 39.2945 42.9768 39.0876 44.4922C38.9842 45.2408 39.0085 45.9772 39.3189 46.671C39.9032 47.9796 40.9621 48.6855 42.3437 48.9107C43.5 49.0933 44.6199 48.9046 45.7032 48.4847C45.7535 48.4651 45.8038 48.4443 45.8529 48.424L45.8534 48.4238C45.9111 48.3998 45.9672 48.3766 46.0197 48.3569C46.0943 48.3768 46.0957 48.417 46.0971 48.4543C46.0973 48.4589 46.0974 48.4636 46.0977 48.4681C46.098 48.4717 46.0983 48.4752 46.0988 48.4786C46.1088 48.8271 46.1182 49.1749 46.1275 49.5226L46.1276 49.5262L46.1276 49.5269C46.1467 50.2341 46.1657 50.9404 46.1901 51.6495C46.1962 51.8564 46.1292 51.9477 45.9284 52.0086C45.1676 52.2337 44.3947 52.3798 43.6096 52.4711C42.1185 52.6415 40.6457 52.5502 39.2093 52.1181C37.5783 51.6251 36.2089 50.7487 35.2229 49.3368C34.5413 48.3569 34.1822 47.2614 34.0483 46.0807C33.9205 44.9 34.024 43.7497 34.4013 42.6299C35.083 40.6336 36.4645 39.2825 38.3938 38.4852C39.8666 37.8766 41.4125 37.688 43.001 37.7975C43.9565 37.8645 44.8816 38.0349 45.7641 38.4061C46.0997 38.5474 46.0992 38.552 46.0658 38.8773L46.0623 38.9113C45.9711 39.7933 45.8859 40.6752 45.8007 41.5572L45.8006 41.5587C45.7985 41.586 45.7969 41.6136 45.7954 41.6416C45.7878 41.7759 45.7798 41.9178 45.7093 42.0639ZM52.4899 40.5002C52.4642 40.5572 52.4346 40.623 52.3128 40.6336V38.4426C52.3128 38.1079 52.3128 38.1018 51.9781 38.1018H48.2229C47.8821 38.1018 47.876 38.1018 47.876 38.4365V51.899C47.876 52.2094 47.8821 52.2155 48.1986 52.2155H52.4284C52.7448 52.2155 52.7449 52.2094 52.751 51.8993L52.751 51.899V51.6434V46.1355C52.751 45.5999 52.7936 45.0704 52.891 44.5409C53.0066 43.8897 53.2075 43.2689 53.6091 42.7272C54.2177 41.9117 55.2037 41.7048 56.0192 41.8813C56.6765 42.0213 57.0478 42.496 57.2669 43.0985C57.4555 43.6158 57.4982 44.1636 57.4982 44.7113V51.7529C57.4982 51.7813 57.4988 51.8097 57.4995 51.8381C57.5009 51.8949 57.5022 51.9517 57.4982 52.0085C57.486 52.1729 57.5712 52.2216 57.7173 52.2094C57.7578 52.2053 57.7984 52.2067 57.839 52.208C57.8593 52.2087 57.8795 52.2094 57.8998 52.2094H61.9836H62.2027C62.3244 52.2155 62.3792 52.1546 62.3731 52.0329C62.3691 51.9761 62.3704 51.9193 62.3718 51.8625C62.3724 51.8341 62.3731 51.8057 62.3731 51.7773C62.3731 51.1806 62.3738 50.5846 62.3745 49.9889C62.3758 48.798 62.3772 47.6081 62.3731 46.4154C62.3731 45.892 62.3853 45.3686 62.4583 44.8513C62.5435 44.2305 62.6896 43.6341 62.9939 43.0802C63.286 42.5568 63.6877 42.143 64.2781 41.9604C65.6109 41.5526 66.6395 42.0091 66.9803 43.415C67.0716 43.7984 67.1142 44.1818 67.1142 44.5713V51.759V52.0511C67.1142 52.1485 67.1507 52.2094 67.2603 52.2094H67.4794H71.5996C71.8106 52.2094 71.9082 52.2154 71.9529 52.1696C71.9985 52.1231 71.9892 52.0228 71.9892 51.8077C71.9892 51.0001 71.9885 50.1931 71.9878 49.3863C71.9865 47.7735 71.9851 46.1616 71.9892 44.547C71.9892 43.8897 71.9709 43.2385 71.9344 42.5812C71.904 41.9604 71.8066 41.3457 71.6362 40.7493C71.1919 39.1669 70.1633 38.2114 68.5505 37.901C67.7106 37.7427 66.8647 37.7001 66.0126 37.8279C64.765 38.0166 63.6695 38.5157 62.7748 39.4347C62.5502 39.6638 62.3601 39.9206 62.1708 40.1764C62.1087 40.2603 62.0467 40.344 61.9836 40.4267C61.9024 40.3646 61.8662 40.2837 61.8308 40.2047C61.8211 40.183 61.8115 40.1616 61.801 40.1406C61.2898 39.1182 60.4925 38.4305 59.4214 38.0592C58.3198 37.6758 57.1999 37.6697 56.074 37.901C54.5099 38.2235 53.2744 39.033 52.5015 40.4754C52.4975 40.4833 52.4938 40.4916 52.4899 40.5002Z" fill="white"/>
<path d="M97.5663 29.3244L101.259 19.2283H103.465L107.143 29.3244H105.081L102.355 21.4495L99.6144 29.3244H97.5663ZM99.1961 27.0312L99.7153 25.5168H104.85L105.355 27.0312H99.1961ZM111.398 29.4975C110.734 29.4975 110.157 29.3917 109.667 29.1802C109.177 28.9687 108.792 28.6754 108.513 28.3004C108.234 27.9254 108.076 27.5023 108.037 27.0312H109.97C110.018 27.2139 110.1 27.3821 110.215 27.536C110.33 27.6802 110.484 27.7956 110.677 27.8821C110.869 27.9687 111.1 28.0119 111.369 28.0119C111.628 28.0119 111.84 27.9783 112.003 27.911C112.167 27.834 112.287 27.7331 112.364 27.6081C112.451 27.4831 112.494 27.3533 112.494 27.2187C112.494 27.0167 112.436 26.8629 112.321 26.7571C112.205 26.6417 112.032 26.5504 111.802 26.4831C111.58 26.4158 111.316 26.3533 111.008 26.2956C110.662 26.2187 110.321 26.1321 109.984 26.036C109.657 25.9302 109.364 25.8004 109.104 25.6466C108.845 25.4927 108.638 25.2956 108.484 25.0552C108.33 24.8148 108.254 24.5168 108.254 24.161C108.254 23.7379 108.369 23.3533 108.6 23.0072C108.83 22.661 109.167 22.3918 109.609 22.1995C110.052 21.9976 110.585 21.8966 111.21 21.8966C112.085 21.8966 112.778 22.0937 113.287 22.4879C113.797 22.8822 114.1 23.4254 114.196 24.1177H112.364C112.306 23.887 112.177 23.7091 111.975 23.5841C111.782 23.4591 111.523 23.3966 111.196 23.3966C110.85 23.3966 110.585 23.4591 110.403 23.5841C110.22 23.7091 110.129 23.8677 110.129 24.06C110.129 24.1947 110.186 24.3148 110.302 24.4206C110.427 24.5264 110.6 24.6177 110.821 24.6946C111.042 24.7716 111.311 24.8437 111.628 24.911C112.186 25.0168 112.677 25.1466 113.1 25.3004C113.523 25.4446 113.854 25.6562 114.095 25.935C114.335 26.2042 114.455 26.5985 114.455 27.1177C114.455 27.5792 114.33 27.9927 114.08 28.3581C113.83 28.7138 113.475 28.9927 113.013 29.1946C112.561 29.3965 112.023 29.4975 111.398 29.4975ZM119.074 29.4975C118.411 29.4975 117.834 29.3917 117.343 29.1802C116.853 28.9687 116.468 28.6754 116.189 28.3004C115.911 27.9254 115.752 27.5023 115.713 27.0312H117.646C117.694 27.2139 117.776 27.3821 117.891 27.536C118.007 27.6802 118.161 27.7956 118.353 27.8821C118.545 27.9687 118.776 28.0119 119.045 28.0119C119.305 28.0119 119.516 27.9783 119.68 27.911C119.843 27.834 119.963 27.7331 120.04 27.6081C120.127 27.4831 120.17 27.3533 120.17 27.2187C120.17 27.0167 120.112 26.8629 119.997 26.7571C119.882 26.6417 119.709 26.5504 119.478 26.4831C119.257 26.4158 118.992 26.3533 118.685 26.2956C118.338 26.2187 117.997 26.1321 117.661 26.036C117.334 25.9302 117.04 25.8004 116.781 25.6466C116.521 25.4927 116.314 25.2956 116.161 25.0552C116.007 24.8148 115.93 24.5168 115.93 24.161C115.93 23.7379 116.045 23.3533 116.276 23.0072C116.507 22.661 116.843 22.3918 117.286 22.1995C117.728 21.9976 118.262 21.8966 118.887 21.8966C119.762 21.8966 120.454 22.0937 120.963 22.4879C121.473 22.8822 121.776 23.4254 121.872 24.1177H120.04C119.983 23.887 119.853 23.7091 119.651 23.5841C119.459 23.4591 119.199 23.3966 118.872 23.3966C118.526 23.3966 118.262 23.4591 118.079 23.5841C117.896 23.7091 117.805 23.8677 117.805 24.06C117.805 24.1947 117.862 24.3148 117.978 24.4206C118.103 24.5264 118.276 24.6177 118.497 24.6946C118.718 24.7716 118.987 24.8437 119.305 24.911C119.862 25.0168 120.353 25.1466 120.776 25.3004C121.199 25.4446 121.531 25.6562 121.771 25.935C122.011 26.2042 122.132 26.5985 122.132 27.1177C122.132 27.5792 122.007 27.9927 121.757 28.3581C121.507 28.7138 121.151 28.9927 120.689 29.1946C120.237 29.3965 119.699 29.4975 119.074 29.4975ZM127.212 29.4975C126.52 29.4975 125.895 29.3388 125.337 29.0215C124.789 28.6946 124.351 28.2475 124.024 27.6802C123.707 27.1033 123.548 26.4446 123.548 25.7043C123.548 24.9543 123.707 24.2956 124.024 23.7283C124.351 23.1514 124.794 22.7043 125.351 22.387C125.909 22.0601 126.534 21.8966 127.226 21.8966C127.928 21.8966 128.553 22.0601 129.101 22.387C129.659 22.7043 130.096 23.1466 130.414 23.7139C130.741 24.2812 130.904 24.9446 130.904 25.7043C130.904 26.4446 130.741 27.1033 130.414 27.6802C130.096 28.2475 129.659 28.6946 129.101 29.0215C128.544 29.3388 127.914 29.4975 127.212 29.4975ZM127.212 27.81C127.539 27.81 127.827 27.7331 128.077 27.5792C128.337 27.4254 128.539 27.1898 128.683 26.8725C128.837 26.5552 128.914 26.161 128.914 25.6898C128.914 25.2187 128.837 24.8293 128.683 24.5216C128.539 24.2043 128.337 23.9687 128.077 23.8148C127.827 23.6514 127.544 23.5697 127.226 23.5697C126.919 23.5697 126.635 23.6514 126.375 23.8148C126.116 23.9687 125.909 24.2043 125.755 24.5216C125.611 24.8389 125.539 25.2331 125.539 25.7043C125.539 26.1658 125.611 26.5552 125.755 26.8725C125.909 27.1898 126.111 27.4254 126.361 27.5792C126.62 27.7331 126.904 27.81 127.212 27.81ZM136.101 29.4975C135.371 29.4975 134.722 29.334 134.154 29.0071C133.587 28.6802 133.145 28.2331 132.827 27.6658C132.51 27.0985 132.351 26.4494 132.351 25.7187C132.351 24.9687 132.51 24.31 132.827 23.7427C133.145 23.1658 133.587 22.7139 134.154 22.387C134.722 22.0601 135.371 21.8966 136.101 21.8966C137.034 21.8966 137.818 22.1418 138.452 22.6322C139.087 23.1129 139.491 23.7812 139.664 24.637H137.601C137.515 24.3004 137.332 24.036 137.053 23.8437C136.784 23.6514 136.462 23.5552 136.087 23.5552C135.75 23.5552 135.448 23.6418 135.178 23.8148C134.919 23.9879 134.712 24.2331 134.558 24.5504C134.414 24.8677 134.342 25.2475 134.342 25.6898C134.342 26.0264 134.385 26.3292 134.472 26.5985C134.558 26.8581 134.678 27.0841 134.832 27.2764C134.986 27.459 135.169 27.5985 135.38 27.6946C135.601 27.7908 135.837 27.8389 136.087 27.8389C136.337 27.8389 136.563 27.7956 136.765 27.709C136.976 27.6225 137.154 27.5023 137.299 27.3485C137.443 27.185 137.544 26.9879 137.601 26.7571H139.664C139.491 27.5937 139.082 28.2619 138.438 28.7619C137.803 29.2523 137.025 29.4975 136.101 29.4975ZM141.386 29.3244V22.0697H143.333V29.3244H141.386ZM142.367 21.0601C142.011 21.0601 141.723 20.9591 141.502 20.7572C141.281 20.5456 141.17 20.2812 141.17 19.9639C141.17 19.6466 141.281 19.387 141.502 19.1851C141.723 18.9735 142.011 18.8678 142.367 18.8678C142.723 18.8678 143.011 18.9735 143.232 19.1851C143.463 19.387 143.579 19.6466 143.579 19.9639C143.579 20.2812 143.463 20.5456 143.232 20.7572C143.011 20.9591 142.723 21.0601 142.367 21.0601ZM147.753 29.4975C147.147 29.4975 146.647 29.4013 146.253 29.209C145.859 29.0071 145.565 28.7427 145.373 28.4158C145.181 28.0792 145.085 27.709 145.085 27.3052C145.085 26.8629 145.2 26.4735 145.431 26.1369C145.661 25.8004 146.003 25.536 146.455 25.3437C146.916 25.1514 147.493 25.0552 148.186 25.0552H149.988C149.988 24.6995 149.94 24.4062 149.844 24.1754C149.748 23.9447 149.599 23.7716 149.397 23.6562C149.195 23.5408 148.926 23.4831 148.589 23.4831C148.224 23.4831 147.911 23.5648 147.652 23.7283C147.402 23.8822 147.248 24.1177 147.19 24.435H145.301C145.349 23.9158 145.517 23.4687 145.806 23.0937C146.104 22.7091 146.493 22.4158 146.974 22.2139C147.464 22.0024 148.008 21.8966 148.604 21.8966C149.286 21.8966 149.878 22.012 150.378 22.2427C150.878 22.4639 151.262 22.7956 151.532 23.2379C151.801 23.6706 151.935 24.1995 151.935 24.8245V29.3244H150.291L150.075 28.2138C149.969 28.4062 149.844 28.5792 149.7 28.7331C149.556 28.8869 149.387 29.0215 149.195 29.1369C149.003 29.2523 148.786 29.3388 148.546 29.3965C148.306 29.4638 148.041 29.4975 147.753 29.4975ZM148.214 27.9975C148.464 27.9975 148.686 27.9542 148.878 27.8677C149.08 27.7715 149.253 27.6465 149.397 27.4927C149.541 27.3292 149.652 27.1465 149.729 26.9446C149.815 26.7331 149.873 26.5071 149.902 26.2667V26.2523H148.416C148.118 26.2523 147.873 26.2908 147.681 26.3677C147.498 26.4446 147.363 26.5504 147.277 26.685C147.19 26.81 147.147 26.9639 147.147 27.1465C147.147 27.3292 147.19 27.4831 147.277 27.6081C147.363 27.7331 147.488 27.8292 147.652 27.8965C147.815 27.9639 148.003 27.9975 148.214 27.9975ZM156.941 29.3244C156.432 29.3244 155.985 29.2475 155.6 29.0936C155.225 28.9302 154.932 28.6658 154.72 28.3004C154.509 27.9254 154.403 27.4158 154.403 26.7716V23.685H153.163V22.0697H154.403L154.619 20.0793H156.35V22.0697H158.268V23.685H156.35V26.8004C156.35 27.1273 156.422 27.3533 156.566 27.4783C156.711 27.6033 156.956 27.6658 157.302 27.6658H158.239V29.3244H156.941ZM159.936 29.3244V22.0697H161.883V29.3244H159.936ZM160.917 21.0601C160.561 21.0601 160.273 20.9591 160.052 20.7572C159.83 20.5456 159.72 20.2812 159.72 19.9639C159.72 19.6466 159.83 19.387 160.052 19.1851C160.273 18.9735 160.561 18.8678 160.917 18.8678C161.273 18.8678 161.561 18.9735 161.782 19.1851C162.013 19.387 162.128 19.6466 162.128 19.9639C162.128 20.2812 162.013 20.5456 161.782 20.7572C161.561 20.9591 161.273 21.0601 160.917 21.0601ZM167.283 29.4975C166.591 29.4975 165.966 29.3388 165.408 29.0215C164.86 28.6946 164.423 28.2475 164.096 27.6802C163.779 27.1033 163.62 26.4446 163.62 25.7043C163.62 24.9543 163.779 24.2956 164.096 23.7283C164.423 23.1514 164.865 22.7043 165.423 22.387C165.981 22.0601 166.606 21.8966 167.298 21.8966C168 21.8966 168.625 22.0601 169.173 22.387C169.731 22.7043 170.168 23.1466 170.485 23.7139C170.812 24.2812 170.976 24.9446 170.976 25.7043C170.976 26.4446 170.812 27.1033 170.485 27.6802C170.168 28.2475 169.731 28.6946 169.173 29.0215C168.615 29.3388 167.985 29.4975 167.283 29.4975ZM167.283 27.81C167.61 27.81 167.899 27.7331 168.149 27.5792C168.408 27.4254 168.61 27.1898 168.755 26.8725C168.908 26.5552 168.985 26.161 168.985 25.6898C168.985 25.2187 168.908 24.8293 168.755 24.5216C168.61 24.2043 168.408 23.9687 168.149 23.8148C167.899 23.6514 167.615 23.5697 167.298 23.5697C166.99 23.5697 166.707 23.6514 166.447 23.8148C166.187 23.9687 165.981 24.2043 165.827 24.5216C165.682 24.8389 165.61 25.2331 165.61 25.7043C165.61 26.1658 165.682 26.5552 165.827 26.8725C165.981 27.1898 166.182 27.4254 166.432 27.5792C166.692 27.7331 166.976 27.81 167.283 27.81ZM172.654 29.3244V22.0697H174.37L174.514 23.2523C174.736 22.8389 175.048 22.512 175.452 22.2716C175.865 22.0216 176.356 21.8966 176.923 21.8966C177.529 21.8966 178.038 22.0216 178.452 22.2716C178.865 22.5216 179.178 22.887 179.389 23.3677C179.611 23.8485 179.721 24.4398 179.721 25.1418V29.3244H177.788V25.3148C177.788 24.7475 177.663 24.31 177.413 24.0023C177.173 23.685 176.798 23.5264 176.288 23.5264C175.962 23.5264 175.668 23.6033 175.409 23.7572C175.159 23.911 174.962 24.1322 174.817 24.4206C174.673 24.6995 174.601 25.0456 174.601 25.4591V29.3244H172.654ZM185.268 29.3244V21.4062C185.268 20.8004 185.369 20.3197 185.571 19.9639C185.772 19.6081 186.061 19.3485 186.436 19.1851C186.82 19.0216 187.263 18.9399 187.763 18.9399H188.671V20.5985H188.066C187.758 20.5985 187.537 20.661 187.402 20.786C187.277 20.9014 187.215 21.1081 187.215 21.4062V29.3244H185.268ZM184.272 23.685V22.0697H188.787V23.685H184.272ZM193.439 29.4975C192.747 29.4975 192.122 29.3388 191.564 29.0215C191.016 28.6946 190.579 28.2475 190.252 27.6802C189.934 27.1033 189.776 26.4446 189.776 25.7043C189.776 24.9543 189.934 24.2956 190.252 23.7283C190.579 23.1514 191.021 22.7043 191.579 22.387C192.136 22.0601 192.761 21.8966 193.454 21.8966C194.155 21.8966 194.78 22.0601 195.329 22.387C195.886 22.7043 196.324 23.1466 196.641 23.7139C196.968 24.2812 197.131 24.9446 197.131 25.7043C197.131 26.4446 196.968 27.1033 196.641 27.6802C196.324 28.2475 195.886 28.6946 195.329 29.0215C194.771 29.3388 194.141 29.4975 193.439 29.4975ZM193.439 27.81C193.766 27.81 194.055 27.7331 194.305 27.5792C194.564 27.4254 194.766 27.1898 194.91 26.8725C195.064 26.5552 195.141 26.161 195.141 25.6898C195.141 25.2187 195.064 24.8293 194.91 24.5216C194.766 24.2043 194.564 23.9687 194.305 23.8148C194.055 23.6514 193.771 23.5697 193.454 23.5697C193.146 23.5697 192.862 23.6514 192.603 23.8148C192.343 23.9687 192.136 24.2043 191.982 24.5216C191.838 24.8389 191.766 25.2331 191.766 25.7043C191.766 26.1658 191.838 26.5552 191.982 26.8725C192.136 27.1898 192.338 27.4254 192.588 27.5792C192.848 27.7331 193.131 27.81 193.439 27.81ZM198.81 29.3244V22.0697H200.54L200.728 23.3966C200.901 23.0889 201.117 22.8245 201.377 22.6033C201.646 22.3725 201.949 22.1995 202.285 22.0841C202.632 21.9591 203.011 21.8966 203.425 21.8966V23.9447H202.761C202.473 23.9447 202.204 23.9783 201.954 24.0456C201.713 24.1129 201.502 24.2235 201.319 24.3773C201.136 24.5312 200.997 24.7379 200.901 24.9975C200.805 25.2571 200.757 25.5841 200.757 25.9783V29.3244H198.81ZM102.773 48.4975C101.763 48.4975 100.893 48.2811 100.162 47.8485C99.4413 47.4062 98.8836 46.7956 98.4894 46.0167C98.1048 45.2283 97.9125 44.3196 97.9125 43.2908C97.9125 42.262 98.1048 41.3533 98.4894 40.5649C98.8836 39.7764 99.4413 39.161 100.162 38.7187C100.893 38.2764 101.763 38.0553 102.773 38.0553C103.994 38.0553 104.994 38.3582 105.773 38.9639C106.561 39.5697 107.047 40.4254 107.23 41.5312H105.11C104.985 40.9927 104.725 40.5745 104.331 40.2764C103.936 39.9687 103.412 39.8149 102.759 39.8149C102.162 39.8149 101.648 39.9591 101.215 40.2476C100.792 40.5264 100.465 40.9254 100.235 41.4447C100.004 41.9543 99.8884 42.5697 99.8884 43.2908C99.8884 44.0023 100.004 44.6177 100.235 45.1369C100.465 45.6562 100.792 46.0552 101.215 46.334C101.648 46.6129 102.162 46.7523 102.759 46.7523C103.412 46.7523 103.932 46.6129 104.316 46.334C104.711 46.0456 104.975 45.6466 105.11 45.1369H107.23C107.047 46.185 106.561 47.0071 105.773 47.6033C104.994 48.1994 103.994 48.4975 102.773 48.4975ZM112.282 48.4975C111.59 48.4975 110.965 48.3388 110.407 48.0215C109.859 47.6946 109.421 47.2475 109.094 46.6802C108.777 46.1033 108.618 45.4446 108.618 44.7043C108.618 43.9543 108.777 43.2956 109.094 42.7283C109.421 42.1514 109.864 41.7043 110.421 41.387C110.979 41.0601 111.604 40.8966 112.296 40.8966C112.998 40.8966 113.623 41.0601 114.171 41.387C114.729 41.7043 115.166 42.1466 115.484 42.7139C115.811 43.2812 115.974 43.9446 115.974 44.7043C115.974 45.4446 115.811 46.1033 115.484 46.6802C115.166 47.2475 114.729 47.6946 114.171 48.0215C113.614 48.3388 112.984 48.4975 112.282 48.4975ZM112.282 46.81C112.609 46.81 112.897 46.7331 113.147 46.5792C113.407 46.4254 113.609 46.1898 113.753 45.8725C113.907 45.5552 113.984 45.161 113.984 44.6898C113.984 44.2187 113.907 43.8293 113.753 43.5216C113.609 43.2043 113.407 42.9687 113.147 42.8148C112.897 42.6514 112.614 42.5697 112.296 42.5697C111.989 42.5697 111.705 42.6514 111.445 42.8148C111.186 42.9687 110.979 43.2043 110.825 43.5216C110.681 43.8389 110.609 44.2331 110.609 44.7043C110.609 45.1658 110.681 45.5552 110.825 45.8725C110.979 46.1898 111.181 46.4254 111.431 46.5792C111.69 46.7331 111.974 46.81 112.282 46.81ZM117.652 48.3244V41.0697H119.369L119.527 42.0216C119.758 41.6754 120.061 41.4014 120.436 41.1995C120.82 40.9976 121.258 40.8966 121.748 40.8966C122.114 40.8966 122.441 40.9447 122.729 41.0408C123.018 41.1274 123.272 41.2668 123.494 41.4591C123.724 41.6418 123.912 41.8677 124.056 42.137C124.325 41.7524 124.676 41.4495 125.109 41.2283C125.551 41.0072 126.027 40.8966 126.537 40.8966C127.162 40.8966 127.686 41.0216 128.109 41.2716C128.532 41.5216 128.854 41.8918 129.075 42.3822C129.296 42.8629 129.407 43.4495 129.407 44.1418V48.3244H127.474V44.3293C127.474 43.7523 127.359 43.31 127.128 43.0023C126.897 42.685 126.546 42.5264 126.075 42.5264C125.768 42.5264 125.494 42.6033 125.253 42.7572C125.013 42.911 124.825 43.1322 124.691 43.4206C124.566 43.7091 124.503 44.06 124.503 44.4735V48.3244H122.556V44.3293C122.556 43.7523 122.441 43.31 122.21 43.0023C121.989 42.685 121.633 42.5264 121.143 42.5264C120.844 42.5264 120.575 42.6033 120.335 42.7572C120.104 42.911 119.921 43.1322 119.787 43.4206C119.662 43.7091 119.599 44.06 119.599 44.4735V48.3244H117.652ZM131.23 51.4975V41.0697H132.961L133.177 42.0649C133.331 41.8533 133.514 41.661 133.725 41.4879C133.937 41.3052 134.187 41.161 134.475 41.0552C134.773 40.9495 135.119 40.8966 135.514 40.8966C136.196 40.8966 136.797 41.0649 137.317 41.4014C137.836 41.7283 138.244 42.1802 138.543 42.7572C138.85 43.3245 139.004 43.9783 139.004 44.7187C139.004 45.4398 138.85 46.0889 138.543 46.6658C138.235 47.2331 137.821 47.6802 137.302 48.0071C136.783 48.334 136.192 48.4975 135.528 48.4975C134.99 48.4975 134.523 48.4013 134.129 48.209C133.744 48.0071 133.427 47.7331 133.177 47.3869V51.4975H131.23ZM135.067 46.7956C135.451 46.7956 135.788 46.709 136.076 46.536C136.374 46.3629 136.605 46.1177 136.769 45.8004C136.932 45.4831 137.014 45.1177 137.014 44.7043C137.014 44.2908 136.932 43.9254 136.769 43.6081C136.605 43.2908 136.374 43.0408 136.076 42.8581C135.788 42.6754 135.451 42.5841 135.067 42.5841C134.692 42.5841 134.355 42.6754 134.057 42.8581C133.769 43.0408 133.538 43.2908 133.365 43.6081C133.201 43.9158 133.119 44.2764 133.119 44.6898C133.119 45.1033 133.201 45.4735 133.365 45.8004C133.538 46.1177 133.769 46.3629 134.057 46.536C134.355 46.709 134.692 46.7956 135.067 46.7956ZM143.393 48.4975C142.806 48.4975 142.301 48.3773 141.878 48.1369C141.465 47.8869 141.147 47.5215 140.926 47.0408C140.705 46.56 140.595 45.9735 140.595 45.2812V41.0697H142.542V45.0793C142.542 45.6562 142.662 46.0985 142.902 46.4062C143.152 46.7042 143.532 46.8533 144.042 46.8533C144.359 46.8533 144.643 46.7812 144.893 46.6369C145.152 46.4831 145.354 46.2667 145.498 45.9879C145.643 45.6994 145.715 45.3485 145.715 44.935V41.0697H147.662V48.3244H145.96L145.801 47.1417C145.59 47.5552 145.277 47.8869 144.864 48.1369C144.45 48.3773 143.96 48.4975 143.393 48.4975ZM152.843 48.3244C152.333 48.3244 151.886 48.2475 151.501 48.0936C151.126 47.9302 150.833 47.6658 150.622 47.3004C150.41 46.9254 150.304 46.4158 150.304 45.7716V42.685H149.064V41.0697H150.304L150.521 39.0793H152.251V41.0697H154.17V42.685H152.251V45.8004C152.251 46.1273 152.323 46.3533 152.468 46.4783C152.612 46.6033 152.857 46.6658 153.203 46.6658H154.141V48.3244H152.843ZM155.837 48.3244V41.0697H157.785V48.3244H155.837ZM156.818 40.0601C156.462 40.0601 156.174 39.9591 155.953 39.7572C155.732 39.5456 155.621 39.2812 155.621 38.9639C155.621 38.6466 155.732 38.387 155.953 38.1851C156.174 37.9735 156.462 37.8678 156.818 37.8678C157.174 37.8678 157.462 37.9735 157.684 38.1851C157.914 38.387 158.03 38.6466 158.03 38.9639C158.03 39.2812 157.914 39.5456 157.684 39.7572C157.462 39.9591 157.174 40.0601 156.818 40.0601ZM159.752 48.3244V41.0697H161.468L161.613 42.2523C161.834 41.8389 162.146 41.512 162.55 41.2716C162.964 41.0216 163.454 40.8966 164.021 40.8966C164.627 40.8966 165.137 41.0216 165.55 41.2716C165.964 41.5216 166.276 41.887 166.488 42.3677C166.709 42.8485 166.819 43.4398 166.819 44.1418V48.3244H164.887V44.3148C164.887 43.7475 164.762 43.31 164.512 43.0023C164.271 42.685 163.896 42.5264 163.387 42.5264C163.06 42.5264 162.766 42.6033 162.507 42.7572C162.257 42.911 162.06 43.1322 161.915 43.4206C161.771 43.6995 161.699 44.0456 161.699 44.4591V48.3244H159.752ZM171.769 51.6705C171.077 51.6705 170.471 51.584 169.952 51.4109C169.433 51.2475 169.029 50.9927 168.741 50.6465C168.462 50.31 168.322 49.8917 168.322 49.3917C168.322 49.0552 168.409 48.7379 168.582 48.4398C168.755 48.1417 169.005 47.8725 169.332 47.6321C169.668 47.3821 170.087 47.1706 170.587 46.9975L171.322 47.9494C170.88 48.0936 170.558 48.2715 170.356 48.4831C170.164 48.7042 170.068 48.9398 170.068 49.1898C170.068 49.4109 170.14 49.5984 170.284 49.7523C170.438 49.9061 170.64 50.0167 170.89 50.084C171.149 50.1609 171.438 50.1994 171.755 50.1994C172.063 50.1994 172.327 50.1609 172.548 50.084C172.779 50.0071 172.957 49.8917 173.082 49.7379C173.217 49.5936 173.284 49.4206 173.284 49.2186C173.284 48.959 173.192 48.7475 173.01 48.584C172.827 48.4206 172.462 48.3196 171.914 48.2811C171.423 48.2427 170.986 48.1898 170.601 48.1225C170.226 48.0456 169.894 47.959 169.606 47.8629C169.318 47.7571 169.072 47.6417 168.87 47.5167C168.678 47.3917 168.519 47.2667 168.394 47.1417V46.81L169.938 45.1514L171.337 45.5985L169.519 47.3869L170.068 46.435C170.173 46.5023 170.274 46.5648 170.37 46.6225C170.476 46.6706 170.606 46.7139 170.76 46.7523C170.914 46.7908 171.116 46.8292 171.366 46.8677C171.616 46.9062 171.933 46.9398 172.317 46.9687C172.952 47.0264 173.471 47.1465 173.875 47.3292C174.289 47.5119 174.592 47.7571 174.784 48.0648C174.976 48.3629 175.072 48.7331 175.072 49.1754C175.072 49.6081 174.952 50.0119 174.712 50.3869C174.481 50.7715 174.12 51.0792 173.63 51.31C173.14 51.5504 172.519 51.6705 171.769 51.6705ZM171.769 46.1754C171.164 46.1754 170.64 46.06 170.197 45.8292C169.765 45.5889 169.428 45.2716 169.188 44.8773C168.957 44.4735 168.842 44.0264 168.842 43.536C168.842 43.0456 168.957 42.6033 169.188 42.2091C169.428 41.8052 169.765 41.4879 170.197 41.2572C170.64 41.0168 171.164 40.8966 171.769 40.8966C172.385 40.8966 172.909 41.0168 173.342 41.2572C173.784 41.4879 174.12 41.8052 174.351 42.2091C174.582 42.6033 174.697 43.0456 174.697 43.536C174.697 44.0264 174.582 44.4735 174.351 44.8773C174.12 45.2716 173.784 45.5889 173.342 45.8292C172.909 46.06 172.385 46.1754 171.769 46.1754ZM171.769 44.6898C172.144 44.6898 172.447 44.5937 172.678 44.4014C172.909 44.2091 173.024 43.9254 173.024 43.5504C173.024 43.1754 172.909 42.8918 172.678 42.6995C172.447 42.4975 172.144 42.3966 171.769 42.3966C171.404 42.3966 171.101 42.4975 170.861 42.6995C170.63 42.8918 170.515 43.1754 170.515 43.5504C170.515 43.9254 170.63 44.2091 170.861 44.4014C171.101 44.5937 171.404 44.6898 171.769 44.6898ZM172.967 42.4398L172.649 41.0697H175.649V42.2235L172.967 42.4398ZM180.669 48.3244V38.2283H182.991L186.078 44.5312L189.135 38.2283H191.458V48.3244H189.51V41.5312L186.842 46.911H185.299L182.616 41.5456V48.3244H180.669ZM195.853 48.4975C195.247 48.4975 194.747 48.4013 194.353 48.209C193.959 48.0071 193.665 47.7427 193.473 47.4158C193.281 47.0792 193.185 46.709 193.185 46.3052C193.185 45.8629 193.3 45.4735 193.531 45.1369C193.762 44.8004 194.103 44.536 194.555 44.3437C195.016 44.1514 195.593 44.0552 196.286 44.0552H198.088C198.088 43.6995 198.04 43.4062 197.944 43.1754C197.848 42.9447 197.699 42.7716 197.497 42.6562C197.295 42.5408 197.026 42.4831 196.689 42.4831C196.324 42.4831 196.011 42.5648 195.752 42.7283C195.502 42.8822 195.348 43.1177 195.29 43.435H193.401C193.449 42.9158 193.617 42.4687 193.906 42.0937C194.204 41.7091 194.593 41.4158 195.074 41.2139C195.564 41.0024 196.108 40.8966 196.704 40.8966C197.386 40.8966 197.978 41.012 198.478 41.2427C198.978 41.4639 199.362 41.7956 199.632 42.2379C199.901 42.6706 200.035 43.1995 200.035 43.8245V48.3244H198.391L198.175 47.2138C198.069 47.4062 197.944 47.5792 197.8 47.7331C197.656 47.8869 197.487 48.0215 197.295 48.1369C197.103 48.2523 196.886 48.3388 196.646 48.3965C196.406 48.4638 196.141 48.4975 195.853 48.4975ZM196.314 46.9975C196.564 46.9975 196.786 46.9542 196.978 46.8677C197.18 46.7715 197.353 46.6465 197.497 46.4927C197.641 46.3292 197.752 46.1465 197.829 45.9446C197.915 45.7331 197.973 45.5071 198.002 45.2667V45.2523H196.516C196.218 45.2523 195.973 45.2908 195.781 45.3677C195.598 45.4446 195.463 45.5504 195.377 45.685C195.29 45.81 195.247 45.9639 195.247 46.1465C195.247 46.3292 195.29 46.4831 195.377 46.6081C195.463 46.7331 195.588 46.8292 195.752 46.8965C195.915 46.9639 196.103 46.9975 196.314 46.9975ZM205.371 48.4975C204.64 48.4975 203.991 48.334 203.424 48.0071C202.857 47.6802 202.414 47.2331 202.097 46.6658C201.78 46.0985 201.621 45.4494 201.621 44.7187C201.621 43.9687 201.78 43.31 202.097 42.7427C202.414 42.1658 202.857 41.7139 203.424 41.387C203.991 41.0601 204.64 40.8966 205.371 40.8966C206.304 40.8966 207.087 41.1418 207.722 41.6322C208.357 42.1129 208.76 42.7812 208.934 43.637H206.871C206.785 43.3004 206.602 43.036 206.323 42.8437C206.054 42.6514 205.732 42.5552 205.357 42.5552C205.02 42.5552 204.717 42.6418 204.448 42.8148C204.188 42.9879 203.982 43.2331 203.828 43.5504C203.684 43.8677 203.611 44.2475 203.611 44.6898C203.611 45.0264 203.655 45.3292 203.741 45.5985C203.828 45.8581 203.948 46.0841 204.102 46.2764C204.256 46.459 204.438 46.5985 204.65 46.6946C204.871 46.7908 205.107 46.8389 205.357 46.8389C205.607 46.8389 205.833 46.7956 206.035 46.709C206.246 46.6225 206.424 46.5023 206.568 46.3485C206.712 46.185 206.813 45.9879 206.871 45.7571H208.934C208.76 46.5937 208.352 47.2619 207.708 47.7619C207.073 48.2523 206.294 48.4975 205.371 48.4975ZM210.613 48.3244V37.9399H212.56V42.137C212.8 41.762 213.118 41.4639 213.512 41.2427C213.916 41.012 214.382 40.8966 214.911 40.8966C215.517 40.8966 216.026 41.0216 216.44 41.2716C216.853 41.5216 217.166 41.8918 217.377 42.3822C217.589 42.8629 217.694 43.4543 217.694 44.1562V48.3244H215.762V44.3437C215.762 43.7668 215.642 43.3196 215.401 43.0023C215.161 42.685 214.781 42.5264 214.262 42.5264C213.944 42.5264 213.656 42.6081 213.396 42.7716C213.137 42.9254 212.93 43.1466 212.776 43.435C212.632 43.7235 212.56 44.0745 212.56 44.4879V48.3244H210.613ZM219.572 48.3244V41.0697H221.519V48.3244H219.572ZM220.552 40.0601C220.197 40.0601 219.908 39.9591 219.687 39.7572C219.466 39.5456 219.355 39.2812 219.355 38.9639C219.355 38.6466 219.466 38.387 219.687 38.1851C219.908 37.9735 220.197 37.8678 220.552 37.8678C220.908 37.8678 221.197 37.9735 221.418 38.1851C221.649 38.387 221.764 38.6466 221.764 38.9639C221.764 39.2812 221.649 39.5456 221.418 39.7572C221.197 39.9591 220.908 40.0601 220.552 40.0601ZM223.486 48.3244V41.0697H225.203L225.347 42.2523C225.568 41.8389 225.881 41.512 226.284 41.2716C226.698 41.0216 227.188 40.8966 227.756 40.8966C228.361 40.8966 228.871 41.0216 229.284 41.2716C229.698 41.5216 230.01 41.887 230.222 42.3677C230.443 42.8485 230.554 43.4398 230.554 44.1418V48.3244H228.621V44.3148C228.621 43.7475 228.496 43.31 228.246 43.0023C228.006 42.685 227.631 42.5264 227.121 42.5264C226.794 42.5264 226.501 42.6033 226.241 42.7572C225.991 42.911 225.794 43.1322 225.65 43.4206C225.506 43.6995 225.433 44.0456 225.433 44.4591V48.3244H223.486ZM235.864 48.4975C235.134 48.4975 234.484 48.3436 233.917 48.036C233.359 47.7187 232.922 47.2812 232.605 46.7235C232.297 46.1562 232.143 45.5023 232.143 44.7619C232.143 44.0023 232.297 43.3341 232.605 42.7572C232.912 42.1802 233.345 41.7283 233.903 41.4014C234.47 41.0649 235.124 40.8966 235.864 40.8966C236.585 40.8966 237.215 41.0552 237.754 41.3725C238.292 41.6802 238.71 42.1033 239.008 42.6418C239.316 43.1802 239.47 43.7956 239.47 44.4879C239.47 44.5841 239.465 44.6898 239.456 44.8052C239.456 44.9206 239.446 45.0408 239.427 45.1658H233.528V43.9831H237.494C237.465 43.5216 237.297 43.1562 236.989 42.887C236.691 42.6081 236.316 42.4687 235.864 42.4687C235.537 42.4687 235.234 42.5456 234.956 42.6995C234.677 42.8533 234.456 43.0841 234.292 43.3918C234.138 43.6898 234.061 44.0745 234.061 44.5456V44.9639C234.061 45.3581 234.134 45.7042 234.278 46.0023C234.432 46.2908 234.643 46.5167 234.912 46.6802C235.182 46.834 235.494 46.911 235.85 46.911C236.206 46.911 236.499 46.834 236.73 46.6802C236.97 46.5264 237.153 46.3292 237.278 46.0889H239.254C239.119 46.5408 238.893 46.9494 238.576 47.3148C238.258 47.6802 237.869 47.9687 237.408 48.1802C236.946 48.3917 236.432 48.4975 235.864 48.4975ZM241.05 48.3244V41.0697H242.781L242.968 42.3966C243.142 42.0889 243.358 41.8245 243.618 41.6033C243.887 41.3725 244.19 41.1995 244.526 41.0841C244.872 40.9591 245.252 40.8966 245.666 40.8966V42.9447H245.002C244.714 42.9447 244.444 42.9783 244.194 43.0456C243.954 43.1129 243.743 43.2235 243.56 43.3773C243.377 43.5312 243.238 43.7379 243.142 43.9975C243.045 44.2571 242.997 44.5841 242.997 44.9783V48.3244H241.05ZM247.875 51.4975L249.634 47.5167H249.202L246.288 41.0697H248.409L250.485 45.7427L252.36 41.0697H254.423L249.937 51.4975H247.875Z" fill="white"/>
<path d="M100.343 71.3962L97.4978 63.8241H98.4822L100.873 70.4334L103.285 63.8241H104.248L101.403 71.3962H100.343ZM105.307 71.3962V63.8241H106.216V71.3962H105.307ZM109.627 71.3962V64.5705H107.366V63.8241H112.796V64.5705H110.536V71.3962H109.627ZM119.276 71.526C118.721 71.526 118.238 71.425 117.827 71.2231C117.416 71.0212 117.099 70.7399 116.875 70.3794C116.651 70.0188 116.54 69.6005 116.54 69.1246H117.492C117.492 69.4202 117.56 69.6943 117.697 69.9467C117.834 70.1919 118.032 70.3902 118.292 70.5416C118.559 70.6858 118.887 70.758 119.276 70.758C119.615 70.758 119.904 70.7039 120.142 70.5957C120.387 70.4803 120.571 70.3253 120.693 70.1306C120.823 69.9358 120.888 69.7159 120.888 69.4707C120.888 69.1895 120.827 68.9587 120.704 68.7784C120.582 68.5909 120.412 68.4395 120.196 68.3241C119.987 68.2015 119.742 68.0969 119.46 68.0104C119.186 67.9166 118.894 67.8157 118.584 67.7075C117.964 67.5056 117.51 67.2532 117.221 66.9503C116.94 66.6474 116.799 66.2544 116.799 65.7712C116.799 65.3602 116.893 64.9996 117.081 64.6895C117.275 64.3794 117.549 64.1378 117.903 63.9647C118.263 63.7845 118.689 63.6943 119.179 63.6943C119.662 63.6943 120.081 63.7845 120.434 63.9647C120.794 64.145 121.076 64.3938 121.278 64.7111C121.48 65.0212 121.581 65.3818 121.581 65.7929H120.629C120.629 65.5837 120.575 65.3782 120.466 65.1763C120.358 64.9743 120.192 64.8085 119.969 64.6787C119.752 64.5417 119.478 64.4731 119.147 64.4731C118.873 64.4659 118.627 64.5128 118.411 64.6138C118.202 64.7075 118.036 64.8445 117.913 65.0248C117.798 65.2051 117.74 65.4251 117.74 65.6847C117.74 65.9299 117.791 66.1282 117.892 66.2796C118 66.4311 118.151 66.5609 118.346 66.669C118.548 66.77 118.782 66.8638 119.049 66.9503C119.316 67.0368 119.612 67.1342 119.936 67.2424C120.304 67.365 120.629 67.5164 120.91 67.6967C121.198 67.8698 121.422 68.0933 121.581 68.3673C121.746 68.6414 121.829 68.9911 121.829 69.4166C121.829 69.7772 121.732 70.1197 121.537 70.4443C121.35 70.7616 121.068 71.0212 120.693 71.2231C120.318 71.425 119.846 71.526 119.276 71.526ZM125.291 71.3962C124.966 71.3962 124.685 71.3457 124.447 71.2447C124.209 71.1438 124.025 70.9743 123.895 70.7363C123.773 70.4911 123.711 70.163 123.711 69.752V66.5609H122.738V65.7929H123.711L123.83 64.4082H124.62V65.7929H126.221V66.5609H124.62V69.752C124.62 70.0909 124.688 70.3217 124.825 70.4443C124.963 70.5596 125.204 70.6173 125.55 70.6173H126.188V71.3962H125.291ZM129.47 71.526C129.052 71.526 128.688 71.4467 128.378 71.288C128.067 71.1221 127.826 70.8733 127.653 70.5416C127.48 70.2099 127.393 69.7916 127.393 69.2868V65.7929H128.302V69.1895C128.302 69.7087 128.424 70.0981 128.67 70.3577C128.915 70.6173 129.25 70.7471 129.676 70.7471C129.971 70.7471 130.234 70.6786 130.465 70.5416C130.703 70.4046 130.891 70.2027 131.028 69.9358C131.172 69.669 131.244 69.3409 131.244 68.9515V65.7929H132.153V71.3962H131.331L131.277 70.4767C131.118 70.8084 130.88 71.068 130.563 71.2555C130.245 71.4358 129.881 71.526 129.47 71.526ZM136.06 71.526C135.548 71.526 135.093 71.3998 134.697 71.1474C134.307 70.8878 134.001 70.538 133.777 70.0981C133.561 69.651 133.453 69.1462 133.453 68.5837C133.453 68.014 133.561 67.5128 133.777 67.0801C134.001 66.6402 134.307 66.294 134.697 66.0416C135.093 65.7892 135.551 65.663 136.07 65.663C136.51 65.663 136.893 65.7532 137.217 65.9335C137.549 66.1138 137.808 66.3662 137.996 66.6907V63.6078H138.905V71.3962H138.082L137.996 70.4983C137.888 70.6714 137.743 70.8373 137.563 70.9959C137.39 71.1546 137.177 71.2844 136.925 71.3854C136.68 71.4791 136.391 71.526 136.06 71.526ZM136.168 70.7363C136.528 70.7363 136.842 70.6498 137.109 70.4767C137.383 70.3036 137.592 70.0548 137.736 69.7303C137.888 69.4058 137.963 69.0272 137.963 68.5945C137.963 68.1618 137.888 67.7868 137.736 67.4695C137.592 67.145 137.383 66.8962 137.109 66.7231C136.842 66.5428 136.528 66.4527 136.168 66.4527C135.829 66.4527 135.522 66.5428 135.248 66.7231C134.981 66.8962 134.769 67.145 134.61 67.4695C134.459 67.7868 134.383 68.1618 134.383 68.5945C134.383 69.0272 134.459 69.4058 134.61 69.7303C134.769 70.0548 134.981 70.3036 135.248 70.4767C135.522 70.6498 135.829 70.7363 136.168 70.7363ZM142.799 71.526C142.294 71.526 141.844 71.407 141.447 71.169C141.058 70.9238 140.751 70.5813 140.528 70.1414C140.304 69.7015 140.192 69.1859 140.192 68.5945C140.192 68.0032 140.304 67.4875 140.528 67.0476C140.751 66.6077 141.058 66.2688 141.447 66.0308C141.844 65.7856 142.302 65.663 142.821 65.663C143.362 65.663 143.816 65.7856 144.184 66.0308C144.559 66.2688 144.84 66.5897 145.028 66.9936C145.222 67.3974 145.32 67.8373 145.32 68.3133C145.32 68.3854 145.32 68.4611 145.32 68.5404C145.32 68.6125 145.316 68.6991 145.309 68.8H140.874V68.0969H144.422C144.407 67.5633 144.245 67.1522 143.935 66.8638C143.632 66.5753 143.254 66.4311 142.799 66.4311C142.496 66.4311 142.215 66.5032 141.955 66.6474C141.696 66.7916 141.483 67.0044 141.317 67.2856C141.159 67.5669 141.079 67.9202 141.079 68.3457V68.6486C141.079 69.1173 141.159 69.5104 141.317 69.8277C141.483 70.1378 141.696 70.3721 141.955 70.5308C142.215 70.6822 142.496 70.758 142.799 70.758C143.196 70.758 143.51 70.6786 143.74 70.52C143.978 70.3613 144.155 70.1342 144.27 69.8385H145.168C145.074 70.163 144.919 70.4515 144.703 70.7039C144.494 70.9563 144.227 71.1582 143.903 71.3096C143.585 71.4539 143.218 71.526 142.799 71.526ZM146.557 71.3962V65.7929H147.379L147.433 66.7123C147.599 66.3806 147.841 66.1246 148.158 65.9443C148.475 65.7568 148.839 65.663 149.25 65.663C149.669 65.663 150.033 65.746 150.343 65.9118C150.653 66.0705 150.895 66.3157 151.068 66.6474C151.241 66.9791 151.327 67.3974 151.327 67.9022V71.3962H150.419V67.9996C150.419 67.4803 150.296 67.0909 150.051 66.8313C149.806 66.5717 149.47 66.4419 149.045 66.4419C148.756 66.4419 148.49 66.514 148.244 66.6582C148.006 66.7952 147.815 66.9972 147.671 67.264C147.534 67.5236 147.466 67.8481 147.466 68.2375V71.3962H146.557ZM154.975 71.3962C154.65 71.3962 154.369 71.3457 154.131 71.2447C153.893 71.1438 153.709 70.9743 153.579 70.7363C153.457 70.4911 153.395 70.163 153.395 69.752V66.5609H152.422V65.7929H153.395L153.514 64.4082H154.304V65.7929H155.905V66.5609H154.304V69.752C154.304 70.0909 154.372 70.3217 154.509 70.4443C154.646 70.5596 154.888 70.6173 155.234 70.6173H155.872V71.3962H154.975ZM163.314 71.526C162.593 71.526 161.969 71.3637 161.443 71.0392C160.916 70.7075 160.509 70.2495 160.22 69.6654C159.932 69.0741 159.788 68.389 159.788 67.6101C159.788 66.8313 159.932 66.1498 160.22 65.5657C160.509 64.9743 160.916 64.5164 161.443 64.1919C161.969 63.8602 162.593 63.6943 163.314 63.6943C164.179 63.6943 164.879 63.8998 165.413 64.3109C165.954 64.7219 166.3 65.3025 166.451 66.0525H165.456C165.333 65.5837 165.095 65.2087 164.742 64.9275C164.396 64.639 163.92 64.4948 163.314 64.4948C162.795 64.4948 162.337 64.621 161.94 64.8734C161.551 65.1186 161.248 65.4755 161.032 65.9443C160.823 66.4058 160.718 66.9611 160.718 67.6101C160.718 68.2592 160.823 68.8181 161.032 69.2868C161.248 69.7483 161.551 70.1053 161.94 70.3577C162.337 70.6029 162.795 70.7255 163.314 70.7255C163.92 70.7255 164.396 70.5885 164.742 70.3144C165.095 70.0332 165.333 69.6618 165.456 69.2003H166.451C166.3 69.9286 165.954 70.4983 165.413 70.9094C164.879 71.3205 164.179 71.526 163.314 71.526ZM167.727 71.3962V63.6078H168.635V66.7123C168.823 66.3878 169.079 66.1318 169.403 65.9443C169.728 65.7568 170.081 65.663 170.463 65.663C170.896 65.663 171.264 65.746 171.567 65.9118C171.877 66.0777 172.115 66.3301 172.281 66.669C172.447 67.0008 172.529 67.4263 172.529 67.9455V71.3962H171.632V68.0428C171.632 67.5164 171.509 67.1198 171.264 66.8529C171.026 66.5789 170.694 66.4419 170.269 66.4419C169.973 66.4419 169.699 66.514 169.447 66.6582C169.201 66.8025 169.003 67.0152 168.852 67.2964C168.707 67.5705 168.635 67.9058 168.635 68.3024V71.3962H167.727ZM175.776 71.526C175.336 71.526 174.972 71.4467 174.683 71.288C174.395 71.1293 174.178 70.9166 174.034 70.6498C173.89 70.383 173.818 70.0981 173.818 69.7952C173.818 69.4202 173.912 69.1029 174.099 68.8433C174.294 68.5837 174.564 68.3854 174.91 68.2484C175.256 68.1113 175.66 68.0428 176.122 68.0428H177.55C177.55 67.6823 177.503 67.383 177.409 67.145C177.323 66.907 177.178 66.7303 176.976 66.615C176.782 66.4924 176.529 66.4311 176.219 66.4311C175.887 66.4311 175.599 66.514 175.354 66.6799C175.116 66.8457 174.968 67.0909 174.91 67.4154H173.98C174.023 67.0404 174.153 66.7231 174.369 66.4635C174.586 66.2039 174.856 66.0056 175.181 65.8686C175.505 65.7316 175.851 65.663 176.219 65.663C176.724 65.663 177.142 65.7568 177.474 65.9443C177.806 66.1246 178.051 66.3806 178.21 66.7123C178.375 67.0368 178.458 67.4226 178.458 67.8698V71.3962H177.647L177.593 70.4226C177.521 70.5741 177.427 70.7183 177.312 70.8553C177.204 70.9851 177.074 71.1005 176.922 71.2015C176.778 71.3024 176.609 71.3817 176.414 71.4394C176.219 71.4971 176.006 71.526 175.776 71.526ZM175.906 70.758C176.151 70.758 176.374 70.7039 176.576 70.5957C176.778 70.4875 176.951 70.3433 177.095 70.163C177.247 69.9827 177.359 69.7772 177.431 69.5464C177.51 69.3157 177.55 69.0777 177.55 68.8325V68.746H176.198C175.859 68.746 175.581 68.7892 175.365 68.8758C175.156 68.9623 175.004 69.0813 174.91 69.2327C174.817 69.3842 174.77 69.5572 174.77 69.752C174.77 69.9539 174.813 70.1306 174.9 70.282C174.986 70.4334 175.112 70.5524 175.278 70.639C175.451 70.7183 175.66 70.758 175.906 70.758ZM179.928 73.776V65.7929H180.75L180.836 66.6799C180.952 66.4996 181.096 66.3337 181.269 66.1823C181.449 66.0236 181.662 65.8974 181.907 65.8037C182.16 65.7099 182.452 65.663 182.783 65.663C183.295 65.663 183.746 65.7929 184.136 66.0525C184.525 66.3049 184.828 66.651 185.044 67.0909C185.261 67.5308 185.369 68.0356 185.369 68.6053C185.369 69.1678 185.261 69.669 185.044 70.1089C184.828 70.5488 184.521 70.895 184.125 71.1474C183.735 71.3998 183.285 71.526 182.773 71.526C182.333 71.526 181.943 71.4358 181.604 71.2555C181.273 71.0753 181.017 70.8229 180.836 70.4983V73.776H179.928ZM182.664 70.7363C183.011 70.7363 183.317 70.6498 183.584 70.4767C183.851 70.3036 184.06 70.0548 184.211 69.7303C184.37 69.4058 184.449 69.0272 184.449 68.5945C184.449 68.1618 184.37 67.7868 184.211 67.4695C184.06 67.145 183.851 66.8962 183.584 66.7231C183.317 66.5428 183.011 66.4527 182.664 66.4527C182.304 66.4527 181.987 66.5428 181.713 66.7231C181.446 66.8962 181.237 67.145 181.085 67.4695C180.941 67.7868 180.869 68.1618 180.869 68.5945C180.869 69.0272 180.941 69.4058 181.085 69.7303C181.237 70.0548 181.446 70.3036 181.713 70.4767C181.987 70.6498 182.304 70.7363 182.664 70.7363ZM188.652 71.3962C188.327 71.3962 188.046 71.3457 187.808 71.2447C187.57 71.1438 187.386 70.9743 187.256 70.7363C187.134 70.4911 187.072 70.163 187.072 69.752V66.5609H186.099V65.7929H187.072L187.191 64.4082H187.981V65.7929H189.582V66.5609H187.981V69.752C187.981 70.0909 188.05 70.3217 188.187 70.4443C188.324 70.5596 188.565 70.6173 188.911 70.6173H189.549V71.3962H188.652ZM193.04 71.526C192.535 71.526 192.085 71.407 191.688 71.169C191.299 70.9238 190.992 70.5813 190.769 70.1414C190.545 69.7015 190.433 69.1859 190.433 68.5945C190.433 68.0032 190.545 67.4875 190.769 67.0476C190.992 66.6077 191.299 66.2688 191.688 66.0308C192.085 65.7856 192.543 65.663 193.062 65.663C193.603 65.663 194.057 65.7856 194.425 66.0308C194.8 66.2688 195.081 66.5897 195.269 66.9936C195.463 67.3974 195.561 67.8373 195.561 68.3133C195.561 68.3854 195.561 68.4611 195.561 68.5404C195.561 68.6125 195.557 68.6991 195.55 68.8H191.115V68.0969H194.663C194.648 67.5633 194.486 67.1522 194.176 66.8638C193.873 66.5753 193.494 66.4311 193.04 66.4311C192.737 66.4311 192.456 66.5032 192.196 66.6474C191.937 66.7916 191.724 67.0044 191.558 67.2856C191.4 67.5669 191.32 67.9202 191.32 68.3457V68.6486C191.32 69.1173 191.4 69.5104 191.558 69.8277C191.724 70.1378 191.937 70.3721 192.196 70.5308C192.456 70.6822 192.737 70.758 193.04 70.758C193.437 70.758 193.75 70.6786 193.981 70.52C194.219 70.3613 194.396 70.1342 194.511 69.8385H195.409C195.315 70.163 195.16 70.4515 194.944 70.7039C194.735 70.9563 194.468 71.1582 194.144 71.3096C193.826 71.4539 193.458 71.526 193.04 71.526ZM196.798 71.3962V65.7929H197.62L197.696 66.8313C197.818 66.5789 197.981 66.3662 198.182 66.1931C198.392 66.02 198.64 65.8902 198.929 65.8037C199.217 65.7099 199.542 65.663 199.902 65.663V66.615H199.426C199.203 66.615 198.987 66.6438 198.777 66.7015C198.576 66.7592 198.392 66.8565 198.226 66.9936C198.067 67.1234 197.941 67.3037 197.847 67.5344C197.753 67.758 197.707 68.0428 197.707 68.389V71.3962H196.798Z" fill="white"/>
</g>
<defs>
<clipPath id="clip0_1476_40576">
<rect width="255" height="90.0374" fill="white"/>
</clipPath>
</defs>
</svg>
