<svg width="32" height="27" viewBox="0 0 32 27" fill="none" xmlns="http://www.w3.org/2000/svg">
<path d="M30.4 16.875H28.8V5.0625C28.8 3.71984 28.2943 2.43218 27.3941 1.48277C26.4939 0.533369 25.273 0 24 0H8C6.72696 0 5.50606 0.533369 4.60589 1.48277C3.70571 2.43218 3.2 3.71984 3.2 5.0625V16.875H1.6C1.17565 16.875 0.768687 17.0528 0.468629 17.3693C0.168571 17.6857 0 18.1149 0 18.5625V21.9375C0 23.2802 0.505713 24.5678 1.40589 25.5172C2.30606 26.4666 3.52696 27 4.8 27H27.2C28.473 27 29.6939 26.4666 30.5941 25.5172C31.4943 24.5678 32 23.2802 32 21.9375V18.5625C32 18.1149 31.8314 17.6857 31.5314 17.3693C31.2313 17.0528 30.8243 16.875 30.4 16.875ZM6.4 5.0625C6.4 4.61495 6.56857 4.18573 6.86863 3.86926C7.16869 3.55279 7.57565 3.375 8 3.375H24C24.4243 3.375 24.8313 3.55279 25.1314 3.86926C25.4314 4.18573 25.6 4.61495 25.6 5.0625V16.875H6.4V5.0625ZM28.8 21.9375C28.8 22.3851 28.6314 22.8143 28.3314 23.1307C28.0313 23.4472 27.6243 23.625 27.2 23.625H4.8C4.37565 23.625 3.96869 23.4472 3.66863 23.1307C3.36857 22.8143 3.2 22.3851 3.2 21.9375V20.25H28.8V21.9375Z" fill="black"/>
</svg>
