<svg width="345" height="375" viewBox="0 0 345 375" fill="none" xmlns="http://www.w3.org/2000/svg">
<g filter="url(#filter0_i_1918_6201)">
<rect width="344.179" height="375" rx="25" fill="#F6F8F6"/>
</g>
<rect x="1" y="1" width="342.179" height="373" rx="24" stroke="#617DA9" stroke-width="2"/>
<path d="M79.82 82V63.28H91.91V66.218H82.953V70.833H90.35V73.771H82.953V79.062H91.91V82H79.82ZM98.955 82.39C97.941 82.39 97.083 82.1993 96.381 81.818C95.679 81.428 95.146 80.9123 94.782 80.271C94.4267 79.6297 94.249 78.9233 94.249 78.152C94.249 77.476 94.3617 76.8693 94.587 76.332C94.8123 75.786 95.159 75.318 95.627 74.928C96.095 74.5293 96.7017 74.2043 97.447 73.953C98.0103 73.771 98.669 73.6063 99.423 73.459C100.186 73.3117 101.009 73.1773 101.893 73.056C102.786 72.926 103.717 72.7873 104.688 72.64L103.57 73.277C103.579 72.3063 103.362 71.5913 102.92 71.132C102.478 70.6727 101.733 70.443 100.684 70.443C100.051 70.443 99.4403 70.5903 98.851 70.885C98.2617 71.1797 97.85 71.6867 97.616 72.406L94.756 71.509C95.1027 70.3217 95.7613 69.3683 96.732 68.649C97.7113 67.9297 99.0287 67.57 100.684 67.57C101.932 67.57 103.028 67.7737 103.973 68.181C104.926 68.5883 105.633 69.2557 106.092 70.183C106.343 70.677 106.495 71.184 106.547 71.704C106.599 72.2153 106.625 72.7743 106.625 73.381V82H103.882V78.958L104.337 79.452C103.704 80.466 102.963 81.2113 102.114 81.688C101.273 82.156 100.22 82.39 98.955 82.39ZM99.579 79.894C100.29 79.894 100.896 79.7683 101.399 79.517C101.902 79.2657 102.3 78.958 102.595 78.594C102.898 78.23 103.102 77.8877 103.206 77.567C103.371 77.1683 103.462 76.7133 103.479 76.202C103.505 75.682 103.518 75.2617 103.518 74.941L104.48 75.227C103.535 75.3743 102.725 75.5043 102.049 75.617C101.373 75.7297 100.792 75.838 100.307 75.942C99.8217 76.0373 99.3927 76.1457 99.02 76.267C98.656 76.397 98.3483 76.5487 98.097 76.722C97.8457 76.8953 97.6507 77.0947 97.512 77.32C97.382 77.5453 97.317 77.8097 97.317 78.113C97.317 78.4597 97.4037 78.7673 97.577 79.036C97.7503 79.296 98.0017 79.504 98.331 79.66C98.669 79.816 99.085 79.894 99.579 79.894ZM115.43 82.39C113.697 82.39 112.289 82 111.205 81.22C110.122 80.44 109.463 79.3437 109.229 77.931L112.427 77.437C112.592 78.1303 112.956 78.6763 113.519 79.075C114.083 79.4737 114.793 79.673 115.651 79.673C116.405 79.673 116.986 79.5257 117.393 79.231C117.809 78.9277 118.017 78.516 118.017 77.996C118.017 77.6753 117.939 77.4197 117.783 77.229C117.636 77.0297 117.307 76.839 116.795 76.657C116.284 76.475 115.5 76.2453 114.442 75.968C113.264 75.656 112.328 75.3223 111.634 74.967C110.941 74.603 110.443 74.174 110.139 73.68C109.836 73.186 109.684 72.588 109.684 71.886C109.684 71.0107 109.914 70.248 110.373 69.598C110.833 68.948 111.474 68.4497 112.297 68.103C113.121 67.7477 114.091 67.57 115.209 67.57C116.301 67.57 117.268 67.739 118.108 68.077C118.958 68.415 119.642 68.896 120.162 69.52C120.682 70.144 121.003 70.8763 121.124 71.717L117.926 72.289C117.848 71.691 117.575 71.2187 117.107 70.872C116.648 70.5253 116.033 70.3303 115.261 70.287C114.525 70.2437 113.931 70.3563 113.48 70.625C113.03 70.885 112.804 71.2533 112.804 71.73C112.804 71.9987 112.895 72.2283 113.077 72.419C113.259 72.6097 113.623 72.8003 114.169 72.991C114.724 73.1817 115.547 73.4157 116.639 73.693C117.757 73.979 118.65 74.3083 119.317 74.681C119.993 75.045 120.479 75.4827 120.773 75.994C121.077 76.5053 121.228 77.125 121.228 77.853C121.228 79.2657 120.713 80.375 119.681 81.181C118.659 81.987 117.242 82.39 115.43 82.39ZM125.414 88.24L128.118 80.817L128.17 83.001L122.047 67.96H125.31L129.652 79.088H128.82L133.045 67.96H136.178L128.352 88.24H125.414ZM154.728 82.39C153.688 82.39 152.704 82.2383 151.777 81.935C150.858 81.623 150.091 81.1333 149.476 80.466C148.982 79.92 148.618 79.3263 148.384 78.685C148.159 78.035 148.033 77.3417 148.007 76.605C148.007 75.8857 148.111 75.188 148.319 74.512C148.536 73.836 148.865 73.238 149.307 72.718C149.48 72.51 149.667 72.328 149.866 72.172C150.074 72.0073 150.282 71.86 150.49 71.73C149.979 71.158 149.589 70.6033 149.32 70.066C149.06 69.5287 148.93 68.896 148.93 68.168C148.93 67.076 149.225 66.0967 149.814 65.23C150.403 64.3633 151.205 63.7393 152.219 63.358C152.661 63.1933 153.107 63.0807 153.558 63.02C154.017 62.9593 154.464 62.929 154.897 62.929C155.712 62.929 156.496 63.0547 157.25 63.306C158.004 63.5487 158.645 63.9473 159.174 64.502C159.512 64.8227 159.794 65.1867 160.019 65.594C160.244 65.9927 160.413 66.4043 160.526 66.829L157.432 67.492C157.311 67.102 157.098 66.7683 156.795 66.491C156.535 66.2397 156.227 66.075 155.872 65.997C155.517 65.9103 155.166 65.867 154.819 65.867C154.264 65.867 153.775 65.9667 153.35 66.166C152.925 66.3653 152.609 66.634 152.401 66.972C152.202 67.31 152.102 67.7217 152.102 68.207C152.102 68.6403 152.18 68.987 152.336 69.247C152.501 69.507 152.7 69.7713 152.934 70.04C153.09 70.2133 153.281 70.404 153.506 70.612C153.731 70.82 153.965 71.0367 154.208 71.262L158.914 75.617C158.923 75.4437 158.927 75.2573 158.927 75.058C158.927 74.85 158.927 74.655 158.927 74.473V72.185H161.683V75.578C161.683 76.046 161.67 76.501 161.644 76.943C161.618 77.3763 161.566 77.736 161.488 78.022L163.815 80.154L161.8 82.299L159.993 80.583C159.551 80.999 159.066 81.337 158.537 81.597C158.008 81.857 157.475 82.0433 156.938 82.156C156.548 82.2513 156.175 82.312 155.82 82.338C155.465 82.3727 155.101 82.39 154.728 82.39ZM154.858 79.413C155.127 79.413 155.378 79.4 155.612 79.374C155.855 79.348 156.089 79.296 156.314 79.218C156.635 79.1227 156.908 79.01 157.133 78.88C157.367 78.75 157.571 78.6157 157.744 78.477L152.791 73.927C152.557 74.0137 152.345 74.1263 152.154 74.265C151.972 74.395 151.816 74.5423 151.686 74.707C151.521 74.9237 151.391 75.1793 151.296 75.474C151.209 75.76 151.166 76.0763 151.166 76.423C151.175 76.8217 151.24 77.177 151.361 77.489C151.482 77.7923 151.643 78.0653 151.842 78.308C152.154 78.7067 152.6 78.9927 153.181 79.166C153.762 79.3307 154.321 79.413 154.858 79.413ZM171.125 82V63.28H182.396V66.413H174.258V71.08H180.836V74.2H174.258V82H171.125ZM184.994 82V62.89H188.127V82H184.994ZM198.404 82.39C196.983 82.39 195.735 82.0823 194.66 81.467C193.586 80.8517 192.745 79.998 192.138 78.906C191.54 77.814 191.241 76.5573 191.241 75.136C191.241 73.602 191.536 72.2717 192.125 71.145C192.715 70.0097 193.534 69.13 194.582 68.506C195.631 67.882 196.844 67.57 198.222 67.57C199.678 67.57 200.913 67.9123 201.927 68.597C202.95 69.273 203.708 70.2307 204.202 71.47C204.696 72.7093 204.883 74.1697 204.761 75.851H201.654V74.707C201.646 73.1817 201.377 72.068 200.848 71.366C200.32 70.664 199.488 70.313 198.352 70.313C197.07 70.313 196.116 70.7117 195.492 71.509C194.868 72.2977 194.556 73.4547 194.556 74.98C194.556 76.4013 194.868 77.502 195.492 78.282C196.116 79.062 197.026 79.452 198.222 79.452C198.994 79.452 199.657 79.283 200.211 78.945C200.775 78.5983 201.208 78.1 201.511 77.45L204.605 78.386C204.068 79.6513 203.236 80.635 202.109 81.337C200.991 82.039 199.756 82.39 198.404 82.39ZM193.568 75.851V73.485H203.227V75.851H193.568ZM205.594 82L210.729 74.902L205.698 67.96H209.39L212.549 72.445L215.656 67.96H219.348L214.317 74.902L219.478 82H215.786L212.549 77.359L209.286 82H205.594ZM221.81 65.828V62.955H224.943V65.828H221.81ZM221.81 82V67.96H224.943V82H221.81ZM235.585 82.39C234.215 82.39 233.067 82.065 232.14 81.415C231.212 80.765 230.515 79.881 230.047 78.763C229.579 77.6363 229.345 76.3753 229.345 74.98C229.345 73.5673 229.579 72.302 230.047 71.184C230.515 70.066 231.199 69.1863 232.101 68.545C233.011 67.895 234.133 67.57 235.468 67.57C236.794 67.57 237.942 67.895 238.913 68.545C239.892 69.1863 240.65 70.066 241.188 71.184C241.725 72.2933 241.994 73.5587 241.994 74.98C241.994 76.384 241.729 77.645 241.201 78.763C240.672 79.881 239.927 80.765 238.965 81.415C238.003 82.065 236.876 82.39 235.585 82.39ZM228.812 82V63.28H231.971V72.146H231.581V82H228.812ZM235.104 79.582C235.918 79.582 236.59 79.3783 237.119 78.971C237.647 78.5637 238.037 78.0133 238.289 77.32C238.549 76.618 238.679 75.838 238.679 74.98C238.679 74.1307 238.549 73.3593 238.289 72.666C238.029 71.964 237.626 71.4093 237.08 71.002C236.534 70.586 235.84 70.378 235 70.378C234.202 70.378 233.552 70.573 233.05 70.963C232.547 71.3443 232.174 71.8817 231.932 72.575C231.698 73.2597 231.581 74.0613 231.581 74.98C231.581 75.89 231.698 76.6917 231.932 77.385C232.174 78.0783 232.551 78.62 233.063 79.01C233.583 79.3913 234.263 79.582 235.104 79.582ZM245.119 82V62.89H248.252V82H245.119ZM258.529 82.39C257.108 82.39 255.86 82.0823 254.785 81.467C253.711 80.8517 252.87 79.998 252.263 78.906C251.665 77.814 251.366 76.5573 251.366 75.136C251.366 73.602 251.661 72.2717 252.25 71.145C252.84 70.0097 253.659 69.13 254.707 68.506C255.756 67.882 256.969 67.57 258.347 67.57C259.803 67.57 261.038 67.9123 262.052 68.597C263.075 69.273 263.833 70.2307 264.327 71.47C264.821 72.7093 265.008 74.1697 264.886 75.851H261.779V74.707C261.771 73.1817 261.502 72.068 260.973 71.366C260.445 70.664 259.613 70.313 258.477 70.313C257.195 70.313 256.241 70.7117 255.617 71.509C254.993 72.2977 254.681 73.4547 254.681 74.98C254.681 76.4013 254.993 77.502 255.617 78.282C256.241 79.062 257.151 79.452 258.347 79.452C259.119 79.452 259.782 79.283 260.336 78.945C260.9 78.5983 261.333 78.1 261.636 77.45L264.73 78.386C264.193 79.6513 263.361 80.635 262.234 81.337C261.116 82.039 259.881 82.39 258.529 82.39ZM253.693 75.851V73.485H263.352V75.851H253.693Z" fill="url(#paint0_linear_1918_6201)"/>
<path d="M324 303.375H24V303.498H324V303.375Z" fill="#EBEBEB"/>
<path d="M293.941 311.262H274.067V311.385H293.941V311.262Z" fill="#EBEBEB"/>
<path d="M187.933 309.727H180.201V309.85H187.933V309.727Z" fill="#EBEBEB"/>
<path d="M233.8 310.244H217.516V310.367H233.8V310.244Z" fill="#EBEBEB"/>
<path d="M273.467 306.712H239.8V306.834H273.467V306.712Z" fill="#EBEBEB"/>
<path d="M71.3915 312.381H55.4753V312.504H71.3915V312.381Z" fill="#EBEBEB"/>
<path d="M90.5334 312.381H76.7334V312.504H90.5334V312.381Z" fill="#EBEBEB"/>
<path d="M139.088 309.666H102.6V309.788H139.088V309.666Z" fill="#EBEBEB"/>
<path d="M166.208 281.522H50.349C48.4608 281.522 46.9242 280.267 46.9242 278.725V145.723C46.9242 144.181 48.4608 142.927 50.349 142.927H166.208C168.096 142.927 169.633 144.181 169.633 145.723V278.725C169.633 280.267 168.096 281.522 166.208 281.522ZM50.349 143.05C48.543 143.05 47.0742 144.249 47.0742 145.724V278.726C47.0742 280.201 48.543 281.4 50.349 281.4H166.208C168.014 281.4 169.483 280.201 169.483 278.726V145.723C169.483 144.249 168.014 143.049 166.208 143.049L50.349 143.05Z" fill="#EBEBEB"/>
<path d="M295.986 281.522H180.127C178.239 281.522 176.703 280.267 176.703 278.725V145.723C176.703 144.181 178.24 142.927 180.127 142.927H295.986C297.875 142.927 299.411 144.181 299.411 145.723V278.725C299.411 280.267 297.875 281.522 295.986 281.522ZM180.127 143.05C178.322 143.05 176.853 144.249 176.853 145.724V278.726C176.853 280.201 178.322 281.4 180.127 281.4H295.986C297.792 281.4 299.261 280.201 299.261 278.726V145.723C299.261 144.249 297.792 143.049 295.986 143.049L180.127 143.05Z" fill="#EBEBEB"/>
<path d="M68.7985 239.129H157.829V162.404H68.7985L68.7985 239.129Z" fill="#E6E6E6"/>
<path d="M65.0213 239.129H156.064V162.404H65.0213L65.0213 239.129Z" fill="#F0F0F0"/>
<path d="M68.7985 241.996H157.829V239.129H68.7985V241.996Z" fill="#E6E6E6"/>
<path d="M58.7276 241.996H149.77V239.129H58.7276V241.996Z" fill="#F0F0F0"/>
<path d="M150.775 234.81L150.775 166.723H70.3096L70.3096 234.81H150.775Z" fill="#FAFAFA"/>
<path d="M123.371 234.81L110.605 166.723H95.9519L108.718 234.81H123.371Z" fill="white"/>
<path d="M105.569 234.81L92.8038 166.723H87.0912L99.8568 234.81H105.569Z" fill="white"/>
<path d="M70.9812 234.81L70.9812 166.724H70.3098L70.3098 234.81H70.9812Z" fill="#E6E6E6"/>
<path d="M152.52 198.045H68.5643V203.489H152.52V198.045Z" fill="#F0F0F0"/>
<path d="M187.933 303.375H198.171L198.171 202.2H187.933L187.933 303.375Z" fill="#E6E6E6"/>
<path d="M190.625 303.375H187.933V299.268H193.448L190.625 303.375Z" fill="#F0F0F0"/>
<path d="M270.782 303.375H281.02V202.2H270.782V303.375Z" fill="#E6E6E6"/>
<path d="M187.933 301.942H273.131V202.2H187.933V301.942Z" fill="#F0F0F0"/>
<path d="M191.968 232.734H269.096C270.171 232.734 271.043 232.022 271.043 231.144V205.423C271.043 204.545 270.171 203.833 269.096 203.833H191.968C190.893 203.833 190.021 204.545 190.021 205.423V231.144C190.021 232.022 190.893 232.734 191.968 232.734Z" fill="#E6E6E6"/>
<path d="M270.439 303.375H273.131V299.268H267.617L270.439 303.375Z" fill="#F0F0F0"/>
<path d="M191.968 266.305H269.096C270.171 266.305 271.043 265.594 271.043 264.715V238.995C271.043 238.117 270.171 237.405 269.096 237.405H191.968C190.893 237.405 190.021 238.117 190.021 238.995V264.716C190.021 265.594 190.893 266.305 191.968 266.305Z" fill="#E6E6E6"/>
<path d="M191.968 299.877H269.096C270.171 299.877 271.043 299.165 271.043 298.287V272.566C271.043 271.688 270.171 270.976 269.096 270.976H191.968C190.893 270.976 190.021 271.688 190.021 272.566V298.287C190.021 299.165 190.893 299.877 191.968 299.877Z" fill="#E6E6E6"/>
<path d="M214.248 207.398H245.008C246.306 207.398 247.546 205.823 248.439 203.041H210.818C211.71 205.823 212.95 207.398 214.248 207.398Z" fill="#F0F0F0"/>
<path d="M214.248 240.97H245.008C246.306 240.97 247.546 239.394 248.439 236.613H210.818C211.71 239.394 212.95 240.97 214.248 240.97Z" fill="#F0F0F0"/>
<path d="M214.248 274.541H245.008C246.306 274.541 247.546 272.966 248.439 270.184H210.818C211.71 272.966 212.95 274.541 214.248 274.541Z" fill="#F0F0F0"/>
<path d="M252.287 188.196C252.287 188.196 252.424 202.314 257.643 202.314C262.862 202.314 262.999 188.196 262.999 188.196H252.287Z" fill="#E6E6E6"/>
<path d="M196 188.298C196 188.298 196.339 202.314 209.339 202.314C222.34 202.314 222.679 188.298 222.679 188.298H196Z" fill="#E6E6E6"/>
<path d="M212.622 191.818C212.622 191.818 212.876 202.313 222.611 202.313C232.346 202.313 232.601 191.818 232.601 191.818H212.622Z" fill="#F0F0F0"/>
<path d="M225.622 194.62C225.622 194.62 225.808 202.314 232.944 202.314C240.08 202.314 240.266 194.62 240.266 194.62H225.622Z" fill="#EBEBEB"/>
<path d="M261.022 190.27C260.958 190.27 260.894 190.258 260.832 190.233C260.263 189.996 255.282 187.86 255.62 185.77C255.749 184.969 256.253 184.322 256.698 183.75C257.393 182.858 257.896 182.212 257.026 181.246C255.694 179.764 257.148 178.554 258.431 177.487C259.035 176.985 259.661 176.465 260.013 175.928C260.541 175.123 260.116 174.51 259.528 173.662C259.026 172.937 258.456 172.116 258.433 171.015C258.357 167.411 261.849 165.792 261.998 165.725C262.199 165.635 262.453 165.694 262.565 165.858C262.677 166.023 262.604 166.23 262.403 166.323C262.272 166.382 259.202 167.82 259.269 171.003C259.289 171.931 259.781 172.64 260.256 173.325C260.866 174.205 261.496 175.114 260.75 176.251C260.341 176.874 259.673 177.429 259.028 177.966C257.639 179.12 256.832 179.877 257.7 180.842C258.908 182.185 258.109 183.212 257.404 184.118C256.986 184.654 256.554 185.209 256.448 185.86C256.227 187.229 259.811 189.042 261.211 189.625C261.417 189.711 261.499 189.917 261.394 190.085C261.321 190.202 261.174 190.27 261.022 190.27Z" fill="#E6E6E6"/>
<path d="M264.073 156.997C264.073 156.997 257.38 162.861 261.911 166.562C270.116 166.561 264.073 156.997 264.073 156.997Z" fill="#F0F0F0"/>
<path d="M254.564 158.687C254.564 158.687 255.151 166.689 261.558 166.56C267.214 161.707 254.564 158.687 254.564 158.687Z" fill="#F0F0F0"/>
<path d="M267.017 171.684C267.017 171.684 260.1 171.323 259.653 175C263.325 178.66 267.017 171.684 267.017 171.684Z" fill="#F0F0F0"/>
<path d="M254.047 166.346C254.047 166.346 254.863 171.967 259.373 171.661C263.116 168.051 254.047 166.346 254.047 166.346Z" fill="#F0F0F0"/>
<path d="M253.671 176.481C253.671 176.481 257.774 177.937 256.705 180.156C253.277 181.375 253.671 176.481 253.671 176.481Z" fill="#F0F0F0"/>
<path d="M260.447 180.351C260.447 180.351 259.679 183.088 257.476 182.742C255.863 180.799 260.447 180.351 260.447 180.351Z" fill="#F0F0F0"/>
<path d="M263.032 177.62C263.032 177.62 259.572 179.936 257.642 178.146C257.881 175.098 263.032 177.62 263.032 177.62Z" fill="#F0F0F0"/>
<path d="M109.839 257.826H67.3212V303.375H109.839V257.826Z" fill="#F5F5F5"/>
<path d="M72.109 299.187L72.109 262.014H71.3704L71.3704 299.187H72.109Z" fill="#E6E6E6"/>
<path d="M105.115 262.014H71.3706V262.778H105.115V262.014Z" fill="#E6E6E6"/>
<path d="M153.095 257.826H110.578V303.375H153.095V257.826Z" fill="#F5F5F5"/>
<path d="M153.095 303.375H157.334V257.826H153.095V303.375Z" fill="#E0E0E0"/>
<path d="M115.365 299.187L115.365 262.014H114.626L114.626 299.187H115.365Z" fill="#E6E6E6"/>
<path d="M110.578 303.376L110.578 258.437H109.839L109.839 303.376H110.578Z" fill="#E6E6E6"/>
<path d="M148.371 262.014H114.627V262.778H148.371V262.014Z" fill="#E6E6E6"/>
<path d="M107.639 262.396C108.079 262.396 108.436 262.687 108.436 263.046V273.627C108.436 273.986 108.079 274.278 107.639 274.278C107.2 274.278 106.844 273.986 106.844 273.627V263.046C106.844 262.687 107.2 262.396 107.639 262.396Z" fill="#E0E0E0"/>
<path d="M112.777 262.396C113.216 262.396 113.573 262.687 113.573 263.046V273.627C113.573 273.986 113.216 274.278 112.777 274.278C112.337 274.278 111.981 273.986 111.981 273.627V263.046C111.981 262.687 112.337 262.396 112.777 262.396Z" fill="#E0E0E0"/>
<path d="M158.7 256.275H66V258.436H158.7V256.275Z" fill="#EBEBEB"/>
<path d="M158.7 256.275H151.3V258.436H158.7V256.275Z" fill="#E0E0E0"/>
<path d="M174 325.505C238.249 325.505 290.333 323.021 290.333 319.957C290.333 316.892 238.249 314.408 174 314.408C109.751 314.408 57.6666 316.892 57.6666 319.957C57.6666 323.021 109.751 325.505 174 325.505Z" fill="#F5F5F5"/>
<path d="M279.652 167.31L279.446 167.771L291.266 171.299L291.472 170.838L279.652 167.31Z" fill="#617DA9"/>
<path d="M272.88 165.289L272.674 165.749L276.445 166.874L276.651 166.414L272.88 165.289Z" fill="#617DA9"/>
<path d="M235.544 155.964L297.974 174.599C301.505 175.653 303.338 178.875 302.048 181.758L254.251 288.554C252.96 291.438 249.015 292.935 245.484 291.881L183.054 273.246C179.523 272.192 177.69 268.97 178.981 266.087L226.778 159.291C228.068 156.407 232.013 154.91 235.544 155.964Z" fill="#617DA9"/>
<path d="M251.828 287.757L299.567 181.092C300.447 179.126 299.209 176.949 296.8 176.23L233.534 157.346C231.126 156.627 228.46 157.638 227.581 159.605L179.842 266.27C178.962 268.237 180.2 270.414 182.608 271.133L245.875 290.017C248.283 290.735 250.948 289.724 251.828 287.757Z" fill="white"/>
<path d="M272.234 168.146C270.431 170.122 267.254 170.897 264.42 170.051L263.162 169.676C260.329 168.83 258.511 166.564 258.694 164.105L272.234 168.146Z" fill="#617DA9"/>
<path opacity="0.1" d="M249.992 287.229C250.581 287.404 251.239 287.155 251.453 286.674L298.344 181.904C298.559 181.423 298.253 180.886 297.665 180.71C297.076 180.534 296.419 180.784 296.204 181.265L249.313 286.036C249.098 286.517 249.404 287.053 249.992 287.229Z" fill="#263238"/>
<path opacity="0.1" d="M181.663 266.833C182.251 267.008 182.909 266.759 183.124 266.278L230.014 161.507C230.229 161.027 229.924 160.49 229.335 160.314C228.746 160.138 228.089 160.388 227.874 160.869L180.983 265.64C180.769 266.12 181.074 266.657 181.663 266.833Z" fill="#263238"/>
<g opacity="0.9">
<path d="M248.785 279.037L268.076 177.095C268.55 174.595 266.452 172.255 263.39 171.869L204.256 164.405C201.194 164.019 198.329 165.732 197.856 168.233L178.565 270.175C178.092 272.675 180.19 275.014 183.251 275.401L242.386 282.865C245.447 283.251 248.312 281.537 248.785 279.037Z" fill="white"/>
<path d="M243.245 283.163C242.946 283.163 242.644 283.144 242.339 283.106L183.205 275.643C179.984 275.236 177.77 272.767 178.268 270.137L197.559 168.195C197.8 166.921 198.634 165.801 199.907 165.039C201.181 164.277 202.744 163.968 204.301 164.164L263.435 171.627C264.995 171.824 266.368 172.505 267.3 173.545C268.232 174.585 268.613 175.859 268.372 177.132L249.081 279.074C248.631 281.455 246.109 283.163 243.245 283.163ZM203.387 164.595C202.268 164.595 201.182 164.884 200.262 165.434C199.118 166.118 198.368 167.126 198.152 168.27L178.861 270.212C178.644 271.356 178.986 272.501 179.824 273.436C180.661 274.37 181.895 274.982 183.296 275.159L242.431 282.622C245.324 282.986 248.041 281.362 248.488 278.999L267.78 177.057C267.997 175.913 267.655 174.768 266.817 173.834C265.979 172.899 264.746 172.287 263.345 172.11L204.209 164.647C203.935 164.612 203.66 164.595 203.387 164.595Z" fill="#617DA9"/>
<path d="M253.963 212.113C253.669 212.113 253.372 212.095 253.076 212.058L199.233 205.262C197.72 205.071 196.388 204.41 195.483 203.401C194.578 202.392 194.209 201.156 194.443 199.92L198.387 179.076C198.621 177.84 199.43 176.753 200.665 176.014C201.901 175.274 203.416 174.973 204.928 175.164L258.771 181.959C261.895 182.354 264.044 184.75 263.561 187.301L259.617 208.145C259.383 209.381 258.574 210.469 257.338 211.208C256.345 211.802 255.172 212.113 253.963 212.113ZM204.042 175.598C202.96 175.598 201.91 175.876 201.02 176.408C199.914 177.07 199.189 178.043 198.98 179.15L195.035 199.994C194.826 201.101 195.157 202.208 195.967 203.111C196.777 204.015 197.969 204.606 199.324 204.777L253.167 211.573C254.524 211.743 255.878 211.473 256.984 210.812C258.09 210.151 258.814 209.177 259.024 208.07L262.968 187.226C263.4 184.942 261.476 182.796 258.679 182.443L204.836 175.648C204.571 175.614 204.305 175.598 204.042 175.598Z" fill="#617DA9"/>
<path d="M246.789 243.797C246.43 243.797 246.067 243.775 245.701 243.728L194.556 237.273C190.688 236.785 188.027 233.818 188.625 230.659C189.223 227.5 192.858 225.328 196.724 225.815L247.869 232.271C249.743 232.507 251.392 233.325 252.512 234.575C253.632 235.824 254.089 237.354 253.8 238.885C253.259 241.745 250.229 243.797 246.789 243.797ZM195.636 226.237C192.487 226.237 189.713 228.115 189.218 230.734C188.671 233.626 191.106 236.342 194.647 236.789L245.792 243.244C249.334 243.69 252.66 241.702 253.207 238.81C253.472 237.409 253.053 236.008 252.028 234.864C251.002 233.721 249.493 232.972 247.778 232.755L196.633 226.3C196.298 226.258 195.965 226.237 195.636 226.237Z" fill="#617DA9"/>
<path d="M244.192 257.523C243.833 257.523 243.469 257.501 243.104 257.455L191.959 251C188.09 250.511 185.43 247.544 186.028 244.386C186.317 242.856 187.319 241.509 188.849 240.594C190.379 239.679 192.254 239.306 194.126 239.543L245.272 245.997C249.14 246.486 251.8 249.452 251.203 252.611C250.661 255.472 247.631 257.523 244.192 257.523ZM193.028 239.963C191.659 239.963 190.329 240.316 189.203 240.99C187.803 241.827 186.886 243.06 186.621 244.461C186.074 247.353 188.509 250.069 192.05 250.516L243.196 256.971C246.739 257.415 250.063 255.428 250.61 252.537C251.157 249.645 248.722 246.928 245.18 246.482L194.035 240.027C193.699 239.984 193.363 239.963 193.028 239.963Z" fill="#617DA9"/>
<path d="M241.605 271.251C241.24 271.251 240.873 271.228 240.506 271.181L189.361 264.727C185.492 264.239 182.832 261.272 183.43 258.113C184.028 254.954 187.662 252.781 191.528 253.269L242.674 259.724C244.547 259.96 246.196 260.779 247.316 262.028C248.437 263.278 248.894 264.808 248.605 266.338L248.308 266.301L248.605 266.339C248.315 267.869 247.313 269.216 245.783 270.13C244.554 270.865 243.101 271.251 241.605 271.251ZM190.441 253.69C187.292 253.69 184.519 255.569 184.023 258.187C183.476 261.079 185.911 263.795 189.452 264.242L240.598 270.697C242.313 270.913 244.029 270.571 245.429 269.734C246.83 268.897 247.747 267.664 248.012 266.263C248.277 264.862 247.858 263.461 246.833 262.317C245.807 261.174 244.298 260.425 242.583 260.208L191.438 253.753C191.103 253.711 190.77 253.69 190.441 253.69Z" fill="#617DA9"/>
<path d="M250.646 222.214C250.52 222.214 250.392 222.206 250.263 222.19L224.677 218.961C224.017 218.877 223.436 218.589 223.041 218.149C222.646 217.709 222.485 217.169 222.587 216.63C222.798 215.518 224.078 214.751 225.441 214.924L251.026 218.153C251.687 218.236 252.268 218.524 252.662 218.964C253.057 219.404 253.218 219.944 253.116 220.483C252.926 221.491 251.858 222.214 250.646 222.214ZM225.058 215.389C224.137 215.389 223.326 215.939 223.181 216.705C223.103 217.114 223.226 217.525 223.526 217.859C223.826 218.194 224.267 218.413 224.769 218.476L250.355 221.705C250.857 221.768 251.359 221.669 251.768 221.424C252.178 221.179 252.446 220.818 252.524 220.408C252.601 219.999 252.479 219.588 252.179 219.254C251.879 218.919 251.437 218.7 250.936 218.637L225.35 215.408C225.251 215.396 225.154 215.389 225.058 215.389Z" fill="#263238"/>
<path d="M249.529 228.122C249.402 228.122 249.274 228.114 249.145 228.098L212.792 223.51C212.131 223.426 211.55 223.138 211.156 222.698C210.761 222.258 210.6 221.719 210.702 221.18C210.804 220.64 211.157 220.166 211.696 219.843C212.234 219.521 212.896 219.39 213.555 219.473L249.908 224.061C251.272 224.233 252.209 225.278 251.998 226.391C251.808 227.399 250.74 228.122 249.529 228.122ZM213.169 219.938C212.769 219.938 212.38 220.042 212.05 220.239C211.64 220.484 211.372 220.844 211.295 221.254C211.217 221.664 211.34 222.074 211.64 222.408C211.94 222.743 212.381 222.962 212.883 223.025L249.236 227.614C250.272 227.747 251.245 227.163 251.405 226.317C251.566 225.471 250.853 224.676 249.817 224.545L213.464 219.958C213.365 219.945 213.267 219.938 213.169 219.938Z" fill="#263238"/>
<path d="M215.326 195.641C218.387 192.915 218.162 188.678 214.823 186.177C211.484 183.677 206.296 183.861 203.235 186.588C200.173 189.315 200.399 193.552 203.737 196.052C207.076 198.552 212.265 198.368 215.326 195.641Z" fill="#617DA9"/>
</g>
<g opacity="0.9">
<path d="M203.602 281.528L206.992 178.413C207.075 175.884 204.632 173.779 201.535 173.712L141.72 172.4C138.623 172.332 136.046 174.328 135.963 176.856L132.573 279.972C132.49 282.5 134.933 284.605 138.029 284.673L197.845 285.984C200.941 286.052 203.518 284.057 203.602 281.528Z" fill="#617DA9"/>
<path opacity="0.1" d="M203.602 281.528L206.992 178.413C207.075 175.884 204.632 173.779 201.535 173.712L141.72 172.4C138.623 172.332 136.046 174.328 135.963 176.856L132.573 279.972C132.49 282.5 134.933 284.605 138.029 284.673L197.845 285.984C200.941 286.052 203.518 284.057 203.602 281.528Z" fill="black"/>
<path opacity="0.2" d="M201.545 257.265L202.238 236.181C202.319 233.732 199.952 231.692 196.953 231.627L142.49 230.433C139.491 230.367 136.994 232.299 136.913 234.749L136.22 255.833C136.14 258.282 138.506 260.322 141.506 260.387L195.968 261.581C198.968 261.647 201.464 259.714 201.545 257.265Z" fill="#263238"/>
<path d="M182.279 274.083C182.174 277.257 185.241 279.9 189.128 279.985C193.016 280.071 196.252 277.566 196.356 274.391C196.46 271.217 193.394 268.574 189.506 268.489C185.619 268.404 182.383 270.908 182.279 274.083Z" fill="white"/>
<path d="M140.277 273.162C140.173 276.336 143.239 278.979 147.127 279.064C151.014 279.149 154.25 276.645 154.354 273.47C154.459 270.296 151.392 267.653 147.505 267.568C143.617 267.483 140.381 269.987 140.277 273.162Z" fill="white"/>
<path d="M161.278 273.622C161.174 276.797 164.24 279.439 168.128 279.525C172.015 279.61 175.251 277.105 175.355 273.931C175.46 270.756 172.393 268.113 168.506 268.028C164.618 267.943 161.383 270.447 161.278 273.622Z" fill="white"/>
<path d="M203.753 190.111C203.854 187.046 200.893 184.495 197.14 184.412L145.406 183.278C141.653 183.196 138.529 185.614 138.428 188.679C138.327 191.744 141.288 194.295 145.041 194.377L196.775 195.512C200.528 195.594 203.652 193.176 203.753 190.111Z" fill="white"/>
<path d="M203.262 205.037C203.363 201.972 200.402 199.42 196.649 199.338L144.915 198.204C141.162 198.121 138.038 200.54 137.937 203.604C137.836 206.669 140.797 209.221 144.55 209.303L196.284 210.438C200.037 210.52 203.161 208.102 203.262 205.037Z" fill="white"/>
<path d="M202.771 219.963C202.872 216.898 199.911 214.346 196.158 214.264L144.424 213.13C140.671 213.047 137.547 215.466 137.446 218.531C137.345 221.595 140.306 224.147 144.059 224.229L195.793 225.364C199.547 225.446 202.67 223.028 202.771 219.963Z" fill="white"/>
</g>
<path d="M92.2158 195.937L91.503 196.596L90.7554 197.306L89.2818 198.759C88.3206 199.743 87.3726 200.733 86.5002 201.751C84.7338 203.769 83.1648 205.874 82.1148 207.961C81.8556 208.48 81.6342 208.996 81.4554 209.503C81.2922 209.924 81.1908 210.391 81.1068 210.918C80.9562 211.966 80.9736 213.155 81.0744 214.372C81.2808 216.804 81.8514 219.407 82.4382 221.908L78.5466 223.197C77.6346 221.928 76.9056 220.69 76.2372 219.368C75.5712 218.056 75.0036 216.697 74.5596 215.272C74.1108 213.847 73.7976 212.352 73.743 210.719C73.7118 209.905 73.7808 209.033 73.977 208.144C74.1636 207.343 74.4066 206.571 74.6886 205.824C75.8574 202.854 77.5914 200.268 79.5168 197.858C80.4942 196.66 81.5136 195.499 82.6056 194.389C83.1486 193.832 83.7036 193.284 84.2802 192.748C84.5682 192.479 84.8568 192.21 85.1586 191.947C85.4676 191.675 85.7448 191.435 86.115 191.127L92.2158 195.937Z" fill="#263238"/>
<path d="M83.1108 221.955L84.7344 223.152L79.0404 225.592C79.0404 225.592 78.6654 225.09 78.4236 224.354C78.0054 223.082 79.041 221.745 80.6442 221.447C81.5346 221.28 82.452 221.469 83.1108 221.955Z" fill="#FFB573"/>
<path d="M86.9148 226.169L82.1016 228.009L79.0398 225.592L84.7338 223.152L86.9148 226.169Z" fill="#FFB573"/>
<path d="M107.701 177.992C107.676 178.318 107.867 178.586 108.128 178.59C108.389 178.595 108.62 178.334 108.645 178.008C108.67 177.682 108.478 177.414 108.217 177.41C107.956 177.405 107.725 177.666 107.701 177.992Z" fill="#263238"/>
<path d="M107.831 178.585C107.831 178.585 108.596 180.482 109.526 181.406C108.781 181.932 107.599 181.665 107.599 181.665L107.831 178.585Z" fill="#FF5652"/>
<path d="M106.387 176.158C106.445 176.167 106.508 176.157 106.563 176.127C107.439 175.648 108.214 175.895 108.247 175.906C108.364 175.946 108.503 175.898 108.557 175.801C108.61 175.703 108.559 175.592 108.442 175.552C108.4 175.538 107.41 175.212 106.312 175.812C106.203 175.873 106.17 175.992 106.239 176.079C106.274 176.122 106.328 176.15 106.387 176.158Z" fill="#263238"/>
<path d="M96.1578 179.236C96.6354 182.242 96.8004 188.316 94.1124 190.016C94.1124 190.016 94.9854 192.468 101.713 193.153C109.111 193.906 105.484 190.537 105.484 190.537C101.508 189.344 101.804 186.927 102.688 184.719L96.1578 179.236Z" fill="#FFB573"/>
<path d="M78.2695 311.56C78.2863 311.556 78.3025 311.552 78.3181 311.547C78.4429 311.507 78.5959 311.407 78.6199 311.156C78.6325 311.023 78.5791 310.907 78.4615 310.81C77.9509 310.387 76.2919 310.47 76.2217 310.474C76.1749 310.477 76.1341 310.501 76.1161 310.536C76.0981 310.572 76.1071 310.611 76.1389 310.638C76.4857 310.927 77.6593 311.695 78.2695 311.56ZM76.5115 310.656C77.0695 310.65 77.9881 310.696 78.2917 310.947C78.3625 311.006 78.3937 311.071 78.3865 311.149C78.3691 311.328 78.2725 311.36 78.2407 311.369C77.9083 311.477 77.0617 311.054 76.5115 310.656Z" fill="#617DA9"/>
<path d="M77.0574 310.562C77.6526 310.43 78.2958 310.188 78.435 309.91C78.474 309.832 78.507 309.68 78.291 309.538C78.1512 309.446 77.9826 309.411 77.7906 309.434C77.0544 309.519 76.1688 310.473 76.1316 310.513C76.1052 310.542 76.0998 310.579 76.1172 310.611C76.1346 310.642 76.1718 310.663 76.215 310.664C76.4202 310.672 76.7316 310.633 77.0574 310.562ZM77.7324 309.638C77.7606 309.631 77.7882 309.627 77.8152 309.623C77.943 309.608 78.0492 309.63 78.1398 309.689C78.2568 309.766 78.2298 309.82 78.2184 309.844C78.0912 310.098 77.1132 310.407 76.4754 310.465C76.7364 310.212 77.2746 309.739 77.7324 309.638Z" fill="#617DA9"/>
<path d="M108.477 316.037C109.112 316.037 109.729 315.965 109.946 315.732C110.022 315.65 110.086 315.511 109.957 315.314C109.885 315.203 109.763 315.127 109.597 315.09C108.781 314.906 107.012 315.711 106.937 315.746C106.894 315.766 106.869 315.805 106.875 315.845C106.881 315.884 106.916 315.915 106.964 315.923C107.277 315.975 107.885 316.037 108.477 316.037ZM109.3 315.252C109.382 315.252 109.459 315.259 109.526 315.274C109.633 315.298 109.706 315.342 109.749 315.409C109.826 315.527 109.793 315.586 109.762 315.62C109.518 315.881 108.266 315.887 107.351 315.781C107.819 315.589 108.722 315.252 109.3 315.252Z" fill="#617DA9"/>
<path d="M106.987 315.924C107.003 315.924 107.02 315.922 107.035 315.916C107.644 315.697 108.871 314.823 108.803 314.366C108.787 314.258 108.7 314.125 108.38 314.098C108.142 314.08 107.92 314.134 107.722 314.263C107.071 314.685 106.883 315.774 106.876 315.82C106.871 315.854 106.888 315.887 106.92 315.907C106.939 315.918 106.963 315.924 106.987 315.924ZM108.275 314.286C108.298 314.286 108.322 314.287 108.346 314.289C108.556 314.307 108.566 314.374 108.569 314.397C108.61 314.671 107.771 315.358 107.147 315.657C107.227 315.339 107.435 314.687 107.862 314.41C107.991 314.327 108.127 314.286 108.275 314.286Z" fill="#617DA9"/>
<path d="M101.548 315.829H106.498L107.456 306.467H102.506L101.548 315.829Z" fill="#FFB573"/>
<path d="M70.656 310.423L75.363 311.172L79.7094 302.019L75.0024 301.27L70.656 310.423Z" fill="#FFB573"/>
<path d="M76.2295 310.013L71.5741 307.68C71.4049 307.595 71.1811 307.62 71.0359 307.74L67.8043 310.413C67.4689 310.691 67.5325 311.144 67.9279 311.334C69.5713 312.125 70.4233 312.441 72.4711 313.467C73.7305 314.098 76.3212 315.795 78.1957 316.466C80.0293 317.123 81.2047 315.685 80.5177 315.27C77.4373 313.412 77.1553 311.845 76.7353 310.564C76.6597 310.332 76.4773 310.137 76.2295 310.013Z" fill="#263238"/>
<path d="M106.489 315.361H101.083C100.88 315.361 100.699 315.475 100.648 315.637L99.4914 319.23C99.3714 319.603 99.7002 319.956 100.168 319.949C102.119 319.922 104.941 319.829 107.392 319.829C110.258 319.829 110.722 319.956 114.083 319.956C116.115 319.956 116.762 318.278 115.919 318.126C112.081 317.435 110.928 317.361 107.665 315.675C107.311 315.493 106.916 315.361 106.489 315.361Z" fill="#263238"/>
<path d="M113.614 204.022C113.545 205.398 113.429 206.911 113.252 208.579C112.784 213.113 111.898 218.764 110.39 225.786H83.9155C83.8999 222.717 86.7709 208.635 84.7147 194.164C84.4309 192.166 86.2309 190.297 88.6993 190.042C90.0421 189.903 91.5475 189.778 93.0241 189.721C96.4129 189.588 101.316 189.501 104.277 189.721C106.072 189.857 107.813 190.105 109.171 190.334C111.088 190.656 112.549 191.861 112.954 193.424C113.457 195.364 113.884 198.641 113.614 204.022Z" fill="#263238"/>
<path opacity="0.3" d="M108.247 225.847C108.242 225.847 108.238 225.847 108.234 225.846C108.193 225.84 108.166 225.809 108.173 225.775C109.561 219.31 110.524 213.522 111.035 208.573C111.202 206.998 111.324 205.465 111.396 204.019C111.676 198.449 111.193 195.19 110.738 193.436C110.729 193.403 110.756 193.37 110.796 193.363C110.839 193.356 110.876 193.377 110.885 193.41C111.539 195.935 111.768 199.605 111.546 204.024C111.474 205.472 111.352 207.005 111.184 208.583C110.673 213.536 109.709 219.327 108.32 225.796C108.314 225.827 108.283 225.847 108.247 225.847Z" fill="black"/>
<path opacity="0.2" d="M108.923 200.731C108.855 203.783 110.783 210.639 112.595 213.77C112.874 211.893 113.092 210.168 113.255 208.581C113.395 207.223 113.499 205.974 113.568 204.817L108.923 200.731Z" fill="black"/>
<path d="M130.49 208.2L134.911 206.052L135.716 210.99C135.716 210.99 132.211 211.793 130.246 210.827L130.49 208.2Z" fill="#FFB573"/>
<path d="M140.726 206.407L139.268 210.348L135.716 210.99L134.911 206.052L140.726 206.407Z" fill="#FFB573"/>
<path d="M112.269 192.45C112.502 192.881 112.648 193.194 112.801 193.519C112.952 193.837 113.086 194.143 113.219 194.446L113.986 196.227C114.49 197.396 114.976 198.55 115.493 199.68C116.007 200.808 116.525 201.921 117.097 202.976C117.655 204.031 118.254 205.053 118.89 205.894C119.206 206.308 119.522 206.684 119.786 206.936C119.915 207.061 120.028 207.151 120.078 207.194C120.101 207.214 120.114 207.229 120.094 207.226C120.071 207.223 120.098 207.237 120.133 207.252L120.219 207.298C120.484 207.417 120.928 207.543 121.451 207.624C121.976 207.708 122.581 207.742 123.22 207.766C125.789 207.828 128.809 207.463 131.657 207.093L131.8 207.074C132.96 206.924 134.05 207.569 134.234 208.517C134.372 209.226 133.963 209.903 133.263 210.262C132.506 210.649 131.818 210.969 131.069 211.277C130.332 211.585 129.574 211.862 128.798 212.12C127.242 212.632 125.611 213.057 123.818 213.315C122.92 213.449 121.978 213.521 120.964 213.521C119.951 213.516 118.856 213.442 117.665 213.139L117.213 213.011C117.067 212.97 116.916 212.925 116.722 212.848C116.353 212.709 116.037 212.559 115.739 212.403C115.151 212.092 114.679 211.767 114.263 211.447C113.44 210.803 112.813 210.175 112.265 209.547C110.132 207.054 108.833 204.629 107.59 202.186C106.99 200.966 106.427 199.749 105.91 198.541L105.152 196.753L104.795 195.9C104.683 195.633 104.561 195.355 104.491 195.207L104.444 195.11C103.591 193.329 104.666 191.321 106.846 190.625C108.967 189.947 111.355 190.767 112.269 192.45Z" fill="#263238"/>
<path opacity="0.2" d="M107.455 306.47L106.962 311.296H102.01L102.503 306.47H107.455Z" fill="black"/>
<path opacity="0.2" d="M75 301.272L79.7094 302.022L77.4666 306.739L72.7572 305.99L75 301.272Z" fill="black"/>
<path d="M94.4497 177.074C94.4491 181.083 94.1989 183.437 96.5185 185.535C100.007 188.689 106.192 186.959 107.661 182.982C108.983 179.403 108.762 173.448 104.087 171.773C99.4813 170.123 94.4503 173.065 94.4497 177.074Z" fill="#FFB573"/>
<path d="M105.546 179.087C105.968 178.148 107.644 174.106 104.531 172.84C101.419 171.574 97.3134 171.186 94.794 172.084C92.2746 172.983 90.411 176.27 90.411 176.27C90.411 176.27 91.5924 183.191 96.5556 184.437C101.519 185.682 107.107 180.884 105.546 179.087Z" fill="#263238"/>
<path d="M104.347 173.357C105.037 173.221 105.827 172.734 105.827 172.734C107.616 171.306 104.439 170.349 101.284 170.118C97.7167 169.856 92.5969 171.016 90.5653 173.166C92.4919 173.975 101.599 174.011 104.347 173.357Z" fill="#263238"/>
<path d="M104.05 172.957C104.651 172.99 105.444 172.753 105.444 172.753C107.859 171.789 105.081 170.482 102.605 169.622C99.8052 168.65 95.2992 168.528 92.9736 169.881C94.2726 170.958 101.621 172.916 104.05 172.957Z" fill="#263238"/>
<path d="M103.391 178.532C103.381 179.472 103.84 180.366 104.433 180.958C105.325 181.849 106.376 181.331 106.635 180.277C106.869 179.328 106.685 177.722 105.547 177.217C104.425 176.718 103.402 177.458 103.391 178.532Z" fill="#FFB573"/>
<path d="M101 225.786C101 225.786 101.816 256.377 96.8287 267.656C88.9285 285.522 80.3533 306.259 80.3533 306.259L71.3185 304.616C71.3185 304.616 78.5743 282.052 82.5559 267.002C86.1325 253.482 83.3677 236.83 83.9161 225.786C90.0835 225.786 101 225.786 101 225.786Z" fill="#617DA9"/>
<g opacity="0.3">
<path d="M101 225.786C101 225.786 101.816 256.377 96.8287 267.656C88.9285 285.522 80.3533 306.259 80.3533 306.259L71.3185 304.616C71.3185 304.616 78.5743 282.052 82.5559 267.002C86.1325 253.482 83.3677 236.83 83.9161 225.786C90.0835 225.786 101 225.786 101 225.786Z" fill="white"/>
</g>
<path opacity="0.2" d="M101.041 232.602C98.5716 232.006 96.6132 232.231 96.0168 234.046C94.4616 238.786 97.8 251.285 99.489 257.003C100.697 248.811 100.998 239.012 101.041 232.602Z" fill="black"/>
<path d="M82.7899 304.017C82.8271 304.024 80.5519 306.413 80.5519 306.413L70.6801 304.619L71.8081 301.851L82.7899 304.017Z" fill="#617DA9"/>
<path d="M110.393 225.786C110.393 225.786 115.891 251.488 115.804 263.817C115.706 277.643 108.853 310.361 108.853 310.361H100.467C100.467 310.361 101.524 277.472 101.776 264.879C102.052 251.15 92.9886 225.786 92.9886 225.786H110.393Z" fill="#617DA9"/>
<g opacity="0.3">
<path d="M110.393 225.786C110.393 225.786 115.891 251.488 115.804 263.817C115.706 277.643 108.853 310.361 108.853 310.361H100.467C100.467 310.361 101.524 277.472 101.776 264.879C102.052 251.15 92.9886 225.786 92.9886 225.786H110.393Z" fill="white"/>
</g>
<path d="M110.602 307.633C110.641 307.633 109.988 310.476 109.988 310.476H99.7872L99.6372 307.939L110.602 307.633Z" fill="#617DA9"/>
<path d="M100.963 234.559C100.936 234.559 100.91 234.554 100.886 234.542L97.395 232.858C97.3554 232.838 97.3284 232.805 97.3224 232.767L96.6054 228.204C96.6 228.169 96.6132 228.134 96.642 228.108C96.6702 228.081 96.7116 228.066 96.7548 228.066H103.455C103.531 228.066 103.595 228.112 103.604 228.174L104.243 232.625C104.249 232.669 104.225 232.714 104.18 232.74L101.05 234.536C101.023 234.552 100.993 234.559 100.963 234.559ZM97.6104 232.678L100.955 234.291L103.933 232.582L103.32 228.312H96.924L97.6104 232.678Z" fill="white"/>
<defs>
<filter id="filter0_i_1918_6201" x="0" y="0" width="344.179" height="375" filterUnits="userSpaceOnUse" color-interpolation-filters="sRGB">
<feFlood flood-opacity="0" result="BackgroundImageFix"/>
<feBlend mode="normal" in="SourceGraphic" in2="BackgroundImageFix" result="shape"/>
<feColorMatrix in="SourceAlpha" type="matrix" values="0 0 0 0 0 0 0 0 0 0 0 0 0 0 0 0 0 0 127 0" result="hardAlpha"/>
<feMorphology radius="1" operator="erode" in="SourceAlpha" result="effect1_innerShadow_1918_6201"/>
<feOffset/>
<feGaussianBlur stdDeviation="17.5"/>
<feComposite in2="hardAlpha" operator="arithmetic" k2="-1" k3="1"/>
<feColorMatrix type="matrix" values="0 0 0 0 0.380392 0 0 0 0 0.490196 0 0 0 0 0.662745 0 0 0 1 0"/>
<feBlend mode="normal" in2="shape" result="effect1_innerShadow_1918_6201"/>
</filter>
<linearGradient id="paint0_linear_1918_6201" x1="78" y1="72" x2="266" y2="72" gradientUnits="userSpaceOnUse">
<stop/>
<stop offset="1" stop-color="#617DA9"/>
</linearGradient>
</defs>
</svg>
