<svg width="300" height="245" viewBox="0 0 300 245" fill="none" xmlns="http://www.w3.org/2000/svg">
<path d="M300 187.375H0V187.498H300V187.375Z" fill="#EBEBEB"/>
<path d="M269.941 195.262H250.067V195.384H269.941V195.262Z" fill="#EBEBEB"/>
<path d="M163.933 193.727H156.201V193.849H163.933V193.727Z" fill="#EBEBEB"/>
<path d="M209.801 194.244H193.517V194.367H209.801V194.244Z" fill="#EBEBEB"/>
<path d="M249.466 190.712H215.8V190.834H249.466V190.712Z" fill="#EBEBEB"/>
<path d="M47.3918 196.381H31.4756V196.503H47.3918V196.381Z" fill="#EBEBEB"/>
<path d="M66.5334 196.381H52.7334V196.503H66.5334V196.381Z" fill="#EBEBEB"/>
<path d="M115.088 193.666H78.5996V193.788H115.088V193.666Z" fill="#EBEBEB"/>
<path d="M142.208 165.522H26.3486C24.4604 165.522 22.9238 164.267 22.9238 162.725V29.7232C22.9238 28.1812 24.4604 26.9263 26.3486 26.9263H142.208C144.096 26.9263 145.632 28.1812 145.632 29.7232V162.725C145.632 164.267 144.096 165.522 142.208 165.522ZM26.3486 27.0493C24.5426 27.0493 23.0738 28.2488 23.0738 29.7237V162.725C23.0738 164.2 24.5426 165.4 26.3486 165.4H142.208C144.013 165.4 145.482 164.2 145.482 162.725V29.7232C145.482 28.2488 144.013 27.0488 142.208 27.0488L26.3486 27.0493Z" fill="#EBEBEB"/>
<path d="M271.986 165.522H156.127C154.239 165.522 152.703 164.267 152.703 162.725V29.7232C152.703 28.1812 154.24 26.9263 156.127 26.9263H271.986C273.875 26.9263 275.411 28.1812 275.411 29.7232V162.725C275.412 164.267 273.875 165.522 271.986 165.522ZM156.127 27.0493C154.322 27.0493 152.853 28.2488 152.853 29.7237V162.725C152.853 164.2 154.322 165.4 156.127 165.4H271.986C273.792 165.4 275.261 164.2 275.261 162.725V29.7232C275.261 28.2488 273.792 27.0488 271.986 27.0488L156.127 27.0493Z" fill="#EBEBEB"/>
<path d="M44.7988 123.129H133.829V46.4038H44.7988V123.129Z" fill="#E6E6E6"/>
<path d="M41.0215 123.129H132.064V46.4038H41.0215V123.129Z" fill="#F0F0F0"/>
<path d="M44.7988 125.995H133.829V123.129H44.7988V125.995Z" fill="#E6E6E6"/>
<path d="M34.7275 125.995H125.771V123.129H34.7275V125.995Z" fill="#F0F0F0"/>
<path d="M126.775 118.809V50.7227H46.3096V118.809H126.775Z" fill="#FAFAFA"/>
<path d="M99.3709 118.81L86.6053 50.7231H71.9521L84.7177 118.81H99.3709Z" fill="white"/>
<path d="M81.569 118.81L68.8034 50.7231H63.0908L75.8564 118.81H81.569Z" fill="white"/>
<path d="M46.9818 118.81V50.7231H46.3105V118.81H46.9818Z" fill="#E6E6E6"/>
<path d="M128.52 82.0444H44.5645V87.4888H128.52V82.0444Z" fill="#F0F0F0"/>
<path d="M163.934 187.375H174.172V86.2002H163.934V187.375Z" fill="#E6E6E6"/>
<path d="M166.626 187.375H163.934V183.268H169.448L166.626 187.375Z" fill="#F0F0F0"/>
<path d="M246.783 187.375H257.021V86.2002H246.783V187.375Z" fill="#E6E6E6"/>
<path d="M163.934 185.942H249.132V86.2002H163.934V185.942Z" fill="#F0F0F0"/>
<path d="M167.968 116.734H245.096C246.171 116.734 247.043 116.022 247.043 115.144V89.4231C247.043 88.545 246.171 87.833 245.096 87.833H167.968C166.893 87.833 166.021 88.545 166.021 89.4231V115.144C166.021 116.022 166.893 116.734 167.968 116.734Z" fill="#E6E6E6"/>
<path d="M246.44 187.375H249.132V183.268H243.617L246.44 187.375Z" fill="#F0F0F0"/>
<path d="M167.968 150.305H245.096C246.171 150.305 247.043 149.594 247.043 148.715V122.995C247.043 122.117 246.171 121.405 245.096 121.405H167.968C166.893 121.405 166.021 122.117 166.021 122.995V148.716C166.021 149.594 166.893 150.305 167.968 150.305Z" fill="#E6E6E6"/>
<path d="M167.968 183.877H245.096C246.171 183.877 247.043 183.165 247.043 182.287V156.566C247.043 155.688 246.171 154.976 245.096 154.976H167.968C166.893 154.976 166.021 155.688 166.021 156.566V182.287C166.021 183.165 166.893 183.877 167.968 183.877Z" fill="#E6E6E6"/>
<path d="M190.249 91.3981H221.009C222.307 91.3981 223.547 89.8227 224.44 87.041H186.818C187.711 89.8227 188.951 91.3981 190.249 91.3981Z" fill="#F0F0F0"/>
<path d="M190.249 124.969H221.009C222.307 124.969 223.547 123.394 224.44 120.612H186.818C187.711 123.394 188.951 124.969 190.249 124.969Z" fill="#F0F0F0"/>
<path d="M190.249 158.541H221.009C222.307 158.541 223.547 156.966 224.44 154.184H186.818C187.711 156.965 188.951 158.541 190.249 158.541Z" fill="#F0F0F0"/>
<path d="M228.288 72.1953C228.288 72.1953 228.424 86.3137 233.644 86.3137C238.863 86.3137 238.999 72.1953 238.999 72.1953H228.288Z" fill="#E6E6E6"/>
<path d="M172.001 72.2979C172.001 72.2979 172.34 86.3138 185.34 86.3138C198.34 86.3138 198.679 72.2979 198.679 72.2979H172.001Z" fill="#E6E6E6"/>
<path d="M188.623 75.8174C188.623 75.8174 188.877 86.3132 198.612 86.3132C208.347 86.3132 208.602 75.8174 208.602 75.8174H188.623Z" fill="#F0F0F0"/>
<path d="M201.622 78.6196C201.622 78.6196 201.808 86.3136 208.944 86.3136C216.081 86.3136 216.267 78.6196 216.267 78.6196H201.622Z" fill="#EBEBEB"/>
<path d="M237.023 74.2696C236.96 74.2696 236.895 74.2579 236.834 74.2324C236.264 73.9957 231.283 71.8593 231.621 69.77C231.751 68.9688 232.255 68.3215 232.699 67.7502C233.395 66.8574 233.897 66.2121 233.027 65.2453C231.695 63.7636 233.149 62.5538 234.433 61.4865C235.037 60.9843 235.662 60.4644 236.014 59.9278C236.543 59.1223 236.117 58.5093 235.529 57.6616C235.027 56.9369 234.458 56.1161 234.434 55.0146C234.359 51.4107 237.85 49.7917 237.999 49.7251C238.201 49.6344 238.454 49.6937 238.567 49.8578C238.678 50.0225 238.606 50.2302 238.404 50.3224C238.273 50.3817 235.204 51.8193 235.271 55.0028C235.29 55.9304 235.782 56.6394 236.257 57.325C236.867 58.2045 237.497 59.1135 236.751 60.2507C236.342 60.8735 235.675 61.4287 235.029 61.9657C233.641 63.1202 232.833 63.8772 233.701 64.8416C234.91 66.1851 234.11 67.2117 233.405 68.1177C232.987 68.6543 232.555 69.2089 232.45 69.8601C232.228 71.2292 235.813 73.0417 237.212 73.6248C237.418 73.7106 237.5 73.9164 237.395 74.0844C237.322 74.2015 237.175 74.2696 237.023 74.2696Z" fill="#E6E6E6"/>
<path d="M240.073 40.9966C240.073 40.9966 233.381 46.8604 237.912 50.5614C246.116 50.5609 240.073 40.9966 240.073 40.9966Z" fill="#F0F0F0"/>
<path d="M230.565 42.687C230.565 42.687 231.152 50.6887 237.559 50.5598C243.215 45.7064 230.565 42.687 230.565 42.687Z" fill="#F0F0F0"/>
<path d="M243.019 55.6835C243.019 55.6835 236.101 55.3229 235.654 59.0003C239.326 62.6601 243.019 55.6835 243.019 55.6835Z" fill="#F0F0F0"/>
<path d="M230.048 50.3457C230.048 50.3457 230.864 55.967 235.374 55.6612C239.117 52.0504 230.048 50.3457 230.048 50.3457Z" fill="#F0F0F0"/>
<path d="M229.672 60.481C229.672 60.481 233.775 61.9367 232.706 64.156C229.278 65.3751 229.672 60.481 229.672 60.481Z" fill="#F0F0F0"/>
<path d="M236.448 64.3511C236.448 64.3511 235.68 67.0877 233.476 66.7418C231.864 64.7989 236.448 64.3511 236.448 64.3511Z" fill="#F0F0F0"/>
<path d="M239.033 61.6196C239.033 61.6196 235.573 63.9354 233.644 62.1454C233.882 59.0976 239.033 61.6196 239.033 61.6196Z" fill="#F0F0F0"/>
<path d="M85.8391 141.825H43.3213V187.375H85.8391V141.825Z" fill="#F5F5F5"/>
<path d="M48.1097 183.187V146.014H47.3711V183.187H48.1097Z" fill="#E6E6E6"/>
<path d="M81.1151 146.013H47.3711V146.777H81.1151V146.013Z" fill="#E6E6E6"/>
<path d="M129.096 141.825H86.5781V187.375H129.096V141.825Z" fill="#F5F5F5"/>
<path d="M129.095 187.375H133.334V141.826H129.095V187.375Z" fill="#E0E0E0"/>
<path d="M91.3655 183.186V146.013H90.627V183.186H91.3655Z" fill="#E6E6E6"/>
<path d="M86.5784 187.375V142.436H85.8398V187.375H86.5784Z" fill="#E6E6E6"/>
<path d="M124.371 146.013H90.627V146.777H124.371V146.013Z" fill="#E6E6E6"/>
<path d="M83.6393 146.396C84.0791 146.396 84.4354 146.687 84.4354 147.045V157.627C84.4354 157.986 84.0791 158.277 83.6393 158.277C83.2001 158.277 82.8438 157.986 82.8438 157.627V147.045C82.8438 146.687 83.2001 146.396 83.6393 146.396Z" fill="#E0E0E0"/>
<path d="M88.777 146.396C89.2168 146.396 89.5732 146.687 89.5732 147.045V157.627C89.5732 157.986 89.2168 158.277 88.777 158.277C88.3372 158.277 87.9814 157.986 87.9814 157.627V147.045C87.9814 146.687 88.3378 146.396 88.777 146.396Z" fill="#E0E0E0"/>
<path d="M134.7 140.275H42V142.436H134.7V140.275Z" fill="#EBEBEB"/>
<path d="M134.7 140.275H127.3V142.436H134.7V140.275Z" fill="#E0E0E0"/>
<path d="M150 209.505C214.25 209.505 266.334 207.021 266.334 203.956C266.334 200.892 214.25 198.408 150 198.408C85.7512 198.408 33.667 200.892 33.667 203.956C33.667 207.021 85.7512 209.505 150 209.505Z" fill="#F5F5F5"/>
<path d="M255.652 51.3101L255.446 51.7703L267.266 55.2985L267.472 54.8383L255.652 51.3101Z" fill="#727476"/>
<path d="M248.881 49.2886L248.675 49.7488L252.446 50.8745L252.652 50.4143L248.881 49.2886Z" fill="#727476"/>
<path d="M211.545 39.9641L273.975 58.5993C277.506 59.6533 279.339 62.8751 278.048 65.7587L230.251 172.555C228.96 175.438 225.015 176.935 221.484 175.881L159.054 157.246C155.523 156.192 153.69 152.97 154.981 150.087L202.778 43.2908C204.069 40.4071 208.014 38.9102 211.545 39.9641Z" fill="#727476"/>
<path d="M227.828 171.757L275.567 65.0921C276.447 63.1257 275.208 60.9487 272.8 60.2303L209.534 41.3457C207.126 40.6269 204.46 41.6383 203.58 43.6051L155.842 150.27C154.962 152.237 156.2 154.414 158.608 155.133L221.874 174.017C224.283 174.735 226.948 173.724 227.828 171.757Z" fill="white"/>
<path d="M248.234 52.146C246.431 54.1222 243.254 54.8969 240.42 54.0511L239.162 53.6758C236.329 52.8301 234.511 50.5643 234.694 48.105L248.234 52.146Z" fill="#727476"/>
<path opacity="0.1" d="M225.993 171.229C226.582 171.405 227.239 171.155 227.454 170.675L274.345 65.9038C274.56 65.4231 274.254 64.8861 273.665 64.7107C273.077 64.5347 272.419 64.7846 272.204 65.2653L225.314 170.037C225.099 170.517 225.404 171.053 225.993 171.229Z" fill="#263238"/>
<path opacity="0.1" d="M157.663 150.833C158.252 151.008 158.909 150.759 159.124 150.278L206.015 45.5073C206.229 45.0266 205.924 44.4896 205.335 44.3142C204.747 44.1383 204.089 44.3882 203.874 44.8689L156.984 149.64C156.769 150.12 157.074 150.657 157.663 150.833Z" fill="#263238"/>
<g opacity="0.9">
<path d="M224.787 163.037L244.078 61.0954C244.552 58.5954 242.453 56.2557 239.392 55.8691L180.257 48.4054C177.196 48.0193 174.331 49.7323 173.858 52.2328L154.567 154.175C154.094 156.675 156.191 159.015 159.253 159.401L218.388 166.865C221.449 167.251 224.314 165.537 224.787 163.037Z" fill="white"/>
<path d="M219.246 167.163C218.946 167.163 218.644 167.145 218.34 167.106L159.205 159.643C155.985 159.237 153.77 156.767 154.268 154.138L173.559 52.1955C173.801 50.9215 174.635 49.8009 175.908 49.0394C177.182 48.2775 178.744 47.9678 180.301 48.1638L239.436 55.627C240.996 55.824 242.368 56.5051 243.3 57.5449C244.233 58.5851 244.614 59.8591 244.373 61.1326L225.081 163.075C224.631 165.456 222.109 167.163 219.246 167.163ZM179.388 48.5955C178.269 48.5955 177.182 48.8841 176.262 49.4344C175.118 50.1184 174.369 51.1259 174.152 52.27L154.861 154.212C154.644 155.357 154.986 156.501 155.824 157.436C156.662 158.37 157.895 158.982 159.296 159.159L218.431 166.622C221.324 166.986 224.042 165.363 224.489 163L243.78 61.0577C243.997 59.913 243.655 58.7684 242.817 57.834C241.98 56.8995 240.746 56.2875 239.345 56.1106L180.21 48.6474C179.935 48.6127 179.661 48.5955 179.388 48.5955Z" fill="#727476"/>
<path d="M229.964 96.1137C229.669 96.1137 229.373 96.095 229.077 96.0578L175.234 89.262C173.721 89.0709 172.389 88.4104 171.484 87.401C170.579 86.3921 170.21 85.1558 170.443 83.92L174.388 63.0764C174.622 61.8401 175.43 60.7528 176.666 60.0139C177.902 59.2745 179.417 58.9736 180.928 59.1642L234.772 65.9596C237.896 66.354 240.045 68.7506 239.562 71.3015L235.618 92.1456C235.384 93.3814 234.575 94.4692 233.339 95.2081C232.346 95.802 231.172 96.1137 229.964 96.1137ZM180.043 59.5979C178.961 59.5979 177.91 59.8767 177.021 60.4083C175.915 61.0698 175.19 62.0435 174.981 63.1504L171.036 83.9945C170.827 85.1014 171.157 86.2083 171.967 87.1114C172.777 88.0149 173.97 88.6064 175.325 88.7774L229.168 95.5732C230.525 95.7437 231.879 95.4737 232.984 94.8127C234.091 94.1512 234.815 93.1776 235.024 92.0707L238.969 71.2266C239.401 68.9422 237.477 66.7965 234.68 66.4432L180.837 59.6479C180.572 59.6145 180.306 59.5979 180.043 59.5979Z" fill="#727476"/>
<path d="M222.79 127.797C222.431 127.797 222.067 127.775 221.702 127.729L170.557 121.273C166.689 120.785 164.028 117.818 164.626 114.659C165.224 111.5 168.859 109.329 172.725 109.816L223.87 116.271C225.744 116.507 227.392 117.326 228.513 118.575C229.633 119.824 230.09 121.355 229.801 122.885C229.26 125.746 226.23 127.797 222.79 127.797ZM171.637 110.238C168.488 110.238 165.714 112.116 165.219 114.734C164.671 117.626 167.107 120.342 170.648 120.789L221.793 127.245C225.335 127.69 228.661 125.702 229.207 122.811C229.473 121.41 229.054 120.008 228.028 118.865C227.003 117.721 225.493 116.972 223.779 116.756L172.633 110.3C172.299 110.258 171.966 110.238 171.637 110.238Z" fill="#727476"/>
<path d="M220.193 141.524C219.833 141.524 219.47 141.502 219.104 141.455L167.959 135C164.091 134.512 161.431 131.545 162.028 128.386C162.317 126.856 163.319 125.51 164.849 124.595C166.379 123.68 168.254 123.306 170.127 123.543L221.272 129.998C225.14 130.486 227.801 133.453 227.203 136.612C226.662 139.472 223.632 141.524 220.193 141.524ZM169.029 123.964C167.659 123.964 166.33 124.316 165.204 124.99C163.804 125.828 162.887 127.06 162.622 128.461C162.074 131.353 164.51 134.069 168.051 134.516L219.196 140.971C222.739 141.416 226.063 139.428 226.61 136.537C227.158 133.645 224.722 130.929 221.181 130.482L170.036 124.027C169.7 123.985 169.363 123.964 169.029 123.964Z" fill="#727476"/>
<path d="M217.605 155.251C217.24 155.251 216.873 155.228 216.506 155.182L165.361 148.727C161.492 148.239 158.832 145.272 159.43 142.113C160.028 138.954 163.662 136.781 167.528 137.269L218.674 143.725C220.547 143.961 222.196 144.779 223.316 146.029C224.437 147.278 224.894 148.808 224.605 150.339C224.315 151.869 223.313 153.216 221.783 154.131C220.554 154.866 219.101 155.251 217.605 155.251ZM166.441 137.691C163.292 137.691 160.519 139.569 160.023 142.187C159.476 145.079 161.911 147.795 165.452 148.242L216.598 154.697C218.313 154.913 220.029 154.572 221.429 153.734C222.83 152.897 223.747 151.664 224.012 150.264C224.277 148.863 223.858 147.461 222.833 146.318C221.807 145.174 220.298 144.425 218.583 144.209L167.438 137.753C167.103 137.711 166.77 137.691 166.441 137.691Z" fill="#727476"/>
<path d="M226.648 106.214C226.521 106.214 226.393 106.206 226.264 106.19L200.678 102.961C200.018 102.877 199.437 102.589 199.042 102.149C198.647 101.709 198.487 101.169 198.589 100.63C198.799 99.5175 200.079 98.7512 201.442 98.9237L227.027 102.153C227.688 102.236 228.269 102.524 228.664 102.964C229.058 103.404 229.219 103.944 229.117 104.483C228.927 105.491 227.86 106.214 226.648 106.214ZM201.059 99.3892C200.138 99.3892 199.327 99.9389 199.182 100.705C199.105 101.114 199.227 101.525 199.527 101.859C199.827 102.194 200.269 102.413 200.77 102.476L226.356 105.705C226.858 105.768 227.36 105.669 227.77 105.424C228.179 105.179 228.448 104.818 228.525 104.408C228.602 103.999 228.48 103.588 228.18 103.254C227.88 102.919 227.438 102.7 226.937 102.637L201.351 99.4078C201.253 99.3955 201.155 99.3892 201.059 99.3892Z" fill="#263238"/>
<path d="M225.529 112.122C225.403 112.122 225.275 112.114 225.146 112.098L188.793 107.51C188.132 107.426 187.551 107.138 187.156 106.698C186.762 106.258 186.601 105.719 186.703 105.18C186.805 104.64 187.158 104.166 187.696 103.844C188.235 103.521 188.896 103.39 189.556 103.473L225.909 108.061C227.272 108.233 228.21 109.279 227.999 110.391C227.809 111.399 226.741 112.122 225.529 112.122ZM189.17 103.939C188.77 103.939 188.38 104.042 188.051 104.239C187.641 104.484 187.373 104.845 187.296 105.254C187.218 105.664 187.341 106.074 187.641 106.409C187.941 106.743 188.382 106.962 188.884 107.026L225.237 111.614C226.273 111.747 227.246 111.163 227.406 110.317C227.566 109.471 226.854 108.676 225.818 108.546L189.465 103.958C189.366 103.945 189.268 103.939 189.17 103.939Z" fill="#263238"/>
<path d="M191.327 79.6421C194.388 76.9153 194.163 72.6781 190.824 70.1781C187.485 67.678 182.297 67.8619 179.235 70.5887C176.174 73.3155 176.399 77.5527 179.738 80.0527C183.077 82.5527 188.265 82.3689 191.327 79.6421Z" fill="#727476"/>
</g>
<g opacity="0.9">
<path d="M179.602 165.529L182.992 62.4134C183.075 59.8845 180.632 57.7795 177.536 57.7119L117.72 56.4006C114.624 56.3325 112.046 58.3278 111.963 60.8567L108.573 163.972C108.49 166.501 110.933 168.606 114.03 168.673L173.845 169.985C176.941 170.052 179.519 168.057 179.602 165.529Z" fill="#727476"/>
<path opacity="0.1" d="M179.602 165.529L182.992 62.4134C183.075 59.8845 180.632 57.7795 177.536 57.7119L117.72 56.4006C114.624 56.3325 112.046 58.3278 111.963 60.8567L108.573 163.972C108.49 166.501 110.933 168.606 114.03 168.673L173.845 169.985C176.941 170.052 179.519 168.057 179.602 165.529Z" fill="black"/>
<path opacity="0.2" d="M177.547 141.265L178.24 120.181C178.32 117.732 175.954 115.693 172.954 115.627L118.492 114.433C115.492 114.367 112.995 116.3 112.915 118.749L112.222 139.833C112.141 142.282 114.508 144.322 117.507 144.387L171.97 145.582C174.969 145.647 177.466 143.715 177.547 141.265Z" fill="#263238"/>
<path d="M158.279 158.083C158.175 161.257 161.241 163.9 165.129 163.985C169.016 164.071 172.252 161.566 172.356 158.391C172.461 155.217 169.394 152.574 165.507 152.489C161.619 152.404 158.383 154.908 158.279 158.083Z" fill="white"/>
<path d="M116.277 157.162C116.173 160.337 119.239 162.979 123.127 163.064C127.014 163.15 130.25 160.645 130.354 157.471C130.459 154.296 127.392 151.653 123.505 151.568C119.617 151.483 116.381 153.988 116.277 157.162Z" fill="white"/>
<path d="M137.279 157.622C137.175 160.797 140.241 163.44 144.129 163.525C148.016 163.61 151.252 161.106 151.356 157.931C151.461 154.756 148.394 152.114 144.507 152.028C140.619 151.943 137.383 154.448 137.279 157.622Z" fill="white"/>
<path d="M179.753 74.111C179.854 71.046 176.893 68.4946 173.14 68.4123L121.406 67.2779C117.653 67.1956 114.529 69.6138 114.428 72.6787C114.327 75.7437 117.288 78.2951 121.041 78.3774L172.775 79.5117C176.528 79.5941 179.652 77.1759 179.753 74.111Z" fill="white"/>
<path d="M179.262 89.0372C179.363 85.9723 176.402 83.4209 172.649 83.3385L120.915 82.2042C117.162 82.1219 114.038 84.54 113.937 87.605C113.836 90.6699 116.797 93.2213 120.55 93.3037L172.284 94.438C176.037 94.5203 179.161 92.1022 179.262 89.0372Z" fill="white"/>
<path d="M178.773 103.963C178.874 100.898 175.913 98.3466 172.16 98.2643L120.426 97.13C116.673 97.0477 113.549 99.4658 113.448 102.531C113.347 105.596 116.308 108.147 120.061 108.229L171.795 109.364C175.548 109.446 178.672 107.028 178.773 103.963Z" fill="white"/>
</g>
<path d="M68.2163 79.9368L67.5035 80.5963L66.7559 81.3063L65.2823 82.7592C64.3211 83.7426 63.3731 84.7329 62.5007 85.7511C60.7343 87.7689 59.1653 89.874 58.1153 91.9609C57.8561 92.4803 57.6347 92.9963 57.4559 93.5034C57.2927 93.9238 57.1913 94.3913 57.1073 94.9176C56.9567 95.9662 56.9741 97.1549 57.0749 98.3716C57.2813 100.804 57.8519 103.407 58.4387 105.908L54.5471 107.197C53.6351 105.928 52.9061 104.69 52.2377 103.368C51.5717 102.056 51.0041 100.697 50.5601 99.2722C50.1113 97.8468 49.7981 96.3523 49.7435 94.7186C49.7123 93.9052 49.7813 93.0325 49.9775 92.1437C50.1641 91.343 50.4071 90.5713 50.6891 89.824C51.8579 86.8541 53.5919 84.2679 55.5173 81.8576C56.4947 80.6595 57.5141 79.4992 58.6061 78.3894C59.1491 77.8322 59.7041 77.2844 60.2807 76.7479C60.5687 76.4794 60.8573 76.2098 61.1591 75.9467C61.4681 75.6748 61.7453 75.4352 62.1155 75.127L68.2163 79.9368Z" fill="#263238"/>
<path d="M59.1113 105.955L60.7349 107.152L55.0409 109.592C55.0409 109.592 54.6659 109.09 54.4241 108.354C54.0059 107.082 55.0415 105.745 56.6447 105.447C57.5351 105.28 58.4525 105.469 59.1113 105.955Z" fill="#FFB573"/>
<path d="M62.915 110.169L58.1018 112.009L55.04 109.592L60.734 107.152L62.915 110.169Z" fill="#FFB573"/>
<path d="M83.7013 61.9918C83.6767 62.3177 83.8681 62.5857 84.1291 62.5901C84.3901 62.5945 84.6211 62.3339 84.6457 62.008C84.6703 61.6822 84.4789 61.4141 84.2179 61.4097C83.9569 61.4053 83.7259 61.666 83.7013 61.9918Z" fill="#263238"/>
<path d="M83.8312 62.5854C83.8312 62.5854 84.5968 64.4818 85.5268 65.4059C84.781 65.9322 83.5996 65.6657 83.5996 65.6657L83.8312 62.5854Z" fill="#FF5652"/>
<path d="M82.3869 60.1585C82.4451 60.1668 82.5081 60.1575 82.5627 60.1276C83.4387 59.6479 84.2145 59.8948 84.2469 59.9066C84.3639 59.9458 84.5037 59.8983 84.5571 59.8008C84.6105 59.7028 84.5589 59.592 84.4419 59.5523C84.4005 59.5381 83.4105 59.2118 82.3125 59.8125C82.2027 59.8728 82.1703 59.9919 82.2393 60.0791C82.2741 60.1227 82.3281 60.1501 82.3869 60.1585Z" fill="#263238"/>
<path d="M72.1587 63.2354C72.6363 66.242 72.8013 72.316 70.1133 74.0158C70.1133 74.0158 70.9863 76.4678 77.7141 77.1528C85.1115 77.906 81.4845 74.5366 81.4845 74.5366C77.5089 73.3439 77.8047 70.9268 78.6885 68.7184L72.1587 63.2354Z" fill="#FFB573"/>
<path d="M54.27 195.56C54.2868 195.556 54.303 195.552 54.3186 195.547C54.4434 195.507 54.5964 195.407 54.6204 195.156C54.633 195.023 54.5796 194.907 54.462 194.81C53.9514 194.387 52.2924 194.47 52.2222 194.474C52.1754 194.477 52.1346 194.501 52.1166 194.536C52.0986 194.572 52.1076 194.611 52.1394 194.638C52.4862 194.927 53.6598 195.695 54.27 195.56ZM52.512 194.656C53.07 194.65 53.9886 194.696 54.2922 194.947C54.363 195.006 54.3942 195.071 54.387 195.149C54.3696 195.328 54.273 195.36 54.2412 195.369C53.9088 195.477 53.0622 195.054 52.512 194.656Z" fill="#727476"/>
<path d="M53.0577 194.562C53.6529 194.431 54.2961 194.189 54.4353 193.91C54.4743 193.832 54.5073 193.68 54.2913 193.538C54.1515 193.446 53.9829 193.411 53.7909 193.434C53.0547 193.519 52.1691 194.473 52.1319 194.514C52.1055 194.542 52.1001 194.58 52.1175 194.611C52.1349 194.642 52.1721 194.663 52.2153 194.664C52.4205 194.672 52.7319 194.634 53.0577 194.562ZM53.7327 193.638C53.7609 193.632 53.7885 193.627 53.8155 193.624C53.9433 193.609 54.0495 193.63 54.1401 193.689C54.2571 193.766 54.2301 193.821 54.2187 193.844C54.0915 194.099 53.1135 194.408 52.4757 194.466C52.7367 194.213 53.2749 193.739 53.7327 193.638Z" fill="#727476"/>
<path d="M84.4779 200.037C85.1127 200.037 85.7295 199.965 85.9467 199.732C86.0229 199.65 86.0865 199.511 85.9581 199.314C85.8861 199.203 85.7643 199.127 85.5975 199.09C84.7821 198.906 83.0127 199.711 82.9383 199.746C82.8951 199.766 82.8699 199.805 82.8759 199.845C82.8819 199.884 82.9173 199.915 82.9647 199.923C83.2779 199.975 83.8857 200.037 84.4779 200.037ZM85.3011 199.252C85.3833 199.252 85.4595 199.259 85.5267 199.274C85.6335 199.298 85.7067 199.342 85.7499 199.409C85.8273 199.527 85.7943 199.586 85.7625 199.62C85.5189 199.881 84.2673 199.887 83.3523 199.781C83.8203 199.589 84.7227 199.252 85.3011 199.252Z" fill="#727476"/>
<path d="M82.9874 199.924C83.0036 199.924 83.0204 199.922 83.036 199.916C83.6444 199.697 84.8714 198.823 84.8036 198.366C84.7874 198.258 84.701 198.125 84.3806 198.098C84.143 198.08 83.9204 198.134 83.7224 198.263C83.072 198.685 82.8842 199.774 82.877 199.82C82.8716 199.854 82.8884 199.887 82.9208 199.907C82.9394 199.918 82.9634 199.924 82.9874 199.924ZM84.2762 198.286C84.299 198.286 84.3224 198.287 84.3464 198.289C84.5564 198.307 84.5666 198.374 84.5696 198.397C84.6104 198.671 83.7716 199.358 83.1476 199.657C83.2274 199.339 83.4362 198.687 83.8628 198.41C83.9918 198.327 84.1274 198.286 84.2762 198.286Z" fill="#727476"/>
<path d="M77.5488 199.829H82.4988L83.4564 190.467H78.5064L77.5488 199.829Z" fill="#FFB573"/>
<path d="M46.6562 194.423L51.3633 195.172L55.7096 186.019L51.0027 185.27L46.6562 194.423Z" fill="#FFB573"/>
<path d="M52.2298 194.013L47.5744 191.68C47.4052 191.596 47.1814 191.621 47.0362 191.741L43.8046 194.414C43.4692 194.691 43.5328 195.144 43.9282 195.334C45.5716 196.125 46.4236 196.441 48.4714 197.467C49.7308 198.098 52.3216 199.795 54.196 200.467C56.0296 201.123 57.205 199.685 56.518 199.27C53.4376 197.412 53.1556 195.845 52.7356 194.564C52.66 194.332 52.4776 194.137 52.2298 194.013Z" fill="#263238"/>
<path d="M82.4889 199.361H77.0829C76.8807 199.361 76.6995 199.475 76.6479 199.637L75.4917 203.23C75.3717 203.603 75.7005 203.956 76.1679 203.949C78.1191 203.922 80.9415 203.829 83.3925 203.829C86.2581 203.829 86.7219 203.956 90.0831 203.956C92.1153 203.956 92.7627 202.278 91.9197 202.126C88.0815 201.435 86.9283 201.361 83.6655 199.675C83.3115 199.493 82.9161 199.361 82.4889 199.361Z" fill="#263238"/>
<path d="M89.6143 88.0222C89.5459 89.3976 89.4301 90.9112 89.2531 92.5787C88.7851 97.1131 87.8983 102.764 86.3905 109.786H59.9161C59.9005 106.717 62.7715 92.6345 60.7153 78.1639C60.4315 76.1661 62.2315 74.2973 64.6999 74.042C66.0427 73.9028 67.5481 73.7783 69.0247 73.7205C72.4135 73.5882 77.3167 73.5005 80.2777 73.7205C82.0723 73.8572 83.8135 74.1052 85.1713 74.3335C87.0889 74.6559 88.5493 75.8613 88.9543 77.4239C89.4577 79.3643 89.8849 82.6415 89.6143 88.0222Z" fill="#263238"/>
<path opacity="0.3" d="M84.2468 109.847C84.2426 109.847 84.2384 109.847 84.2342 109.846C84.1934 109.84 84.1658 109.809 84.173 109.775C85.5614 103.31 86.5244 97.5223 87.035 92.5733C87.2024 90.9975 87.3236 89.4653 87.3962 88.0193C87.6764 82.4495 87.1928 79.19 86.7386 77.4358C86.7296 77.4029 86.756 77.3701 86.7962 77.3633C86.8388 77.3559 86.8766 77.3775 86.885 77.4103C87.5396 79.9353 87.7682 83.6054 87.5462 88.0237C87.4742 89.4716 87.3524 91.0053 87.1844 92.5831C86.6732 97.5356 85.7096 103.327 84.3206 109.796C84.314 109.827 84.2828 109.847 84.2468 109.847Z" fill="black"/>
<path opacity="0.2" d="M84.9236 84.731C84.8558 87.7837 86.7836 94.6388 88.5962 97.7699C88.8752 95.8932 89.093 94.1684 89.2562 92.5808C89.3954 91.2235 89.4998 89.974 89.5688 88.8176L84.9236 84.731Z" fill="black"/>
<path d="M106.491 92.1999L110.912 90.0522L111.717 94.9905C111.717 94.9905 108.212 95.7926 106.247 94.8273L106.491 92.1999Z" fill="#FFB573"/>
<path d="M116.727 90.4065L115.269 94.3476L111.717 94.99L110.912 90.0522L116.727 90.4065Z" fill="#FFB573"/>
<path d="M88.2693 76.4499C88.5021 76.8806 88.6479 77.1937 88.8015 77.5186C88.9527 77.8371 89.0865 78.1433 89.2191 78.4462L89.9859 80.2268C90.4905 81.3965 90.9765 82.5504 91.4931 83.6799C92.0073 84.8078 92.5257 85.9211 93.0975 86.9761C93.6555 88.0306 94.2543 89.0527 94.8903 89.8935C95.2065 90.3081 95.5221 90.6844 95.7867 90.9358C95.9157 91.0607 96.0279 91.1514 96.0783 91.194C96.1017 91.2136 96.1143 91.2293 96.0945 91.2263C96.0711 91.2229 96.0987 91.2366 96.1335 91.2518L96.2193 91.2984C96.4839 91.4175 96.9279 91.5429 97.4511 91.6242C97.9767 91.708 98.5815 91.7418 99.2205 91.7663C101.789 91.8276 104.809 91.4625 107.657 91.0926L107.8 91.074C108.96 90.9235 110.051 91.5694 110.235 92.517C110.373 93.2256 109.963 93.9027 109.263 94.2619C108.507 94.649 107.819 94.9695 107.07 95.2767C106.332 95.5854 105.574 95.8622 104.798 96.1205C103.242 96.632 101.612 97.0574 99.8181 97.3146C98.9205 97.4494 97.9785 97.5209 96.9645 97.5214C95.9511 97.5165 94.8561 97.4425 93.6651 97.1387L93.2133 97.0108C93.0675 96.9696 92.9163 96.9246 92.7219 96.8476C92.3529 96.7094 92.0373 96.5585 91.7397 96.4032C91.1517 96.0921 90.6789 95.7672 90.2631 95.4467C89.4399 94.8034 88.8129 94.1747 88.2651 93.547C86.1321 91.0539 84.8331 88.6294 83.5899 86.1857C82.9899 84.9656 82.4271 83.7494 81.9105 82.5411L81.1527 80.7531L80.7951 79.9C80.6835 79.633 80.5617 79.3551 80.4909 79.2071L80.4441 79.1096C79.5909 77.3295 80.6661 75.3214 82.8459 74.6247C84.9675 73.947 87.3555 74.7668 88.2693 76.4499Z" fill="#263238"/>
<path opacity="0.2" d="M83.4548 190.47L82.9622 195.295H78.0098L78.503 190.47H83.4548Z" fill="black"/>
<path opacity="0.2" d="M51.0006 185.272L55.71 186.022L53.4672 190.739L48.7578 189.99L51.0006 185.272Z" fill="black"/>
<path d="M70.4496 61.0742C70.449 65.0829 70.1987 67.4373 72.5183 69.5345C76.0073 72.6892 82.1916 70.959 83.6609 66.9821C84.9833 63.4027 84.762 57.4482 80.0874 55.7734C75.4812 54.1231 70.4502 57.065 70.4496 61.0742Z" fill="#FFB573"/>
<path d="M81.5461 63.0877C81.9679 62.1484 83.6437 58.1059 80.5315 56.8402C77.4193 55.5745 73.3135 55.1865 70.7941 56.0846C68.2747 56.9828 66.4111 60.2702 66.4111 60.2702C66.4111 60.2702 67.5925 67.1915 72.5557 68.437C77.5189 69.6821 83.1067 64.8845 81.5461 63.0877Z" fill="#263238"/>
<path d="M80.3474 57.3574C81.0374 57.2212 81.827 56.7341 81.827 56.7341C83.6162 55.3058 80.4392 54.3493 77.2838 54.1175C73.7168 53.8559 68.597 55.0157 66.5654 57.1663C68.492 57.9748 77.5988 58.0106 80.3474 57.3574Z" fill="#263238"/>
<path d="M80.0502 56.9566C80.6514 56.99 81.444 56.7533 81.444 56.7533C83.859 55.789 81.081 54.4821 78.6048 53.6222C75.8052 52.65 71.2992 52.528 68.9736 53.8809C70.2726 54.9584 77.6208 56.9165 80.0502 56.9566Z" fill="#263238"/>
<path d="M79.3908 62.5321C79.3812 63.4719 79.8402 64.3666 80.433 64.9585C81.3246 65.8489 82.3758 65.3309 82.635 64.277C82.8684 63.3283 82.6854 61.7221 81.5466 61.2169C80.4246 60.7186 79.4016 61.458 79.3908 62.5321Z" fill="#FFB573"/>
<path d="M77.0004 109.787C77.0004 109.787 77.8164 140.377 72.8286 151.656C64.9284 169.523 56.3532 190.259 56.3532 190.259L47.3184 188.616C47.3184 188.616 54.5742 166.052 58.5558 151.002C62.1324 137.482 59.3676 120.83 59.916 109.787C66.0834 109.787 77.0004 109.787 77.0004 109.787Z" fill="#727476"/>
<g opacity="0.3">
<path d="M77.0004 109.787C77.0004 109.787 77.8164 140.377 72.8286 151.656C64.9284 169.523 56.3532 190.259 56.3532 190.259L47.3184 188.616C47.3184 188.616 54.5742 166.052 58.5558 151.002C62.1324 137.482 59.3676 120.83 59.916 109.787C66.0834 109.787 77.0004 109.787 77.0004 109.787Z" fill="white"/>
</g>
<path opacity="0.2" d="M77.0413 116.602C74.5724 116.006 72.6139 116.231 72.0175 118.046C70.4623 122.786 73.8008 135.285 75.4898 141.003C76.6976 132.81 76.9988 123.011 77.0413 116.602Z" fill="black"/>
<path d="M58.7905 188.017C58.8277 188.024 56.5525 190.413 56.5525 190.413L46.6807 188.619L47.8087 185.851L58.7905 188.017Z" fill="#727476"/>
<path d="M86.3935 109.787C86.3935 109.787 91.8919 135.489 91.8043 147.817C91.7065 161.643 84.8533 194.361 84.8533 194.361H76.4677C76.4677 194.361 77.5243 161.472 77.7769 148.879C78.0523 135.15 68.9893 109.787 68.9893 109.787H86.3935Z" fill="#727476"/>
<g opacity="0.3">
<path d="M86.3935 109.787C86.3935 109.787 91.8919 135.489 91.8043 147.817C91.7065 161.643 84.8533 194.361 84.8533 194.361H76.4677C76.4677 194.361 77.5243 161.472 77.7769 148.879C78.0523 135.15 68.9893 109.787 68.9893 109.787H86.3935Z" fill="white"/>
</g>
<path d="M86.6027 191.633C86.6411 191.633 85.9883 194.476 85.9883 194.476H75.7877L75.6377 191.939L86.6027 191.633Z" fill="#727476"/>
<path d="M76.9629 118.559C76.9365 118.559 76.9101 118.554 76.8867 118.542L73.3953 116.858C73.3557 116.838 73.3287 116.805 73.3227 116.767L72.6057 112.204C72.6003 112.169 72.6135 112.134 72.6423 112.108C72.6705 112.081 72.7119 112.066 72.7551 112.066H79.4553C79.5315 112.066 79.5951 112.112 79.6047 112.174L80.2431 116.625C80.2491 116.669 80.2251 116.714 80.1801 116.74L77.0505 118.536C77.0235 118.552 76.9929 118.559 76.9629 118.559ZM73.6107 116.678L76.9557 118.291L79.9329 116.582L79.3203 112.312H72.9243L73.6107 116.678Z" fill="white"/>
</svg>
