<svg width="35" height="29" viewBox="0 0 35 29" fill="none" xmlns="http://www.w3.org/2000/svg">
<rect width="34.02" height="28.62" rx="2.7" fill="black"/>
<path d="M18.8928 4.93293L13.2242 4.93293V10.1655L18.8928 4.93293Z" fill="url(#paint0_linear_2279_10671)"/>
<path d="M5.37518 4.93292L10.6078 4.9329V23.683H5.37518V4.93292Z" fill="url(#paint1_linear_2279_10671)"/>
<rect x="5.37518" y="13.6539" width="8.721" height="3.4884" fill="url(#paint2_linear_2279_10671)"/>
<rect x="5.37518" y="4.93292" width="7.8489" height="5.2326" fill="url(#paint3_linear_2279_10671)"/>
<path d="M21.7272 4.93292H29.1401V10.3835H21.7272V4.93292Z" fill="url(#paint4_linear_2279_10671)"/>
<path d="M15.84 24.1191H23.2529V18.6685H15.84V24.1191Z" fill="url(#paint5_linear_2279_10671)"/>
<path d="M15.405 12.7818H21.7277V17.1423L15.405 12.7818Z" fill="url(#paint6_linear_2279_10671)"/>
<path d="M29.5759 16.2702H23.2531V11.9097L29.5759 16.2702Z" fill="url(#paint7_linear_2279_10671)"/>
<path d="M10.6076 13.6539L10.6075 17.1423H14.0959L10.6076 13.6539Z" fill="url(#paint8_linear_2279_10671)"/>
<path d="M21.7272 12.7816H15.405V10.6019L21.7272 4.93292V12.7816Z" fill="url(#paint9_linear_2279_10671)"/>
<path d="M23.2536 16.2702H29.5768V18.4509L23.2536 24.1188V16.2702Z" fill="url(#paint10_linear_2279_10671)"/>
<defs>
<linearGradient id="paint0_linear_2279_10671" x1="15.9297" y1="3.8487" x2="16.5674" y2="12.0638" gradientUnits="userSpaceOnUse">
<stop stop-color="#39EBA6"/>
<stop offset="1" stop-color="#617DA9"/>
</linearGradient>
<linearGradient id="paint1_linear_2279_10671" x1="8.11041" y1="1.04773" x2="-0.0708215" y2="28.1972" gradientUnits="userSpaceOnUse">
<stop stop-color="#39EBA6"/>
<stop offset="1" stop-color="#617DA9"/>
</linearGradient>
<linearGradient id="paint2_linear_2279_10671" x1="15.9032" y1="15.4774" x2="2.71196" y2="12.7041" gradientUnits="userSpaceOnUse">
<stop stop-color="#39EBA6"/>
<stop offset="1" stop-color="#617DA9"/>
</linearGradient>
<linearGradient id="paint3_linear_2279_10671" x1="14.8504" y1="7.66814" x2="2.64771" y2="6.12886" gradientUnits="userSpaceOnUse">
<stop stop-color="#39EBA6"/>
<stop offset="1" stop-color="#617DA9"/>
</linearGradient>
<linearGradient id="paint4_linear_2279_10671" x1="30.6761" y1="7.78211" x2="19.1191" y2="6.46035" gradientUnits="userSpaceOnUse">
<stop stop-color="#39EBA6"/>
<stop offset="1" stop-color="#617DA9"/>
</linearGradient>
<linearGradient id="paint5_linear_2279_10671" x1="24.7889" y1="21.27" x2="13.2319" y2="22.5917" gradientUnits="userSpaceOnUse">
<stop stop-color="#39EBA6"/>
<stop offset="1" stop-color="#617DA9"/>
</linearGradient>
<linearGradient id="paint6_linear_2279_10671" x1="18.71" y1="11.8783" x2="18.3119" y2="18.7424" gradientUnits="userSpaceOnUse">
<stop stop-color="#39EBA6"/>
<stop offset="1" stop-color="#617DA9"/>
</linearGradient>
<linearGradient id="paint7_linear_2279_10671" x1="26.2708" y1="17.1738" x2="26.6689" y2="10.3097" gradientUnits="userSpaceOnUse">
<stop stop-color="#39EBA6"/>
<stop offset="1" stop-color="#617DA9"/>
</linearGradient>
<linearGradient id="paint8_linear_2279_10671" x1="9.88473" y1="15.4774" x2="15.3558" y2="15.0173" gradientUnits="userSpaceOnUse">
<stop stop-color="#39EBA6"/>
<stop offset="1" stop-color="#617DA9"/>
</linearGradient>
<linearGradient id="paint9_linear_2279_10671" x1="23.0373" y1="9.03562" x2="13.0972" y2="8.36227" gradientUnits="userSpaceOnUse">
<stop stop-color="#39EBA6"/>
<stop offset="1" stop-color="#617DA9"/>
</linearGradient>
<linearGradient id="paint10_linear_2279_10671" x1="30.8871" y1="20.3729" x2="20.9455" y2="19.6993" gradientUnits="userSpaceOnUse">
<stop stop-color="#39EBA6"/>
<stop offset="1" stop-color="#617DA9"/>
</linearGradient>
</defs>
</svg>
