<svg width="107" height="88" viewBox="0 0 107 88" fill="none" xmlns="http://www.w3.org/2000/svg">
<path d="M89.5 17.5C85.5 12.5911 66.0737 21.9793 40.3696 42.9244C14.6655 63.8695 4 80.0911 8 85" stroke="#FDC800" stroke-width="4"/>
<g clip-path="url(#clip0_2153_1846)">
<path d="M11.75 29.5C11.75 24.7967 11.75 20.0934 11.8033 15.3128C11.9112 15.1884 11.9954 15.1516 12.0162 15.0924C12.7078 13.1255 14.0327 11.7861 15.981 11.0495C16.0925 11.0074 16.1613 10.8524 16.25 10.75C38.8033 10.75 61.3566 10.75 83.9872 10.8033C84.1117 10.9112 84.1486 10.9954 84.2077 11.0162C86.1741 11.7083 87.5146 13.032 88.2504 14.9808C88.2925 15.0924 88.4475 15.1613 88.55 15.25C88.55 37.8033 88.55 60.3566 88.4971 82.9869C88.3814 83.1343 88.2901 83.1943 88.26 83.2767C87.5644 85.1779 86.2656 86.4815 84.3896 87.2287C84.2551 87.2823 84.1622 87.4405 84.05 87.55C61.4967 87.55 38.9434 87.55 16.3128 87.4967C16.1883 87.3888 16.1514 87.3046 16.0922 87.2838C14.1257 86.592 12.7854 85.2682 12.0496 83.3192C12.0075 83.2077 11.8525 83.1387 11.75 83.05C11.75 66.3967 11.75 49.7434 11.8043 33.0169C12.2261 32.7949 12.5936 32.6461 13.0165 32.5022C14.0713 32.7623 14.3044 33.0841 14.3044 34.2292C14.3051 49.6998 14.3046 65.1704 14.3052 80.6411C14.3054 83.4579 15.841 84.9948 18.6541 84.9949C39.6481 84.9953 60.6422 84.9953 81.6363 84.9949C84.4546 84.9949 85.9946 83.4604 85.9947 80.6495C85.9954 61.9048 85.9951 43.1601 85.9951 24.4154C85.9951 24.1477 85.9951 23.8799 85.9951 23.5825C62.067 23.5825 38.2145 23.5825 14.3047 23.5825C14.3047 25.2229 14.3092 26.8181 14.303 28.4132C14.2991 29.4076 13.954 29.7955 12.9052 29.9522C12.4814 29.8008 12.1157 29.6504 11.75 29.5ZM55.925 13.3007C43.4015 13.3008 30.8781 13.2988 18.3546 13.3026C15.957 13.3033 14.3112 14.9607 14.3015 17.3601C14.2981 18.185 14.2968 19.0099 14.3017 19.8348C14.3089 21.0788 14.1724 20.9584 15.4281 20.9585C38.5752 20.9604 61.7224 20.9599 84.8696 20.9599C85.0446 20.9599 85.221 20.9454 85.3943 20.9621C85.8445 21.0057 86.0191 20.8228 86.0064 20.3618C85.981 19.4376 86 18.5123 85.9991 17.5874C85.9964 14.8791 84.4242 13.3015 81.7219 13.3011C73.1729 13.3 64.624 13.3007 55.925 13.3007Z" fill="#262626"/>
<path d="M88.55 15.1797C88.4476 15.1613 88.2926 15.0924 88.2505 14.9808C87.5146 13.032 86.1741 11.7083 84.2077 11.0162C84.1486 10.9954 84.1117 10.9112 84.0573 10.8033C85.539 10.75 87.028 10.75 88.55 10.75C88.55 12.203 88.55 13.6562 88.55 15.1797Z" fill="black"/>
<path d="M11.75 29.5703C12.1157 29.6504 12.4814 29.8008 12.899 30.0219C12.9543 30.8942 12.9577 31.6958 12.9611 32.4974C12.5936 32.6461 12.2261 32.7949 11.8043 32.9468C11.75 31.8469 11.75 30.7437 11.75 29.5703Z" fill="black"/>
<path d="M13.0165 32.5022C12.9577 31.6958 12.9543 30.8942 12.9572 30.0229C13.954 29.7955 14.2991 29.4076 14.303 28.4132C14.3092 26.8181 14.3047 25.2229 14.3047 23.5825C38.2145 23.5825 62.067 23.5825 85.9951 23.5825C85.9951 23.8799 85.9951 24.1477 85.9951 24.4154C85.9951 43.1601 85.9954 61.9048 85.9947 80.6495C85.9946 83.4604 84.4546 84.9948 81.6363 84.9949C60.6422 84.9953 39.6481 84.9953 18.6541 84.9949C15.841 84.9948 14.3054 83.4579 14.3052 80.6411C14.3046 65.1704 14.3051 49.6998 14.3044 34.2292C14.3044 33.0841 14.0713 32.7622 13.0165 32.5022ZM36.275 69.6388C50.0986 69.6388 63.9223 69.6393 77.746 69.6384C79.9395 69.6383 80.8828 68.6872 80.8831 66.4816C80.8838 62.557 80.8849 58.6324 80.8827 54.7078C80.8815 52.7076 79.8843 51.7043 77.8974 51.7042C59.3992 51.7033 40.901 51.7033 22.4028 51.7042C20.4138 51.7043 19.4182 52.706 19.4172 54.7065C19.4154 58.6311 19.4163 62.5557 19.4169 66.4803C19.4172 68.6883 20.358 69.6377 22.5513 69.6384C27.0759 69.6399 31.6004 69.6388 36.275 69.6388ZM59.675 37.6204C65.7995 37.6204 71.924 37.6232 78.0485 37.6186C79.8553 37.6173 80.8722 36.5918 80.8822 34.7784C80.8886 33.6286 80.892 32.4785 80.8802 31.3288C80.8703 30.3642 80.5226 29.511 79.645 29.0864C79.0662 28.8064 78.3584 28.6782 77.7082 28.6775C59.3348 28.6567 40.9613 28.6607 22.5878 28.6609C22.3878 28.6609 22.1873 28.6548 21.988 28.6669C20.4492 28.7601 19.4479 29.7889 19.4205 31.3313C19.4019 32.3809 19.4785 33.4356 19.4026 34.48C19.2735 36.2565 20.3504 37.6578 22.5532 37.6477C34.8769 37.591 47.201 37.6204 59.675 37.6204ZM33.575 49.1503C48.3732 49.1503 63.1715 49.1509 77.9697 49.1495C79.8605 49.1493 80.8745 48.1277 80.8813 46.2262C80.8847 45.2763 80.8821 44.3264 80.8819 43.3765C80.8814 41.1162 79.9511 40.177 77.71 40.177C66.7114 40.1767 55.7127 40.1768 44.714 40.1768C37.2898 40.1768 29.8657 40.1759 22.4416 40.1775C20.408 40.1779 19.4206 41.1757 19.4183 43.2232C19.4171 44.2231 19.4157 45.223 19.4186 46.2229C19.4242 48.1263 20.4367 49.1481 22.3263 49.1495C26.0259 49.1522 29.7254 49.1503 33.575 49.1503ZM70.475 79.8824C72.6245 79.8822 74.7742 79.899 76.9235 79.877C79.1644 79.8542 80.8805 78.1625 80.8777 76.0219C80.875 73.9001 79.2051 72.2287 76.9818 72.209C73.6078 72.1791 70.2332 72.1816 66.8592 72.2077C64.6349 72.2249 62.9616 73.8781 62.9419 76.002C62.9221 78.1385 64.6399 79.8407 66.8759 79.8782C68.0253 79.8974 69.1753 79.8821 70.475 79.8824ZM52.2184 78.344C53.5545 79.9278 55.4874 80.3234 57.1715 79.3576C58.7801 78.435 59.511 76.5215 58.8875 74.7848C58.3723 73.3497 57.3482 72.4662 55.8353 72.2517C54.2313 72.0242 52.9167 72.6007 52.0496 73.9727C51.1507 75.3949 51.2273 76.8512 52.2184 78.344Z" fill="#D3DCED"/>
<path d="M56 13.3008C64.624 13.3008 73.173 13.3001 81.7219 13.3012C84.4242 13.3015 85.9965 14.8791 85.9991 17.5874C86 18.5123 85.9811 19.4377 86.0064 20.3619C86.0191 20.8228 85.8446 21.0057 85.3943 20.9622C85.221 20.9454 85.0446 20.9599 84.8697 20.9599C61.7225 20.9599 38.5753 20.9604 15.4281 20.9586C14.1724 20.9585 14.3089 21.0788 14.3017 19.8348C14.2969 19.0099 14.2982 18.185 14.3015 17.3601C14.3112 14.9607 15.9571 13.3033 18.3546 13.3026C30.8781 13.2989 43.4016 13.3008 56 13.3008ZM64.775 15.8543C63.7509 15.855 62.7262 15.8359 61.7027 15.8626C60.9346 15.8827 60.351 16.5026 60.3728 17.2073C60.3915 17.8076 61.0091 18.4007 61.6779 18.4014C67.648 18.4082 73.6181 18.4083 79.5882 18.4006C80.2541 18.3997 80.87 17.7942 80.8802 17.194C80.8912 16.5414 80.366 15.947 79.6874 15.8655C79.4655 15.8388 79.2383 15.8547 79.0135 15.8547C74.3174 15.8543 69.6212 15.8544 64.775 15.8543ZM21.7797 16.4356C21.0004 15.5589 19.9978 15.801 19.061 15.9677C18.3753 16.0897 18.1044 16.6525 18.2036 17.3365C18.304 18.0291 18.7387 18.3803 19.4331 18.4031C19.782 18.4145 20.1317 18.4105 20.481 18.4064C21.6976 18.3922 22.1563 17.759 21.7797 16.4356ZM29.5837 16.7671C29.0993 15.7888 27.2221 15.4533 26.3322 16.1758C25.8665 16.5539 25.7311 17.0285 25.9131 17.5769C26.0875 18.1025 26.4814 18.3842 27.0413 18.4017C27.4153 18.4134 27.7899 18.411 28.1641 18.4061C29.2379 18.392 29.6137 17.9937 29.5837 16.7671Z" fill="url(#paint0_linear_2153_1846)"/>
<path d="M36.2 69.6388C31.6004 69.6388 27.0759 69.6399 22.5513 69.6384C20.358 69.6377 19.4172 68.6883 19.4169 66.4803C19.4163 62.5557 19.4154 58.6311 19.4172 54.7065C19.4182 52.706 20.4138 51.7043 22.4028 51.7042C40.901 51.7033 59.3992 51.7033 77.8974 51.7042C79.8843 51.7043 80.8815 52.7076 80.8827 54.7078C80.8849 58.6324 80.8838 62.557 80.8831 66.4816C80.8828 68.6873 79.9395 69.6383 77.746 69.6384C63.9223 69.6393 50.0987 69.6389 36.2 69.6388ZM50.975 54.2637C41.3345 54.2637 31.694 54.2637 22.0279 54.2637C22.0279 58.5673 22.0279 62.7776 22.0279 66.992C40.8074 66.992 59.5382 66.992 78.2593 66.992C78.2593 62.7174 78.2593 58.5089 78.2593 54.2637C69.1723 54.2637 60.1487 54.2637 50.975 54.2637Z" fill="#2A2A2B"/>
<path d="M59.6 37.6204C47.201 37.6204 34.8769 37.5911 22.5532 37.6477C20.3504 37.6578 19.2735 36.2565 19.4026 34.48C19.4785 33.4356 19.4019 32.3809 19.4205 31.3313C19.4479 29.7889 20.4492 28.7601 21.988 28.6669C22.1873 28.6548 22.3879 28.6609 22.5878 28.6609C40.9613 28.6607 59.3348 28.6567 77.7082 28.6775C78.3584 28.6782 79.0662 28.8064 79.645 29.0864C80.5226 29.5111 80.8703 30.3643 80.8802 31.3288C80.892 32.4785 80.8886 33.6286 80.8822 34.7784C80.8722 36.5918 79.8553 37.6173 78.0485 37.6186C71.924 37.6232 65.7995 37.6204 59.6 37.6204ZM26.525 35.0591C43.7645 35.0591 61.0041 35.0591 78.2572 35.0591C78.2572 33.7519 78.2572 32.5241 78.2572 31.2897C59.4816 31.2897 40.7711 31.2897 22.0202 31.2897C22.0202 32.5484 22.0202 33.7602 22.0202 35.0591C23.4918 35.0591 24.9334 35.0591 26.525 35.0591Z" fill="#2A2B2B"/>
<path d="M33.5 49.1503C29.7254 49.1503 26.0259 49.1522 22.3263 49.1495C20.4367 49.1481 19.4242 48.1263 19.4186 46.2229C19.4157 45.223 19.4171 44.2231 19.4182 43.2233C19.4206 41.1757 20.408 40.1779 22.4416 40.1775C29.8657 40.1759 37.2898 40.1769 44.7139 40.1769C55.7126 40.1768 66.7113 40.1767 77.71 40.177C79.951 40.1771 80.8813 41.1162 80.8819 43.3765C80.8821 44.3264 80.8847 45.2763 80.8813 46.2262C80.8745 48.1277 79.8605 49.1493 77.9697 49.1495C63.1715 49.1509 48.3732 49.1503 33.5 49.1503ZM55.925 46.5955C63.3644 46.5955 70.8039 46.5955 78.2814 46.5955C78.2814 45.2865 78.2814 44.053 78.2814 42.7788C59.5114 42.7788 40.7857 42.7788 22.0186 42.7788C22.0186 44.056 22.0186 45.2897 22.0186 46.5955C33.299 46.5955 44.537 46.5955 55.925 46.5955Z" fill="#282828"/>
<path d="M70.4 79.8824C69.1753 79.8821 68.0253 79.8975 66.8759 79.8782C64.6399 79.8407 62.9221 78.1385 62.9419 76.002C62.9617 73.8782 64.635 72.2249 66.8592 72.2077C70.2332 72.1817 73.6078 72.1791 76.9818 72.209C79.2051 72.2288 80.875 73.9001 80.8778 76.022C80.8806 78.1626 79.1645 79.8542 76.9235 79.8771C74.7742 79.899 72.6246 79.8822 70.4 79.8824ZM77.5902 77.174C78.163 76.8219 78.4473 76.3358 78.2346 75.6608C78.0234 74.9903 77.5167 74.7598 76.8448 74.7634C74.9453 74.7733 73.0456 74.7658 71.1459 74.7662C69.6962 74.7666 68.2437 74.7195 66.7986 74.8021C66.4029 74.8247 65.88 75.1556 65.6902 75.4975C65.5168 75.81 65.5585 76.4743 65.7879 76.721C66.0974 77.0538 66.6748 77.2922 67.1415 77.2993C70.3151 77.3477 73.4899 77.3273 76.6643 77.3198C76.9347 77.3191 77.2049 77.2511 77.5902 77.174Z" fill="#282929"/>
<path d="M52.1839 78.3019C51.2273 76.8512 51.1507 75.3949 52.0496 73.9727C52.9167 72.6007 54.2313 72.0242 55.8353 72.2517C57.3483 72.4662 58.3723 73.3497 58.8876 74.7848C59.511 76.5215 58.7801 78.435 57.1715 79.3575C55.4874 80.3234 53.5545 79.9278 52.1839 78.3019ZM55.5528 74.7958C54.6882 74.773 54.1846 75.065 54.0498 75.7027C53.917 76.3311 54.1074 76.8443 54.691 77.1588C55.2912 77.4823 56.0417 77.2494 56.3745 76.6561C56.7603 75.9684 56.508 75.3084 55.5528 74.7958Z" fill="#292929"/>
<path d="M64.85 15.8543C69.6212 15.8544 74.3174 15.8543 79.0135 15.8547C79.2383 15.8547 79.4655 15.8388 79.6874 15.8655C80.3661 15.947 80.8912 16.5414 80.8802 17.194C80.87 17.7942 80.2541 18.3997 79.5883 18.4006C73.6181 18.4083 67.648 18.4082 61.6779 18.4014C61.0091 18.4007 60.3915 17.8076 60.3728 17.2073C60.351 16.5026 60.9346 15.8827 61.7027 15.8626C62.7262 15.8359 63.7509 15.855 64.85 15.8543Z" fill="#262627"/>
<path d="M21.807 16.4888C22.1563 17.7589 21.6976 18.3922 20.481 18.4064C20.1317 18.4105 19.782 18.4145 19.433 18.4031C18.7387 18.3802 18.3039 18.0291 18.2035 17.3365C18.1044 16.6525 18.3752 16.0897 19.061 15.9677C19.9978 15.801 21.0004 15.5589 21.807 16.4888Z" fill="#272728"/>
<path d="M29.5935 16.8278C29.6137 17.9937 29.2379 18.392 28.1641 18.4061C27.7899 18.411 27.4153 18.4134 27.0413 18.4017C26.4814 18.3842 26.0875 18.1025 25.9131 17.5769C25.7311 17.0284 25.8665 16.5539 26.3322 16.1758C27.2221 15.4533 29.0993 15.7888 29.5935 16.8278Z" fill="#272728"/>
<path d="M51.05 54.2637C60.1487 54.2637 69.1723 54.2637 78.2593 54.2637C78.2593 58.5089 78.2593 62.7174 78.2593 66.992C59.5382 66.992 40.8074 66.992 22.0279 66.992C22.0279 62.7776 22.0279 58.5673 22.0279 54.2637C31.694 54.2637 41.3345 54.2637 51.05 54.2637Z" fill="#B2BFD3"/>
<path d="M26.45 35.0591C24.9334 35.0591 23.4917 35.0591 22.0201 35.0591C22.0201 33.7602 22.0201 32.5484 22.0201 31.2897C40.7711 31.2897 59.4816 31.2897 78.2572 31.2897C78.2572 32.5242 78.2572 33.7519 78.2572 35.0591C61.0041 35.0591 43.7645 35.0591 26.45 35.0591Z" fill="#B4C2D6"/>
<path d="M55.85 46.5955C44.537 46.5955 33.299 46.5955 22.0187 46.5955C22.0187 45.2897 22.0187 44.056 22.0187 42.7788C40.7857 42.7788 59.5115 42.7788 78.2814 42.7788C78.2814 44.053 78.2814 45.2865 78.2814 46.5955C70.8039 46.5955 63.3645 46.5955 55.85 46.5955Z" fill="#B2BFD3"/>
<path d="M77.5326 77.1941C77.2049 77.2511 76.9346 77.3191 76.6642 77.3198C73.4898 77.3273 70.3151 77.3477 67.1414 77.2993C66.6748 77.2922 66.0973 77.0538 65.7878 76.721C65.5585 76.4743 65.5167 75.81 65.6902 75.4975C65.8799 75.1556 66.4029 74.8247 66.7986 74.8021C68.2436 74.7195 69.6962 74.7666 71.1459 74.7662C73.0455 74.7658 74.9452 74.7733 76.8448 74.7634C77.5166 74.7598 78.0233 74.9903 78.2346 75.6608C78.4472 76.3358 78.163 76.8219 77.5326 77.1941Z" fill="url(#paint1_linear_2153_1846)"/>
<path d="M55.6125 74.8073C56.508 75.3084 56.7603 75.9685 56.3745 76.6562C56.0416 77.2494 55.2912 77.4823 54.691 77.1588C54.1074 76.8443 53.917 76.3311 54.0498 75.7027C54.1846 75.0651 54.6882 74.773 55.6125 74.8073Z" fill="#B0BED1"/>
</g>
<path d="M90.0473 15.3216C92.7551 18.8128 72.3083 39.204 44.3782 60.8664C16.448 82.5289 10.7078 88.4913 8 85" stroke="#FDC800" stroke-width="4"/>
<path d="M92.4634 8.21689C92.7902 7.87388 93.3673 8.13597 93.3241 8.6078L92.8035 14.2598C92.7444 14.9021 93.1025 15.5108 93.693 15.7706L99.1969 18.1921C99.6584 18.3952 99.5636 19.0765 99.0643 19.1454L93.5531 19.9019C92.8458 19.999 92.3048 20.582 92.2599 21.2945L91.9242 26.6293C91.8936 27.115 91.2572 27.275 91.0002 26.8618L87.78 21.6838C87.4601 21.1695 86.8626 20.8982 86.2648 20.9957L80.2468 21.9778C79.7665 22.0562 79.4683 21.4717 79.8139 21.1291L83.6102 17.366C84.1172 16.8634 84.2002 16.0724 83.808 15.4759L80.7513 10.8281C80.4747 10.4067 80.9253 9.88701 81.3819 10.1009L86.8269 12.6522C87.4111 12.9258 88.105 12.795 88.5498 12.3278L92.4634 8.21689Z" fill="#FDC800" stroke="#FDC800"/>
<rect x="7.36542" y="84.9051" width="2.39877" height="2" transform="rotate(-41.9022 7.36542 84.9051)" fill="#FDC800"/>
<defs>
<linearGradient id="paint0_linear_2153_1846" x1="57.1179" y1="17.1343" x2="14.3002" y2="10.4141" gradientUnits="userSpaceOnUse">
<stop stop-color="#39EBA6"/>
<stop offset="1" stop-color="#617DA9"/>
</linearGradient>
<linearGradient id="paint1_linear_2153_1846" x1="73.1795" y1="76.0418" x2="65.4497" y2="75.4015" gradientUnits="userSpaceOnUse">
<stop stop-color="#39EBA6"/>
<stop offset="1" stop-color="#617DA9"/>
</linearGradient>
<clipPath id="clip0_2153_1846">
<rect width="76.8" height="76.8" fill="white" transform="translate(11.6 10.6)"/>
</clipPath>
</defs>
</svg>
