<svg width="32" height="30" viewBox="0 0 32 30" fill="none" xmlns="http://www.w3.org/2000/svg">
<path d="M15.9999 0C12.2007 0.000151434 8.52553 1.29973 5.63195 3.66621C2.73837 6.03269 0.81524 9.31163 0.206655 12.9163C-0.401929 16.5211 0.34375 20.2163 2.31027 23.3409C4.27678 26.4655 7.33581 28.8156 10.94 29.9706C11.74 30.1052 12.04 29.6438 12.04 29.24C12.04 28.8748 12.02 27.6637 12.02 26.3756C7.99999 27.0869 6.96 25.4337 6.64 24.5686C6.28492 23.7272 5.72204 22.9816 5.00001 22.3962C4.44001 22.1079 3.64002 21.3966 4.97999 21.3774C5.49165 21.4307 5.98238 21.6019 6.41061 21.8763C6.83884 22.1507 7.19194 22.5203 7.43999 22.9537C7.65882 23.3316 7.95308 23.6642 8.30589 23.9326C8.6587 24.201 9.06314 24.3998 9.49603 24.5177C9.92892 24.6355 10.3817 24.6701 10.8286 24.6195C11.2754 24.5688 11.7074 24.4339 12.0999 24.2225C12.1692 23.4407 12.5317 22.7096 13.12 22.1656C9.55998 21.7811 5.84 20.4546 5.84 14.572C5.81752 13.0435 6.4043 11.5647 7.47999 10.4388C6.99085 9.11036 7.04808 7.6525 7.63999 6.36327C7.63999 6.36327 8.97993 5.95954 12.04 7.93965C14.658 7.24754 17.4219 7.24754 20.0399 7.93965C23.0999 5.94033 24.4399 6.36327 24.4399 6.36327C25.0319 7.65248 25.0891 9.11037 24.5999 10.4388C25.6788 11.5628 26.2661 13.0429 26.2399 14.572C26.2399 20.4738 22.4999 21.7811 18.9399 22.1656C19.3217 22.5376 19.6158 22.9842 19.8022 23.4751C19.9885 23.9661 20.0628 24.4898 20.0199 25.0108C20.0199 27.0678 19.9999 28.721 19.9999 29.2401C19.9999 29.6438 20.2999 30.1244 21.0999 29.9706C24.6977 28.8062 27.748 26.4506 29.7061 23.3244C31.6642 20.1983 32.4028 16.5049 31.79 12.9037C31.1772 9.30244 29.2529 6.02775 26.3606 3.66416C23.4683 1.30056 19.7962 0.00189921 15.9999 0Z" fill="#F6F6F6"/>
</svg>
