<svg width="35" height="32" viewBox="0 0 35 32" fill="none" xmlns="http://www.w3.org/2000/svg">
<path d="M26.1009 6.0009C25.6971 6.0009 25.3023 6.11052 24.9665 6.3159C24.6308 6.52128 24.3691 6.81319 24.2145 7.15472C24.06 7.49625 24.0196 7.87206 24.0983 8.23463C24.1771 8.5972 24.3716 8.93024 24.6571 9.19164C24.9427 9.45303 25.3065 9.63105 25.7026 9.70317C26.0986 9.77529 26.5092 9.73827 26.8823 9.5968C27.2553 9.45534 27.5742 9.21577 27.7986 8.9084C28.0229 8.60103 28.1427 8.23966 28.1427 7.86999C28.1427 7.37428 27.9276 6.89887 27.5447 6.54835C27.1618 6.19782 26.6424 6.0009 26.1009 6.0009ZM33.9278 9.77023C33.8947 8.47791 33.6303 7.1993 33.1451 5.98533C32.7124 4.94663 32.0391 4.00608 31.1713 3.22842C30.3288 2.43005 29.299 1.81753 28.1597 1.43721C26.8371 0.979532 25.4388 0.731955 24.0251 0.705149C22.2215 0.611694 21.643 0.611694 17.0149 0.611694C12.3869 0.611694 11.8084 0.611694 10.0048 0.705149C8.5911 0.731955 7.19279 0.979532 5.87015 1.43721C4.733 1.82138 3.70404 2.43337 2.85851 3.22842C1.98637 3.9997 1.31726 4.94244 0.901791 5.98533C0.401826 7.1961 0.131372 8.47613 0.102089 9.77023C-9.50783e-08 11.4213 0 11.9508 0 16.1874C0 20.424 -9.50783e-08 20.9536 0.102089 22.6046C0.131372 23.8988 0.401826 25.1788 0.901791 26.3896C1.31726 27.4324 1.98637 28.3752 2.85851 29.1465C3.70404 29.9415 4.733 30.5535 5.87015 30.9377C7.19279 31.3953 8.5911 31.6429 10.0048 31.6697C11.8084 31.7632 12.3869 31.7632 17.0149 31.7632C21.643 31.7632 22.2215 31.7632 24.0251 31.6697C25.4388 31.6429 26.8371 31.3953 28.1597 30.9377C29.299 30.5573 30.3288 29.9448 31.1713 29.1465C32.0429 28.3717 32.7169 27.4303 33.1451 26.3896C33.6303 25.1756 33.8947 23.897 33.9278 22.6046C33.9278 20.9536 34.0299 20.424 34.0299 16.1874C34.0299 11.9508 34.0299 11.4213 33.9278 9.77023ZM30.8651 22.4177C30.8527 23.4064 30.6571 24.386 30.2866 25.3148C30.0149 25.9927 29.5785 26.6052 29.0104 27.106C28.4586 27.6208 27.7909 28.0195 27.0537 28.2742C26.0391 28.6134 24.969 28.7925 23.889 28.8038C22.1875 28.8817 21.5579 28.8972 17.083 28.8972C12.6081 28.8972 11.9785 28.8972 10.277 28.8038C9.15555 28.823 8.03886 28.6649 6.97612 28.3365C6.27133 28.0687 5.63425 27.6711 5.10448 27.1683C4.53973 26.668 4.10884 26.055 3.84537 25.3771C3.42997 24.435 3.19956 23.4332 3.16478 22.4177C3.16478 20.8602 3.06269 20.2839 3.06269 16.1874C3.06269 12.091 3.06269 11.5147 3.16478 9.95714C3.1724 8.94636 3.37398 7.94467 3.7603 6.99775C4.05984 6.34031 4.51962 5.75427 5.10448 5.28442C5.62141 4.74887 6.26028 4.32354 6.97612 4.03836C8.01327 3.69576 9.10638 3.51669 10.209 3.50878C11.9104 3.50878 12.54 3.41533 17.0149 3.41533C21.4899 3.41533 22.1194 3.41533 23.8209 3.50878C24.901 3.52012 25.9711 3.69919 26.9857 4.03836C27.7589 4.30105 28.4529 4.72813 29.0104 5.28442C29.568 5.76287 30.0037 6.34783 30.2866 6.99775C30.6647 7.94621 30.8605 8.94749 30.8651 9.95714C30.9502 11.5147 30.9672 12.091 30.9672 16.1874C30.9672 20.2839 30.9502 20.8602 30.8651 22.4177ZM17.0149 8.19708C15.2893 8.20016 13.6034 8.6714 12.1702 9.55127C10.737 10.4311 9.62088 11.6801 8.96284 13.1404C8.3048 14.6008 8.13437 16.2069 8.47308 17.7558C8.8118 19.3048 9.64446 20.727 10.8659 21.843C12.0873 22.9589 13.6426 23.7183 15.3353 24.0254C17.028 24.3324 18.7822 24.1733 20.3762 23.5681C21.9701 22.9628 23.3324 21.9387 24.2907 20.625C25.2491 19.3114 25.7606 17.7671 25.7606 16.1874C25.7628 15.1362 25.538 14.095 25.0991 13.1236C24.6602 12.1522 24.0158 11.2699 23.203 10.5273C22.3902 9.78471 21.4251 9.19654 20.3631 8.79664C19.3011 8.39673 18.1632 8.19297 17.0149 8.19708ZM17.0149 21.3742C15.8943 21.3742 14.7988 21.07 13.8671 20.5C12.9353 19.9301 12.2091 19.1201 11.7803 18.1723C11.3514 17.2246 11.2392 16.1817 11.4578 15.1756C11.6764 14.1694 12.2161 13.2452 13.0085 12.5199C13.8009 11.7945 14.8105 11.3005 15.9096 11.1004C17.0086 10.9002 18.1479 11.003 19.1832 11.3955C20.2185 11.7881 21.1034 12.4529 21.726 13.3059C22.3486 14.1588 22.6809 15.1616 22.6809 16.1874C22.6809 16.8686 22.5343 17.543 22.2496 18.1723C21.9649 18.8016 21.5475 19.3734 21.0214 19.855C20.4952 20.3366 19.8706 20.7187 19.1832 20.9793C18.4958 21.24 17.759 21.3742 17.0149 21.3742Z" fill="white"/>
</svg>
