<svg width="39" height="39" viewBox="0 0 39 39" fill="none" xmlns="http://www.w3.org/2000/svg">
<path d="M35.3811 0.750018H3.61855C3.26151 0.745059 2.90699 0.810482 2.57524 0.94255C2.24349 1.07462 1.941 1.27074 1.68505 1.51973C1.4291 1.76871 1.22471 2.06568 1.08354 2.39366C0.942372 2.72165 0.867195 3.07423 0.862305 3.43127V35.5688C0.867195 35.9258 0.942372 36.2784 1.08354 36.6064C1.22471 36.9344 1.4291 37.2313 1.68505 37.4803C1.941 37.7293 2.24349 37.9254 2.57524 38.0575C2.90699 38.1896 3.26151 38.255 3.61855 38.25H35.3811C35.7381 38.255 36.0926 38.1896 36.4244 38.0575C36.7561 37.9254 37.0586 37.7293 37.3146 37.4803C37.5705 37.2313 37.7749 36.9344 37.9161 36.6064C38.0572 36.2784 38.1324 35.9258 38.1373 35.5688V3.43127C38.1324 3.07423 38.0572 2.72165 37.9161 2.39366C37.7749 2.06568 37.5705 1.76871 37.3146 1.51973C37.0586 1.27074 36.7561 1.07462 36.4244 0.94255C36.0926 0.810482 35.7381 0.745059 35.3811 0.750018ZM12.1686 32.1375H6.54356V15.2625H12.1686V32.1375ZM9.35606 12.9C8.5803 12.9 7.83631 12.5919 7.28777 12.0433C6.73922 11.4948 6.43106 10.7508 6.43106 9.97502C6.43106 9.19926 6.73922 8.45528 7.28777 7.90673C7.83631 7.35819 8.5803 7.05002 9.35606 7.05002C9.76798 7.0033 10.1851 7.04412 10.5802 7.1698C10.9753 7.29548 11.3393 7.50319 11.6485 7.77932C11.9578 8.05546 12.2052 8.39379 12.3746 8.77217C12.544 9.15055 12.6315 9.56045 12.6315 9.97502C12.6315 10.3896 12.544 10.7995 12.3746 11.1779C12.2052 11.5562 11.9578 11.8946 11.6485 12.1707C11.3393 12.4469 10.9753 12.6546 10.5802 12.7802C10.1851 12.9059 9.76798 12.9467 9.35606 12.9ZM32.4561 32.1375H26.8311V23.0813C26.8311 20.8125 26.0248 19.3313 23.9811 19.3313C23.3485 19.3359 22.7327 19.5343 22.2164 19.8997C21.7001 20.2651 21.3082 20.78 21.0936 21.375C20.9468 21.8157 20.8832 22.2798 20.9061 22.7438V32.1188H15.2811C15.2811 32.1188 15.2811 16.7813 15.2811 15.2438H20.9061V17.625C21.417 16.7383 22.1603 16.0079 23.0556 15.5123C23.951 15.0167 24.9646 14.7747 25.9873 14.8125C29.7373 14.8125 32.4561 17.2313 32.4561 22.425V32.1375Z" fill="#FEFEFE"/>
</svg>
