<svg width="23" height="27" viewBox="0 0 23 27" fill="none" xmlns="http://www.w3.org/2000/svg">
<path d="M18.0714 0H4.92857C3.62143 0 2.36783 0.426695 1.44355 1.18622C0.519259 1.94574 0 2.97587 0 4.05V22.95C0 24.0241 0.519259 25.0543 1.44355 25.8138C2.36783 26.5733 3.62143 27 4.92857 27H18.0714C19.3786 27 20.6322 26.5733 21.5565 25.8138C22.4807 25.0543 23 24.0241 23 22.95V4.05C23 2.97587 22.4807 1.94574 21.5565 1.18622C20.6322 0.426695 19.3786 0 18.0714 0ZM19.7143 22.95C19.7143 23.308 19.5412 23.6514 19.2331 23.9046C18.925 24.1578 18.5071 24.3 18.0714 24.3H4.92857C4.49286 24.3 4.07499 24.1578 3.7669 23.9046C3.4588 23.6514 3.28571 23.308 3.28571 22.95V21.6H19.7143V22.95ZM19.7143 18.9H3.28571V4.05C3.28571 3.69196 3.4588 3.34858 3.7669 3.09541C4.07499 2.84223 4.49286 2.7 4.92857 2.7H18.0714C18.5071 2.7 18.925 2.84223 19.2331 3.09541C19.5412 3.34858 19.7143 3.69196 19.7143 4.05V18.9Z" fill="black"/>
</svg>
