<svg width="345" height="375" viewBox="0 0 345 375" fill="none" xmlns="http://www.w3.org/2000/svg">
<rect x="0.5" y="0.5" width="343" height="374" rx="24.5" fill="#61A986" stroke="#3CC373"/>
<rect x="20.9971" y="27.4138" width="301.54" height="234.945" rx="24.5" fill="#F8F8F6" stroke="#3CC373"/>
<mask id="path-3-outside-1_1863_28" maskUnits="userSpaceOnUse" x="20" y="297" width="264" height="23" fill="black">
<rect fill="white" x="20" y="297" width="264" height="23"/>
<path d="M24.512 310.016V307.232H28.088C28.84 307.232 29.416 307.04 29.816 306.656C30.232 306.272 30.44 305.752 30.44 305.096C30.44 304.488 30.24 303.984 29.84 303.584C29.44 303.184 28.864 302.984 28.112 302.984H24.512V300.056H28.544C29.664 300.056 30.648 300.272 31.496 300.704C32.344 301.12 33.008 301.704 33.488 302.456C33.968 303.208 34.208 304.072 34.208 305.048C34.208 306.04 33.968 306.912 33.488 307.664C33.008 308.4 32.336 308.976 31.472 309.392C30.608 309.808 29.592 310.016 28.424 310.016H24.512ZM21.632 317V300.056H25.4V317H21.632ZM30.848 317L25.568 309.704L29.024 308.768L35.312 317H30.848ZM36.9601 317V300.056H40.7281V317H36.9601ZM39.8401 317V313.736H49.1281V317H39.8401ZM39.8401 309.92V306.776H48.2881V309.92H39.8401ZM39.8401 303.296V300.056H49.0081V303.296H39.8401ZM50.4538 317L57.1738 300.056H60.5818L67.2298 317H63.2458L58.1578 302.936H59.5258L54.3658 317H50.4538ZM54.2698 313.928V310.856H63.5098V313.928H54.2698ZM69.0226 317V300.056H72.7906V317H69.0226ZM71.9266 317V313.688H80.3026V317H71.9266ZM81.5773 312.488V309.272H90.0733V312.488H81.5773ZM95.6278 317V300.296H99.3958V317H95.6278ZM90.3238 303.344V300.056H104.7V303.344H90.3238ZM106.804 317V300.056H110.572V317H106.804ZM113.835 317V300.056H116.523L123.195 310.448H121.827L128.475 300.056H131.187V317H127.419V306.416L128.091 306.584L123.747 313.352H121.251L116.931 306.584L117.579 306.416V317H113.835ZM134.437 317V300.056H138.205V317H134.437ZM137.317 317V313.736H146.605V317H137.317ZM137.317 309.92V306.776H145.765V309.92H137.317ZM137.317 303.296V300.056H146.485V303.296H137.317ZM151.821 317L158.541 300.056H161.949L168.597 317H164.613L159.525 302.936H160.893L155.733 317H151.821ZM155.637 313.928V310.856H164.877V313.928H155.637ZM170.39 317V300.056H173.03L174.158 303.44V317H170.39ZM182.078 317L172.094 304.208L173.03 300.056L183.014 312.848L182.078 317ZM182.078 317L181.07 313.616V300.056H184.838V317H182.078ZM186.837 317L193.557 300.056H196.965L203.613 317H199.629L194.541 302.936H195.909L190.749 317H186.837ZM190.653 313.928V310.856H199.893V313.928H190.653ZM205.405 317V300.056H209.173V317H205.405ZM208.309 317V313.688H216.685V317H208.309ZM221.887 310.688L215.359 300.056H219.727L224.743 308.648H221.935L226.951 300.056H231.223L224.647 310.688H221.887ZM221.431 317V308.96H225.199V317H221.431ZM236.487 317V300.296H240.255V317H236.487ZM231.183 303.344V300.056H245.559V303.344H231.183ZM247.663 317V300.056H251.431V317H247.663ZM262.735 317.264C261.471 317.264 260.295 317.048 259.207 316.616C258.135 316.168 257.191 315.544 256.375 314.744C255.575 313.944 254.951 313.016 254.503 311.96C254.055 310.888 253.831 309.736 253.831 308.504C253.831 307.272 254.055 306.128 254.503 305.072C254.951 304 255.575 303.072 256.375 302.288C257.175 301.504 258.111 300.896 259.183 300.464C260.271 300.016 261.447 299.792 262.711 299.792C264.055 299.792 265.247 300.008 266.286 300.44C267.343 300.872 268.263 301.464 269.047 302.216L266.527 304.76C266.079 304.28 265.535 303.904 264.895 303.632C264.271 303.36 263.543 303.224 262.711 303.224C261.975 303.224 261.295 303.352 260.671 303.608C260.063 303.848 259.535 304.2 259.087 304.664C258.655 305.128 258.311 305.688 258.055 306.344C257.815 307 257.695 307.72 257.695 308.504C257.695 309.304 257.815 310.032 258.055 310.688C258.311 311.344 258.655 311.904 259.087 312.368C259.535 312.832 260.063 313.192 260.671 313.448C261.295 313.704 261.975 313.832 262.711 313.832C263.575 313.832 264.327 313.696 264.967 313.424C265.607 313.152 266.159 312.776 266.622 312.296L269.167 314.84C268.351 315.592 267.415 316.184 266.359 316.616C265.319 317.048 264.111 317.264 262.735 317.264ZM276.048 317.264C274.656 317.264 273.456 317.04 272.448 316.592C271.456 316.128 270.544 315.432 269.712 314.504L272.16 312.08C272.704 312.704 273.304 313.192 273.96 313.544C274.632 313.88 275.408 314.048 276.288 314.048C277.088 314.048 277.704 313.904 278.136 313.616C278.584 313.328 278.808 312.928 278.808 312.416C278.808 311.952 278.664 311.576 278.376 311.288C278.088 311 277.704 310.752 277.224 310.544C276.76 310.336 276.24 310.136 275.664 309.944C275.104 309.752 274.544 309.536 273.984 309.296C273.424 309.04 272.904 308.728 272.424 308.36C271.96 307.976 271.584 307.504 271.296 306.944C271.008 306.368 270.864 305.648 270.864 304.784C270.864 303.744 271.112 302.848 271.608 302.096C272.12 301.344 272.824 300.776 273.72 300.392C274.616 299.992 275.648 299.792 276.816 299.792C278 299.792 279.08 300 280.056 300.416C281.048 300.832 281.864 301.4 282.504 302.12L280.056 304.544C279.544 304.016 279.024 303.624 278.496 303.368C277.984 303.112 277.4 302.984 276.744 302.984C276.088 302.984 275.568 303.112 275.184 303.368C274.8 303.608 274.608 303.96 274.608 304.424C274.608 304.856 274.752 305.208 275.04 305.48C275.328 305.736 275.704 305.96 276.168 306.152C276.648 306.344 277.168 306.536 277.728 306.728C278.304 306.92 278.872 307.144 279.432 307.4C279.992 307.656 280.504 307.984 280.968 308.384C281.448 308.768 281.832 309.264 282.12 309.872C282.408 310.464 282.552 311.2 282.552 312.08C282.552 313.696 281.976 314.968 280.824 315.896C279.672 316.808 278.08 317.264 276.048 317.264Z"/>
</mask>
<path d="M24.512 310.016V307.232H28.088C28.84 307.232 29.416 307.04 29.816 306.656C30.232 306.272 30.44 305.752 30.44 305.096C30.44 304.488 30.24 303.984 29.84 303.584C29.44 303.184 28.864 302.984 28.112 302.984H24.512V300.056H28.544C29.664 300.056 30.648 300.272 31.496 300.704C32.344 301.12 33.008 301.704 33.488 302.456C33.968 303.208 34.208 304.072 34.208 305.048C34.208 306.04 33.968 306.912 33.488 307.664C33.008 308.4 32.336 308.976 31.472 309.392C30.608 309.808 29.592 310.016 28.424 310.016H24.512ZM21.632 317V300.056H25.4V317H21.632ZM30.848 317L25.568 309.704L29.024 308.768L35.312 317H30.848ZM36.9601 317V300.056H40.7281V317H36.9601ZM39.8401 317V313.736H49.1281V317H39.8401ZM39.8401 309.92V306.776H48.2881V309.92H39.8401ZM39.8401 303.296V300.056H49.0081V303.296H39.8401ZM50.4538 317L57.1738 300.056H60.5818L67.2298 317H63.2458L58.1578 302.936H59.5258L54.3658 317H50.4538ZM54.2698 313.928V310.856H63.5098V313.928H54.2698ZM69.0226 317V300.056H72.7906V317H69.0226ZM71.9266 317V313.688H80.3026V317H71.9266ZM81.5773 312.488V309.272H90.0733V312.488H81.5773ZM95.6278 317V300.296H99.3958V317H95.6278ZM90.3238 303.344V300.056H104.7V303.344H90.3238ZM106.804 317V300.056H110.572V317H106.804ZM113.835 317V300.056H116.523L123.195 310.448H121.827L128.475 300.056H131.187V317H127.419V306.416L128.091 306.584L123.747 313.352H121.251L116.931 306.584L117.579 306.416V317H113.835ZM134.437 317V300.056H138.205V317H134.437ZM137.317 317V313.736H146.605V317H137.317ZM137.317 309.92V306.776H145.765V309.92H137.317ZM137.317 303.296V300.056H146.485V303.296H137.317ZM151.821 317L158.541 300.056H161.949L168.597 317H164.613L159.525 302.936H160.893L155.733 317H151.821ZM155.637 313.928V310.856H164.877V313.928H155.637ZM170.39 317V300.056H173.03L174.158 303.44V317H170.39ZM182.078 317L172.094 304.208L173.03 300.056L183.014 312.848L182.078 317ZM182.078 317L181.07 313.616V300.056H184.838V317H182.078ZM186.837 317L193.557 300.056H196.965L203.613 317H199.629L194.541 302.936H195.909L190.749 317H186.837ZM190.653 313.928V310.856H199.893V313.928H190.653ZM205.405 317V300.056H209.173V317H205.405ZM208.309 317V313.688H216.685V317H208.309ZM221.887 310.688L215.359 300.056H219.727L224.743 308.648H221.935L226.951 300.056H231.223L224.647 310.688H221.887ZM221.431 317V308.96H225.199V317H221.431ZM236.487 317V300.296H240.255V317H236.487ZM231.183 303.344V300.056H245.559V303.344H231.183ZM247.663 317V300.056H251.431V317H247.663ZM262.735 317.264C261.471 317.264 260.295 317.048 259.207 316.616C258.135 316.168 257.191 315.544 256.375 314.744C255.575 313.944 254.951 313.016 254.503 311.96C254.055 310.888 253.831 309.736 253.831 308.504C253.831 307.272 254.055 306.128 254.503 305.072C254.951 304 255.575 303.072 256.375 302.288C257.175 301.504 258.111 300.896 259.183 300.464C260.271 300.016 261.447 299.792 262.711 299.792C264.055 299.792 265.247 300.008 266.286 300.44C267.343 300.872 268.263 301.464 269.047 302.216L266.527 304.76C266.079 304.28 265.535 303.904 264.895 303.632C264.271 303.36 263.543 303.224 262.711 303.224C261.975 303.224 261.295 303.352 260.671 303.608C260.063 303.848 259.535 304.2 259.087 304.664C258.655 305.128 258.311 305.688 258.055 306.344C257.815 307 257.695 307.72 257.695 308.504C257.695 309.304 257.815 310.032 258.055 310.688C258.311 311.344 258.655 311.904 259.087 312.368C259.535 312.832 260.063 313.192 260.671 313.448C261.295 313.704 261.975 313.832 262.711 313.832C263.575 313.832 264.327 313.696 264.967 313.424C265.607 313.152 266.159 312.776 266.622 312.296L269.167 314.84C268.351 315.592 267.415 316.184 266.359 316.616C265.319 317.048 264.111 317.264 262.735 317.264ZM276.048 317.264C274.656 317.264 273.456 317.04 272.448 316.592C271.456 316.128 270.544 315.432 269.712 314.504L272.16 312.08C272.704 312.704 273.304 313.192 273.96 313.544C274.632 313.88 275.408 314.048 276.288 314.048C277.088 314.048 277.704 313.904 278.136 313.616C278.584 313.328 278.808 312.928 278.808 312.416C278.808 311.952 278.664 311.576 278.376 311.288C278.088 311 277.704 310.752 277.224 310.544C276.76 310.336 276.24 310.136 275.664 309.944C275.104 309.752 274.544 309.536 273.984 309.296C273.424 309.04 272.904 308.728 272.424 308.36C271.96 307.976 271.584 307.504 271.296 306.944C271.008 306.368 270.864 305.648 270.864 304.784C270.864 303.744 271.112 302.848 271.608 302.096C272.12 301.344 272.824 300.776 273.72 300.392C274.616 299.992 275.648 299.792 276.816 299.792C278 299.792 279.08 300 280.056 300.416C281.048 300.832 281.864 301.4 282.504 302.12L280.056 304.544C279.544 304.016 279.024 303.624 278.496 303.368C277.984 303.112 277.4 302.984 276.744 302.984C276.088 302.984 275.568 303.112 275.184 303.368C274.8 303.608 274.608 303.96 274.608 304.424C274.608 304.856 274.752 305.208 275.04 305.48C275.328 305.736 275.704 305.96 276.168 306.152C276.648 306.344 277.168 306.536 277.728 306.728C278.304 306.92 278.872 307.144 279.432 307.4C279.992 307.656 280.504 307.984 280.968 308.384C281.448 308.768 281.832 309.264 282.12 309.872C282.408 310.464 282.552 311.2 282.552 312.08C282.552 313.696 281.976 314.968 280.824 315.896C279.672 316.808 278.08 317.264 276.048 317.264Z" fill="#F4EAE1"/>
<path d="M24.512 310.016H23.512V311.016H24.512V310.016ZM24.512 307.232V306.232H23.512V307.232H24.512ZM29.816 306.656L29.1377 305.921L29.1305 305.928L29.1235 305.935L29.816 306.656ZM29.84 303.584L29.1329 304.291L29.1329 304.291L29.84 303.584ZM24.512 302.984H23.512V303.984H24.512V302.984ZM24.512 300.056V299.056H23.512V300.056H24.512ZM31.496 300.704L31.0421 301.595L31.0488 301.598L31.0556 301.602L31.496 300.704ZM33.488 302.456L34.3309 301.918V301.918L33.488 302.456ZM33.488 307.664L34.3257 308.21L34.3309 308.202L33.488 307.664ZM31.472 309.392L31.9058 310.293L31.472 309.392ZM21.632 317H20.632V318H21.632V317ZM21.632 300.056V299.056H20.632V300.056H21.632ZM25.4 300.056H26.4V299.056H25.4V300.056ZM25.4 317V318H26.4V317H25.4ZM30.848 317L30.0379 317.586L30.3373 318H30.848V317ZM25.568 309.704L25.3066 308.739L23.909 309.117L24.7579 310.29L25.568 309.704ZM29.024 308.768L29.8187 308.161L29.4109 307.627L28.7626 307.803L29.024 308.768ZM35.312 317V318H37.3342L36.1067 316.393L35.312 317ZM24.512 310.016H25.512V307.232H24.512H23.512V310.016H24.512ZM24.512 307.232V308.232H28.088V307.232V306.232H24.512V307.232ZM28.088 307.232V308.232C29.0043 308.232 29.8641 307.996 30.5085 307.377L29.816 306.656L29.1235 305.935C28.9679 306.084 28.6757 306.232 28.088 306.232V307.232ZM29.816 306.656L30.4943 307.391C31.1485 306.787 31.44 305.983 31.44 305.096H30.44H29.44C29.44 305.521 29.3155 305.757 29.1377 305.921L29.816 306.656ZM30.44 305.096H31.44C31.44 304.245 31.1496 303.479 30.5471 302.877L29.84 303.584L29.1329 304.291C29.3304 304.489 29.44 304.731 29.44 305.096H30.44ZM29.84 303.584L30.5471 302.877C29.9041 302.234 29.0389 301.984 28.112 301.984V302.984V303.984C28.6891 303.984 28.9759 304.134 29.1329 304.291L29.84 303.584ZM28.112 302.984V301.984H24.512V302.984V303.984H28.112V302.984ZM24.512 302.984H25.512V300.056H24.512H23.512V302.984H24.512ZM24.512 300.056V301.056H28.544V300.056V299.056H24.512V300.056ZM28.544 300.056V301.056C29.534 301.056 30.3575 301.246 31.0421 301.595L31.496 300.704L31.9499 299.813C30.9385 299.298 29.794 299.056 28.544 299.056V300.056ZM31.496 300.704L31.0556 301.602C31.7491 301.942 32.2696 302.406 32.6451 302.994L33.488 302.456L34.3309 301.918C33.7464 301.002 32.9389 300.298 31.9364 299.806L31.496 300.704ZM33.488 302.456L32.6451 302.994C33.0129 303.57 33.208 304.244 33.208 305.048H34.208H35.208C35.208 303.9 34.9231 302.846 34.3309 301.918L33.488 302.456ZM34.208 305.048H33.208C33.208 305.871 33.0112 306.552 32.6451 307.126L33.488 307.664L34.3309 308.202C34.9248 307.272 35.208 306.209 35.208 305.048H34.208ZM33.488 307.664L32.6504 307.118C32.2791 307.687 31.7533 308.147 31.0382 308.491L31.472 309.392L31.9058 310.293C32.9187 309.805 33.7369 309.113 34.3256 308.21L33.488 307.664ZM31.472 309.392L31.0382 308.491C30.3358 308.829 29.474 309.016 28.424 309.016V310.016V311.016C29.71 311.016 30.8802 310.787 31.9058 310.293L31.472 309.392ZM28.424 310.016V309.016H24.512V310.016V311.016H28.424V310.016ZM21.632 317H22.632V300.056H21.632H20.632V317H21.632ZM21.632 300.056V301.056H25.4V300.056V299.056H21.632V300.056ZM25.4 300.056H24.4V317H25.4H26.4V300.056H25.4ZM25.4 317V316H21.632V317V318H25.4V317ZM30.848 317L31.6581 316.414L26.3781 309.118L25.568 309.704L24.7579 310.29L30.0379 317.586L30.848 317ZM25.568 309.704L25.8294 310.669L29.2854 309.733L29.024 308.768L28.7626 307.803L25.3066 308.739L25.568 309.704ZM29.024 308.768L28.2293 309.375L34.5173 317.607L35.312 317L36.1067 316.393L29.8187 308.161L29.024 308.768ZM35.312 317V316H30.848V317V318H35.312V317ZM36.9601 317H35.9601V318H36.9601V317ZM36.9601 300.056V299.056H35.9601V300.056H36.9601ZM40.7281 300.056H41.7281V299.056H40.7281V300.056ZM40.7281 317V318H41.7281V317H40.7281ZM39.8401 317H38.8401V318H39.8401V317ZM39.8401 313.736V312.736H38.8401V313.736H39.8401ZM49.1281 313.736H50.1281V312.736H49.1281V313.736ZM49.1281 317V318H50.1281V317H49.1281ZM39.8401 309.92H38.8401V310.92H39.8401V309.92ZM39.8401 306.776V305.776H38.8401V306.776H39.8401ZM48.2881 306.776H49.2881V305.776H48.2881V306.776ZM48.2881 309.92V310.92H49.2881V309.92H48.2881ZM39.8401 303.296H38.8401V304.296H39.8401V303.296ZM39.8401 300.056V299.056H38.8401V300.056H39.8401ZM49.0081 300.056H50.0081V299.056H49.0081V300.056ZM49.0081 303.296V304.296H50.0081V303.296H49.0081ZM36.9601 317H37.9601V300.056H36.9601H35.9601V317H36.9601ZM36.9601 300.056V301.056H40.7281V300.056V299.056H36.9601V300.056ZM40.7281 300.056H39.7281V317H40.7281H41.7281V300.056H40.7281ZM40.7281 317V316H36.9601V317V318H40.7281V317ZM39.8401 317H40.8401V313.736H39.8401H38.8401V317H39.8401ZM39.8401 313.736V314.736H49.1281V313.736V312.736H39.8401V313.736ZM49.1281 313.736H48.1281V317H49.1281H50.1281V313.736H49.1281ZM49.1281 317V316H39.8401V317V318H49.1281V317ZM39.8401 309.92H40.8401V306.776H39.8401H38.8401V309.92H39.8401ZM39.8401 306.776V307.776H48.2881V306.776V305.776H39.8401V306.776ZM48.2881 306.776H47.2881V309.92H48.2881H49.2881V306.776H48.2881ZM48.2881 309.92V308.92H39.8401V309.92V310.92H48.2881V309.92ZM39.8401 303.296H40.8401V300.056H39.8401H38.8401V303.296H39.8401ZM39.8401 300.056V301.056H49.0081V300.056V299.056H39.8401V300.056ZM49.0081 300.056H48.0081V303.296H49.0081H50.0081V300.056H49.0081ZM49.0081 303.296V302.296H39.8401V303.296V304.296H49.0081V303.296ZM50.4538 317L49.5242 316.631L48.9814 318H50.4538V317ZM57.1738 300.056V299.056H56.4946L56.2442 299.687L57.1738 300.056ZM60.5817 300.056L61.5127 299.691L61.2636 299.056H60.5817V300.056ZM67.2298 317V318H68.6963L68.1607 316.635L67.2298 317ZM63.2458 317L62.3054 317.34L62.5441 318H63.2458V317ZM58.1577 302.936V301.936H56.7325L57.2174 303.276L58.1577 302.936ZM59.5257 302.936L60.4646 303.28L60.9578 301.936H59.5257V302.936ZM54.3657 317V318H55.064L55.3046 317.344L54.3657 317ZM54.2697 313.928H53.2697V314.928H54.2697V313.928ZM54.2697 310.856V309.856H53.2697V310.856H54.2697ZM63.5098 310.856H64.5098V309.856H63.5098V310.856ZM63.5098 313.928V314.928H64.5098V313.928H63.5098ZM50.4538 317L51.3833 317.369L58.1033 300.425L57.1738 300.056L56.2442 299.687L49.5242 316.631L50.4538 317ZM57.1738 300.056V301.056H60.5817V300.056V299.056H57.1738V300.056ZM60.5817 300.056L59.6508 300.421L66.2988 317.365L67.2298 317L68.1607 316.635L61.5127 299.691L60.5817 300.056ZM67.2298 317V316H63.2458V317V318H67.2298V317ZM63.2458 317L64.1861 316.66L59.0981 302.596L58.1577 302.936L57.2174 303.276L62.3054 317.34L63.2458 317ZM58.1577 302.936V303.936H59.5257V302.936V301.936H58.1577V302.936ZM59.5257 302.936L58.5869 302.592L53.4269 316.656L54.3657 317L55.3046 317.344L60.4646 303.28L59.5257 302.936ZM54.3657 317V316H50.4538V317V318H54.3657V317ZM54.2697 313.928H55.2697V310.856H54.2697H53.2697V313.928H54.2697ZM54.2697 310.856V311.856H63.5098V310.856V309.856H54.2697V310.856ZM63.5098 310.856H62.5098V313.928H63.5098H64.5098V310.856H63.5098ZM63.5098 313.928V312.928H54.2697V313.928V314.928H63.5098V313.928ZM69.0226 317H68.0226V318H69.0226V317ZM69.0226 300.056V299.056H68.0226V300.056H69.0226ZM72.7906 300.056H73.7906V299.056H72.7906V300.056ZM72.7906 317V318H73.7906V317H72.7906ZM71.9266 317H70.9266V318H71.9266V317ZM71.9266 313.688V312.688H70.9266V313.688H71.9266ZM80.3026 313.688H81.3026V312.688H80.3026V313.688ZM80.3026 317V318H81.3026V317H80.3026ZM69.0226 317H70.0226V300.056H69.0226H68.0226V317H69.0226ZM69.0226 300.056V301.056H72.7906V300.056V299.056H69.0226V300.056ZM72.7906 300.056H71.7906V317H72.7906H73.7906V300.056H72.7906ZM72.7906 317V316H69.0226V317V318H72.7906V317ZM71.9266 317H72.9266V313.688H71.9266H70.9266V317H71.9266ZM71.9266 313.688V314.688H80.3026V313.688V312.688H71.9266V313.688ZM80.3026 313.688H79.3026V317H80.3026H81.3026V313.688H80.3026ZM80.3026 317V316H71.9266V317V318H80.3026V317ZM81.5773 312.488H80.5773V313.488H81.5773V312.488ZM81.5773 309.272V308.272H80.5773V309.272H81.5773ZM90.0732 309.272H91.0732V308.272H90.0732V309.272ZM90.0732 312.488V313.488H91.0732V312.488H90.0732ZM81.5773 312.488H82.5773V309.272H81.5773H80.5773V312.488H81.5773ZM81.5773 309.272V310.272H90.0732V309.272V308.272H81.5773V309.272ZM90.0732 309.272H89.0732V312.488H90.0732H91.0732V309.272H90.0732ZM90.0732 312.488V311.488H81.5773V312.488V313.488H90.0732V312.488ZM95.6277 317H94.6277V318H95.6277V317ZM95.6277 300.296V299.296H94.6277V300.296H95.6277ZM99.3958 300.296H100.396V299.296H99.3958V300.296ZM99.3958 317V318H100.396V317H99.3958ZM90.3238 303.344H89.3238V304.344H90.3238V303.344ZM90.3238 300.056V299.056H89.3238V300.056H90.3238ZM104.7 300.056H105.7V299.056H104.7V300.056ZM104.7 303.344V304.344H105.7V303.344H104.7ZM95.6277 317H96.6277V300.296H95.6277H94.6277V317H95.6277ZM95.6277 300.296V301.296H99.3958V300.296V299.296H95.6277V300.296ZM99.3958 300.296H98.3958V317H99.3958H100.396V300.296H99.3958ZM99.3958 317V316H95.6277V317V318H99.3958V317ZM90.3238 303.344H91.3238V300.056H90.3238H89.3238V303.344H90.3238ZM90.3238 300.056V301.056H104.7V300.056V299.056H90.3238V300.056ZM104.7 300.056H103.7V303.344H104.7H105.7V300.056H104.7ZM104.7 303.344V302.344H90.3238V303.344V304.344H104.7V303.344ZM106.804 317H105.804V318H106.804V317ZM106.804 300.056V299.056H105.804V300.056H106.804ZM110.572 300.056H111.572V299.056H110.572V300.056ZM110.572 317V318H111.572V317H110.572ZM106.804 317H107.804V300.056H106.804H105.804V317H106.804ZM106.804 300.056V301.056H110.572V300.056V299.056H106.804V300.056ZM110.572 300.056H109.572V317H110.572H111.572V300.056H110.572ZM110.572 317V316H106.804V317V318H110.572V317ZM113.835 317H112.835V318H113.835V317ZM113.835 300.056V299.056H112.835V300.056H113.835ZM116.523 300.056L117.365 299.516L117.069 299.056H116.523V300.056ZM123.195 310.448V311.448H125.026L124.037 309.908L123.195 310.448ZM121.827 310.448L120.985 309.909L120 311.448H121.827V310.448ZM128.475 300.056V299.056H127.928L127.633 299.517L128.475 300.056ZM131.187 300.056H132.187V299.056H131.187V300.056ZM131.187 317V318H132.187V317H131.187ZM127.419 317H126.419V318H127.419V317ZM127.419 306.416L127.662 305.446L126.419 305.135V306.416H127.419ZM128.091 306.584L128.933 307.124L129.685 305.952L128.334 305.614L128.091 306.584ZM123.747 313.352V314.352H124.294L124.589 313.892L123.747 313.352ZM121.251 313.352L120.408 313.89L120.703 314.352H121.251V313.352ZM116.931 306.584L116.68 305.616L115.347 305.962L116.088 307.122L116.931 306.584ZM117.579 306.416H118.579V305.124L117.328 305.448L117.579 306.416ZM117.579 317V318H118.579V317H117.579ZM113.835 317H114.835V300.056H113.835H112.835V317H113.835ZM113.835 300.056V301.056H116.523V300.056V299.056H113.835V300.056ZM116.523 300.056L115.682 300.596L122.354 310.988L123.195 310.448L124.037 309.908L117.365 299.516L116.523 300.056ZM123.195 310.448V309.448H121.827V310.448V311.448H123.195V310.448ZM121.827 310.448L122.67 310.987L129.318 300.595L128.475 300.056L127.633 299.517L120.985 309.909L121.827 310.448ZM128.475 300.056V301.056H131.187V300.056V299.056H128.475V300.056ZM131.187 300.056H130.187V317H131.187H132.187V300.056H131.187ZM131.187 317V316H127.419V317V318H131.187V317ZM127.419 317H128.419V306.416H127.419H126.419V317H127.419ZM127.419 306.416L127.177 307.386L127.849 307.554L128.091 306.584L128.334 305.614L127.662 305.446L127.419 306.416ZM128.091 306.584L127.25 306.044L122.906 312.812L123.747 313.352L124.589 313.892L128.933 307.124L128.091 306.584ZM123.747 313.352V312.352H121.251V313.352V314.352H123.747V313.352ZM121.251 313.352L122.094 312.814L117.774 306.046L116.931 306.584L116.088 307.122L120.408 313.89L121.251 313.352ZM116.931 306.584L117.182 307.552L117.83 307.384L117.579 306.416L117.328 305.448L116.68 305.616L116.931 306.584ZM117.579 306.416H116.579V317H117.579H118.579V306.416H117.579ZM117.579 317V316H113.835V317V318H117.579V317ZM134.437 317H133.437V318H134.437V317ZM134.437 300.056V299.056H133.437V300.056H134.437ZM138.205 300.056H139.205V299.056H138.205V300.056ZM138.205 317V318H139.205V317H138.205ZM137.317 317H136.317V318H137.317V317ZM137.317 313.736V312.736H136.317V313.736H137.317ZM146.605 313.736H147.605V312.736H146.605V313.736ZM146.605 317V318H147.605V317H146.605ZM137.317 309.92H136.317V310.92H137.317V309.92ZM137.317 306.776V305.776H136.317V306.776H137.317ZM145.765 306.776H146.765V305.776H145.765V306.776ZM145.765 309.92V310.92H146.765V309.92H145.765ZM137.317 303.296H136.317V304.296H137.317V303.296ZM137.317 300.056V299.056H136.317V300.056H137.317ZM146.485 300.056H147.485V299.056H146.485V300.056ZM146.485 303.296V304.296H147.485V303.296H146.485ZM134.437 317H135.437V300.056H134.437H133.437V317H134.437ZM134.437 300.056V301.056H138.205V300.056V299.056H134.437V300.056ZM138.205 300.056H137.205V317H138.205H139.205V300.056H138.205ZM138.205 317V316H134.437V317V318H138.205V317ZM137.317 317H138.317V313.736H137.317H136.317V317H137.317ZM137.317 313.736V314.736H146.605V313.736V312.736H137.317V313.736ZM146.605 313.736H145.605V317H146.605H147.605V313.736H146.605ZM146.605 317V316H137.317V317V318H146.605V317ZM137.317 309.92H138.317V306.776H137.317H136.317V309.92H137.317ZM137.317 306.776V307.776H145.765V306.776V305.776H137.317V306.776ZM145.765 306.776H144.765V309.92H145.765H146.765V306.776H145.765ZM145.765 309.92V308.92H137.317V309.92V310.92H145.765V309.92ZM137.317 303.296H138.317V300.056H137.317H136.317V303.296H137.317ZM137.317 300.056V301.056H146.485V300.056V299.056H137.317V300.056ZM146.485 300.056H145.485V303.296H146.485H147.485V300.056H146.485ZM146.485 303.296V302.296H137.317V303.296V304.296H146.485V303.296ZM151.821 317L150.891 316.631L150.349 318H151.821V317ZM158.541 300.056V299.056H157.862L157.611 299.687L158.541 300.056ZM161.949 300.056L162.88 299.691L162.631 299.056H161.949V300.056ZM168.597 317V318H170.064L169.528 316.635L168.597 317ZM164.613 317L163.673 317.34L163.911 318H164.613V317ZM159.525 302.936V301.936H158.1L158.585 303.276L159.525 302.936ZM160.893 302.936L161.832 303.28L162.325 301.936H160.893V302.936ZM155.733 317V318H156.431L156.672 317.344L155.733 317ZM155.637 313.928H154.637V314.928H155.637V313.928ZM155.637 310.856V309.856H154.637V310.856H155.637ZM164.877 310.856H165.877V309.856H164.877V310.856ZM164.877 313.928V314.928H165.877V313.928H164.877ZM151.821 317L152.751 317.369L159.471 300.425L158.541 300.056L157.611 299.687L150.891 316.631L151.821 317ZM158.541 300.056V301.056H161.949V300.056V299.056H158.541V300.056ZM161.949 300.056L161.018 300.421L167.666 317.365L168.597 317L169.528 316.635L162.88 299.691L161.949 300.056ZM168.597 317V316H164.613V317V318H168.597V317ZM164.613 317L165.553 316.66L160.465 302.596L159.525 302.936L158.585 303.276L163.673 317.34L164.613 317ZM159.525 302.936V303.936H160.893V302.936V301.936H159.525V302.936ZM160.893 302.936L159.954 302.592L154.794 316.656L155.733 317L156.672 317.344L161.832 303.28L160.893 302.936ZM155.733 317V316H151.821V317V318H155.733V317ZM155.637 313.928H156.637V310.856H155.637H154.637V313.928H155.637ZM155.637 310.856V311.856H164.877V310.856V309.856H155.637V310.856ZM164.877 310.856H163.877V313.928H164.877H165.877V310.856H164.877ZM164.877 313.928V312.928H155.637V313.928V314.928H164.877V313.928ZM170.39 317H169.39V318H170.39V317ZM170.39 300.056V299.056H169.39V300.056H170.39ZM173.03 300.056L173.979 299.74L173.751 299.056H173.03V300.056ZM174.158 303.44H175.158V303.278L175.106 303.124L174.158 303.44ZM174.158 317V318H175.158V317H174.158ZM182.078 317L181.289 317.615L182.589 319.28L183.053 317.22L182.078 317ZM172.094 304.208L171.118 303.988L171.014 304.45L171.305 304.823L172.094 304.208ZM173.03 300.056L173.818 299.441L172.519 297.776L172.054 299.836L173.03 300.056ZM183.014 312.848L183.989 313.068L184.093 312.606L183.802 312.233L183.014 312.848ZM182.078 317L181.119 317.285L181.332 318H182.078V317ZM181.07 313.616H180.07V313.762L180.111 313.901L181.07 313.616ZM181.07 300.056V299.056H180.07V300.056H181.07ZM184.838 300.056H185.838V299.056H184.838V300.056ZM184.838 317V318H185.838V317H184.838ZM170.39 317H171.39V300.056H170.39H169.39V317H170.39ZM170.39 300.056V301.056H173.03V300.056V299.056H170.39V300.056ZM173.03 300.056L172.081 300.372L173.209 303.756L174.158 303.44L175.106 303.124L173.979 299.74L173.03 300.056ZM174.158 303.44H173.158V317H174.158H175.158V303.44H174.158ZM174.158 317V316H170.39V317V318H174.158V317ZM182.078 317L182.866 316.385L172.882 303.593L172.094 304.208L171.305 304.823L181.289 317.615L182.078 317ZM172.094 304.208L173.069 304.428L174.005 300.276L173.03 300.056L172.054 299.836L171.118 303.988L172.094 304.208ZM173.03 300.056L172.242 300.671L182.225 313.463L183.014 312.848L183.802 312.233L173.818 299.441L173.03 300.056ZM183.014 312.848L182.038 312.628L181.102 316.78L182.078 317L183.053 317.22L183.989 313.068L183.014 312.848ZM182.078 317L183.036 316.715L182.028 313.331L181.07 313.616L180.111 313.901L181.119 317.285L182.078 317ZM181.07 313.616H182.07V300.056H181.07H180.07V313.616H181.07ZM181.07 300.056V301.056H184.838V300.056V299.056H181.07V300.056ZM184.838 300.056H183.838V317H184.838H185.838V300.056H184.838ZM184.838 317V316H182.078V317V318H184.838V317ZM186.837 317L185.907 316.631L185.364 318H186.837V317ZM193.557 300.056V299.056H192.877L192.627 299.687L193.557 300.056ZM196.965 300.056L197.895 299.691L197.646 299.056H196.965V300.056ZM203.613 317V318H205.079L204.543 316.635L203.613 317ZM199.629 317L198.688 317.34L198.927 318H199.629V317ZM194.541 302.936V301.936H193.115L193.6 303.276L194.541 302.936ZM195.909 302.936L196.847 303.28L197.341 301.936H195.909V302.936ZM190.749 317V318H191.447L191.687 317.344L190.749 317ZM190.653 313.928H189.653V314.928H190.653V313.928ZM190.653 310.856V309.856H189.653V310.856H190.653ZM199.893 310.856H200.893V309.856H199.893V310.856ZM199.893 313.928V314.928H200.893V313.928H199.893ZM186.837 317L187.766 317.369L194.486 300.425L193.557 300.056L192.627 299.687L185.907 316.631L186.837 317ZM193.557 300.056V301.056H196.965V300.056V299.056H193.557V300.056ZM196.965 300.056L196.034 300.421L202.682 317.365L203.613 317L204.543 316.635L197.895 299.691L196.965 300.056ZM203.613 317V316H199.629V317V318H203.613V317ZM199.629 317L200.569 316.66L195.481 302.596L194.541 302.936L193.6 303.276L198.688 317.34L199.629 317ZM194.541 302.936V303.936H195.909V302.936V301.936H194.541V302.936ZM195.909 302.936L194.97 302.592L189.81 316.656L190.749 317L191.687 317.344L196.847 303.28L195.909 302.936ZM190.749 317V316H186.837V317V318H190.749V317ZM190.653 313.928H191.653V310.856H190.653H189.653V313.928H190.653ZM190.653 310.856V311.856H199.893V310.856V309.856H190.653V310.856ZM199.893 310.856H198.893V313.928H199.893H200.893V310.856H199.893ZM199.893 313.928V312.928H190.653V313.928V314.928H199.893V313.928ZM205.405 317H204.405V318H205.405V317ZM205.405 300.056V299.056H204.405V300.056H205.405ZM209.173 300.056H210.173V299.056H209.173V300.056ZM209.173 317V318H210.173V317H209.173ZM208.309 317H207.309V318H208.309V317ZM208.309 313.688V312.688H207.309V313.688H208.309ZM216.685 313.688H217.685V312.688H216.685V313.688ZM216.685 317V318H217.685V317H216.685ZM205.405 317H206.405V300.056H205.405H204.405V317H205.405ZM205.405 300.056V301.056H209.173V300.056V299.056H205.405V300.056ZM209.173 300.056H208.173V317H209.173H210.173V300.056H209.173ZM209.173 317V316H205.405V317V318H209.173V317ZM208.309 317H209.309V313.688H208.309H207.309V317H208.309ZM208.309 313.688V314.688H216.685V313.688V312.688H208.309V313.688ZM216.685 313.688H215.685V317H216.685H217.685V313.688H216.685ZM216.685 317V316H208.309V317V318H216.685V317ZM221.887 310.688L221.035 311.211L221.327 311.688H221.887V310.688ZM215.359 300.056V299.056H213.571L214.507 300.579L215.359 300.056ZM219.727 300.056L220.59 299.552L220.301 299.056H219.727V300.056ZM224.743 308.648V309.648H226.485L225.606 308.144L224.743 308.648ZM221.935 308.648L221.071 308.144L220.193 309.648H221.935V308.648ZM226.951 300.056V299.056H226.377L226.087 299.552L226.951 300.056ZM231.223 300.056L232.073 300.582L233.017 299.056H231.223V300.056ZM224.647 310.688V311.688H225.204L225.497 311.214L224.647 310.688ZM221.431 317H220.431V318H221.431V317ZM221.431 308.96V307.96H220.431V308.96H221.431ZM225.199 308.96H226.199V307.96H225.199V308.96ZM225.199 317V318H226.199V317H225.199ZM221.887 310.688L222.739 310.165L216.211 299.533L215.359 300.056L214.507 300.579L221.035 311.211L221.887 310.688ZM215.359 300.056V301.056H219.727V300.056V299.056H215.359V300.056ZM219.727 300.056L218.863 300.56L223.879 309.152L224.743 308.648L225.606 308.144L220.59 299.552L219.727 300.056ZM224.743 308.648V307.648H221.935V308.648V309.648H224.743V308.648ZM221.935 308.648L222.798 309.152L227.814 300.56L226.951 300.056L226.087 299.552L221.071 308.144L221.935 308.648ZM226.951 300.056V301.056H231.223V300.056V299.056H226.951V300.056ZM231.223 300.056L230.372 299.53L223.796 310.162L224.647 310.688L225.497 311.214L232.073 300.582L231.223 300.056ZM224.647 310.688V309.688H221.887V310.688V311.688H224.647V310.688ZM221.431 317H222.431V308.96H221.431H220.431V317H221.431ZM221.431 308.96V309.96H225.199V308.96V307.96H221.431V308.96ZM225.199 308.96H224.199V317H225.199H226.199V308.96H225.199ZM225.199 317V316H221.431V317V318H225.199V317ZM236.487 317H235.487V318H236.487V317ZM236.487 300.296V299.296H235.487V300.296H236.487ZM240.255 300.296H241.255V299.296H240.255V300.296ZM240.255 317V318H241.255V317H240.255ZM231.183 303.344H230.183V304.344H231.183V303.344ZM231.183 300.056V299.056H230.183V300.056H231.183ZM245.559 300.056H246.559V299.056H245.559V300.056ZM245.559 303.344V304.344H246.559V303.344H245.559ZM236.487 317H237.487V300.296H236.487H235.487V317H236.487ZM236.487 300.296V301.296H240.255V300.296V299.296H236.487V300.296ZM240.255 300.296H239.255V317H240.255H241.255V300.296H240.255ZM240.255 317V316H236.487V317V318H240.255V317ZM231.183 303.344H232.183V300.056H231.183H230.183V303.344H231.183ZM231.183 300.056V301.056H245.559V300.056V299.056H231.183V300.056ZM245.559 300.056H244.559V303.344H245.559H246.559V300.056H245.559ZM245.559 303.344V302.344H231.183V303.344V304.344H245.559V303.344ZM247.663 317H246.663V318H247.663V317ZM247.663 300.056V299.056H246.663V300.056H247.663ZM251.431 300.056H252.431V299.056H251.431V300.056ZM251.431 317V318H252.431V317H251.431ZM247.663 317H248.663V300.056H247.663H246.663V317H247.663ZM247.663 300.056V301.056H251.431V300.056V299.056H247.663V300.056ZM251.431 300.056H250.431V317H251.431H252.431V300.056H251.431ZM251.431 317V316H247.663V317V318H251.431V317ZM259.206 316.616L258.821 317.539L258.829 317.542L258.837 317.545L259.206 316.616ZM256.374 314.744L255.667 315.451L255.674 315.458L256.374 314.744ZM254.503 311.96L253.58 312.346L253.582 312.351L254.503 311.96ZM254.503 305.072L255.423 305.463L255.425 305.458L254.503 305.072ZM256.374 302.288L257.074 303.002L256.374 302.288ZM259.182 300.464L259.556 301.392L259.563 301.389L259.182 300.464ZM266.286 300.44L265.903 301.364L265.908 301.366L266.286 300.44ZM269.046 302.216L269.757 302.92L270.472 302.198L269.739 301.494L269.046 302.216ZM266.527 304.76L265.795 305.442L266.505 306.203L267.237 305.464L266.527 304.76ZM264.895 303.632L264.495 304.549L264.503 304.552L264.895 303.632ZM260.671 303.608L261.038 304.538L261.05 304.533L260.671 303.608ZM259.087 304.664L258.367 303.969L258.361 303.976L258.355 303.983L259.087 304.664ZM258.055 306.344L257.123 305.98L257.119 305.99L257.115 306L258.055 306.344ZM258.055 310.688L257.115 311.032L257.119 311.042L257.123 311.052L258.055 310.688ZM259.087 312.368L258.355 313.049L258.361 313.056L258.367 313.063L259.087 312.368ZM260.671 313.448L260.282 314.37L260.291 314.373L260.671 313.448ZM266.622 312.296L267.33 311.589L266.61 310.87L265.904 311.601L266.622 312.296ZM269.167 314.84L269.844 315.575L270.61 314.869L269.874 314.133L269.167 314.84ZM266.359 316.616L265.98 315.69L265.975 315.693L266.359 316.616ZM262.734 317.264V316.264C261.587 316.264 260.537 316.068 259.576 315.687L259.206 316.616L258.837 317.545C260.052 318.028 261.354 318.264 262.734 318.264V317.264ZM259.206 316.616L259.592 315.693C258.635 315.293 257.798 314.74 257.075 314.03L256.374 314.744L255.674 315.458C256.583 316.348 257.634 317.043 258.821 317.539L259.206 316.616ZM256.374 314.744L257.082 314.037C256.374 313.329 255.822 312.509 255.423 311.569L254.503 311.96L253.582 312.351C254.079 313.523 254.775 314.559 255.667 315.451L256.374 314.744ZM254.503 311.96L255.425 311.574C255.031 310.632 254.831 309.612 254.831 308.504H253.831H252.831C252.831 309.86 253.078 311.144 253.58 312.346L254.503 311.96ZM253.831 308.504H254.831C254.831 307.396 255.031 306.386 255.423 305.463L254.503 305.072L253.582 304.681C253.078 305.87 252.831 307.148 252.831 308.504H253.831ZM254.503 305.072L255.425 305.458C255.824 304.504 256.373 303.689 257.074 303.002L256.374 302.288L255.675 301.574C254.776 302.455 254.077 303.496 253.58 304.686L254.503 305.072ZM256.374 302.288L257.074 303.002C257.778 302.313 258.602 301.776 259.556 301.392L259.182 300.464L258.809 299.536C257.619 300.016 256.571 300.695 255.675 301.574L256.374 302.288ZM259.182 300.464L259.563 301.389C260.522 300.994 261.567 300.792 262.71 300.792V299.792V298.792C261.326 298.792 260.019 299.038 258.802 299.539L259.182 300.464ZM262.71 299.792V300.792C263.948 300.792 265.006 300.991 265.903 301.363L266.286 300.44L266.67 299.517C265.487 299.025 264.161 298.792 262.71 298.792V299.792ZM266.286 300.44L265.908 301.366C266.853 301.752 267.666 302.277 268.354 302.938L269.046 302.216L269.739 301.494C268.859 300.651 267.832 299.992 266.665 299.514L266.286 300.44ZM269.046 302.216L268.336 301.512L265.816 304.056L266.527 304.76L267.237 305.464L269.757 302.92L269.046 302.216ZM266.527 304.76L267.258 304.078C266.709 303.489 266.047 303.035 265.286 302.712L264.895 303.632L264.503 304.552C265.022 304.773 265.448 305.071 265.795 305.442L266.527 304.76ZM264.895 303.632L265.294 302.715C264.519 302.378 263.65 302.224 262.71 302.224V303.224V304.224C263.435 304.224 264.022 304.342 264.495 304.549L264.895 303.632ZM262.71 303.224V302.224C261.856 302.224 261.046 302.373 260.291 302.683L260.671 303.608L261.05 304.533C261.543 304.331 262.093 304.224 262.71 304.224V303.224ZM260.671 303.608L260.303 302.678C259.564 302.97 258.916 303.401 258.367 303.969L259.087 304.664L259.806 305.359C260.153 304.999 260.561 304.726 261.038 304.538L260.671 303.608ZM259.087 304.664L258.355 303.983C257.828 304.549 257.42 305.22 257.123 305.98L258.055 306.344L258.986 306.708C259.201 306.156 259.481 305.707 259.818 305.345L259.087 304.664ZM258.055 306.344L257.115 306C256.83 306.779 256.695 307.617 256.695 308.504H257.695H258.695C258.695 307.823 258.799 307.221 258.994 306.688L258.055 306.344ZM257.695 308.504H256.695C256.695 309.404 256.83 310.251 257.115 311.032L258.055 310.688L258.994 310.344C258.799 309.813 258.695 309.204 258.695 308.504H257.695ZM258.055 310.688L257.123 311.052C257.42 311.812 257.828 312.483 258.355 313.049L259.087 312.368L259.818 311.687C259.481 311.325 259.201 310.876 258.986 310.324L258.055 310.688ZM259.087 312.368L258.367 313.063C258.911 313.626 259.553 314.062 260.282 314.37L260.671 313.448L261.059 312.526C260.572 312.322 260.158 312.038 259.806 311.673L259.087 312.368ZM260.671 313.448L260.291 314.373C261.046 314.683 261.856 314.832 262.71 314.832V313.832V312.832C262.093 312.832 261.543 312.725 261.05 312.523L260.671 313.448ZM262.71 313.832V314.832C263.677 314.832 264.568 314.68 265.358 314.344L264.967 313.424L264.575 312.504C264.085 312.712 263.472 312.832 262.71 312.832V313.832ZM264.967 313.424L265.358 314.344C266.116 314.022 266.781 313.571 267.341 312.991L266.622 312.296L265.904 311.601C265.536 311.981 265.097 312.282 264.575 312.504L264.967 313.424ZM266.622 312.296L265.915 313.003L268.459 315.547L269.167 314.84L269.874 314.133L267.33 311.589L266.622 312.296ZM269.167 314.84L268.489 314.105C267.763 314.774 266.929 315.302 265.98 315.69L266.359 316.616L266.737 317.542C267.9 317.066 268.938 316.41 269.844 315.575L269.167 314.84ZM266.359 316.616L265.975 315.693C265.08 316.064 264.007 316.264 262.734 316.264V317.264V318.264C264.214 318.264 265.557 318.032 266.742 317.539L266.359 316.616ZM272.448 316.592L272.024 317.498L272.033 317.502L272.042 317.506L272.448 316.592ZM269.712 314.504L269.009 313.793L268.332 314.463L268.968 315.172L269.712 314.504ZM272.16 312.08L272.914 311.423L272.214 310.62L271.457 311.369L272.16 312.08ZM273.96 313.544L273.487 314.425L273.5 314.432L273.513 314.438L273.96 313.544ZM278.136 313.616L277.595 312.775L277.588 312.779L277.581 312.784L278.136 313.616ZM278.376 311.288L277.669 311.995V311.995L278.376 311.288ZM277.224 310.544L276.815 311.457L276.827 311.462L277.224 310.544ZM275.664 309.944L275.34 310.89L275.348 310.893L275.664 309.944ZM273.984 309.296L273.568 310.205L273.579 310.21L273.59 310.215L273.984 309.296ZM272.424 308.36L271.787 309.13L271.801 309.142L271.816 309.154L272.424 308.36ZM271.296 306.944L270.402 307.391L270.407 307.401L271.296 306.944ZM271.608 302.096L270.782 301.533L270.777 301.539L270.773 301.545L271.608 302.096ZM273.72 300.392L274.114 301.311L274.121 301.308L274.128 301.305L273.72 300.392ZM280.056 300.416L279.664 301.336L279.669 301.338L280.056 300.416ZM282.504 302.12L283.208 302.831L283.881 302.164L283.252 301.456L282.504 302.12ZM280.056 304.544L279.338 305.24L280.042 305.966L280.76 305.255L280.056 304.544ZM278.496 303.368L278.049 304.262L278.06 304.268L278.496 303.368ZM275.184 303.368L275.714 304.216L275.727 304.208L275.739 304.2L275.184 303.368ZM275.04 305.48L274.354 306.207L274.364 306.217L274.376 306.227L275.04 305.48ZM276.168 306.152L275.786 307.076L275.797 307.08L276.168 306.152ZM277.728 306.728L277.404 307.674L277.412 307.677L277.728 306.728ZM279.432 307.4L279.848 306.491L279.432 307.4ZM280.968 308.384L280.315 309.141L280.329 309.153L280.343 309.165L280.968 308.384ZM282.12 309.872L281.216 310.3L281.221 310.309L282.12 309.872ZM280.824 315.896L281.445 316.68L281.451 316.675L280.824 315.896ZM276.048 317.264V316.264C274.761 316.264 273.706 316.057 272.854 315.678L272.448 316.592L272.042 317.506C273.207 318.023 274.552 318.264 276.048 318.264V317.264ZM272.448 316.592L272.872 315.686C272.017 315.287 271.211 314.678 270.457 313.836L269.712 314.504L268.968 315.172C269.877 316.186 270.895 316.969 272.024 317.498L272.448 316.592ZM269.712 314.504L270.416 315.215L272.864 312.791L272.16 312.08L271.457 311.369L269.009 313.793L269.712 314.504ZM272.16 312.08L271.406 312.737C272.021 313.442 272.714 314.01 273.487 314.425L273.96 313.544L274.433 312.663C273.895 312.374 273.387 311.966 272.914 311.423L272.16 312.08ZM273.96 313.544L273.513 314.438C274.346 314.855 275.279 315.048 276.288 315.048V314.048V313.048C275.537 313.048 274.919 312.905 274.407 312.65L273.96 313.544ZM276.288 314.048V315.048C277.186 315.048 278.028 314.89 278.691 314.448L278.136 313.616L277.581 312.784C277.38 312.918 276.99 313.048 276.288 313.048V314.048ZM278.136 313.616L278.677 314.457C279.397 313.994 279.808 313.284 279.808 312.416H278.808H277.808C277.808 312.572 277.771 312.662 277.595 312.775L278.136 313.616ZM278.808 312.416H279.808C279.808 311.727 279.585 311.083 279.083 310.581L278.376 311.288L277.669 311.995C277.743 312.069 277.808 312.177 277.808 312.416H278.808ZM278.376 311.288L279.083 310.581C278.685 310.183 278.186 309.871 277.622 309.626L277.224 310.544L276.827 311.462C277.222 311.633 277.491 311.817 277.669 311.995L278.376 311.288ZM277.224 310.544L277.633 309.631C277.134 309.408 276.582 309.196 275.98 308.995L275.664 309.944L275.348 310.893C275.898 311.076 276.387 311.264 276.815 311.457L277.224 310.544ZM275.664 309.944L275.988 308.998C275.453 308.814 274.916 308.607 274.378 308.377L273.984 309.296L273.59 310.215C274.172 310.465 274.756 310.69 275.34 310.89L275.664 309.944ZM273.984 309.296L274.4 308.387C273.907 308.161 273.452 307.888 273.033 307.566L272.424 308.36L271.816 309.154C272.356 309.568 272.941 309.919 273.568 310.205L273.984 309.296ZM272.424 308.36L273.062 307.59C272.707 307.296 272.414 306.932 272.185 306.487L271.296 306.944L270.407 307.401C270.754 308.076 271.214 308.656 271.787 309.13L272.424 308.36ZM271.296 306.944L272.191 306.497C271.992 306.099 271.864 305.543 271.864 304.784H270.864H269.864C269.864 305.753 270.025 306.637 270.402 307.391L271.296 306.944ZM270.864 304.784H271.864C271.864 303.909 272.071 303.211 272.443 302.647L271.608 302.096L270.773 301.545C270.154 302.485 269.864 303.579 269.864 304.784H270.864ZM271.608 302.096L272.435 302.659C272.832 302.076 273.38 301.626 274.114 301.311L273.72 300.392L273.326 299.473C272.268 299.926 271.409 300.612 270.782 301.533L271.608 302.096ZM273.72 300.392L274.128 301.305C274.873 300.972 275.762 300.792 276.816 300.792V299.792V298.792C275.534 298.792 274.359 299.012 273.312 299.479L273.72 300.392ZM276.816 299.792V300.792C277.881 300.792 278.826 300.979 279.664 301.336L280.056 300.416L280.448 299.496C279.335 299.021 278.119 298.792 276.816 298.792V299.792ZM280.056 300.416L279.669 301.338C280.54 301.703 281.227 302.189 281.757 302.784L282.504 302.12L283.252 301.456C282.501 300.611 281.557 299.961 280.443 299.494L280.056 300.416ZM282.504 302.12L281.801 301.409L279.353 303.833L280.056 304.544L280.76 305.255L283.208 302.831L282.504 302.12ZM280.056 304.544L280.774 303.848C280.201 303.256 279.588 302.786 278.932 302.468L278.496 303.368L278.06 304.268C278.46 304.462 278.888 304.776 279.338 305.24L280.056 304.544ZM278.496 303.368L278.943 302.474C278.273 302.139 277.533 301.984 276.744 301.984V302.984V303.984C277.268 303.984 277.695 304.085 278.049 304.262L278.496 303.368ZM276.744 302.984V301.984C275.97 301.984 275.233 302.133 274.629 302.536L275.184 303.368L275.739 304.2C275.903 304.091 276.206 303.984 276.744 303.984V302.984ZM275.184 303.368L274.654 302.52C273.969 302.948 273.608 303.626 273.608 304.424H274.608H275.608C275.608 304.333 275.626 304.298 275.63 304.291C275.634 304.284 275.649 304.257 275.714 304.216L275.184 303.368ZM274.608 304.424H273.608C273.608 305.103 273.846 305.728 274.354 306.207L275.04 305.48L275.727 304.753C275.658 304.688 275.608 304.609 275.608 304.424H274.608ZM275.04 305.48L274.376 306.227C274.768 306.576 275.248 306.854 275.786 307.076L276.168 306.152L276.55 305.228C276.16 305.066 275.888 304.896 275.704 304.733L275.04 305.48ZM276.168 306.152L275.797 307.08C276.294 307.28 276.83 307.477 277.404 307.674L277.728 306.728L278.052 305.782C277.506 305.595 277.002 305.408 276.54 305.224L276.168 306.152ZM277.728 306.728L277.412 307.677C277.954 307.857 278.488 308.068 279.016 308.309L279.432 307.4L279.848 306.491C279.256 306.22 278.655 305.983 278.044 305.779L277.728 306.728ZM279.432 307.4L279.016 308.309C279.491 308.526 279.923 308.803 280.315 309.141L280.968 308.384L281.621 307.627C281.085 307.165 280.493 306.786 279.848 306.491L279.432 307.4ZM280.968 308.384L280.343 309.165C280.694 309.445 280.987 309.816 281.216 310.3L282.12 309.872L283.024 309.444C282.677 308.712 282.202 308.091 281.593 307.603L280.968 308.384ZM282.12 309.872L281.221 310.309C281.424 310.727 281.552 311.303 281.552 312.08H282.552H283.552C283.552 311.097 283.392 310.201 283.019 309.435L282.12 309.872ZM282.552 312.08H281.552C281.552 313.425 281.089 314.398 280.197 315.117L280.824 315.896L281.451 316.675C282.863 315.538 283.552 313.967 283.552 312.08H282.552ZM280.824 315.896L280.203 315.112C279.285 315.839 277.94 316.264 276.048 316.264V317.264V318.264C278.22 318.264 280.059 317.777 281.445 316.68L280.824 315.896Z" fill="#3CC373" mask="url(#path-3-outside-1_1863_28)"/>
<g filter="url(#filter0_i_1863_28)">
<rect width="344.354" height="375" rx="25" fill="#F6F8F6"/>
</g>
<rect x="0.5" y="0.5" width="343.354" height="374" rx="24.5" stroke="#3CC373"/>
<path d="M50.82 77V58.28H58.555C58.737 58.28 58.971 58.2887 59.257 58.306C59.543 58.3147 59.8073 58.3407 60.05 58.384C61.1333 58.5487 62.026 58.9083 62.728 59.463C63.4387 60.0177 63.963 60.7197 64.301 61.569C64.6477 62.4097 64.821 63.3457 64.821 64.377C64.821 65.9023 64.4353 67.2153 63.664 68.316C62.8927 69.408 61.7097 70.084 60.115 70.344L58.776 70.461H53.953V77H50.82ZM61.571 77L57.879 69.382L61.064 68.68L65.12 77H61.571ZM53.953 67.536H58.425C58.5983 67.536 58.7933 67.5273 59.01 67.51C59.2267 67.4927 59.426 67.458 59.608 67.406C60.128 67.276 60.5353 67.0463 60.83 66.717C61.1333 66.3877 61.3457 66.015 61.467 65.599C61.597 65.183 61.662 64.7757 61.662 64.377C61.662 63.9783 61.597 63.571 61.467 63.155C61.3457 62.7303 61.1333 62.3533 60.83 62.024C60.5353 61.6947 60.128 61.465 59.608 61.335C59.426 61.283 59.2267 61.2527 59.01 61.244C58.7933 61.2267 58.5983 61.218 58.425 61.218H53.953V67.536ZM74.3671 77.39C72.9457 77.39 71.6977 77.0823 70.6231 76.467C69.5484 75.8517 68.7077 74.998 68.1011 73.906C67.5031 72.814 67.2041 71.5573 67.2041 70.136C67.2041 68.602 67.4987 67.2717 68.0881 66.145C68.6774 65.0097 69.4964 64.13 70.5451 63.506C71.5937 62.882 72.8071 62.57 74.1851 62.57C75.6411 62.57 76.8761 62.9123 77.8901 63.597C78.9127 64.273 79.6711 65.2307 80.1651 66.47C80.6591 67.7093 80.8454 69.1697 80.7241 70.851H77.6171V69.707C77.6084 68.1817 77.3397 67.068 76.8111 66.366C76.2824 65.664 75.4504 65.313 74.3151 65.313C73.0324 65.313 72.0791 65.7117 71.4551 66.509C70.8311 67.2977 70.5191 68.4547 70.5191 69.98C70.5191 71.4013 70.8311 72.502 71.4551 73.282C72.0791 74.062 72.9891 74.452 74.1851 74.452C74.9564 74.452 75.6194 74.283 76.1741 73.945C76.7374 73.5983 77.1707 73.1 77.4741 72.45L80.5681 73.386C80.0307 74.6513 79.1987 75.635 78.0721 76.337C76.9541 77.039 75.7191 77.39 74.3671 77.39ZM69.5311 70.851V68.485H79.1901V70.851H69.5311ZM87.2968 77.39C86.2828 77.39 85.4248 77.1993 84.7228 76.818C84.0208 76.428 83.4878 75.9123 83.1238 75.271C82.7684 74.6297 82.5908 73.9233 82.5908 73.152C82.5908 72.476 82.7034 71.8693 82.9288 71.332C83.1541 70.786 83.5008 70.318 83.9688 69.928C84.4368 69.5293 85.0434 69.2043 85.7888 68.953C86.3521 68.771 87.0108 68.6063 87.7648 68.459C88.5274 68.3117 89.3508 68.1773 90.2348 68.056C91.1274 67.926 92.0591 67.7873 93.0298 67.64L91.9118 68.277C91.9204 67.3063 91.7038 66.5913 91.2618 66.132C90.8198 65.6727 90.0744 65.443 89.0258 65.443C88.3931 65.443 87.7821 65.5903 87.1928 65.885C86.6034 66.1797 86.1918 66.6867 85.9578 67.406L83.0978 66.509C83.4444 65.3217 84.1031 64.3683 85.0738 63.649C86.0531 62.9297 87.3704 62.57 89.0258 62.57C90.2738 62.57 91.3701 62.7737 92.3148 63.181C93.2681 63.5883 93.9744 64.2557 94.4338 65.183C94.6851 65.677 94.8368 66.184 94.8888 66.704C94.9408 67.2153 94.9668 67.7743 94.9668 68.381V77H92.2238V73.958L92.6788 74.452C92.0461 75.466 91.3051 76.2113 90.4558 76.688C89.6151 77.156 88.5621 77.39 87.2968 77.39ZM87.9208 74.894C88.6314 74.894 89.2381 74.7683 89.7408 74.517C90.2434 74.2657 90.6421 73.958 90.9368 73.594C91.2401 73.23 91.4438 72.8877 91.5478 72.567C91.7124 72.1683 91.8034 71.7133 91.8208 71.202C91.8468 70.682 91.8598 70.2617 91.8598 69.941L92.8218 70.227C91.8771 70.3743 91.0668 70.5043 90.3908 70.617C89.7148 70.7297 89.1341 70.838 88.6488 70.942C88.1634 71.0373 87.7344 71.1457 87.3618 71.267C86.9978 71.397 86.6901 71.5487 86.4388 71.722C86.1874 71.8953 85.9924 72.0947 85.8538 72.32C85.7238 72.5453 85.6588 72.8097 85.6588 73.113C85.6588 73.4597 85.7454 73.7673 85.9188 74.036C86.0921 74.296 86.3434 74.504 86.6728 74.66C87.0108 74.816 87.4268 74.894 87.9208 74.894ZM98.6113 77V57.89H101.744V77H98.6113ZM115.341 77V61.218H109.283V58.28H124.532V61.218H118.474V77H115.341ZM126.871 60.828V57.955H130.004V60.828H126.871ZM126.871 77V62.96H130.004V77H126.871ZM150.759 77V68.472C150.759 67.51 150.521 66.7603 150.044 66.223C149.567 65.677 148.922 65.404 148.107 65.404C147.604 65.404 147.154 65.521 146.755 65.755C146.356 65.9803 146.04 66.3183 145.806 66.769C145.572 67.211 145.455 67.7397 145.455 68.355L144.064 67.536C144.055 66.5653 144.272 65.7117 144.714 64.975C145.165 64.2297 145.771 63.649 146.534 63.233C147.297 62.817 148.146 62.609 149.082 62.609C150.633 62.609 151.821 63.077 152.644 64.013C153.476 64.9403 153.892 66.1623 153.892 67.679V77H150.759ZM133.872 77V62.96H136.641V67.315H137.031V77H133.872ZM142.335 77V68.511C142.335 67.5317 142.097 66.769 141.62 66.223C141.143 65.677 140.493 65.404 139.67 65.404C138.873 65.404 138.231 65.677 137.746 66.223C137.269 66.769 137.031 67.4797 137.031 68.355L135.627 67.419C135.627 66.509 135.852 65.69 136.303 64.962C136.754 64.234 137.36 63.662 138.123 63.246C138.894 62.8213 139.757 62.609 140.71 62.609C141.759 62.609 142.634 62.8343 143.336 63.285C144.047 63.727 144.575 64.3337 144.922 65.105C145.277 65.8677 145.455 66.73 145.455 67.692V77H142.335ZM163.437 77.39C162.016 77.39 160.768 77.0823 159.693 76.467C158.619 75.8517 157.778 74.998 157.171 73.906C156.573 72.814 156.274 71.5573 156.274 70.136C156.274 68.602 156.569 67.2717 157.158 66.145C157.748 65.0097 158.567 64.13 159.615 63.506C160.664 62.882 161.877 62.57 163.255 62.57C164.711 62.57 165.946 62.9123 166.96 63.597C167.983 64.273 168.741 65.2307 169.235 66.47C169.729 67.7093 169.916 69.1697 169.794 70.851H166.687V69.707C166.679 68.1817 166.41 67.068 165.881 66.366C165.353 65.664 164.521 65.313 163.385 65.313C162.103 65.313 161.149 65.7117 160.525 66.509C159.901 67.2977 159.589 68.4547 159.589 69.98C159.589 71.4013 159.901 72.502 160.525 73.282C161.149 74.062 162.059 74.452 163.255 74.452C164.027 74.452 164.69 74.283 165.244 73.945C165.808 73.5983 166.241 73.1 166.544 72.45L169.638 73.386C169.101 74.6513 168.269 75.635 167.142 76.337C166.024 77.039 164.789 77.39 163.437 77.39ZM158.601 70.851V68.485H168.26V70.851H158.601ZM176.6 77L182.502 58.28H187.091L192.993 77H189.769L184.413 60.204H185.115L179.824 77H176.6ZM179.889 72.944V70.019H189.717V72.944H179.889ZM205.054 77V70.24C205.054 69.798 205.024 69.3083 204.963 68.771C204.903 68.2337 204.76 67.718 204.534 67.224C204.318 66.7213 203.988 66.3097 203.546 65.989C203.113 65.6683 202.524 65.508 201.778 65.508C201.38 65.508 200.985 65.573 200.595 65.703C200.205 65.833 199.85 66.0583 199.529 66.379C199.217 66.691 198.966 67.1243 198.775 67.679C198.585 68.225 198.489 68.927 198.489 69.785L196.63 68.992C196.63 67.796 196.86 66.7127 197.319 65.742C197.787 64.7713 198.472 64 199.373 63.428C200.275 62.8473 201.384 62.557 202.701 62.557C203.741 62.557 204.599 62.7303 205.275 63.077C205.951 63.4237 206.489 63.8657 206.887 64.403C207.286 64.9403 207.581 65.5123 207.771 66.119C207.962 66.7257 208.083 67.302 208.135 67.848C208.196 68.3853 208.226 68.823 208.226 69.161V77H205.054ZM195.317 77V62.96H198.112V67.315H198.489V77H195.317ZM215.545 77.39C214.531 77.39 213.673 77.1993 212.971 76.818C212.269 76.428 211.736 75.9123 211.372 75.271C211.016 74.6297 210.839 73.9233 210.839 73.152C210.839 72.476 210.951 71.8693 211.177 71.332C211.402 70.786 211.749 70.318 212.217 69.928C212.685 69.5293 213.291 69.2043 214.037 68.953C214.6 68.771 215.259 68.6063 216.013 68.459C216.775 68.3117 217.599 68.1773 218.483 68.056C219.375 67.926 220.307 67.7873 221.278 67.64L220.16 68.277C220.168 67.3063 219.952 66.5913 219.51 66.132C219.068 65.6727 218.322 65.443 217.274 65.443C216.641 65.443 216.03 65.5903 215.441 65.885C214.851 66.1797 214.44 66.6867 214.206 67.406L211.346 66.509C211.692 65.3217 212.351 64.3683 213.322 63.649C214.301 62.9297 215.618 62.57 217.274 62.57C218.522 62.57 219.618 62.7737 220.563 63.181C221.516 63.5883 222.222 64.2557 222.682 65.183C222.933 65.677 223.085 66.184 223.137 66.704C223.189 67.2153 223.215 67.7743 223.215 68.381V77H220.472V73.958L220.927 74.452C220.294 75.466 219.553 76.2113 218.704 76.688C217.863 77.156 216.81 77.39 215.545 77.39ZM216.169 74.894C216.879 74.894 217.486 74.7683 217.989 74.517C218.491 74.2657 218.89 73.958 219.185 73.594C219.488 73.23 219.692 72.8877 219.796 72.567C219.96 72.1683 220.051 71.7133 220.069 71.202C220.095 70.682 220.108 70.2617 220.108 69.941L221.07 70.227C220.125 70.3743 219.315 70.5043 218.639 70.617C217.963 70.7297 217.382 70.838 216.897 70.942C216.411 71.0373 215.982 71.1457 215.61 71.267C215.246 71.397 214.938 71.5487 214.687 71.722C214.435 71.8953 214.24 72.0947 214.102 72.32C213.972 72.5453 213.907 72.8097 213.907 73.113C213.907 73.4597 213.993 73.7673 214.167 74.036C214.34 74.296 214.591 74.504 214.921 74.66C215.259 74.816 215.675 74.894 216.169 74.894ZM226.859 77V57.89H229.992V77H226.859ZM235.732 83.24L238.436 75.817L238.488 78.001L232.365 62.96H235.628L239.97 74.088H239.138L243.363 62.96H246.496L238.67 83.24H235.732ZM257.705 77C256.778 77.1733 255.868 77.247 254.975 77.221C254.091 77.2037 253.298 77.0433 252.596 76.74C251.894 76.428 251.361 75.9383 250.997 75.271C250.677 74.6643 250.508 74.0447 250.49 73.412C250.473 72.7793 250.464 72.0643 250.464 71.267V59.06H253.584V71.085C253.584 71.6483 253.589 72.1423 253.597 72.567C253.615 72.9917 253.706 73.3383 253.87 73.607C254.182 74.127 254.681 74.4173 255.365 74.478C256.05 74.5387 256.83 74.504 257.705 74.374V77ZM247.916 65.417V62.96H257.705V65.417H247.916ZM260.984 60.828V57.955H264.117V60.828H260.984ZM260.984 77V62.96H264.117V77H260.984ZM274.108 77.39C272.661 77.39 271.426 77.0693 270.403 76.428C269.381 75.778 268.596 74.894 268.05 73.776C267.513 72.658 267.24 71.3927 267.231 69.98C267.24 68.5413 267.522 67.2673 268.076 66.158C268.64 65.04 269.437 64.1647 270.468 63.532C271.5 62.8907 272.726 62.57 274.147 62.57C275.742 62.57 277.09 62.973 278.19 63.779C279.3 64.5763 280.023 65.6683 280.361 67.055L277.241 67.9C276.999 67.146 276.596 66.561 276.032 66.145C275.469 65.7203 274.828 65.508 274.108 65.508C273.294 65.508 272.622 65.703 272.093 66.093C271.565 66.4743 271.175 67.003 270.923 67.679C270.672 68.355 270.546 69.122 270.546 69.98C270.546 71.3147 270.845 72.3937 271.443 73.217C272.041 74.0403 272.93 74.452 274.108 74.452C274.94 74.452 275.595 74.2613 276.071 73.88C276.557 73.4987 276.921 72.9483 277.163 72.229L280.361 72.944C279.928 74.374 279.17 75.4747 278.086 76.246C277.003 77.0087 275.677 77.39 274.108 77.39ZM288.387 77.39C286.654 77.39 285.246 77 284.162 76.22C283.079 75.44 282.42 74.3437 282.186 72.931L285.384 72.437C285.549 73.1303 285.913 73.6763 286.476 74.075C287.04 74.4737 287.75 74.673 288.608 74.673C289.362 74.673 289.943 74.5257 290.35 74.231C290.766 73.9277 290.974 73.516 290.974 72.996C290.974 72.6753 290.896 72.4197 290.74 72.229C290.593 72.0297 290.264 71.839 289.752 71.657C289.241 71.475 288.457 71.2453 287.399 70.968C286.221 70.656 285.285 70.3223 284.591 69.967C283.898 69.603 283.4 69.174 283.096 68.68C282.793 68.186 282.641 67.588 282.641 66.886C282.641 66.0107 282.871 65.248 283.33 64.598C283.79 63.948 284.431 63.4497 285.254 63.103C286.078 62.7477 287.048 62.57 288.166 62.57C289.258 62.57 290.225 62.739 291.065 63.077C291.915 63.415 292.599 63.896 293.119 64.52C293.639 65.144 293.96 65.8763 294.081 66.717L290.883 67.289C290.805 66.691 290.532 66.2187 290.064 65.872C289.605 65.5253 288.99 65.3303 288.218 65.287C287.482 65.2437 286.888 65.3563 286.437 65.625C285.987 65.885 285.761 66.2533 285.761 66.73C285.761 66.9987 285.852 67.2283 286.034 67.419C286.216 67.6097 286.58 67.8003 287.126 67.991C287.681 68.1817 288.504 68.4157 289.596 68.693C290.714 68.979 291.607 69.3083 292.274 69.681C292.95 70.045 293.436 70.4827 293.73 70.994C294.034 71.5053 294.185 72.125 294.185 72.853C294.185 74.2657 293.67 75.375 292.638 76.181C291.616 76.987 290.199 77.39 288.387 77.39Z" fill="url(#paint0_linear_1863_28)"/>
<defs>
<filter id="filter0_i_1863_28" x="0" y="0" width="344.354" height="375" filterUnits="userSpaceOnUse" color-interpolation-filters="sRGB">
<feFlood flood-opacity="0" result="BackgroundImageFix"/>
<feBlend mode="normal" in="SourceGraphic" in2="BackgroundImageFix" result="shape"/>
<feColorMatrix in="SourceAlpha" type="matrix" values="0 0 0 0 0 0 0 0 0 0 0 0 0 0 0 0 0 0 127 0" result="hardAlpha"/>
<feMorphology radius="1" operator="erode" in="SourceAlpha" result="effect1_innerShadow_1863_28"/>
<feOffset/>
<feGaussianBlur stdDeviation="17.5"/>
<feComposite in2="hardAlpha" operator="arithmetic" k2="-1" k3="1"/>
<feColorMatrix type="matrix" values="0 0 0 0 0.380392 0 0 0 0 0.662745 0 0 0 0 0.52549 0 0 0 1 0"/>
<feBlend mode="normal" in2="shape" result="effect1_innerShadow_1863_28"/>
</filter>
<linearGradient id="paint0_linear_1863_28" x1="49" y1="67" x2="296" y2="67" gradientUnits="userSpaceOnUse">
<stop stop-color="#2A2626"/>
<stop offset="1" stop-color="#3CC373"/>
</linearGradient>
</defs>
</svg>
