<svg width="345" height="375" viewBox="0 0 345 375" fill="none" xmlns="http://www.w3.org/2000/svg">
<rect x="1" y="1" width="342" height="373" rx="24" fill="#5B5B99" stroke="#5B5B99" stroke-width="2"/>
<rect x="21.4971" y="27.9138" width="300.54" height="233.945" rx="24" fill="#F8F8F6" stroke="#5B5B99" stroke-width="2"/>
<mask id="path-3-outside-1_1863_28" maskUnits="userSpaceOnUse" x="19" y="295" width="267" height="27" fill="black">
<rect fill="white" x="19" y="295" width="267" height="27"/>
<path d="M24.512 310.016V307.232H28.088C28.84 307.232 29.416 307.04 29.816 306.656C30.232 306.272 30.44 305.752 30.44 305.096C30.44 304.488 30.24 303.984 29.84 303.584C29.44 303.184 28.864 302.984 28.112 302.984H24.512V300.056H28.544C29.664 300.056 30.648 300.272 31.496 300.704C32.344 301.12 33.008 301.704 33.488 302.456C33.968 303.208 34.208 304.072 34.208 305.048C34.208 306.04 33.968 306.912 33.488 307.664C33.008 308.4 32.336 308.976 31.472 309.392C30.608 309.808 29.592 310.016 28.424 310.016H24.512ZM21.632 317V300.056H25.4V317H21.632ZM30.848 317L25.568 309.704L29.024 308.768L35.312 317H30.848ZM36.9601 317V300.056H40.7281V317H36.9601ZM39.8401 317V313.736H49.1281V317H39.8401ZM39.8401 309.92V306.776H48.2881V309.92H39.8401ZM39.8401 303.296V300.056H49.0081V303.296H39.8401ZM50.4538 317L57.1738 300.056H60.5818L67.2298 317H63.2458L58.1578 302.936H59.5258L54.3658 317H50.4538ZM54.2698 313.928V310.856H63.5098V313.928H54.2698ZM69.0226 317V300.056H72.7906V317H69.0226ZM71.9266 317V313.688H80.3026V317H71.9266ZM81.5773 312.488V309.272H90.0733V312.488H81.5773ZM95.6278 317V300.296H99.3958V317H95.6278ZM90.3238 303.344V300.056H104.7V303.344H90.3238ZM106.804 317V300.056H110.572V317H106.804ZM113.835 317V300.056H116.523L123.195 310.448H121.827L128.475 300.056H131.187V317H127.419V306.416L128.091 306.584L123.747 313.352H121.251L116.931 306.584L117.579 306.416V317H113.835ZM134.437 317V300.056H138.205V317H134.437ZM137.317 317V313.736H146.605V317H137.317ZM137.317 309.92V306.776H145.765V309.92H137.317ZM137.317 303.296V300.056H146.485V303.296H137.317ZM151.821 317L158.541 300.056H161.949L168.597 317H164.613L159.525 302.936H160.893L155.733 317H151.821ZM155.637 313.928V310.856H164.877V313.928H155.637ZM170.39 317V300.056H173.03L174.158 303.44V317H170.39ZM182.078 317L172.094 304.208L173.03 300.056L183.014 312.848L182.078 317ZM182.078 317L181.07 313.616V300.056H184.838V317H182.078ZM186.837 317L193.557 300.056H196.965L203.613 317H199.629L194.541 302.936H195.909L190.749 317H186.837ZM190.653 313.928V310.856H199.893V313.928H190.653ZM205.405 317V300.056H209.173V317H205.405ZM208.309 317V313.688H216.685V317H208.309ZM221.887 310.688L215.359 300.056H219.727L224.743 308.648H221.935L226.951 300.056H231.223L224.647 310.688H221.887ZM221.431 317V308.96H225.199V317H221.431ZM236.487 317V300.296H240.255V317H236.487ZM231.183 303.344V300.056H245.559V303.344H231.183ZM247.663 317V300.056H251.431V317H247.663ZM262.735 317.264C261.471 317.264 260.295 317.048 259.207 316.616C258.135 316.168 257.191 315.544 256.375 314.744C255.575 313.944 254.951 313.016 254.503 311.96C254.055 310.888 253.831 309.736 253.831 308.504C253.831 307.272 254.055 306.128 254.503 305.072C254.951 304 255.575 303.072 256.375 302.288C257.175 301.504 258.111 300.896 259.183 300.464C260.271 300.016 261.447 299.792 262.711 299.792C264.055 299.792 265.247 300.008 266.286 300.44C267.343 300.872 268.263 301.464 269.047 302.216L266.527 304.76C266.079 304.28 265.535 303.904 264.895 303.632C264.271 303.36 263.543 303.224 262.711 303.224C261.975 303.224 261.295 303.352 260.671 303.608C260.063 303.848 259.535 304.2 259.087 304.664C258.655 305.128 258.311 305.688 258.055 306.344C257.815 307 257.695 307.72 257.695 308.504C257.695 309.304 257.815 310.032 258.055 310.688C258.311 311.344 258.655 311.904 259.087 312.368C259.535 312.832 260.063 313.192 260.671 313.448C261.295 313.704 261.975 313.832 262.711 313.832C263.575 313.832 264.327 313.696 264.967 313.424C265.607 313.152 266.159 312.776 266.622 312.296L269.167 314.84C268.351 315.592 267.415 316.184 266.359 316.616C265.319 317.048 264.111 317.264 262.735 317.264ZM276.048 317.264C274.656 317.264 273.456 317.04 272.448 316.592C271.456 316.128 270.544 315.432 269.712 314.504L272.16 312.08C272.704 312.704 273.304 313.192 273.96 313.544C274.632 313.88 275.408 314.048 276.288 314.048C277.088 314.048 277.704 313.904 278.136 313.616C278.584 313.328 278.808 312.928 278.808 312.416C278.808 311.952 278.664 311.576 278.376 311.288C278.088 311 277.704 310.752 277.224 310.544C276.76 310.336 276.24 310.136 275.664 309.944C275.104 309.752 274.544 309.536 273.984 309.296C273.424 309.04 272.904 308.728 272.424 308.36C271.96 307.976 271.584 307.504 271.296 306.944C271.008 306.368 270.864 305.648 270.864 304.784C270.864 303.744 271.112 302.848 271.608 302.096C272.12 301.344 272.824 300.776 273.72 300.392C274.616 299.992 275.648 299.792 276.816 299.792C278 299.792 279.08 300 280.056 300.416C281.048 300.832 281.864 301.4 282.504 302.12L280.056 304.544C279.544 304.016 279.024 303.624 278.496 303.368C277.984 303.112 277.4 302.984 276.744 302.984C276.088 302.984 275.568 303.112 275.184 303.368C274.8 303.608 274.608 303.96 274.608 304.424C274.608 304.856 274.752 305.208 275.04 305.48C275.328 305.736 275.704 305.96 276.168 306.152C276.648 306.344 277.168 306.536 277.728 306.728C278.304 306.92 278.872 307.144 279.432 307.4C279.992 307.656 280.504 307.984 280.968 308.384C281.448 308.768 281.832 309.264 282.12 309.872C282.408 310.464 282.552 311.2 282.552 312.08C282.552 313.696 281.976 314.968 280.824 315.896C279.672 316.808 278.08 317.264 276.048 317.264Z"/>
</mask>
<path d="M24.512 310.016V307.232H28.088C28.84 307.232 29.416 307.04 29.816 306.656C30.232 306.272 30.44 305.752 30.44 305.096C30.44 304.488 30.24 303.984 29.84 303.584C29.44 303.184 28.864 302.984 28.112 302.984H24.512V300.056H28.544C29.664 300.056 30.648 300.272 31.496 300.704C32.344 301.12 33.008 301.704 33.488 302.456C33.968 303.208 34.208 304.072 34.208 305.048C34.208 306.04 33.968 306.912 33.488 307.664C33.008 308.4 32.336 308.976 31.472 309.392C30.608 309.808 29.592 310.016 28.424 310.016H24.512ZM21.632 317V300.056H25.4V317H21.632ZM30.848 317L25.568 309.704L29.024 308.768L35.312 317H30.848ZM36.9601 317V300.056H40.7281V317H36.9601ZM39.8401 317V313.736H49.1281V317H39.8401ZM39.8401 309.92V306.776H48.2881V309.92H39.8401ZM39.8401 303.296V300.056H49.0081V303.296H39.8401ZM50.4538 317L57.1738 300.056H60.5818L67.2298 317H63.2458L58.1578 302.936H59.5258L54.3658 317H50.4538ZM54.2698 313.928V310.856H63.5098V313.928H54.2698ZM69.0226 317V300.056H72.7906V317H69.0226ZM71.9266 317V313.688H80.3026V317H71.9266ZM81.5773 312.488V309.272H90.0733V312.488H81.5773ZM95.6278 317V300.296H99.3958V317H95.6278ZM90.3238 303.344V300.056H104.7V303.344H90.3238ZM106.804 317V300.056H110.572V317H106.804ZM113.835 317V300.056H116.523L123.195 310.448H121.827L128.475 300.056H131.187V317H127.419V306.416L128.091 306.584L123.747 313.352H121.251L116.931 306.584L117.579 306.416V317H113.835ZM134.437 317V300.056H138.205V317H134.437ZM137.317 317V313.736H146.605V317H137.317ZM137.317 309.92V306.776H145.765V309.92H137.317ZM137.317 303.296V300.056H146.485V303.296H137.317ZM151.821 317L158.541 300.056H161.949L168.597 317H164.613L159.525 302.936H160.893L155.733 317H151.821ZM155.637 313.928V310.856H164.877V313.928H155.637ZM170.39 317V300.056H173.03L174.158 303.44V317H170.39ZM182.078 317L172.094 304.208L173.03 300.056L183.014 312.848L182.078 317ZM182.078 317L181.07 313.616V300.056H184.838V317H182.078ZM186.837 317L193.557 300.056H196.965L203.613 317H199.629L194.541 302.936H195.909L190.749 317H186.837ZM190.653 313.928V310.856H199.893V313.928H190.653ZM205.405 317V300.056H209.173V317H205.405ZM208.309 317V313.688H216.685V317H208.309ZM221.887 310.688L215.359 300.056H219.727L224.743 308.648H221.935L226.951 300.056H231.223L224.647 310.688H221.887ZM221.431 317V308.96H225.199V317H221.431ZM236.487 317V300.296H240.255V317H236.487ZM231.183 303.344V300.056H245.559V303.344H231.183ZM247.663 317V300.056H251.431V317H247.663ZM262.735 317.264C261.471 317.264 260.295 317.048 259.207 316.616C258.135 316.168 257.191 315.544 256.375 314.744C255.575 313.944 254.951 313.016 254.503 311.96C254.055 310.888 253.831 309.736 253.831 308.504C253.831 307.272 254.055 306.128 254.503 305.072C254.951 304 255.575 303.072 256.375 302.288C257.175 301.504 258.111 300.896 259.183 300.464C260.271 300.016 261.447 299.792 262.711 299.792C264.055 299.792 265.247 300.008 266.286 300.44C267.343 300.872 268.263 301.464 269.047 302.216L266.527 304.76C266.079 304.28 265.535 303.904 264.895 303.632C264.271 303.36 263.543 303.224 262.711 303.224C261.975 303.224 261.295 303.352 260.671 303.608C260.063 303.848 259.535 304.2 259.087 304.664C258.655 305.128 258.311 305.688 258.055 306.344C257.815 307 257.695 307.72 257.695 308.504C257.695 309.304 257.815 310.032 258.055 310.688C258.311 311.344 258.655 311.904 259.087 312.368C259.535 312.832 260.063 313.192 260.671 313.448C261.295 313.704 261.975 313.832 262.711 313.832C263.575 313.832 264.327 313.696 264.967 313.424C265.607 313.152 266.159 312.776 266.622 312.296L269.167 314.84C268.351 315.592 267.415 316.184 266.359 316.616C265.319 317.048 264.111 317.264 262.735 317.264ZM276.048 317.264C274.656 317.264 273.456 317.04 272.448 316.592C271.456 316.128 270.544 315.432 269.712 314.504L272.16 312.08C272.704 312.704 273.304 313.192 273.96 313.544C274.632 313.88 275.408 314.048 276.288 314.048C277.088 314.048 277.704 313.904 278.136 313.616C278.584 313.328 278.808 312.928 278.808 312.416C278.808 311.952 278.664 311.576 278.376 311.288C278.088 311 277.704 310.752 277.224 310.544C276.76 310.336 276.24 310.136 275.664 309.944C275.104 309.752 274.544 309.536 273.984 309.296C273.424 309.04 272.904 308.728 272.424 308.36C271.96 307.976 271.584 307.504 271.296 306.944C271.008 306.368 270.864 305.648 270.864 304.784C270.864 303.744 271.112 302.848 271.608 302.096C272.12 301.344 272.824 300.776 273.72 300.392C274.616 299.992 275.648 299.792 276.816 299.792C278 299.792 279.08 300 280.056 300.416C281.048 300.832 281.864 301.4 282.504 302.12L280.056 304.544C279.544 304.016 279.024 303.624 278.496 303.368C277.984 303.112 277.4 302.984 276.744 302.984C276.088 302.984 275.568 303.112 275.184 303.368C274.8 303.608 274.608 303.96 274.608 304.424C274.608 304.856 274.752 305.208 275.04 305.48C275.328 305.736 275.704 305.96 276.168 306.152C276.648 306.344 277.168 306.536 277.728 306.728C278.304 306.92 278.872 307.144 279.432 307.4C279.992 307.656 280.504 307.984 280.968 308.384C281.448 308.768 281.832 309.264 282.12 309.872C282.408 310.464 282.552 311.2 282.552 312.08C282.552 313.696 281.976 314.968 280.824 315.896C279.672 316.808 278.08 317.264 276.048 317.264Z" fill="#F4EAE1"/>
<path d="M24.512 310.016H22.512V312.016H24.512V310.016ZM24.512 307.232V305.232H22.512V307.232H24.512ZM29.816 306.656L28.4594 305.186L28.4451 305.2L28.4309 305.213L29.816 306.656ZM29.84 303.584L28.4258 304.998L28.4258 304.998L29.84 303.584ZM24.512 302.984H22.512V304.984H24.512V302.984ZM24.512 300.056V298.056H22.512V300.056H24.512ZM31.496 300.704L30.5881 302.486L30.6016 302.493L30.6152 302.5L31.496 300.704ZM33.488 302.456L35.1738 301.38V301.38L33.488 302.456ZM33.488 307.664L35.1632 308.757L35.1686 308.748L35.1738 308.74L33.488 307.664ZM31.472 309.392L32.3396 311.194L32.3396 311.194L31.472 309.392ZM21.632 317H19.632V319H21.632V317ZM21.632 300.056V298.056H19.632V300.056H21.632ZM25.4 300.056H27.4V298.056H25.4V300.056ZM25.4 317V319H27.4V317H25.4ZM30.848 317L29.2278 318.173L29.8266 319H30.848V317ZM25.568 309.704L25.0452 307.774L22.25 308.531L23.9478 310.877L25.568 309.704ZM29.024 308.768L30.6134 307.554L29.7979 306.486L28.5012 306.838L29.024 308.768ZM35.312 317V319H39.3564L36.9014 315.786L35.312 317ZM24.512 310.016H26.512V307.232H24.512H22.512V310.016H24.512ZM24.512 307.232V309.232H28.088V307.232V305.232H24.512V307.232ZM28.088 307.232V309.232C29.1686 309.232 30.3122 308.952 31.2011 308.099L29.816 306.656L28.4309 305.213C28.4647 305.181 28.4852 305.179 28.4515 305.191C28.4094 305.205 28.2982 305.232 28.088 305.232V307.232ZM29.816 306.656L31.1726 308.126C32.065 307.302 32.44 306.213 32.44 305.096H30.44H28.44C28.44 305.212 28.4218 305.248 28.427 305.235C28.4294 305.229 28.4346 305.219 28.443 305.206C28.4515 305.194 28.4583 305.187 28.4594 305.186L29.816 306.656ZM30.44 305.096H32.44C32.44 304.001 32.0592 302.975 31.2542 302.17L29.84 303.584L28.4258 304.998C28.4357 305.008 28.4378 305.012 28.4361 305.009C28.4344 305.007 28.4323 305.003 28.431 305C28.4298 304.997 28.4317 305 28.4341 305.014C28.4365 305.027 28.44 305.054 28.44 305.096H30.44ZM29.84 303.584L31.2542 302.17C30.3682 301.284 29.2138 300.984 28.112 300.984V302.984V304.984C28.3148 304.984 28.4176 305.011 28.452 305.023C28.4773 305.032 28.4557 305.028 28.4258 304.998L29.84 303.584ZM28.112 302.984V300.984H24.512V302.984V304.984H28.112V302.984ZM24.512 302.984H26.512V300.056H24.512H22.512V302.984H24.512ZM24.512 300.056V302.056H28.544V300.056V298.056H24.512V300.056ZM28.544 300.056V302.056C29.4041 302.056 30.067 302.221 30.5881 302.486L31.496 300.704L32.4039 298.922C31.229 298.323 29.9239 298.056 28.544 298.056V300.056ZM31.496 300.704L30.6152 302.5C31.1541 302.764 31.5312 303.108 31.8022 303.532L33.488 302.456L35.1738 301.38C34.4848 300.3 33.5339 299.476 32.3769 298.908L31.496 300.704ZM33.488 302.456L31.8022 303.532C32.0579 303.933 32.208 304.416 32.208 305.048H34.208H36.208C36.208 303.728 35.8781 302.483 35.1738 301.38L33.488 302.456ZM34.208 305.048H32.208C32.208 305.703 32.0545 306.193 31.8022 306.588L33.488 307.664L35.1738 308.74C35.8815 307.631 36.208 306.377 36.208 305.048H34.208ZM33.488 307.664L31.8128 306.571C31.5502 306.974 31.1705 307.317 30.6044 307.59L31.472 309.392L32.3396 311.194C33.5015 310.635 34.4658 309.826 35.1632 308.757L33.488 307.664ZM31.472 309.392L30.6044 307.59C30.0636 307.85 29.3559 308.016 28.424 308.016V310.016V312.016C29.8281 312.016 31.1524 311.766 32.3396 311.194L31.472 309.392ZM28.424 310.016V308.016H24.512V310.016V312.016H28.424V310.016ZM21.632 317H23.632V300.056H21.632H19.632V317H21.632ZM21.632 300.056V302.056H25.4V300.056V298.056H21.632V300.056ZM25.4 300.056H23.4V317H25.4H27.4V300.056H25.4ZM25.4 317V315H21.632V317V319H25.4V317ZM30.848 317L32.4682 315.827L27.1882 308.531L25.568 309.704L23.9478 310.877L29.2278 318.173L30.848 317ZM25.568 309.704L26.0908 311.634L29.5468 310.698L29.024 308.768L28.5012 306.838L25.0452 307.774L25.568 309.704ZM29.024 308.768L27.4346 309.982L33.7226 318.214L35.312 317L36.9014 315.786L30.6134 307.554L29.024 308.768ZM35.312 317V315H30.848V317V319H35.312V317ZM36.9601 317H34.9601V319H36.9601V317ZM36.9601 300.056V298.056H34.9601V300.056H36.9601ZM40.7281 300.056H42.7281V298.056H40.7281V300.056ZM40.7281 317V319H42.7281V317H40.7281ZM39.8401 317H37.8401V319H39.8401V317ZM39.8401 313.736V311.736H37.8401V313.736H39.8401ZM49.1281 313.736H51.1281V311.736H49.1281V313.736ZM49.1281 317V319H51.1281V317H49.1281ZM39.8401 309.92H37.8401V311.92H39.8401V309.92ZM39.8401 306.776V304.776H37.8401V306.776H39.8401ZM48.2881 306.776H50.2881V304.776H48.2881V306.776ZM48.2881 309.92V311.92H50.2881V309.92H48.2881ZM39.8401 303.296H37.8401V305.296H39.8401V303.296ZM39.8401 300.056V298.056H37.8401V300.056H39.8401ZM49.0081 300.056H51.0081V298.056H49.0081V300.056ZM49.0081 303.296V305.296H51.0081V303.296H49.0081ZM36.9601 317H38.9601V300.056H36.9601H34.9601V317H36.9601ZM36.9601 300.056V302.056H40.7281V300.056V298.056H36.9601V300.056ZM40.7281 300.056H38.7281V317H40.7281H42.7281V300.056H40.7281ZM40.7281 317V315H36.9601V317V319H40.7281V317ZM39.8401 317H41.8401V313.736H39.8401H37.8401V317H39.8401ZM39.8401 313.736V315.736H49.1281V313.736V311.736H39.8401V313.736ZM49.1281 313.736H47.1281V317H49.1281H51.1281V313.736H49.1281ZM49.1281 317V315H39.8401V317V319H49.1281V317ZM39.8401 309.92H41.8401V306.776H39.8401H37.8401V309.92H39.8401ZM39.8401 306.776V308.776H48.2881V306.776V304.776H39.8401V306.776ZM48.2881 306.776H46.2881V309.92H48.2881H50.2881V306.776H48.2881ZM48.2881 309.92V307.92H39.8401V309.92V311.92H48.2881V309.92ZM39.8401 303.296H41.8401V300.056H39.8401H37.8401V303.296H39.8401ZM39.8401 300.056V302.056H49.0081V300.056V298.056H39.8401V300.056ZM49.0081 300.056H47.0081V303.296H49.0081H51.0081V300.056H49.0081ZM49.0081 303.296V301.296H39.8401V303.296V305.296H49.0081V303.296ZM50.4538 317L48.5946 316.263L47.509 319H50.4538V317ZM57.1738 300.056V298.056H55.8154L55.3146 299.319L57.1738 300.056ZM60.5817 300.056L62.4436 299.326L61.9455 298.056H60.5817V300.056ZM67.2298 317V319H70.1629L69.0916 316.27L67.2298 317ZM63.2458 317L61.365 317.68L61.8424 319H63.2458V317ZM58.1577 302.936V300.936H55.3073L56.277 303.616L58.1577 302.936ZM59.5257 302.936L61.4034 303.625L62.3899 300.936H59.5257V302.936ZM54.3657 317V319H55.7623L56.2434 317.689L54.3657 317ZM54.2697 313.928H52.2697V315.928H54.2697V313.928ZM54.2697 310.856V308.856H52.2697V310.856H54.2697ZM63.5098 310.856H65.5098V308.856H63.5098V310.856ZM63.5098 313.928V315.928H65.5098V313.928H63.5098ZM50.4538 317L52.3129 317.737L59.0329 300.793L57.1738 300.056L55.3146 299.319L48.5946 316.263L50.4538 317ZM57.1738 300.056V302.056H60.5817V300.056V298.056H57.1738V300.056ZM60.5817 300.056L58.7199 300.786L65.3679 317.73L67.2298 317L69.0916 316.27L62.4436 299.326L60.5817 300.056ZM67.2298 317V315H63.2458V317V319H67.2298V317ZM63.2458 317L65.1265 316.32L60.0385 302.256L58.1577 302.936L56.277 303.616L61.365 317.68L63.2458 317ZM58.1577 302.936V304.936H59.5257V302.936V300.936H58.1577V302.936ZM59.5257 302.936L57.6481 302.247L52.4881 316.311L54.3657 317L56.2434 317.689L61.4034 303.625L59.5257 302.936ZM54.3657 317V315H50.4538V317V319H54.3657V317ZM54.2697 313.928H56.2697V310.856H54.2697H52.2697V313.928H54.2697ZM54.2697 310.856V312.856H63.5098V310.856V308.856H54.2697V310.856ZM63.5098 310.856H61.5098V313.928H63.5098H65.5098V310.856H63.5098ZM63.5098 313.928V311.928H54.2697V313.928V315.928H63.5098V313.928ZM69.0226 317H67.0226V319H69.0226V317ZM69.0226 300.056V298.056H67.0226V300.056H69.0226ZM72.7906 300.056H74.7906V298.056H72.7906V300.056ZM72.7906 317V319H74.7906V317H72.7906ZM71.9266 317H69.9266V319H71.9266V317ZM71.9266 313.688V311.688H69.9266V313.688H71.9266ZM80.3026 313.688H82.3026V311.688H80.3026V313.688ZM80.3026 317V319H82.3026V317H80.3026ZM69.0226 317H71.0226V300.056H69.0226H67.0226V317H69.0226ZM69.0226 300.056V302.056H72.7906V300.056V298.056H69.0226V300.056ZM72.7906 300.056H70.7906V317H72.7906H74.7906V300.056H72.7906ZM72.7906 317V315H69.0226V317V319H72.7906V317ZM71.9266 317H73.9266V313.688H71.9266H69.9266V317H71.9266ZM71.9266 313.688V315.688H80.3026V313.688V311.688H71.9266V313.688ZM80.3026 313.688H78.3026V317H80.3026H82.3026V313.688H80.3026ZM80.3026 317V315H71.9266V317V319H80.3026V317ZM81.5773 312.488H79.5773V314.488H81.5773V312.488ZM81.5773 309.272V307.272H79.5773V309.272H81.5773ZM90.0732 309.272H92.0732V307.272H90.0732V309.272ZM90.0732 312.488V314.488H92.0732V312.488H90.0732ZM81.5773 312.488H83.5773V309.272H81.5773H79.5773V312.488H81.5773ZM81.5773 309.272V311.272H90.0732V309.272V307.272H81.5773V309.272ZM90.0732 309.272H88.0732V312.488H90.0732H92.0732V309.272H90.0732ZM90.0732 312.488V310.488H81.5773V312.488V314.488H90.0732V312.488ZM95.6277 317H93.6277V319H95.6277V317ZM95.6277 300.296V298.296H93.6277V300.296H95.6277ZM99.3958 300.296H101.396V298.296H99.3958V300.296ZM99.3958 317V319H101.396V317H99.3958ZM90.3238 303.344H88.3238V305.344H90.3238V303.344ZM90.3238 300.056V298.056H88.3238V300.056H90.3238ZM104.7 300.056H106.7V298.056H104.7V300.056ZM104.7 303.344V305.344H106.7V303.344H104.7ZM95.6277 317H97.6277V300.296H95.6277H93.6277V317H95.6277ZM95.6277 300.296V302.296H99.3958V300.296V298.296H95.6277V300.296ZM99.3958 300.296H97.3958V317H99.3958H101.396V300.296H99.3958ZM99.3958 317V315H95.6277V317V319H99.3958V317ZM90.3238 303.344H92.3238V300.056H90.3238H88.3238V303.344H90.3238ZM90.3238 300.056V302.056H104.7V300.056V298.056H90.3238V300.056ZM104.7 300.056H102.7V303.344H104.7H106.7V300.056H104.7ZM104.7 303.344V301.344H90.3238V303.344V305.344H104.7V303.344ZM106.804 317H104.804V319H106.804V317ZM106.804 300.056V298.056H104.804V300.056H106.804ZM110.572 300.056H112.572V298.056H110.572V300.056ZM110.572 317V319H112.572V317H110.572ZM106.804 317H108.804V300.056H106.804H104.804V317H106.804ZM106.804 300.056V302.056H110.572V300.056V298.056H106.804V300.056ZM110.572 300.056H108.572V317H110.572H112.572V300.056H110.572ZM110.572 317V315H106.804V317V319H110.572V317ZM113.835 317H111.835V319H113.835V317ZM113.835 300.056V298.056H111.835V300.056H113.835ZM116.523 300.056L118.206 298.975L117.616 298.056H116.523V300.056ZM123.195 310.448V312.448H126.856L124.878 309.367L123.195 310.448ZM121.827 310.448L120.142 309.37L118.173 312.448H121.827V310.448ZM128.475 300.056V298.056H127.38L126.79 298.978L128.475 300.056ZM131.187 300.056H133.187V298.056H131.187V300.056ZM131.187 317V319H133.187V317H131.187ZM127.419 317H125.419V319H127.419V317ZM127.419 306.416L127.904 304.476L125.419 303.854V306.416H127.419ZM128.091 306.584L129.774 307.664L131.279 305.319L128.576 304.644L128.091 306.584ZM123.747 313.352V315.352H124.84L125.43 314.432L123.747 313.352ZM121.251 313.352L119.565 314.428L120.155 315.352H121.251V313.352ZM116.931 306.584L116.429 304.648L113.764 305.339L115.245 307.66L116.931 306.584ZM117.579 306.416H119.579V303.831L117.077 304.48L117.579 306.416ZM117.579 317V319H119.579V317H117.579ZM113.835 317H115.835V300.056H113.835H111.835V317H113.835ZM113.835 300.056V302.056H116.523V300.056V298.056H113.835V300.056ZM116.523 300.056L114.84 301.137L121.512 311.529L123.195 310.448L124.878 309.367L118.206 298.975L116.523 300.056ZM123.195 310.448V308.448H121.827V310.448V312.448H123.195V310.448ZM121.827 310.448L123.512 311.526L130.16 301.134L128.475 300.056L126.79 298.978L120.142 309.37L121.827 310.448ZM128.475 300.056V302.056H131.187V300.056V298.056H128.475V300.056ZM131.187 300.056H129.187V317H131.187H133.187V300.056H131.187ZM131.187 317V315H127.419V317V319H131.187V317ZM127.419 317H129.419V306.416H127.419H125.419V317H127.419ZM127.419 306.416L126.934 308.356L127.606 308.524L128.091 306.584L128.576 304.644L127.904 304.476L127.419 306.416ZM128.091 306.584L126.408 305.504L122.064 312.272L123.747 313.352L125.43 314.432L129.774 307.664L128.091 306.584ZM123.747 313.352V311.352H121.251V313.352V315.352H123.747V313.352ZM121.251 313.352L122.937 312.276L118.617 305.508L116.931 306.584L115.245 307.66L119.565 314.428L121.251 313.352ZM116.931 306.584L117.433 308.52L118.081 308.352L117.579 306.416L117.077 304.48L116.429 304.648L116.931 306.584ZM117.579 306.416H115.579V317H117.579H119.579V306.416H117.579ZM117.579 317V315H113.835V317V319H117.579V317ZM134.437 317H132.437V319H134.437V317ZM134.437 300.056V298.056H132.437V300.056H134.437ZM138.205 300.056H140.205V298.056H138.205V300.056ZM138.205 317V319H140.205V317H138.205ZM137.317 317H135.317V319H137.317V317ZM137.317 313.736V311.736H135.317V313.736H137.317ZM146.605 313.736H148.605V311.736H146.605V313.736ZM146.605 317V319H148.605V317H146.605ZM137.317 309.92H135.317V311.92H137.317V309.92ZM137.317 306.776V304.776H135.317V306.776H137.317ZM145.765 306.776H147.765V304.776H145.765V306.776ZM145.765 309.92V311.92H147.765V309.92H145.765ZM137.317 303.296H135.317V305.296H137.317V303.296ZM137.317 300.056V298.056H135.317V300.056H137.317ZM146.485 300.056H148.485V298.056H146.485V300.056ZM146.485 303.296V305.296H148.485V303.296H146.485ZM134.437 317H136.437V300.056H134.437H132.437V317H134.437ZM134.437 300.056V302.056H138.205V300.056V298.056H134.437V300.056ZM138.205 300.056H136.205V317H138.205H140.205V300.056H138.205ZM138.205 317V315H134.437V317V319H138.205V317ZM137.317 317H139.317V313.736H137.317H135.317V317H137.317ZM137.317 313.736V315.736H146.605V313.736V311.736H137.317V313.736ZM146.605 313.736H144.605V317H146.605H148.605V313.736H146.605ZM146.605 317V315H137.317V317V319H146.605V317ZM137.317 309.92H139.317V306.776H137.317H135.317V309.92H137.317ZM137.317 306.776V308.776H145.765V306.776V304.776H137.317V306.776ZM145.765 306.776H143.765V309.92H145.765H147.765V306.776H145.765ZM145.765 309.92V307.92H137.317V309.92V311.92H145.765V309.92ZM137.317 303.296H139.317V300.056H137.317H135.317V303.296H137.317ZM137.317 300.056V302.056H146.485V300.056V298.056H137.317V300.056ZM146.485 300.056H144.485V303.296H146.485H148.485V300.056H146.485ZM146.485 303.296V301.296H137.317V303.296V305.296H146.485V303.296ZM151.821 317L149.962 316.263L148.876 319H151.821V317ZM158.541 300.056V298.056H157.183L156.682 299.319L158.541 300.056ZM161.949 300.056L163.811 299.326L163.313 298.056H161.949V300.056ZM168.597 317V319H171.53L170.459 316.27L168.597 317ZM164.613 317L162.732 317.68L163.21 319H164.613V317ZM159.525 302.936V300.936H156.675L157.644 303.616L159.525 302.936ZM160.893 302.936L162.771 303.625L163.757 300.936H160.893V302.936ZM155.733 317V319H157.13L157.611 317.689L155.733 317ZM155.637 313.928H153.637V315.928H155.637V313.928ZM155.637 310.856V308.856H153.637V310.856H155.637ZM164.877 310.856H166.877V308.856H164.877V310.856ZM164.877 313.928V315.928H166.877V313.928H164.877ZM151.821 317L153.68 317.737L160.4 300.793L158.541 300.056L156.682 299.319L149.962 316.263L151.821 317ZM158.541 300.056V302.056H161.949V300.056V298.056H158.541V300.056ZM161.949 300.056L160.087 300.786L166.735 317.73L168.597 317L170.459 316.27L163.811 299.326L161.949 300.056ZM168.597 317V315H164.613V317V319H168.597V317ZM164.613 317L166.494 316.32L161.406 302.256L159.525 302.936L157.644 303.616L162.732 317.68L164.613 317ZM159.525 302.936V304.936H160.893V302.936V300.936H159.525V302.936ZM160.893 302.936L159.015 302.247L153.855 316.311L155.733 317L157.611 317.689L162.771 303.625L160.893 302.936ZM155.733 317V315H151.821V317V319H155.733V317ZM155.637 313.928H157.637V310.856H155.637H153.637V313.928H155.637ZM155.637 310.856V312.856H164.877V310.856V308.856H155.637V310.856ZM164.877 310.856H162.877V313.928H164.877H166.877V310.856H164.877ZM164.877 313.928V311.928H155.637V313.928V315.928H164.877V313.928ZM170.39 317H168.39V319H170.39V317ZM170.39 300.056V298.056H168.39V300.056H170.39ZM173.03 300.056L174.927 299.424L174.471 298.056H173.03V300.056ZM174.158 303.44H176.158V303.115L176.055 302.808L174.158 303.44ZM174.158 317V319H176.158V317H174.158ZM182.078 317L180.501 318.231L183.1 321.56L184.029 317.44L182.078 317ZM172.094 304.208L170.143 303.768L169.935 304.692L170.517 305.439L172.094 304.208ZM173.03 300.056L174.606 298.825L172.008 295.496L171.079 299.616L173.03 300.056ZM183.014 312.848L184.965 313.288L185.173 312.364L184.59 311.617L183.014 312.848ZM182.078 317L180.161 317.571L180.587 319H182.078V317ZM181.07 313.616H179.07V313.908L179.153 314.187L181.07 313.616ZM181.07 300.056V298.056H179.07V300.056H181.07ZM184.838 300.056H186.838V298.056H184.838V300.056ZM184.838 317V319H186.838V317H184.838ZM170.39 317H172.39V300.056H170.39H168.39V317H170.39ZM170.39 300.056V302.056H173.03V300.056V298.056H170.39V300.056ZM173.03 300.056L171.132 300.688L172.26 304.072L174.158 303.44L176.055 302.808L174.927 299.424L173.03 300.056ZM174.158 303.44H172.158V317H174.158H176.158V303.44H174.158ZM174.158 317V315H170.39V317V319H174.158V317ZM182.078 317L183.654 315.769L173.67 302.977L172.094 304.208L170.517 305.439L180.501 318.231L182.078 317ZM172.094 304.208L174.045 304.648L174.981 300.496L173.03 300.056L171.079 299.616L170.143 303.768L172.094 304.208ZM173.03 300.056L171.453 301.287L181.437 314.079L183.014 312.848L184.59 311.617L174.606 298.825L173.03 300.056ZM183.014 312.848L181.063 312.408L180.127 316.56L182.078 317L184.029 317.44L184.965 313.288L183.014 312.848ZM182.078 317L183.995 316.429L182.987 313.045L181.07 313.616L179.153 314.187L180.161 317.571L182.078 317ZM181.07 313.616H183.07V300.056H181.07H179.07V313.616H181.07ZM181.07 300.056V302.056H184.838V300.056V298.056H181.07V300.056ZM184.838 300.056H182.838V317H184.838H186.838V300.056H184.838ZM184.838 317V315H182.078V317V319H184.838V317ZM186.837 317L184.977 316.263L183.892 319H186.837V317ZM193.557 300.056V298.056H192.198L191.697 299.319L193.557 300.056ZM196.965 300.056L198.826 299.326L198.328 298.056H196.965V300.056ZM203.613 317V319H206.546L205.474 316.27L203.613 317ZM199.629 317L197.748 317.68L198.225 319H199.629V317ZM194.541 302.936V300.936H191.69L192.66 303.616L194.541 302.936ZM195.909 302.936L197.786 303.625L198.773 300.936H195.909V302.936ZM190.749 317V319H192.145L192.626 317.689L190.749 317ZM190.653 313.928H188.653V315.928H190.653V313.928ZM190.653 310.856V308.856H188.653V310.856H190.653ZM199.893 310.856H201.893V308.856H199.893V310.856ZM199.893 313.928V315.928H201.893V313.928H199.893ZM186.837 317L188.696 317.737L195.416 300.793L193.557 300.056L191.697 299.319L184.977 316.263L186.837 317ZM193.557 300.056V302.056H196.965V300.056V298.056H193.557V300.056ZM196.965 300.056L195.103 300.786L201.751 317.73L203.613 317L205.474 316.27L198.826 299.326L196.965 300.056ZM203.613 317V315H199.629V317V319H203.613V317ZM199.629 317L201.509 316.32L196.421 302.256L194.541 302.936L192.66 303.616L197.748 317.68L199.629 317ZM194.541 302.936V304.936H195.909V302.936V300.936H194.541V302.936ZM195.909 302.936L194.031 302.247L188.871 316.311L190.749 317L192.626 317.689L197.786 303.625L195.909 302.936ZM190.749 317V315H186.837V317V319H190.749V317ZM190.653 313.928H192.653V310.856H190.653H188.653V313.928H190.653ZM190.653 310.856V312.856H199.893V310.856V308.856H190.653V310.856ZM199.893 310.856H197.893V313.928H199.893H201.893V310.856H199.893ZM199.893 313.928V311.928H190.653V313.928V315.928H199.893V313.928ZM205.405 317H203.405V319H205.405V317ZM205.405 300.056V298.056H203.405V300.056H205.405ZM209.173 300.056H211.173V298.056H209.173V300.056ZM209.173 317V319H211.173V317H209.173ZM208.309 317H206.309V319H208.309V317ZM208.309 313.688V311.688H206.309V313.688H208.309ZM216.685 313.688H218.685V311.688H216.685V313.688ZM216.685 317V319H218.685V317H216.685ZM205.405 317H207.405V300.056H205.405H203.405V317H205.405ZM205.405 300.056V302.056H209.173V300.056V298.056H205.405V300.056ZM209.173 300.056H207.173V317H209.173H211.173V300.056H209.173ZM209.173 317V315H205.405V317V319H209.173V317ZM208.309 317H210.309V313.688H208.309H206.309V317H208.309ZM208.309 313.688V315.688H216.685V313.688V311.688H208.309V313.688ZM216.685 313.688H214.685V317H216.685H218.685V313.688H216.685ZM216.685 317V315H208.309V317V319H216.685V317ZM221.887 310.688L220.183 311.734L220.768 312.688H221.887V310.688ZM215.359 300.056V298.056H211.784L213.654 301.102L215.359 300.056ZM219.727 300.056L221.454 299.048L220.875 298.056H219.727V300.056ZM224.743 308.648V310.648H228.226L226.47 307.64L224.743 308.648ZM221.935 308.648L220.208 307.64L218.451 310.648H221.935V308.648ZM226.951 300.056V298.056H225.803L225.224 299.048L226.951 300.056ZM231.223 300.056L232.924 301.108L234.812 298.056H231.223V300.056ZM224.647 310.688V312.688H225.761L226.348 311.74L224.647 310.688ZM221.431 317H219.431V319H221.431V317ZM221.431 308.96V306.96H219.431V308.96H221.431ZM225.199 308.96H227.199V306.96H225.199V308.96ZM225.199 317V319H227.199V317H225.199ZM221.887 310.688L223.591 309.642L217.063 299.01L215.359 300.056L213.654 301.102L220.183 311.734L221.887 310.688ZM215.359 300.056V302.056H219.727V300.056V298.056H215.359V300.056ZM219.727 300.056L218 301.064L223.016 309.656L224.743 308.648L226.47 307.64L221.454 299.048L219.727 300.056ZM224.743 308.648V306.648H221.935V308.648V310.648H224.743V308.648ZM221.935 308.648L223.662 309.656L228.678 301.064L226.951 300.056L225.224 299.048L220.208 307.64L221.935 308.648ZM226.951 300.056V302.056H231.223V300.056V298.056H226.951V300.056ZM231.223 300.056L229.522 299.004L222.946 309.636L224.647 310.688L226.348 311.74L232.924 301.108L231.223 300.056ZM224.647 310.688V308.688H221.887V310.688V312.688H224.647V310.688ZM221.431 317H223.431V308.96H221.431H219.431V317H221.431ZM221.431 308.96V310.96H225.199V308.96V306.96H221.431V308.96ZM225.199 308.96H223.199V317H225.199H227.199V308.96H225.199ZM225.199 317V315H221.431V317V319H225.199V317ZM236.487 317H234.487V319H236.487V317ZM236.487 300.296V298.296H234.487V300.296H236.487ZM240.255 300.296H242.255V298.296H240.255V300.296ZM240.255 317V319H242.255V317H240.255ZM231.183 303.344H229.183V305.344H231.183V303.344ZM231.183 300.056V298.056H229.183V300.056H231.183ZM245.559 300.056H247.559V298.056H245.559V300.056ZM245.559 303.344V305.344H247.559V303.344H245.559ZM236.487 317H238.487V300.296H236.487H234.487V317H236.487ZM236.487 300.296V302.296H240.255V300.296V298.296H236.487V300.296ZM240.255 300.296H238.255V317H240.255H242.255V300.296H240.255ZM240.255 317V315H236.487V317V319H240.255V317ZM231.183 303.344H233.183V300.056H231.183H229.183V303.344H231.183ZM231.183 300.056V302.056H245.559V300.056V298.056H231.183V300.056ZM245.559 300.056H243.559V303.344H245.559H247.559V300.056H245.559ZM245.559 303.344V301.344H231.183V303.344V305.344H245.559V303.344ZM247.663 317H245.663V319H247.663V317ZM247.663 300.056V298.056H245.663V300.056H247.663ZM251.431 300.056H253.431V298.056H251.431V300.056ZM251.431 317V319H253.431V317H251.431ZM247.663 317H249.663V300.056H247.663H245.663V317H247.663ZM247.663 300.056V302.056H251.431V300.056V298.056H247.663V300.056ZM251.431 300.056H249.431V317H251.431H253.431V300.056H251.431ZM251.431 317V315H247.663V317V319H251.431V317ZM259.206 316.616L258.435 318.461L258.452 318.468L258.468 318.475L259.206 316.616ZM256.374 314.744L254.96 316.158L254.967 316.165L254.974 316.172L256.374 314.744ZM254.503 311.96L252.657 312.731L252.661 312.741L254.503 311.96ZM254.503 305.072L256.344 305.853L256.348 305.843L254.503 305.072ZM256.374 302.288L257.774 303.716V303.716L256.374 302.288ZM259.182 300.464L259.93 302.319L259.937 302.316L259.944 302.313L259.182 300.464ZM266.286 300.44L265.519 302.287L265.529 302.291L266.286 300.44ZM269.046 302.216L270.467 303.623L271.898 302.18L270.431 300.773L269.046 302.216ZM266.527 304.76L265.064 306.125L266.484 307.645L267.947 306.167L266.527 304.76ZM264.895 303.632L264.095 305.465L264.104 305.469L264.112 305.473L264.895 303.632ZM260.671 303.608L261.405 305.468L261.417 305.463L261.43 305.458L260.671 303.608ZM259.087 304.664L257.648 303.275L257.635 303.288L257.623 303.301L259.087 304.664ZM258.055 306.344L256.191 305.617L256.184 305.637L256.176 305.657L258.055 306.344ZM258.055 310.688L256.176 311.375L256.184 311.395L256.191 311.415L258.055 310.688ZM259.087 312.368L257.623 313.731L257.635 313.744L257.648 313.757L259.087 312.368ZM260.671 313.448L259.894 315.291L259.903 315.295L259.911 315.298L260.671 313.448ZM266.622 312.296L268.037 310.882L266.598 309.443L265.185 310.906L266.622 312.296ZM269.167 314.84L270.522 316.311L272.054 314.899L270.581 313.426L269.167 314.84ZM266.359 316.616L265.601 314.765L265.591 314.769L266.359 316.616ZM262.734 317.264V315.264C261.703 315.264 260.78 315.089 259.945 314.757L259.206 316.616L258.468 318.475C259.809 319.007 261.238 319.264 262.734 319.264V317.264ZM259.206 316.616L259.978 314.771C259.136 314.419 258.406 313.935 257.775 313.316L256.374 314.744L254.974 316.172C255.975 317.153 257.133 317.917 258.435 318.461L259.206 316.616ZM256.374 314.744L257.789 313.33C257.173 312.714 256.693 312.002 256.344 311.179L254.503 311.96L252.661 312.741C253.208 314.03 253.976 315.174 254.96 316.158L256.374 314.744ZM254.503 311.96L256.348 311.189C256.008 310.376 255.831 309.487 255.831 308.504H253.831H251.831C251.831 309.985 252.101 311.4 252.657 312.731L254.503 311.96ZM253.831 308.504H255.831C255.831 307.52 256.008 306.644 256.344 305.853L254.503 305.072L252.661 304.291C252.101 305.612 251.831 307.024 251.831 308.504H253.831ZM254.503 305.072L256.348 305.843C256.697 305.008 257.172 304.306 257.774 303.716L256.374 302.288L254.975 300.86C253.977 301.838 253.204 302.992 252.657 304.301L254.503 305.072ZM256.374 302.288L257.774 303.716C258.381 303.122 259.093 302.656 259.93 302.319L259.182 300.464L258.435 298.609C257.128 299.136 255.968 299.886 254.975 300.86L256.374 302.288ZM259.182 300.464L259.944 302.313C260.773 301.972 261.688 301.792 262.71 301.792V299.792V297.792C261.205 297.792 259.768 298.06 258.421 298.615L259.182 300.464ZM262.71 299.792V301.792C263.841 301.792 264.765 301.974 265.519 302.287L266.286 300.44L267.054 298.593C265.728 298.042 264.268 297.792 262.71 297.792V299.792ZM266.286 300.44L265.529 302.291C266.364 302.633 267.069 303.09 267.662 303.659L269.046 302.216L270.431 300.773C269.456 299.838 268.321 299.111 267.044 298.589L266.286 300.44ZM269.046 302.216L267.626 300.809L265.106 303.353L266.527 304.76L267.947 306.167L270.467 303.623L269.046 302.216ZM266.527 304.76L267.989 303.395C267.339 302.699 266.559 302.166 265.677 301.791L264.895 303.632L264.112 305.473C264.51 305.642 264.818 305.861 265.064 306.125L266.527 304.76ZM264.895 303.632L265.694 301.799C264.768 301.395 263.758 301.224 262.71 301.224V303.224V305.224C263.327 305.224 263.773 305.325 264.095 305.465L264.895 303.632ZM262.71 303.224V301.224C261.738 301.224 260.797 301.394 259.911 301.758L260.671 303.608L261.43 305.458C261.792 305.31 262.211 305.224 262.71 305.224V303.224ZM260.671 303.608L259.936 301.748C259.066 302.091 258.297 302.602 257.648 303.275L259.087 304.664L260.525 306.053C260.772 305.798 261.059 305.605 261.405 305.468L260.671 303.608ZM259.087 304.664L257.623 303.301C257.001 303.969 256.529 304.752 256.191 305.617L258.055 306.344L259.918 307.071C260.092 306.624 260.308 306.287 260.55 306.027L259.087 304.664ZM258.055 306.344L256.176 305.657C255.846 306.558 255.695 307.514 255.695 308.504H257.695H259.695C259.695 307.926 259.783 307.442 259.933 307.031L258.055 306.344ZM257.695 308.504H255.695C255.695 309.505 255.845 310.47 256.176 311.375L258.055 310.688L259.933 310.001C259.784 309.594 259.695 309.103 259.695 308.504H257.695ZM258.055 310.688L256.191 311.415C256.529 312.28 257.001 313.063 257.623 313.731L259.087 312.368L260.55 311.005C260.308 310.745 260.092 310.408 259.918 309.961L258.055 310.688ZM259.087 312.368L257.648 313.757C258.288 314.42 259.043 314.933 259.894 315.291L260.671 313.448L261.447 311.605C261.082 311.451 260.781 311.244 260.525 310.979L259.087 312.368ZM260.671 313.448L259.911 315.298C260.797 315.662 261.738 315.832 262.71 315.832V313.832V311.832C262.211 311.832 261.792 311.746 261.43 311.598L260.671 313.448ZM262.71 313.832V315.832C263.78 315.832 264.809 315.664 265.749 315.265L264.967 313.424L264.184 311.583C263.844 311.728 263.369 311.832 262.71 311.832V313.832ZM264.967 313.424L265.749 315.265C266.625 314.892 267.403 314.367 268.06 313.686L266.622 312.296L265.185 310.906C264.914 311.185 264.588 311.412 264.184 311.583L264.967 313.424ZM266.622 312.296L265.208 313.71L267.752 316.254L269.167 314.84L270.581 313.426L268.037 310.882L266.622 312.296ZM269.167 314.84L267.811 313.369C267.175 313.955 266.443 314.42 265.601 314.765L266.359 316.616L267.116 318.467C268.386 317.948 269.526 317.229 270.522 316.311L269.167 314.84ZM266.359 316.616L265.591 314.769C264.842 315.08 263.904 315.264 262.734 315.264V317.264V319.264C264.317 319.264 265.795 319.016 267.126 318.463L266.359 316.616ZM272.448 316.592L271.601 318.404L271.618 318.412L271.636 318.42L272.448 316.592ZM269.712 314.504L268.305 313.083L266.952 314.422L268.223 315.839L269.712 314.504ZM272.16 312.08L273.668 310.766L272.267 309.159L270.753 310.659L272.16 312.08ZM273.96 313.544L273.014 315.306L273.04 315.32L273.066 315.333L273.96 313.544ZM278.136 313.616L277.055 311.934L277.041 311.943L277.027 311.952L278.136 313.616ZM278.376 311.288L276.962 312.702V312.702L278.376 311.288ZM277.224 310.544L276.406 312.369L276.417 312.374L276.429 312.379L277.224 310.544ZM275.664 309.944L275.015 311.836L275.024 311.839L275.032 311.841L275.664 309.944ZM273.984 309.296L273.153 311.115L273.174 311.125L273.196 311.134L273.984 309.296ZM272.424 308.36L271.149 309.901L271.178 309.925L271.207 309.947L272.424 308.36ZM271.296 306.944L269.507 307.838L269.512 307.849L269.518 307.859L271.296 306.944ZM271.608 302.096L269.955 300.97L269.947 300.983L269.939 300.995L271.608 302.096ZM273.72 300.392L274.508 302.23L274.522 302.224L274.535 302.218L273.72 300.392ZM280.056 300.416L279.272 302.256L279.283 302.26L280.056 300.416ZM282.504 302.12L283.911 303.541L285.258 302.208L283.999 300.791L282.504 302.12ZM280.056 304.544L278.62 305.936L280.027 307.387L281.463 305.965L280.056 304.544ZM278.496 303.368L277.602 305.157L277.613 305.162L277.624 305.168L278.496 303.368ZM275.184 303.368L276.244 305.064L276.269 305.048L276.294 305.032L275.184 303.368ZM275.04 305.48L273.667 306.934L273.689 306.955L273.711 306.975L275.04 305.48ZM276.168 306.152L275.403 308L275.414 308.005L275.425 308.009L276.168 306.152ZM277.728 306.728L277.079 308.62L277.088 308.623L277.096 308.625L277.728 306.728ZM279.432 307.4L280.264 305.581L279.432 307.4ZM280.968 308.384L279.662 309.899L279.69 309.923L279.719 309.946L280.968 308.384ZM282.12 309.872L280.313 310.728L280.317 310.738L280.322 310.747L282.12 309.872ZM280.824 315.896L282.066 317.464L282.072 317.459L282.079 317.454L280.824 315.896ZM276.048 317.264V315.264C274.865 315.264 273.955 315.073 273.26 314.764L272.448 316.592L271.636 318.42C272.957 319.007 274.447 319.264 276.048 319.264V317.264ZM272.448 316.592L273.296 314.78C272.579 314.445 271.878 313.924 271.201 313.169L269.712 314.504L268.223 315.839C269.21 316.94 270.334 317.811 271.601 318.404L272.448 316.592ZM269.712 314.504L271.119 315.925L273.567 313.501L272.16 312.08L270.753 310.659L268.305 313.083L269.712 314.504ZM272.16 312.08L270.653 313.394C271.338 314.18 272.123 314.828 273.014 315.306L273.96 313.544L274.906 311.782C274.485 311.556 274.071 311.228 273.668 310.766L272.16 312.08ZM273.96 313.544L273.066 315.333C274.059 315.83 275.151 316.048 276.288 316.048V314.048V312.048C275.666 312.048 275.205 311.93 274.855 311.755L273.96 313.544ZM276.288 314.048V316.048C277.285 316.048 278.352 315.876 279.246 315.28L278.136 313.616L277.027 311.952C277.048 311.938 277.019 311.963 276.895 311.993C276.769 312.022 276.573 312.048 276.288 312.048V314.048ZM278.136 313.616L279.218 315.298C280.21 314.66 280.808 313.641 280.808 312.416H278.808H276.808C276.808 312.371 276.821 312.255 276.895 312.123C276.967 311.994 277.048 311.938 277.055 311.934L278.136 313.616ZM278.808 312.416H280.808C280.808 311.502 280.507 310.59 279.79 309.874L278.376 311.288L276.962 312.702C276.91 312.65 276.862 312.579 276.832 312.501C276.805 312.429 276.808 312.392 276.808 312.416H278.808ZM278.376 311.288L279.79 309.874C279.282 309.365 278.668 308.99 278.019 308.709L277.224 310.544L276.429 312.379C276.741 312.514 276.895 312.635 276.962 312.702L278.376 311.288ZM277.224 310.544L278.042 308.719C277.507 308.479 276.924 308.256 276.297 308.047L275.664 309.944L275.032 311.841C275.556 312.016 276.013 312.193 276.406 312.369L277.224 310.544ZM275.664 309.944L276.313 308.052C275.801 307.877 275.288 307.679 274.772 307.458L273.984 309.296L273.196 311.134C273.801 311.393 274.407 311.627 275.015 311.836L275.664 309.944ZM273.984 309.296L274.816 307.477C274.39 307.282 274 307.048 273.641 306.773L272.424 308.36L271.207 309.947C271.809 310.408 272.458 310.798 273.153 311.115L273.984 309.296ZM272.424 308.36L273.699 306.819C273.453 306.616 273.245 306.36 273.075 306.029L271.296 306.944L269.518 307.859C269.924 308.648 270.467 309.336 271.149 309.901L272.424 308.36ZM271.296 306.944L273.085 306.05C272.975 305.829 272.864 305.439 272.864 304.784H270.864H268.864C268.864 305.857 269.041 306.907 269.507 307.838L271.296 306.944ZM270.864 304.784H272.864C272.864 304.073 273.029 303.574 273.278 303.197L271.608 302.096L269.939 300.995C269.195 302.122 268.864 303.415 268.864 304.784H270.864ZM271.608 302.096L273.261 303.222C273.543 302.808 273.936 302.475 274.508 302.23L273.72 300.392L272.932 298.554C271.712 299.077 270.697 299.88 269.955 300.97L271.608 302.096ZM273.72 300.392L274.535 302.218C275.131 301.952 275.876 301.792 276.816 301.792V299.792V297.792C275.42 297.792 274.101 298.032 272.905 298.566L273.72 300.392ZM276.816 299.792V301.792C277.762 301.792 278.571 301.957 279.272 302.256L280.056 300.416L280.84 298.576C279.589 298.043 278.238 297.792 276.816 297.792V299.792ZM280.056 300.416L279.283 302.26C280.031 302.574 280.59 302.977 281.009 303.449L282.504 302.12L283.999 300.791C283.138 299.823 282.065 299.09 280.83 298.572L280.056 300.416ZM282.504 302.12L281.097 300.699L278.649 303.123L280.056 304.544L281.463 305.965L283.911 303.541L282.504 302.12ZM280.056 304.544L281.492 303.152C280.857 302.497 280.152 301.948 279.369 301.568L278.496 303.368L277.624 305.168C277.896 305.3 278.231 305.535 278.62 305.936L280.056 304.544ZM278.496 303.368L279.391 301.579C278.563 301.165 277.665 300.984 276.744 300.984V302.984V304.984C277.135 304.984 277.405 305.059 277.602 305.157L278.496 303.368ZM276.744 302.984V300.984C275.853 300.984 274.899 301.155 274.075 301.704L275.184 303.368L276.294 305.032C276.238 305.069 276.324 304.984 276.744 304.984V302.984ZM275.184 303.368L274.124 301.672C273.138 302.288 272.608 303.291 272.608 304.424H274.608H276.608C276.608 304.474 276.596 304.609 276.508 304.77C276.419 304.933 276.305 305.026 276.244 305.064L275.184 303.368ZM274.608 304.424H272.608C272.608 305.351 272.94 306.248 273.667 306.934L275.04 305.48L276.413 304.026C276.468 304.077 276.527 304.156 276.567 304.255C276.606 304.35 276.608 304.415 276.608 304.424H274.608ZM275.04 305.48L273.711 306.975C274.208 307.416 274.792 307.747 275.403 308L276.168 306.152L276.933 304.304C276.616 304.173 276.448 304.056 276.369 303.985L275.04 305.48ZM276.168 306.152L275.425 308.009C275.94 308.215 276.492 308.419 277.079 308.62L277.728 306.728L278.377 304.836C277.844 304.653 277.356 304.473 276.911 304.295L276.168 306.152ZM277.728 306.728L277.096 308.625C277.603 308.794 278.105 308.992 278.601 309.219L279.432 307.4L280.264 305.581C279.64 305.296 279.005 305.046 278.361 304.831L277.728 306.728ZM279.432 307.4L278.601 309.219C278.99 309.397 279.342 309.623 279.662 309.899L280.968 308.384L282.274 306.869C281.666 306.345 280.994 305.915 280.264 305.581L279.432 307.4ZM280.968 308.384L279.719 309.946C279.94 310.123 280.142 310.368 280.313 310.728L282.12 309.872L283.928 309.016C283.522 308.16 282.956 307.413 282.218 306.822L280.968 308.384ZM282.12 309.872L280.322 310.747C280.44 310.991 280.552 311.406 280.552 312.08H282.552H284.552C284.552 310.994 284.376 309.937 283.919 308.997L282.12 309.872ZM282.552 312.08H280.552C280.552 313.155 280.203 313.828 279.569 314.338L280.824 315.896L282.079 317.454C283.75 316.108 284.552 314.237 284.552 312.08H282.552ZM280.824 315.896L279.583 314.328C278.898 314.87 277.8 315.264 276.048 315.264V317.264V319.264C278.36 319.264 280.447 318.746 282.066 317.464L280.824 315.896Z" fill="#5B5B99" mask="url(#path-3-outside-1_1863_28)"/>
<g filter="url(#filter0_i_1863_28)">
<rect width="344.354" height="375" rx="25" fill="#F6F8F6"/>
</g>
<rect x="1" y="1" width="342.354" height="373" rx="24" stroke="#5B5B99" stroke-width="2"/>
<path d="M50.82 77V58.28H58.555C58.737 58.28 58.971 58.2887 59.257 58.306C59.543 58.3147 59.8073 58.3407 60.05 58.384C61.1333 58.5487 62.026 58.9083 62.728 59.463C63.4387 60.0177 63.963 60.7197 64.301 61.569C64.6477 62.4097 64.821 63.3457 64.821 64.377C64.821 65.9023 64.4353 67.2153 63.664 68.316C62.8927 69.408 61.7097 70.084 60.115 70.344L58.776 70.461H53.953V77H50.82ZM61.571 77L57.879 69.382L61.064 68.68L65.12 77H61.571ZM53.953 67.536H58.425C58.5983 67.536 58.7933 67.5273 59.01 67.51C59.2267 67.4927 59.426 67.458 59.608 67.406C60.128 67.276 60.5353 67.0463 60.83 66.717C61.1333 66.3877 61.3457 66.015 61.467 65.599C61.597 65.183 61.662 64.7757 61.662 64.377C61.662 63.9783 61.597 63.571 61.467 63.155C61.3457 62.7303 61.1333 62.3533 60.83 62.024C60.5353 61.6947 60.128 61.465 59.608 61.335C59.426 61.283 59.2267 61.2527 59.01 61.244C58.7933 61.2267 58.5983 61.218 58.425 61.218H53.953V67.536ZM74.3671 77.39C72.9457 77.39 71.6977 77.0823 70.6231 76.467C69.5484 75.8517 68.7077 74.998 68.1011 73.906C67.5031 72.814 67.2041 71.5573 67.2041 70.136C67.2041 68.602 67.4987 67.2717 68.0881 66.145C68.6774 65.0097 69.4964 64.13 70.5451 63.506C71.5937 62.882 72.8071 62.57 74.1851 62.57C75.6411 62.57 76.8761 62.9123 77.8901 63.597C78.9127 64.273 79.6711 65.2307 80.1651 66.47C80.6591 67.7093 80.8454 69.1697 80.7241 70.851H77.6171V69.707C77.6084 68.1817 77.3397 67.068 76.8111 66.366C76.2824 65.664 75.4504 65.313 74.3151 65.313C73.0324 65.313 72.0791 65.7117 71.4551 66.509C70.8311 67.2977 70.5191 68.4547 70.5191 69.98C70.5191 71.4013 70.8311 72.502 71.4551 73.282C72.0791 74.062 72.9891 74.452 74.1851 74.452C74.9564 74.452 75.6194 74.283 76.1741 73.945C76.7374 73.5983 77.1707 73.1 77.4741 72.45L80.5681 73.386C80.0307 74.6513 79.1987 75.635 78.0721 76.337C76.9541 77.039 75.7191 77.39 74.3671 77.39ZM69.5311 70.851V68.485H79.1901V70.851H69.5311ZM87.2968 77.39C86.2828 77.39 85.4248 77.1993 84.7228 76.818C84.0208 76.428 83.4878 75.9123 83.1238 75.271C82.7684 74.6297 82.5908 73.9233 82.5908 73.152C82.5908 72.476 82.7034 71.8693 82.9288 71.332C83.1541 70.786 83.5008 70.318 83.9688 69.928C84.4368 69.5293 85.0434 69.2043 85.7888 68.953C86.3521 68.771 87.0108 68.6063 87.7648 68.459C88.5274 68.3117 89.3508 68.1773 90.2348 68.056C91.1274 67.926 92.0591 67.7873 93.0298 67.64L91.9118 68.277C91.9204 67.3063 91.7038 66.5913 91.2618 66.132C90.8198 65.6727 90.0744 65.443 89.0258 65.443C88.3931 65.443 87.7821 65.5903 87.1928 65.885C86.6034 66.1797 86.1918 66.6867 85.9578 67.406L83.0978 66.509C83.4444 65.3217 84.1031 64.3683 85.0738 63.649C86.0531 62.9297 87.3704 62.57 89.0258 62.57C90.2738 62.57 91.3701 62.7737 92.3148 63.181C93.2681 63.5883 93.9744 64.2557 94.4338 65.183C94.6851 65.677 94.8368 66.184 94.8888 66.704C94.9408 67.2153 94.9668 67.7743 94.9668 68.381V77H92.2238V73.958L92.6788 74.452C92.0461 75.466 91.3051 76.2113 90.4558 76.688C89.6151 77.156 88.5621 77.39 87.2968 77.39ZM87.9208 74.894C88.6314 74.894 89.2381 74.7683 89.7408 74.517C90.2434 74.2657 90.6421 73.958 90.9368 73.594C91.2401 73.23 91.4438 72.8877 91.5478 72.567C91.7124 72.1683 91.8034 71.7133 91.8208 71.202C91.8468 70.682 91.8598 70.2617 91.8598 69.941L92.8218 70.227C91.8771 70.3743 91.0668 70.5043 90.3908 70.617C89.7148 70.7297 89.1341 70.838 88.6488 70.942C88.1634 71.0373 87.7344 71.1457 87.3618 71.267C86.9978 71.397 86.6901 71.5487 86.4388 71.722C86.1874 71.8953 85.9924 72.0947 85.8538 72.32C85.7238 72.5453 85.6588 72.8097 85.6588 73.113C85.6588 73.4597 85.7454 73.7673 85.9188 74.036C86.0921 74.296 86.3434 74.504 86.6728 74.66C87.0108 74.816 87.4268 74.894 87.9208 74.894ZM98.6113 77V57.89H101.744V77H98.6113ZM115.341 77V61.218H109.283V58.28H124.532V61.218H118.474V77H115.341ZM126.871 60.828V57.955H130.004V60.828H126.871ZM126.871 77V62.96H130.004V77H126.871ZM150.759 77V68.472C150.759 67.51 150.521 66.7603 150.044 66.223C149.567 65.677 148.922 65.404 148.107 65.404C147.604 65.404 147.154 65.521 146.755 65.755C146.356 65.9803 146.04 66.3183 145.806 66.769C145.572 67.211 145.455 67.7397 145.455 68.355L144.064 67.536C144.055 66.5653 144.272 65.7117 144.714 64.975C145.165 64.2297 145.771 63.649 146.534 63.233C147.297 62.817 148.146 62.609 149.082 62.609C150.633 62.609 151.821 63.077 152.644 64.013C153.476 64.9403 153.892 66.1623 153.892 67.679V77H150.759ZM133.872 77V62.96H136.641V67.315H137.031V77H133.872ZM142.335 77V68.511C142.335 67.5317 142.097 66.769 141.62 66.223C141.143 65.677 140.493 65.404 139.67 65.404C138.873 65.404 138.231 65.677 137.746 66.223C137.269 66.769 137.031 67.4797 137.031 68.355L135.627 67.419C135.627 66.509 135.852 65.69 136.303 64.962C136.754 64.234 137.36 63.662 138.123 63.246C138.894 62.8213 139.757 62.609 140.71 62.609C141.759 62.609 142.634 62.8343 143.336 63.285C144.047 63.727 144.575 64.3337 144.922 65.105C145.277 65.8677 145.455 66.73 145.455 67.692V77H142.335ZM163.437 77.39C162.016 77.39 160.768 77.0823 159.693 76.467C158.619 75.8517 157.778 74.998 157.171 73.906C156.573 72.814 156.274 71.5573 156.274 70.136C156.274 68.602 156.569 67.2717 157.158 66.145C157.748 65.0097 158.567 64.13 159.615 63.506C160.664 62.882 161.877 62.57 163.255 62.57C164.711 62.57 165.946 62.9123 166.96 63.597C167.983 64.273 168.741 65.2307 169.235 66.47C169.729 67.7093 169.916 69.1697 169.794 70.851H166.687V69.707C166.679 68.1817 166.41 67.068 165.881 66.366C165.353 65.664 164.521 65.313 163.385 65.313C162.103 65.313 161.149 65.7117 160.525 66.509C159.901 67.2977 159.589 68.4547 159.589 69.98C159.589 71.4013 159.901 72.502 160.525 73.282C161.149 74.062 162.059 74.452 163.255 74.452C164.027 74.452 164.69 74.283 165.244 73.945C165.808 73.5983 166.241 73.1 166.544 72.45L169.638 73.386C169.101 74.6513 168.269 75.635 167.142 76.337C166.024 77.039 164.789 77.39 163.437 77.39ZM158.601 70.851V68.485H168.26V70.851H158.601ZM176.6 77L182.502 58.28H187.091L192.993 77H189.769L184.413 60.204H185.115L179.824 77H176.6ZM179.889 72.944V70.019H189.717V72.944H179.889ZM205.054 77V70.24C205.054 69.798 205.024 69.3083 204.963 68.771C204.903 68.2337 204.76 67.718 204.534 67.224C204.318 66.7213 203.988 66.3097 203.546 65.989C203.113 65.6683 202.524 65.508 201.778 65.508C201.38 65.508 200.985 65.573 200.595 65.703C200.205 65.833 199.85 66.0583 199.529 66.379C199.217 66.691 198.966 67.1243 198.775 67.679C198.585 68.225 198.489 68.927 198.489 69.785L196.63 68.992C196.63 67.796 196.86 66.7127 197.319 65.742C197.787 64.7713 198.472 64 199.373 63.428C200.275 62.8473 201.384 62.557 202.701 62.557C203.741 62.557 204.599 62.7303 205.275 63.077C205.951 63.4237 206.489 63.8657 206.887 64.403C207.286 64.9403 207.581 65.5123 207.771 66.119C207.962 66.7257 208.083 67.302 208.135 67.848C208.196 68.3853 208.226 68.823 208.226 69.161V77H205.054ZM195.317 77V62.96H198.112V67.315H198.489V77H195.317ZM215.545 77.39C214.531 77.39 213.673 77.1993 212.971 76.818C212.269 76.428 211.736 75.9123 211.372 75.271C211.016 74.6297 210.839 73.9233 210.839 73.152C210.839 72.476 210.951 71.8693 211.177 71.332C211.402 70.786 211.749 70.318 212.217 69.928C212.685 69.5293 213.291 69.2043 214.037 68.953C214.6 68.771 215.259 68.6063 216.013 68.459C216.775 68.3117 217.599 68.1773 218.483 68.056C219.375 67.926 220.307 67.7873 221.278 67.64L220.16 68.277C220.168 67.3063 219.952 66.5913 219.51 66.132C219.068 65.6727 218.322 65.443 217.274 65.443C216.641 65.443 216.03 65.5903 215.441 65.885C214.851 66.1797 214.44 66.6867 214.206 67.406L211.346 66.509C211.692 65.3217 212.351 64.3683 213.322 63.649C214.301 62.9297 215.618 62.57 217.274 62.57C218.522 62.57 219.618 62.7737 220.563 63.181C221.516 63.5883 222.222 64.2557 222.682 65.183C222.933 65.677 223.085 66.184 223.137 66.704C223.189 67.2153 223.215 67.7743 223.215 68.381V77H220.472V73.958L220.927 74.452C220.294 75.466 219.553 76.2113 218.704 76.688C217.863 77.156 216.81 77.39 215.545 77.39ZM216.169 74.894C216.879 74.894 217.486 74.7683 217.989 74.517C218.491 74.2657 218.89 73.958 219.185 73.594C219.488 73.23 219.692 72.8877 219.796 72.567C219.96 72.1683 220.051 71.7133 220.069 71.202C220.095 70.682 220.108 70.2617 220.108 69.941L221.07 70.227C220.125 70.3743 219.315 70.5043 218.639 70.617C217.963 70.7297 217.382 70.838 216.897 70.942C216.411 71.0373 215.982 71.1457 215.61 71.267C215.246 71.397 214.938 71.5487 214.687 71.722C214.435 71.8953 214.24 72.0947 214.102 72.32C213.972 72.5453 213.907 72.8097 213.907 73.113C213.907 73.4597 213.993 73.7673 214.167 74.036C214.34 74.296 214.591 74.504 214.921 74.66C215.259 74.816 215.675 74.894 216.169 74.894ZM226.859 77V57.89H229.992V77H226.859ZM235.732 83.24L238.436 75.817L238.488 78.001L232.365 62.96H235.628L239.97 74.088H239.138L243.363 62.96H246.496L238.67 83.24H235.732ZM257.705 77C256.778 77.1733 255.868 77.247 254.975 77.221C254.091 77.2037 253.298 77.0433 252.596 76.74C251.894 76.428 251.361 75.9383 250.997 75.271C250.677 74.6643 250.508 74.0447 250.49 73.412C250.473 72.7793 250.464 72.0643 250.464 71.267V59.06H253.584V71.085C253.584 71.6483 253.589 72.1423 253.597 72.567C253.615 72.9917 253.706 73.3383 253.87 73.607C254.182 74.127 254.681 74.4173 255.365 74.478C256.05 74.5387 256.83 74.504 257.705 74.374V77ZM247.916 65.417V62.96H257.705V65.417H247.916ZM260.984 60.828V57.955H264.117V60.828H260.984ZM260.984 77V62.96H264.117V77H260.984ZM274.108 77.39C272.661 77.39 271.426 77.0693 270.403 76.428C269.381 75.778 268.596 74.894 268.05 73.776C267.513 72.658 267.24 71.3927 267.231 69.98C267.24 68.5413 267.522 67.2673 268.076 66.158C268.64 65.04 269.437 64.1647 270.468 63.532C271.5 62.8907 272.726 62.57 274.147 62.57C275.742 62.57 277.09 62.973 278.19 63.779C279.3 64.5763 280.023 65.6683 280.361 67.055L277.241 67.9C276.999 67.146 276.596 66.561 276.032 66.145C275.469 65.7203 274.828 65.508 274.108 65.508C273.294 65.508 272.622 65.703 272.093 66.093C271.565 66.4743 271.175 67.003 270.923 67.679C270.672 68.355 270.546 69.122 270.546 69.98C270.546 71.3147 270.845 72.3937 271.443 73.217C272.041 74.0403 272.93 74.452 274.108 74.452C274.94 74.452 275.595 74.2613 276.071 73.88C276.557 73.4987 276.921 72.9483 277.163 72.229L280.361 72.944C279.928 74.374 279.17 75.4747 278.086 76.246C277.003 77.0087 275.677 77.39 274.108 77.39ZM288.387 77.39C286.654 77.39 285.246 77 284.162 76.22C283.079 75.44 282.42 74.3437 282.186 72.931L285.384 72.437C285.549 73.1303 285.913 73.6763 286.476 74.075C287.04 74.4737 287.75 74.673 288.608 74.673C289.362 74.673 289.943 74.5257 290.35 74.231C290.766 73.9277 290.974 73.516 290.974 72.996C290.974 72.6753 290.896 72.4197 290.74 72.229C290.593 72.0297 290.264 71.839 289.752 71.657C289.241 71.475 288.457 71.2453 287.399 70.968C286.221 70.656 285.285 70.3223 284.591 69.967C283.898 69.603 283.4 69.174 283.096 68.68C282.793 68.186 282.641 67.588 282.641 66.886C282.641 66.0107 282.871 65.248 283.33 64.598C283.79 63.948 284.431 63.4497 285.254 63.103C286.078 62.7477 287.048 62.57 288.166 62.57C289.258 62.57 290.225 62.739 291.065 63.077C291.915 63.415 292.599 63.896 293.119 64.52C293.639 65.144 293.96 65.8763 294.081 66.717L290.883 67.289C290.805 66.691 290.532 66.2187 290.064 65.872C289.605 65.5253 288.99 65.3303 288.218 65.287C287.482 65.2437 286.888 65.3563 286.437 65.625C285.987 65.885 285.761 66.2533 285.761 66.73C285.761 66.9987 285.852 67.2283 286.034 67.419C286.216 67.6097 286.58 67.8003 287.126 67.991C287.681 68.1817 288.504 68.4157 289.596 68.693C290.714 68.979 291.607 69.3083 292.274 69.681C292.95 70.045 293.436 70.4827 293.73 70.994C294.034 71.5053 294.185 72.125 294.185 72.853C294.185 74.2657 293.67 75.375 292.638 76.181C291.616 76.987 290.199 77.39 288.387 77.39Z" fill="url(#paint0_linear_1863_28)"/>
<defs>
<filter id="filter0_i_1863_28" x="0" y="0" width="344.354" height="375" filterUnits="userSpaceOnUse" color-interpolation-filters="sRGB">
<feFlood flood-opacity="0" result="BackgroundImageFix"/>
<feBlend mode="normal" in="SourceGraphic" in2="BackgroundImageFix" result="shape"/>
<feColorMatrix in="SourceAlpha" type="matrix" values="0 0 0 0 0 0 0 0 0 0 0 0 0 0 0 0 0 0 127 0" result="hardAlpha"/>
<feMorphology radius="1" operator="erode" in="SourceAlpha" result="effect1_innerShadow_1863_28"/>
<feOffset/>
<feGaussianBlur stdDeviation="17.5"/>
<feComposite in2="hardAlpha" operator="arithmetic" k2="-1" k3="1"/>
<feColorMatrix type="matrix" values="0 0 0 0 0.356863 0 0 0 0 0.356863 0 0 0 0 0.6 0 0 0 1 0"/>
<feBlend mode="normal" in2="shape" result="effect1_innerShadow_1863_28"/>
</filter>
<linearGradient id="paint0_linear_1863_28" x1="49" y1="67" x2="296" y2="67" gradientUnits="userSpaceOnUse">
<stop stop-color="#2A2626"/>
<stop offset="1" stop-color="#5B5B99" stop-opacity="0.815686"/>
</linearGradient>
</defs>
</svg>
