<svg width="742" height="742" viewBox="0 0 742 742" fill="none" xmlns="http://www.w3.org/2000/svg">
<path d="M317.752 64.7007C313.448 65.8136 310.443 68.188 308.477 72.0463C307.735 73.5302 306.659 75.2368 306.066 75.8674C304.099 77.9079 303.098 80.6903 303.098 84.1034C303.098 89.7795 303.246 90.0021 314.524 101.354C319.941 106.845 324.578 111.297 324.801 111.297C325.023 111.297 330.773 105.658 337.6 98.7575C352.291 83.9921 352.254 84.0663 352.254 78.0934C352.254 74.8658 352.142 74.1238 351.289 72.3431C347.839 64.9975 338.676 62.1409 331.812 66.2588L329.735 67.5202L328.659 66.7411C325.951 64.812 320.905 63.8474 317.752 64.7007ZM323.465 66.0733C324.504 66.2959 326.359 67.1121 327.62 67.9283L329.883 69.4122L330.699 68.6703C331.107 68.2622 332.406 67.4831 333.519 66.8895C335.3 65.9991 335.967 65.8507 338.713 65.8878C341.347 65.8878 342.2 66.0733 343.944 66.8895C346.281 68.0025 348.618 70.3397 349.805 72.6769C352.068 77.0917 350.955 83.5469 347.431 86.8116L346.392 87.7391L346.615 85.6986C346.911 83.0275 346.17 79.9483 344.611 77.3514C343.165 74.9771 341.829 73.827 338.787 72.4172C337.006 71.6011 336.19 71.4527 333.704 71.4898C330.736 71.5269 328.696 72.1576 325.654 74.0867C324.726 74.6803 324.652 74.6803 323.242 73.7157C320.052 71.4898 316.379 70.8591 312.484 71.8608L309.85 72.5656L310.332 71.6011C311.482 69.4122 314.747 66.9266 317.492 66.1846C319.681 65.5911 321.128 65.554 323.465 66.0733Z" fill="#DC3838"/>
<path d="M441.662 73.9383C441.551 74.198 441.477 75.7562 441.551 77.3885C441.625 79.6887 441.773 80.3193 442.219 80.3193C442.664 80.3193 442.775 79.6887 442.775 77.0175C442.775 74.6803 442.627 73.6415 442.33 73.5673C442.07 73.456 441.773 73.6415 441.662 73.9383Z" fill="#FFF712"/>
<path d="M111.074 80.6162C110.963 80.913 110.925 81.9517 111 82.9534C111.074 84.289 111.259 84.7712 111.667 84.7712C112.409 84.7712 112.484 80.4678 111.779 80.2452C111.519 80.1339 111.185 80.3194 111.074 80.6162Z" fill="#FFF712"/>
<path d="M100.056 91.5228C99.4619 92.0793 100.723 92.7471 102.393 92.7471C104.062 92.7471 105.324 92.0793 104.73 91.5228C104.619 91.3744 103.543 91.2631 102.393 91.2631C101.243 91.2631 100.167 91.3744 100.056 91.5228Z" fill="#FFF712"/>
<path d="M118.791 91.894C118.865 92.4134 119.347 92.5989 120.757 92.6731C121.796 92.7102 122.834 92.5989 123.131 92.4134C124.096 91.7827 123.094 91.2633 120.905 91.2633C118.976 91.2633 118.679 91.3375 118.791 91.894Z" fill="#FFF712"/>
<path d="M424.077 91.597C422.964 92.339 424.151 92.7471 427.416 92.7471C430.421 92.7471 430.755 92.6729 430.644 92.0793C430.532 91.5599 430.05 91.4486 427.565 91.3373C425.932 91.3002 424.374 91.4115 424.077 91.597Z" fill="#FFF712"/>
<path d="M454.461 91.6345C453.311 92.3765 454.684 92.7846 457.837 92.6733C460.323 92.5991 460.953 92.4507 460.953 92.0055C460.953 91.5603 460.323 91.4119 457.985 91.3377C456.353 91.3006 454.758 91.4119 454.461 91.6345Z" fill="#FFF712"/>
<path d="M111.185 98.9057C111.037 99.0541 110.926 100.167 110.926 101.354C110.926 103.246 111 103.543 111.593 103.432C112.113 103.32 112.224 102.912 112.224 101.132C112.224 99.0912 111.816 98.275 111.185 98.9057Z" fill="#FFF712"/>
<path d="M441.625 104.359C441.514 104.656 441.476 106.103 441.551 107.624C441.625 109.887 441.773 110.369 442.33 110.48C442.886 110.592 442.96 110.258 442.96 107.253C442.96 104.47 442.849 103.877 442.404 103.877C442.07 103.877 441.736 104.099 441.625 104.359Z" fill="#FFF712"/>
<path d="M570.024 105.583C562.382 106.622 556.669 108.255 550.696 111.111C533.667 119.199 521.87 134.298 517.863 153.218C516.639 158.932 516.639 169.839 517.826 175.737C519.459 183.788 522.501 191.133 527.027 197.811L529.735 201.818L519.05 212.688L508.329 223.521L542.72 223.706C561.603 223.818 578.78 223.78 580.82 223.632C601.187 222.334 619.922 209.609 629.16 190.874C630.347 188.425 631.683 185.42 632.091 184.196C637.359 168.466 636.283 152.476 628.974 137.822C620.998 121.759 605.936 110.295 587.758 106.437C585.049 105.843 582.452 105.621 577.63 105.546C574.068 105.472 570.655 105.509 570.024 105.583ZM585.903 107.587C598.405 109.701 608.83 115.303 617.919 124.726C637.322 144.871 639.362 176.146 622.742 198.776C619.588 203.079 613.17 209.238 608.793 212.169C602.3 216.509 596.402 219.106 588.574 220.998L584.493 222L548.247 222.111C528.288 222.185 511.965 222.185 511.965 222.074C511.965 221.963 516.379 217.437 521.796 212.02C527.212 206.604 531.627 201.966 531.627 201.781C531.627 201.558 530.885 200.445 529.995 199.295C521.573 188.277 517.158 172.881 518.605 159.34C519.718 148.989 522.649 140.827 528.14 132.554C536.932 119.31 550.622 110.332 566.092 107.587C571.657 106.622 580.264 106.622 585.903 107.587Z" fill="url(#paint0_linear_2311_213)"/>
<path d="M553.033 155.815C548.878 157.077 546.615 162.864 548.692 166.908C551.697 172.844 560.415 172.584 562.975 166.5C563.606 164.905 563.717 161.9 563.124 160.378C562.604 158.969 560.712 157.04 559.006 156.149C557.559 155.407 554.888 155.259 553.033 155.815ZM559.265 158.078C563.161 160.712 562.79 166.945 558.598 168.948C554.368 170.915 549.842 168.281 549.508 163.68C549.397 161.862 549.508 161.343 550.436 159.97C552.439 156.928 556.335 156.075 559.265 158.078Z" fill="white"/>
<path d="M574.105 156.112C571.286 157.448 569.468 160.379 569.468 163.606C569.505 166.76 572.399 170.21 575.701 171.026C580.56 172.176 585.42 168.206 585.42 163.013C585.42 161.195 583.565 158.004 581.785 156.78C579.744 155.333 576.368 155.036 574.105 156.112ZM580.078 157.633C583.899 159.377 584.938 164.051 582.23 167.316C580.894 168.874 579.485 169.542 577.407 169.542C572.844 169.542 569.802 165.016 571.62 160.935C573.141 157.485 576.665 156.075 580.078 157.633Z" fill="white"/>
<path d="M596.475 155.816C593.47 156.706 591.282 159.785 591.244 163.161C591.207 170.989 601.113 174.18 605.602 167.799C606.863 165.944 607.308 162.716 606.566 160.49C606.047 158.858 602.931 156.001 601.335 155.667C599.814 155.37 597.737 155.445 596.475 155.816ZM602.671 158.079C604.192 159.117 605.453 161.455 605.453 163.272C605.416 165.09 604.266 167.428 602.819 168.466C601.113 169.691 597.143 169.765 595.585 168.578C593.804 167.279 593.099 165.981 592.914 163.829C592.766 162.122 592.914 161.529 593.73 160.156C595.548 156.966 599.666 156.038 602.671 158.079Z" fill="white"/>
<path d="M63.8098 127.991C63.3646 128.436 63.0679 129.216 63.0679 130.032C63.0679 130.959 62.8824 131.404 62.4372 131.553C62.0662 131.664 60.6193 132.258 59.1725 132.888C55.5368 134.446 55.4255 134.484 54.498 133.593C53.0141 132.221 51.7527 132.554 49.4897 134.929C47.1895 137.377 46.8556 138.787 48.3767 140.197L49.23 141.013L48.0057 143.87C47.3008 145.428 46.7443 146.986 46.7443 147.283C46.7443 148.21 45.9653 148.767 44.7039 148.767C42.7748 148.767 42.2925 149.657 42.2925 153.293C42.2925 156.965 42.7377 157.67 45.0378 157.67C46.2992 157.67 46.4847 157.819 46.8556 158.858C47.1153 159.525 47.8202 161.158 48.488 162.456L49.6752 164.868L48.7477 165.943C47.3008 167.687 47.5605 168.911 49.8607 171.323C52.235 173.808 53.4963 174.031 55.2771 172.324C56.3901 171.249 56.4272 171.249 57.6143 171.879C58.245 172.213 59.8773 172.881 61.2129 173.363L63.6243 174.216L63.8469 175.997C63.9582 176.962 64.2921 177.926 64.5889 178.112C65.4422 178.631 70.9699 178.52 71.7861 177.926C72.2313 177.63 72.5652 176.776 72.6765 175.663L72.8991 173.92L75.496 172.918C76.9428 172.362 78.4639 171.657 78.9091 171.397C79.6511 170.915 79.8365 170.952 80.8011 171.879C82.5077 173.512 83.9174 173.289 86.3289 170.915C88.6661 168.577 88.8887 167.316 87.3305 165.461L86.3289 164.311L87.4789 161.825C88.0725 160.453 88.7403 158.82 88.9258 158.227C89.2597 157.262 89.4452 157.114 90.4097 157.225C91.0775 157.299 91.8566 157.04 92.4873 156.557C93.4147 155.815 93.4889 155.593 93.4889 152.625C93.4889 148.915 92.9325 148.025 90.5581 148.025C89.1113 148.025 89.0742 147.988 88.4435 146.058C88.1096 145.02 87.4418 143.387 86.9966 142.46L86.1434 140.79L87.0337 139.752C88.5177 138.045 88.2209 136.858 85.8466 134.484C83.4351 132.109 82.3222 131.887 80.5414 133.408C79.4656 134.298 79.3914 134.298 78.501 133.742C77.9816 133.408 76.5347 132.777 75.2363 132.295C72.12 131.219 71.9716 131.108 71.9716 129.698C71.9716 127.732 71.0812 127.249 67.5939 127.249C65.0341 127.249 64.4405 127.361 63.8098 127.991ZM70.5989 129.549C70.7102 129.995 70.7473 130.477 70.636 130.662C70.4134 131.033 64.6631 131.07 64.4405 130.662C64.3292 130.514 64.4034 130.032 64.5889 129.549C64.8857 128.807 65.1454 128.733 67.6681 128.733C70.1537 128.733 70.4134 128.807 70.5989 129.549ZM72.6765 133.037C76.4605 134.001 79.2801 135.597 81.9883 138.342C86.1434 142.571 88.0725 147.32 87.9983 153.144C87.9241 160.712 83.5093 167.539 76.6089 170.84C73.1587 172.51 70.4134 173.029 66.2213 172.77C54.4609 172.102 45.5572 160.638 47.8573 149.063C50.0832 137.526 61.3984 130.254 72.6765 133.037ZM84.882 135.522C86.5885 137.266 86.7369 137.785 85.8466 138.787C85.2901 139.381 85.1417 139.306 83.0271 137.192C80.9495 135.114 80.8753 134.929 81.506 134.484C82.5819 133.63 83.2125 133.816 84.882 135.522ZM53.7931 134.855C54.2012 135.337 53.9415 135.782 52.2721 137.563C51.1962 138.713 50.2687 139.752 50.1945 139.826C49.9348 140.197 48.9703 138.935 48.9703 138.268C48.9703 137.34 51.8269 134.298 52.7173 134.298C53.0512 134.298 53.5334 134.558 53.7931 134.855ZM92.005 150.213C92.4873 151.141 92.4873 153.627 92.005 154.851C91.7453 155.593 91.3743 155.815 90.5581 155.815H89.4823L89.4452 152.662V149.509H90.521C91.2259 149.509 91.7453 149.768 92.005 150.213ZM45.8169 150.251C45.9282 150.436 46.0766 151.846 46.1508 153.404L46.2621 156.186H45.2604C44.741 156.186 44.1103 156.001 43.8506 155.741C43.1829 155.073 43.2942 151.178 43.999 150.473C44.6668 149.805 45.483 149.694 45.8169 150.251ZM86.4401 166.76L87.3305 167.687L85.5127 169.542C84.511 170.581 83.4351 171.397 83.1012 171.397C82.5077 171.36 81.2463 170.544 81.2463 170.173C81.2463 169.913 85.0675 165.943 85.3643 165.869C85.4756 165.832 85.9579 166.24 86.4401 166.76ZM54.8319 170.136C55.1287 170.247 54.4238 171.286 53.7931 171.694C53.1254 172.102 52.8286 171.953 51.1962 170.432C49.1929 168.577 49.0074 167.947 49.9719 166.871C50.5655 166.203 50.6768 166.24 52.6431 168.132C53.7931 169.208 54.7577 170.098 54.8319 170.136ZM71.2296 175.404C71.2296 176.925 70.5989 177.333 68.3359 177.333C65.7761 177.333 64.9228 176.888 64.9228 175.478V174.365H68.0762H71.2296V175.404Z" fill="#AEACAC"/>
<path d="M65.1825 141.384C61.6952 142.2 58.2079 145.354 56.9836 148.73C56.4643 150.213 56.353 151.326 56.4643 153.515C56.6869 156.743 57.5401 158.672 59.729 160.898C63.0308 164.274 68.5214 165.164 72.8249 163.05C82.3593 158.301 81.0608 144.426 70.8215 141.569C68.5585 140.902 67.2971 140.865 65.1825 141.384ZM70.8215 143.053C73.1217 143.721 75.7186 145.947 76.8686 148.21C78.0558 150.51 78.2042 154.109 77.1654 156.483C74.6056 162.382 67.3342 164.571 62.1404 161.009C56.0562 156.817 56.3159 147.839 62.6598 144.055C65.4422 142.386 67.6681 142.089 70.8215 143.053Z" fill="#AEACAC"/>
<path d="M191.986 127.657C174.476 129.03 158.226 134.446 146.577 142.757C139.603 147.728 131.107 156.891 126.73 164.237C121.276 173.4 117.492 185.903 116.119 199.37C115.526 204.971 115.86 222.63 116.639 228.344C118.086 239.102 120.052 248.526 122.871 258.357C123.873 261.881 123.984 262.512 123.576 263.625C123.354 264.293 120.72 269.783 117.789 275.83C114.821 281.877 112.409 286.886 112.409 286.96C112.409 287.183 109.738 292.859 105.546 301.429C103.357 305.917 100.686 311.408 99.6103 313.671C98.5344 315.897 96.123 320.905 94.2309 324.801C83.4722 346.912 81.2463 351.772 77.6477 361.158C73.3443 372.399 68.4472 389.13 66.4068 399.778L65.9616 402.041L61.8065 402.486C45.7056 404.118 32.1645 410.165 23.0753 419.774C21.4429 421.518 19.9219 422.927 19.7364 422.927C19.5509 422.927 15.1732 428.233 9.97937 434.688C4.78552 441.18 0.407855 446.596 0.259459 446.708C0.0739651 446.819 -0.000232697 447.45 0.0739651 448.08C0.185262 449.156 0.667547 448.637 7.60504 439.993C11.6488 434.91 15.0619 430.792 15.1361 430.867C15.2103 430.941 14.8393 431.98 14.2828 433.13C13.1328 435.689 11.3891 441.737 10.6842 445.558C10.0907 449.119 10.0907 461.77 10.6842 465.777C12.9473 480.134 18.2153 494.677 26.4513 509.368C47.5605 546.986 85.2901 583.083 129.475 607.94C133.964 610.462 147.245 617.14 151.363 618.958C160.267 622.89 179.707 629.939 181.673 629.939C182.044 629.939 182.563 630.088 182.86 630.273C183.417 630.607 182.155 632.128 162.678 654.833C157.188 661.251 150.77 668.745 148.395 671.49C146.021 674.235 142.088 678.836 139.64 681.692C128.622 694.565 119.569 705.139 118.531 706.4C117.937 707.142 115.266 710.221 112.669 713.263C110.035 716.305 106.659 720.201 105.175 721.944C87.6273 742.386 88.8516 740.865 90.1129 740.865C90.6694 740.865 95.2697 735.745 106.511 722.575C115.118 712.558 122.574 703.803 123.131 703.209C124.096 702.097 154.628 666.444 174.365 643.369C183.899 632.239 185.012 631.015 185.865 631.201C186.385 631.312 188.981 631.868 191.615 632.499C215.025 637.804 237.21 637.47 253.2 631.534C256.613 630.273 261.955 627.602 264.515 625.895C267.112 624.152 267.483 623.929 267.483 624.115C267.483 624.226 266.036 626.044 264.292 628.158C262.549 630.236 259.766 633.649 258.097 635.69C256.427 637.693 254.201 640.364 253.2 641.625C252.161 642.85 248.599 647.19 245.223 651.271C241.884 655.352 237.766 660.36 236.097 662.401C234.39 664.441 230.013 669.783 226.303 674.272C222.593 678.761 218.215 684.104 216.509 686.144C214.839 688.184 210.425 693.527 206.752 698.016C203.042 702.505 196.253 710.778 191.615 716.38C175.626 735.782 171.768 740.494 171.768 740.679C171.768 740.791 172.139 740.865 172.621 740.828C173.214 740.828 174.958 738.936 179.558 733.334C182.934 729.216 188.425 722.538 191.801 718.42C202.04 706.029 211.612 694.417 213.393 692.265C215.247 689.928 233.611 667.632 241.922 657.578C244.927 653.905 252.309 644.964 258.245 637.73C264.218 630.496 269.634 623.892 270.302 623.113C271.007 622.334 271.452 621.518 271.341 621.332C271.23 621.147 271.935 620.145 272.936 619.069C279.095 612.503 283.213 604.675 285.068 595.994C287.219 585.977 286.811 574.81 283.769 562.568L282.99 559.303L284.029 558.45C284.622 557.967 285.216 557.596 285.364 557.596C285.476 557.596 287.331 556.558 289.408 555.333C291.523 554.072 295.084 552.032 297.347 550.77C299.573 549.472 306.585 545.502 312.855 541.904C319.161 538.268 324.467 535.411 324.652 535.523C324.838 535.671 324.986 535.597 324.986 535.374C324.986 535.189 326.062 534.41 327.397 533.668L329.772 532.332L342.979 531.85L356.186 531.367L363.68 535.597C380.486 545.057 403.561 555.816 420.33 561.974C465.108 578.409 504.062 581.933 533.111 572.176C541.643 569.32 547.579 566.24 554.034 561.343C570.469 548.878 579.67 532.332 583.083 509.182C584.01 502.913 584.01 485.439 583.083 477.834C580.634 457.541 575.107 437.767 565.312 414.209C563.866 410.722 562.493 407.68 562.27 407.383C561.974 407.012 561.825 386.237 561.677 333.185L561.491 259.507L508.032 259.321L454.572 259.136L450.38 255.166L446.225 251.16L446.782 249.972C448.748 245.78 449.749 237.841 448.933 232.61C447.524 223.595 442.144 213.504 435.133 206.863C430.384 202.337 426.785 200.111 415.878 195.029C414.357 194.324 410.276 192.358 406.789 190.688C399.666 187.275 395.622 185.754 391.356 184.938C383.231 183.417 376.516 183.862 366.908 186.607L365.238 187.09L361.343 184.567C351.92 178.483 339.158 170.915 329.067 165.461C324.8 163.161 304.062 152.847 303.691 152.847C303.58 152.847 302.356 152.328 300.983 151.697C293.934 148.47 279.688 142.868 271.007 139.937C242.441 130.254 214.468 125.914 191.986 127.657ZM219.625 129.624C231.46 130.922 242.664 133.148 256.353 136.895C259.098 137.637 270.005 141.05 272.417 141.94C273.79 142.423 276.127 143.276 277.611 143.795C298.238 151.104 325.32 164.274 347.987 177.926C356.706 183.194 363.532 187.498 363.569 187.72C363.569 187.832 362.604 188.388 361.454 188.982C360.267 189.538 358.189 190.763 356.854 191.653L354.368 193.285L349.434 190.911C342.645 187.683 341.495 187.201 338.713 186.274C333.074 184.456 326.322 183.751 319.681 184.344C309.701 185.235 302.022 188.611 292.376 196.364L288.889 199.147L286.626 197.923C281.729 195.252 264.181 187.016 261.436 186.088C250.862 182.564 238.917 183.491 228.9 188.685C223.966 191.208 214.654 198.442 215.062 199.407C215.173 199.703 215.396 199.963 215.544 199.963C215.693 199.963 217.659 198.516 219.885 196.773C222.074 194.992 225.004 192.803 226.377 191.913C236.283 185.457 249.119 183.751 260.434 187.424C263.031 188.277 265.071 189.167 273.233 193.1C276.09 194.472 280.171 196.402 282.285 197.403C293.081 202.486 299.87 209.683 304.173 220.479C309.813 234.688 304.248 249.824 290.855 256.539C284.882 259.544 276.498 260.137 270.08 257.986C264.366 256.057 259.135 252.087 255.648 246.967C254.646 245.483 251.716 239.659 248.933 233.5C248.525 232.684 248.006 231.831 247.746 231.608C247.338 231.275 244.296 230.792 231.237 228.863L228.158 228.418V225.895C228.158 214.617 221.48 204.081 211.315 199.258C207.012 197.218 202.411 195.66 197.997 194.732C193.174 193.73 185.049 193.619 180.078 194.51C170.469 196.253 161.343 200.853 154.405 207.531C148.878 212.836 147.134 215.545 140.382 229.197C137.043 235.986 134.298 241.588 134.298 241.662C134.298 241.699 132.257 245.929 129.772 251.011L125.283 260.249L124.578 258.023C123.391 254.202 121.016 244.148 120.052 238.731C114.45 207.68 117.566 182.564 129.475 163.235C136.375 151.994 145.427 143.832 157.485 138.008C166.759 133.482 177.666 130.514 188.462 129.475C191.022 129.253 193.433 128.993 193.841 128.919C195.659 128.585 215.099 129.104 219.625 129.624ZM331.701 186.088C337.971 187.238 340.234 188.091 352.254 193.842C364.867 199.889 368.985 202.041 371.805 204.118C380.004 210.165 385.902 218.772 389.056 229.457C390.095 232.944 389.983 242.256 388.87 245.854C386.051 254.832 380.004 261.918 371.953 265.628C367.984 267.483 364.941 268.225 360.378 268.485C351.734 268.967 343.127 265.739 337.006 259.692C333.074 255.834 331.59 253.311 325.617 240.364C324.912 238.806 324.133 237.433 323.947 237.285C323.576 237.062 318.531 236.32 311.63 235.467L308.106 235.022L307.883 230.904C307.253 220.33 301.688 209.497 293.304 202.56C291.745 201.262 290.484 200.149 290.484 200C290.521 199.666 297.31 194.435 299.907 192.766C302.69 190.985 308.143 188.388 310.888 187.535C317.269 185.569 325.839 184.975 331.701 186.088ZM389.39 186.051C393.174 186.719 397.143 187.832 399.555 188.908C404.081 190.948 415.804 196.55 421.925 199.592C431.645 204.452 438.88 211.427 443.257 220.182C444.964 223.669 446.93 229.197 447.412 232.128C448.08 235.801 447.709 242.441 446.67 245.78C443.294 256.799 435.095 264.812 424.225 267.706C420.627 268.67 412.651 268.67 409.015 267.706C400.853 265.554 393.582 260.063 389.612 253.052L388.499 251.048L389.427 248.6C391.282 243.703 391.912 237.099 390.985 232.017C389.946 226.118 386.719 218.661 382.823 213.207C380.115 209.423 375.107 204.489 371.471 202.078C369.208 200.557 362.864 197.255 358.301 195.177C357.336 194.769 356.483 194.25 356.372 194.064C355.852 193.248 363.94 189.056 368.8 187.572C375.589 185.495 383.046 184.975 389.39 186.051ZM196.661 196.105C201.113 196.921 203.302 197.589 208.087 199.629C216.138 203.042 220.478 206.901 223.78 213.504C225.969 217.919 226.488 220.256 226.451 225.932C226.451 230.31 226.303 231.312 225.45 233.909C223.112 240.92 218.438 246.448 211.723 250.195C205.713 253.497 196.364 254.016 189.39 251.419C187.943 250.9 185.865 249.935 176.999 245.743C172.806 243.74 171.211 243.295 171.471 244.185C171.619 244.667 173.437 245.632 179.484 248.488C181.376 249.379 182.897 250.158 182.897 250.269C182.897 250.38 179.484 257.874 175.181 267.112C171.916 274.198 171.397 275.422 171.545 275.905C171.953 276.943 172.621 276.275 173.882 273.493C174.587 271.935 175.7 269.561 176.294 268.225C176.924 266.889 178.111 264.218 179.002 262.289C179.855 260.36 181.45 256.947 182.489 254.758L184.344 250.751L185.828 251.531C189.39 253.311 192.951 254.202 197.626 254.387C202.819 254.61 205.416 254.239 209.646 252.606C218.586 249.156 225.524 241.143 227.416 232.054C227.787 230.273 227.935 230.013 228.714 230.013C229.605 230.013 246.782 232.573 246.967 232.721C247.004 232.759 247.783 234.428 248.711 236.394C252.792 245.15 253.867 247.153 255.759 249.564C258.393 252.903 261.732 255.648 265.591 257.578L268.744 259.136L244.444 259.321L220.182 259.507V343.721V427.936L223.892 428.344C225.932 428.604 228.863 429.049 230.384 429.383C231.905 429.716 233.203 429.976 233.278 429.976C233.315 429.976 233.315 414.914 233.278 396.476L233.166 363.013L227.342 362.901L221.48 362.79L221.406 311.965C221.332 283.992 221.369 261.028 221.443 260.954C221.517 260.879 247.338 260.805 278.798 260.805C335.114 260.805 336.004 260.805 336.672 261.547C337.674 262.66 343.164 266.222 345.205 267.112C354.405 271.082 364.941 270.896 373.4 266.667C375.329 265.702 380.004 262.475 380.82 261.547C381.45 260.879 382.007 260.805 387.609 260.805H393.693L395.437 262.215C404.489 269.709 415.841 271.935 426.822 268.41C430.718 267.149 437.247 263.328 438.88 261.362C439.288 260.879 445.78 260.805 499.759 260.805H560.193V311.816V362.827L397.626 362.901L235.021 363.013V396.736V430.458L238.36 431.794C248.896 436.023 257.911 443.258 264.144 452.421C266.37 455.76 269.004 460.731 270.117 463.885L271.007 466.333L312.001 466.37C343.869 466.37 352.847 466.482 352.291 466.815C347.987 469.561 338.267 476.906 337.525 477.982C337.08 478.613 337.191 478.947 337.822 478.947C338.119 478.947 340.048 477.611 342.089 475.942C355.407 465.146 372.769 456.984 389.575 453.571C400.111 451.456 404.192 451.197 425.709 451.271C441.996 451.308 444.11 451.382 445.928 451.976C453.2 454.35 457.874 458.283 460.953 464.664C463.328 469.561 463.958 473.901 463.031 478.798C462.252 482.768 460.026 487.034 457.355 489.594C455.537 491.338 423.854 517.678 421.109 519.755C416.027 523.577 408.867 526.582 402.337 527.732C400.482 528.029 394.361 528.437 388.611 528.659C372.769 529.216 346.54 530.143 337.414 530.44L329.252 530.737L324.43 533.556C320.349 535.931 291.115 552.699 287.702 554.628C287.108 554.962 279.762 559.192 271.378 563.977C256.613 572.436 254.164 573.734 248.08 576.368C241.439 579.225 231.237 581.859 222.779 582.861C217.696 583.491 206.195 583.491 201.261 582.861C191.986 581.711 181.673 578.854 173.326 575.107C163.977 570.952 160.415 568.466 127.249 543.091C124.281 540.828 120.72 538.082 119.273 537.006C117.863 535.931 114.339 533.259 111.482 531.071C108.625 528.882 103.951 525.32 101.094 523.169C92.4131 516.639 88.3322 512.929 83.5835 507.327C74.3459 496.383 67.5568 482.582 64.7373 469.116C63.1792 461.659 62.9566 458.876 62.9937 447.969C63.0308 424.115 66.2584 402.152 73.1217 379.151C75.4218 371.323 79.1688 360.713 81.2463 355.964C81.6173 355.148 82.5819 352.885 83.398 350.956C84.2142 349.026 86.1805 344.76 87.7386 341.495C94.8245 326.804 100.835 314.413 105.361 305.138C107.438 300.835 109.85 295.827 110.74 294.009C112.669 289.891 116.379 282.285 121.128 272.491C123.131 268.41 125.542 263.402 126.507 261.362C127.472 259.321 129.809 254.461 131.701 250.603C133.593 246.708 136.004 241.699 137.08 239.436C144.426 224.152 147.728 217.771 150.028 214.766C157.41 205.009 168.429 198.182 180.115 196.105C184.233 195.363 192.803 195.363 196.661 196.105ZM314.821 237.285C318.494 237.804 321.87 238.323 322.352 238.435C322.983 238.583 323.576 239.473 324.8 242.033C329.215 251.493 330.996 254.869 332.554 256.91L334.298 259.136L311.742 259.321C299.351 259.433 289.037 259.396 288.889 259.284C288.703 259.136 289.371 258.728 290.336 258.357C294.825 256.65 300.983 251.271 303.765 246.633C304.878 244.741 306.845 239.622 307.364 237.322C307.475 236.765 307.698 236.32 307.883 236.32C308.069 236.32 311.185 236.728 314.821 237.285ZM452.161 259.024C452.235 259.21 449.749 259.321 446.67 259.321C441.217 259.321 441.031 259.284 441.514 258.616C441.81 258.245 442.849 256.761 443.851 255.277L445.669 252.643L448.859 255.686C450.603 257.392 452.124 258.876 452.161 259.024ZM388.833 254.573C389.39 255.463 390.354 256.873 390.985 257.726L392.172 259.284L387.869 259.395C385.494 259.47 383.491 259.433 383.417 259.395C383.268 259.21 387.423 253.052 387.683 253.014C387.794 253.014 388.314 253.719 388.833 254.573ZM513.114 391.059C513.04 396.031 512.855 400.26 512.706 400.408C512.558 400.594 511.853 400.668 511.185 400.594L509.924 400.483L509.627 391.579C509.479 386.682 509.442 382.49 509.516 382.267C509.627 382.007 510.406 381.859 511.482 381.933L513.263 382.007L513.114 391.059ZM277.796 383.565C278.093 383.751 278.241 384.382 278.167 385.124L278.056 386.385L275.199 386.496L272.306 386.608V390.28V393.99H274.531H276.757V395.474C276.757 396.402 276.572 396.958 276.312 396.995C276.053 396.995 275.088 397.032 274.16 397.069L272.491 397.144L272.38 402.968L272.268 408.83H270.265H268.225V396.29C268.225 389.39 268.336 383.603 268.484 383.491C268.818 383.12 277.24 383.194 277.796 383.565ZM289.408 384.085C290.113 384.53 291.04 385.643 291.523 386.57C292.302 388.129 292.339 388.648 292.339 395.919C292.339 404.341 292.153 405.417 290.224 407.457C289.037 408.681 287.331 409.201 285.216 408.941C283.138 408.719 281.654 407.606 280.69 405.528C279.985 403.97 279.911 403.228 279.948 396.031C279.948 388.759 280.022 388.129 280.764 386.533C282.322 383.38 286.552 382.156 289.408 384.085ZM304.173 384.048C306.659 384.975 307.92 387.312 307.92 390.985C307.92 394.139 307.401 395.919 306.028 397.478C305.435 398.182 304.953 398.887 304.953 399.073C304.953 399.258 305.806 401.484 306.807 404.007C307.846 406.53 308.662 408.644 308.662 408.719C308.662 408.793 307.772 408.83 306.659 408.83H304.693L303.135 404.601C302.319 402.3 301.614 400.223 301.614 400C301.614 399.555 300.538 399.11 300.093 399.407C299.907 399.518 299.759 401.67 299.759 404.23V408.83H297.904H296.049V396.29C296.049 389.39 296.16 383.603 296.346 383.454C296.68 383.083 302.912 383.565 304.173 384.048ZM319.644 383.528C319.866 383.677 320.72 386.348 321.499 389.427C322.278 392.543 323.02 395.103 323.131 395.103C323.242 395.103 324.021 392.469 324.838 389.242L326.322 383.417H328.139C329.549 383.417 329.994 383.528 329.92 383.974C329.92 384.27 328.77 388.129 327.434 392.543C325.06 400.371 324.986 400.668 324.986 404.675V408.83H323.131H321.276V404.786C321.276 400.854 321.202 400.557 318.716 392.284C317.269 387.646 316.194 383.677 316.305 383.528C316.527 383.157 319.087 383.157 319.644 383.528ZM340.938 383.899C341.718 384.27 342.608 385.161 343.164 386.199C344.092 387.832 344.092 388.017 344.092 395.845C344.092 403.599 344.055 403.859 343.164 405.676C341.272 409.46 336.746 410.277 333.853 407.383C331.812 405.38 331.59 403.97 331.738 395.103L331.849 387.424L332.888 385.866C333.482 385.012 334.483 384.048 335.114 383.788C336.746 383.046 339.38 383.12 340.938 383.899ZM351.697 394.287C351.883 404.526 351.92 405.194 352.588 405.714C353.663 406.493 354.554 406.344 355.222 405.342C355.704 404.601 355.815 402.746 355.889 393.953L355.964 383.417H357.818H359.673L359.785 393.211C359.896 404.526 359.599 406.27 357.522 407.865C355.741 409.201 353.292 409.46 351.178 408.496C349.768 407.902 349.286 407.42 348.618 405.973C347.876 404.304 347.802 403.562 347.69 394.25C347.616 388.759 347.653 384.048 347.765 383.751C347.913 383.343 348.432 383.232 349.731 383.306L351.512 383.417L351.697 394.287ZM372.732 384.382C374.921 385.42 375.811 387.387 375.811 391.059C375.811 394.584 375.329 396.29 373.882 397.7L372.732 398.85L374.661 403.636C375.7 406.233 376.553 408.496 376.553 408.607C376.553 408.719 375.663 408.83 374.587 408.83H372.621L372.027 407.049C369.579 399.889 369.022 398.776 368.243 399.555C368.021 399.778 367.872 401.892 367.835 404.304V408.644L365.906 408.756L363.94 408.867V396.29C363.94 389.39 364.051 383.603 364.237 383.454C364.756 382.898 371.1 383.603 372.732 384.382ZM393.137 383.677C393.359 383.936 394.472 389.316 395.622 395.66C396.809 401.967 397.848 407.531 397.959 407.977C398.145 408.793 398.034 408.83 396.142 408.83H394.101L393.767 406.678L393.433 404.563L391.133 404.452L388.833 404.341L388.611 406.122C388.24 408.83 388.24 408.83 386.199 408.83C385.197 408.83 384.344 408.719 384.344 408.607C384.344 408.162 388.796 384.159 388.982 383.677C389.093 383.417 389.835 383.232 390.948 383.232C391.987 383.232 392.951 383.454 393.137 383.677ZM410.61 384.975L410.721 386.57H408.681H406.604V397.7V408.83H404.749H402.894V397.7V386.57H400.853H398.813V385.161C398.813 384.382 398.924 383.603 399.072 383.454C399.221 383.343 401.855 383.269 404.897 383.306L410.499 383.417L410.61 384.975ZM423.483 384.901V386.385L421.554 386.496L419.588 386.608V397.737V408.867L417.659 408.756L415.693 408.644L415.581 397.626L415.507 386.608L413.541 386.496C411.612 386.385 411.612 386.385 411.575 385.087C411.538 384.382 411.612 383.677 411.686 383.491C411.76 383.343 414.468 383.269 417.659 383.306L423.483 383.417V384.901ZM435.466 384.975L435.578 386.57H432.758H429.939L430.05 390.169L430.161 393.805L432.202 393.99L434.242 394.176L434.353 395.548C434.465 397.032 434.391 397.069 432.573 397.032C432.053 396.995 431.274 397.069 430.792 397.181C429.976 397.329 429.939 397.44 430.05 401.521L430.161 405.676L432.944 405.862L435.726 406.047V407.346V408.644L431.015 408.756L426.266 408.867V396.29C426.266 389.39 426.377 383.603 426.526 383.454C426.674 383.343 428.714 383.269 431.052 383.306L435.355 383.417L435.466 384.975ZM441.996 384.419C442.293 385.087 443.554 388.574 444.815 392.135C446.077 395.697 447.227 398.739 447.375 398.887C447.486 399.036 447.598 395.623 447.598 391.282V383.417L448.822 383.306C449.49 383.232 450.269 383.343 450.529 383.565C450.9 383.862 451.011 386.719 450.974 396.29L450.937 408.644H449.304H447.672L444.852 400.965C443.294 396.736 441.959 393.211 441.847 393.1C441.736 393.026 441.699 396.513 441.773 400.891L441.885 408.83H440.215H438.509V396.29C438.509 389.39 438.62 383.603 438.768 383.491C438.88 383.343 439.584 383.232 440.252 383.232C441.328 383.232 441.588 383.417 441.996 384.419ZM465.405 384.901V386.385L463.476 386.496L461.51 386.608V397.737V408.867L459.581 408.756C457.689 408.644 457.614 408.607 457.577 407.531C457.54 406.901 457.503 401.967 457.466 396.513L457.429 386.608L455.5 386.496C453.645 386.385 453.534 386.311 453.422 385.346C453.163 383.194 453.2 383.194 459.544 383.306L465.405 383.417V384.901ZM471.823 396.142L471.898 408.867L469.968 408.756L468.002 408.644L467.928 396.402C467.854 389.65 467.891 383.936 468.002 383.677C468.113 383.343 468.744 383.232 469.931 383.306L471.712 383.417L471.823 396.142ZM484.845 383.974C485.884 384.493 486.552 385.198 487.145 386.459C487.998 388.166 488.036 388.611 488.036 396.031C488.036 403.599 487.998 403.859 487.108 405.676C485.958 407.977 484.326 408.978 481.729 408.978C479.058 408.978 477.574 408.051 476.498 405.751C475.645 403.896 475.607 403.488 475.645 396.216C475.645 388.314 475.904 386.608 477.351 385.012C478.946 383.194 482.396 382.712 484.845 383.974ZM494.788 383.677C494.973 383.936 496.271 387.424 497.681 391.393C499.091 395.363 500.352 398.776 500.501 398.962C500.686 399.147 500.686 396.142 500.575 392.247C500.464 388.388 500.464 384.753 500.612 384.196C500.835 383.269 500.983 383.194 502.43 383.306L503.988 383.417L504.099 396.105L504.174 408.83H502.578H500.946L499.981 406.307C499.462 404.934 498.164 401.484 497.125 398.628C496.049 395.771 495.159 393.397 495.084 393.322C495.047 393.248 495.01 396.698 495.047 400.928L495.084 408.644L493.341 408.756L491.56 408.867V396.29C491.56 389.39 491.671 383.603 491.82 383.491C492.228 383.046 494.417 383.194 494.788 383.677ZM513.077 404.007C514.153 405.083 514.079 407.123 512.892 408.273C512.41 408.793 511.779 409.201 511.519 409.201C510.592 409.201 509.442 408.088 509.182 407.049C508.959 405.899 509.516 404.007 510.221 403.562C511.037 403.042 512.335 403.265 513.077 404.007ZM564.274 415.508C576.591 444.964 582.452 470.266 582.452 493.935C582.452 517.567 576.591 535.523 564.088 550.177C554.554 561.343 538.49 570.099 521.313 573.549C512.409 575.293 509.034 575.589 496.754 575.589C483.361 575.589 477.166 574.996 463.55 572.399C434.613 566.908 402.337 554.628 368.466 536.153L359.785 531.442L362.901 531.219C364.608 531.071 369.579 530.848 373.956 530.737C392.098 530.18 399.926 529.772 403.079 529.216C409.46 528.103 415.804 525.469 420.887 521.833C425.895 518.272 458.542 490.781 460.063 488.889C464.033 483.844 465.813 477.018 464.7 470.933C464.404 469.338 464.033 467.632 463.884 467.149L463.662 466.333L512.669 466.407L561.677 466.519V438.138C561.677 421.889 561.825 409.98 562.011 410.314C562.196 410.611 563.198 412.948 564.274 415.508Z" fill="url(#paint1_linear_2311_213)"/>
<path d="M466.11 302.949C462.586 304.211 459.84 308.069 458.95 312.892C458.319 316.305 458.431 340.123 459.061 343.202C460.026 347.765 462.474 351.141 465.85 352.662C467.854 353.589 473.381 353.589 475.533 352.699C479.02 351.289 481.432 348.247 482.693 343.721C483.435 341.013 483.435 314.116 482.693 311.445C481.543 307.401 479.651 304.842 476.609 303.209C474.94 302.319 468.262 302.133 466.11 302.949ZM472.973 308.848C475.273 310.035 475.57 312.632 475.459 329.624C475.348 344.352 475.236 345.502 473.493 346.875C472.231 347.876 469.746 347.876 468.484 346.875C466.666 345.465 466.518 343.87 466.518 327.583C466.518 312.706 466.518 312.558 467.371 310.852C468.559 308.403 470.673 307.624 472.973 308.848Z" fill="url(#paint2_linear_2311_213)"/>
<path d="M265.257 305.695V308.663H269.338H273.419L273.493 330.811L273.604 352.996H277.314H281.024L281.135 330.848L281.209 308.7L285.216 308.588L289.186 308.477V305.695V302.912L277.24 302.801L265.257 302.727V305.695Z" fill="url(#paint3_linear_2311_213)"/>
<path d="M294.38 303.172C294.268 303.432 294.231 314.747 294.268 328.325L294.38 352.996H298.089H301.799L301.911 341.384L301.985 329.809H306.437H310.889L310.963 341.384L311.074 352.996H314.784H318.494V327.954V302.912H314.784H311.074L310.889 313.3L310.703 323.688H306.437H302.17L302.059 313.189L301.985 302.727H298.275C295.641 302.727 294.491 302.875 294.38 303.172Z" fill="url(#paint4_linear_2311_213)"/>
<path d="M332.443 304.656C332.22 305.732 330.699 313.968 329.067 322.946C327.398 331.924 325.506 342.275 324.838 345.947C324.17 349.62 323.688 352.736 323.762 352.885C323.836 353.07 325.543 353.182 327.583 353.182C331.775 353.182 331.33 353.664 332.072 348.173C332.295 346.318 332.666 344.612 332.851 344.352C333.111 344.055 334.484 343.907 337.229 343.907C339.974 343.907 341.347 344.055 341.606 344.352C341.792 344.612 342.163 346.318 342.423 348.173C343.165 353.441 342.905 353.182 347.023 353.182C348.952 353.182 350.622 353.07 350.733 352.885C350.844 352.662 342.868 308.292 341.829 303.543C341.681 302.764 341.532 302.727 337.266 302.727H332.814L332.443 304.656ZM339.158 325.803C340.085 332.406 340.79 337.897 340.679 338.045C340.605 338.231 339.047 338.342 337.229 338.342C335.411 338.342 333.853 338.231 333.779 338.045C333.556 337.674 336.969 313.857 337.266 313.857C337.377 313.857 338.23 319.236 339.158 325.803Z" fill="url(#paint5_linear_2311_213)"/>
<path d="M355.852 327.843L355.964 352.996L359.228 353.107L362.53 353.219L362.345 337.897C362.271 329.475 362.085 322.204 361.9 321.722C361.751 321.276 361.788 320.905 361.937 320.905C362.196 320.905 365.721 330.106 372.844 349.583C373.437 351.141 374.031 352.625 374.142 352.81C374.253 353.033 375.7 353.181 377.333 353.181H380.263V327.954V302.727H376.887H373.511L373.697 318.383C373.808 327.027 373.994 334.484 374.142 335.003C375.107 338.639 372.769 332.406 363.829 307.55L362.159 302.912L358.969 302.801L355.778 302.69L355.852 327.843Z" fill="url(#paint6_linear_2311_213)"/>
<path d="M389.056 302.95C388.759 303.283 388.722 346.504 389.019 350.288L389.278 353.181H392.914C396.476 353.181 396.587 353.144 396.587 352.328C396.55 348.359 396.921 330.106 397.069 329.957C397.143 329.883 397.663 330.996 398.219 332.48C398.739 333.964 400.742 339.195 402.671 344.092L406.158 352.996H410.165C412.651 352.996 414.172 352.848 414.135 352.625C414.098 352.402 411.686 346.429 408.829 339.306L403.599 326.359L405.639 321.313C406.789 318.531 408.792 313.597 410.165 310.332C413.652 301.948 413.727 302.727 409.312 302.727H405.602L401.669 312.632C399.518 318.123 397.663 322.872 397.551 323.206C396.884 325.32 396.661 322.872 396.698 313.374V302.912L392.988 302.801C390.985 302.764 389.204 302.801 389.056 302.95Z" fill="url(#paint7_linear_2311_213)"/>
<path d="M427.713 302.987C427.676 303.172 427.676 303.358 427.676 303.469C427.713 303.729 431.757 317.084 434.91 327.398L437.21 334.817L437.396 343.907L437.581 352.996L441.402 353.107L445.186 353.219V344.834V336.45L447.82 327.843C449.267 323.094 451.196 316.713 452.087 313.671C453.014 310.592 454.09 307.105 454.498 305.917C455.574 302.579 455.722 302.727 451.493 302.727H447.82L447.301 304.471C447.004 305.472 445.632 310.814 444.222 316.342C442.849 321.907 441.551 326.47 441.439 326.47C441.291 326.47 440.994 325.765 440.809 324.875C440.401 323.057 435.615 304.322 435.318 303.358C435.133 302.801 434.613 302.727 431.423 302.727C429.419 302.727 427.713 302.838 427.713 302.987Z" fill="url(#paint8_linear_2311_213)"/>
<path d="M490.447 321.536C490.447 332.925 490.595 341.347 490.855 342.794C491.634 347.58 494.046 351.215 497.459 352.736C498.386 353.144 499.907 353.33 502.504 353.33C505.62 353.33 506.474 353.219 507.958 352.477C510.035 351.475 511.779 349.583 512.781 347.357C514.376 343.721 514.561 341.161 514.561 321.425V302.69L510.777 302.801L506.956 302.912L506.771 323.688C506.585 345.762 506.585 345.502 504.767 346.949C503.691 347.839 501.169 347.802 500.019 346.875C498.349 345.576 498.238 344.204 498.238 322.797V302.727H494.342H490.447V321.536Z" fill="url(#paint9_linear_2311_213)"/>
<path d="M211.278 428.381C206.121 428.826 198.405 431.274 192.395 434.354C184.418 438.397 176.516 445.52 171.619 452.94C165.275 462.586 164.385 464.033 163.495 465.776C161.083 470.636 159.265 476.09 158.152 481.914C157.225 486.774 157.299 496.235 158.338 501.28C162.27 520.312 174.402 535.114 192.061 542.311C198.739 545.02 204.786 546.17 212.576 546.17C226.303 546.207 239.028 541.384 249.564 532.109C251.79 530.18 261.028 519.421 263.847 515.489C265.813 512.744 269.152 506.251 270.414 502.69C274.198 492.08 274.717 481.618 272.083 470.302C271.452 467.631 271.23 467.335 270.488 467.78C270.117 468.002 270.154 468.522 270.599 470.265C274.161 484.066 272.046 499.128 264.812 511.297C263.995 512.707 263.253 513.819 263.179 513.819C263.068 513.819 263.662 511.779 264.144 510.666C264.96 508.811 266.407 503.691 266.963 500.649C267.854 496.086 267.854 486.663 267 481.914C266.184 477.574 264.923 473.27 263.216 469.301L261.955 466.333H265.665C270.043 466.333 269.931 466.852 266.963 460.583C261.807 449.824 253.979 441.588 243.368 435.838C237.581 432.684 229.419 430.236 223.075 429.753L219.996 429.494V432.87V436.246L215.21 436.023C205.899 435.578 196.772 437.47 188.277 441.625C184.678 443.369 181.97 445.112 176.999 448.822C174.587 450.64 179.41 445.335 182.823 442.441C192.209 434.465 204.749 429.605 216.027 429.605C218.994 429.605 219.254 429.531 219.254 428.863C219.254 428.158 219.032 428.121 216.027 428.195C214.209 428.232 212.094 428.307 211.278 428.381Z" fill="#74DBBA"/>
<path d="M284.882 386.904C283.992 387.609 283.992 387.646 283.992 396.142C283.992 404.007 284.029 404.749 284.697 405.454C285.587 406.418 286.552 406.455 287.516 405.491C288.221 404.786 288.258 404.267 288.258 396.29C288.258 389.242 288.147 387.721 287.665 387.016C286.96 386.014 286.032 385.977 284.882 386.904Z" fill="white"/>
<path d="M300.019 386.422C299.61 386.867 299.685 396.142 300.13 396.402C300.872 396.847 302.764 396.142 303.395 395.177C303.877 394.472 304.025 393.434 304.025 391.133C304.025 388.574 303.914 387.943 303.283 387.349C302.467 386.533 300.501 385.977 300.019 386.422Z" fill="white"/>
<path d="M337.006 386.496C335.93 387.201 335.745 388.574 335.745 396.179C335.745 400.446 335.893 404.378 336.079 404.86C336.747 406.604 339.01 406.604 339.752 404.897C340.308 403.673 340.345 389.242 339.789 387.795C339.232 386.311 338.082 385.754 337.006 386.496Z" fill="white"/>
<path d="M367.947 386.459C367.872 386.645 367.872 388.982 367.947 391.653C368.058 396.587 368.058 396.587 368.948 396.587C369.43 396.587 370.284 396.179 370.877 395.697C371.805 394.918 371.916 394.547 372.027 391.987C372.213 388.759 371.731 387.238 370.395 386.608C369.319 386.125 368.132 386.051 367.947 386.459Z" fill="white"/>
<path d="M391.022 389.39C390.985 389.576 390.614 392.284 390.132 395.4C389.687 398.516 389.39 401.15 389.501 401.225C389.872 401.633 392.877 401.41 392.877 400.965C392.877 400.075 391.319 389.353 391.171 389.205C391.096 389.13 391.022 389.205 391.022 389.39Z" fill="white"/>
<path d="M480.43 386.942C479.614 387.758 479.651 387.275 479.688 397.663C479.688 401.41 479.874 404.786 480.096 405.157C480.69 406.27 482.211 406.456 483.139 405.528C483.918 404.749 483.955 404.452 483.955 396.253C483.955 388.426 483.918 387.684 483.25 386.979C482.359 386.014 481.395 385.977 480.43 386.942Z" fill="white"/>
<path d="M370.766 137.229C368.466 138.639 367.761 140.902 368.911 143.165C370.543 146.281 375.144 146.281 376.776 143.165C377.963 140.865 377.073 138.305 374.698 137.081C373.252 136.339 372.139 136.376 370.766 137.229ZM375.181 139.158C376.665 140.976 375.218 144.055 372.844 144.055C370.247 144.055 368.948 140.753 370.84 138.861C371.619 138.082 372.027 137.971 373.14 138.156C373.882 138.268 374.81 138.713 375.181 139.158Z" fill="white"/>
<path d="M691.337 337.007C689.408 337.86 688.741 338.936 688.741 341.199C688.741 343.017 688.852 343.35 689.965 344.315C690.966 345.205 691.486 345.391 693.044 345.391C694.713 345.391 695.084 345.242 696.197 344.13C697.273 343.054 697.459 342.608 697.459 341.162C697.459 339.752 697.236 339.232 696.272 338.157C694.862 336.673 693.007 336.227 691.337 337.007ZM694.231 338.416C696.16 339.418 696.531 341.384 695.122 343.017C693.971 344.315 692.265 344.389 690.966 343.165C689.631 341.904 689.705 340.16 691.189 338.936C692.45 337.86 693.044 337.749 694.231 338.416Z" fill="white"/>
<path d="M654.127 386.645C654.202 388.425 654.387 388.982 654.795 388.982C655.24 388.982 655.352 388.5 655.352 386.756C655.352 384.901 655.24 384.53 654.684 384.419C654.09 384.307 654.016 384.53 654.127 386.645Z" fill="#3FD9A6"/>
<path d="M643.406 395.363C643.146 395.437 642.923 395.771 642.923 396.031C642.923 396.921 646.077 397.292 647.412 396.55C648.636 395.919 647.598 395.103 645.557 395.14C644.63 395.14 643.628 395.252 643.406 395.363Z" fill="#3FD9A6"/>
<path d="M662.029 395.586C661.176 396.253 661.733 396.661 663.773 396.81C665.665 396.995 666.889 396.402 666.259 395.623C665.702 394.955 662.957 394.955 662.029 395.586Z" fill="#3FD9A6"/>
<path d="M654.313 403.117C654.164 403.265 654.053 404.378 654.053 405.565C654.053 407.457 654.127 407.754 654.721 407.643C655.24 407.531 655.351 407.123 655.351 405.343C655.351 403.302 654.943 402.486 654.313 403.117Z" fill="#3FD9A6"/>
<path d="M646.077 465.294C644.964 465.925 644.63 466.667 644.408 468.93L644.222 470.97L641.811 471.823C638.62 472.899 635.986 474.087 634.317 475.199L632.907 476.09L631.423 474.754C628.641 472.194 627.49 472.528 623.335 476.869C620.034 480.319 619.922 481.135 622.185 483.584L623.743 485.253L622.185 488.592C621.332 490.41 620.367 492.97 620.034 494.305L619.403 496.68L617.251 496.828C615.507 496.977 614.877 497.199 614.061 497.978C613.133 498.906 613.059 499.277 612.911 502.393C612.799 505.992 613.207 508.217 614.246 509.034C614.58 509.33 615.916 509.627 617.251 509.739L619.663 509.924L620.516 512.558C621.258 514.895 622.63 517.789 624.04 520.089C624.448 520.683 624.3 521.017 622.964 522.538C621.035 524.726 620.924 526.136 622.445 527.991C624.374 530.328 627.49 533.037 628.418 533.222C629.679 533.482 631.386 532.666 632.87 531.108L634.057 529.883L636.357 531.07C638.806 532.369 641.032 533.222 643.591 533.853L645.15 534.261V536.45C645.15 538.23 645.298 538.824 646.114 539.752L647.079 540.902H651.605C655.982 540.902 656.168 540.865 657.021 539.974C657.763 539.158 657.912 538.639 657.949 536.598V534.15L660.954 533.148C662.586 532.591 665.072 531.516 666.481 530.737L669.004 529.364L670.525 530.848C673.382 533.667 675.014 533.296 679.021 529.067C680.95 526.99 681.506 526.173 681.506 525.283C681.506 523.985 680.69 522.241 679.763 521.536C678.242 520.423 678.056 519.867 678.835 518.754C679.763 517.455 681.247 513.931 682.063 511.111L682.656 508.997H684.511C686.552 508.997 688.333 508.255 688.926 507.179C689.112 506.771 689.297 504.619 689.297 502.356C689.297 498.572 689.223 498.201 688.407 497.236C687.628 496.346 687.183 496.16 684.994 496.012L682.508 495.826L681.877 493.489C681.506 492.191 680.542 489.742 679.689 488.036C678.872 486.329 678.168 484.808 678.168 484.623C678.168 484.437 678.761 483.732 679.466 483.027C680.542 481.951 680.764 481.506 680.764 480.171C680.764 478.687 680.579 478.353 678.279 476.016C676.869 474.643 675.385 473.307 674.94 473.085C673.382 472.232 671.935 472.565 670.228 474.124L668.633 475.608L666.444 474.42C665.257 473.753 662.66 472.677 660.731 472.046L657.207 470.859L657.021 468.559C656.761 465.22 656.131 464.849 650.9 464.886C648.563 464.886 646.485 465.034 646.077 465.294ZM655.352 467.223C655.686 467.743 655.908 468.67 655.834 469.301L655.723 470.488L650.714 470.525L645.706 470.562L645.595 469.375C645.52 468.67 645.743 467.743 646.077 467.223C646.633 466.37 646.819 466.333 650.714 466.333C654.61 466.333 654.795 466.37 655.352 467.223ZM659.247 473.011C669.635 475.979 677.426 483.732 680.616 494.343C681.469 497.236 681.618 498.349 681.618 502.504C681.618 505.954 681.432 507.995 680.987 509.739C677.5 522.575 667.706 531.256 654.573 533.111C648.006 534.001 639.696 532.035 634.02 528.177C630.013 525.468 625.673 520.46 623.484 516.157C622 513.189 620.701 508.18 620.442 504.433C619.774 494.454 624.56 484.103 632.647 478.13C636.765 475.051 641.106 473.196 646.633 472.12C648.822 471.712 656.502 472.232 659.247 473.011ZM676.98 476.869C678.464 478.39 679.651 479.874 679.651 480.208C679.651 480.542 679.095 481.395 678.427 482.137L677.24 483.435L673.567 479.837L669.894 476.201L671.156 475.162C673.122 473.493 673.975 473.753 676.98 476.869ZM630.57 475.867L631.386 476.869L627.973 480.468L624.56 484.103L623.372 482.842C622.705 482.137 622.148 481.21 622.148 480.764C622.148 480.282 623.224 478.909 624.894 477.203C627.379 474.68 627.787 474.42 628.715 474.643C629.271 474.791 630.124 475.348 630.57 475.867ZM687.145 498.127C687.702 498.609 687.813 499.314 687.813 502.43C687.813 506.956 687.479 507.513 684.845 507.513H683.102V502.504V497.496H684.771C685.81 497.496 686.7 497.719 687.145 498.127ZM619.069 501.465C619.032 503.283 619.069 505.472 619.18 506.4L619.366 508.069L617.437 508.18C614.766 508.329 614.357 507.661 614.357 503.172C614.357 498.98 614.84 498.238 617.474 498.238H619.106L619.069 501.465ZM678.872 522.909C679.503 523.651 680.022 524.615 680.022 525.06C680.022 526.136 674.94 531.256 673.901 531.256C673.493 531.256 672.528 530.662 671.786 529.957L670.414 528.622L673.827 525.135C675.719 523.205 677.351 521.647 677.463 521.647C677.611 521.61 678.242 522.204 678.872 522.909ZM627.824 524.689C629.086 525.988 630.718 527.509 631.423 528.065L632.684 529.104L631.126 530.551C630.31 531.33 629.308 531.998 628.974 531.998C627.973 531.998 622.89 526.73 622.89 525.691C622.89 524.986 624.856 522.352 625.376 522.352C625.45 522.352 626.563 523.391 627.824 524.689ZM656.65 536.153C656.65 537.229 656.502 538.305 656.353 538.527C655.76 539.418 654.313 539.789 651.382 539.789C647.264 539.789 646.633 539.381 646.633 536.635V534.632L651.197 534.484C653.682 534.446 655.945 534.335 656.205 534.298C656.502 534.261 656.65 534.817 656.65 536.153Z" fill="#AEACAC"/>
<path d="M647.487 486.032C644.259 486.663 640.698 488.778 638.175 491.56C636.802 493.118 634.762 497.533 634.391 499.907C633.092 507.847 637.73 515.749 645.409 518.531C650.38 520.312 656.761 519.421 660.991 516.268C667.78 511.297 669.857 502.616 666.11 495.047C662.734 488.184 655.129 484.511 647.487 486.032ZM655.092 487.628C662.623 489.631 667.668 497.385 666.37 504.99C665.776 508.44 664.07 511.519 661.51 513.894C659.024 516.157 656.613 517.344 653.237 517.9C643.035 519.681 633.575 509.553 635.912 499.388C637.915 490.707 646.596 485.365 655.092 487.628Z" fill="#AEACAC"/>
<path d="M373.511 607.16C364.83 608.496 357.188 612.428 350.955 618.809C342.979 626.934 339.009 637.285 339.566 648.451C339.826 653.571 340.419 656.465 342.163 661.028C344.203 666.519 346.54 670.006 351.141 674.68C356.965 680.542 362.233 683.584 370.098 685.625C372.918 686.366 374.29 686.478 379.521 686.478C384.678 686.478 386.162 686.329 388.945 685.625C395.103 684.029 398.924 682.137 403.858 678.316C412.91 671.304 418.512 660.842 419.403 649.342C420.033 640.92 417.399 631.312 412.465 624.115C406.195 614.914 396.327 608.83 385.086 607.123C380.857 606.455 377.815 606.455 373.511 607.16ZM388.87 609.312C405.305 613.504 416.991 627.75 417.993 644.816C418.216 649.119 417.548 654.499 416.175 658.617C412.206 670.859 401.707 680.579 388.833 683.992C385.754 684.808 384.493 684.957 379.521 684.957C374.476 684.957 373.326 684.845 370.061 683.992C356.297 680.319 345.836 669.783 342.163 655.983C341.347 652.866 341.198 651.642 341.198 646.634C341.198 641.625 341.347 640.401 342.163 637.285C345.094 626.192 352.625 616.954 362.864 611.909C365.758 610.462 370.877 608.904 374.142 608.422C377.963 607.865 384.864 608.273 388.87 609.312Z" fill="white"/>
<path d="M365.09 632.388C360.638 634.614 359.377 640.364 362.53 644.185C364.088 646.077 366.054 647.005 368.614 647.005C371.137 647.005 372.769 646.263 374.476 644.408C377.889 640.624 376.628 634.502 371.99 632.351C369.468 631.163 367.538 631.163 365.09 632.388ZM371.99 634.057C374.587 635.689 375.552 640.067 373.882 642.553C372.398 644.705 371.211 645.335 368.577 645.335C366.054 645.335 364.904 644.779 363.458 642.85C362.419 641.477 362.196 638.435 362.975 636.654C364.496 633.278 368.763 632.054 371.99 634.057Z" fill="white"/>
<path d="M387.312 631.905C385.531 632.462 383.12 634.985 382.564 636.839C381.896 639.14 382.007 640.735 383.046 642.812C384.418 645.521 386.348 646.745 389.538 646.93C393.137 647.153 395.511 645.78 397.143 642.59C398.145 640.624 397.811 636.765 396.439 634.836C394.509 632.017 390.725 630.829 387.312 631.905ZM392.766 633.872C394.25 634.576 394.88 635.17 395.437 636.394C397.403 640.438 395.103 644.964 390.874 645.409C384.864 646.114 381.413 639.214 385.643 634.947C387.832 632.796 389.983 632.462 392.766 633.872Z" fill="white"/>
<path d="M390.725 654.795C389.835 655.612 388.091 656.762 386.904 657.355C380.857 660.36 374.068 659.692 368.577 655.537C366.5 653.979 366.166 653.831 365.721 654.313C365.313 654.795 365.498 655.092 366.722 656.131C374.031 662.289 384.864 662.252 391.764 656.02C393.248 654.684 393.545 654.239 393.211 653.831C392.617 653.126 392.543 653.163 390.725 654.795Z" fill="white"/>
<path d="M631.72 611.724C627.008 613.245 624.968 618.364 627.453 622.594C628.603 624.56 631.423 626.229 633.612 626.229C635.133 626.229 638.36 624.82 639.288 623.781C642.07 620.627 641.402 615.211 637.915 612.762C636.283 611.65 633.463 611.167 631.72 611.724Z" fill="#FFDF64"/>
<path d="M633.538 600.149C633.389 600.26 633.278 601.855 633.278 603.673C633.278 606.641 633.352 606.975 633.946 606.864C634.465 606.752 634.614 606.27 634.688 604.155C634.836 600.631 634.428 599.221 633.538 600.149Z" fill="#FFDF64"/>
<path d="M615.544 618.698C615.656 619.255 616.138 619.403 618.253 619.477C621.295 619.626 622.519 619.366 622.519 618.624C622.519 618.179 621.851 618.067 618.958 618.067C615.767 618.067 615.433 618.142 615.544 618.698Z" fill="#FFDF64"/>
<path d="M645.966 618.698C646.077 619.255 646.559 619.366 649.008 619.477C651.79 619.588 653.2 619.18 652.717 618.401C652.606 618.216 651.011 618.067 649.193 618.067C646.188 618.067 645.854 618.142 645.966 618.698Z" fill="#FFDF64"/>
<path d="M633.463 630.792C633.352 631.052 633.278 632.61 633.352 634.243C633.426 636.543 633.574 637.173 634.02 637.173C634.465 637.173 634.576 636.543 634.576 633.872C634.576 631.534 634.428 630.496 634.131 630.421C633.871 630.31 633.574 630.496 633.463 630.792Z" fill="#FFDF64"/>
<path d="M106.956 639.548C100.426 641.959 96.6052 648.34 97.6069 654.981C98.5715 661.213 104.025 666.333 110.369 666.927C119.384 667.78 127.175 659.173 125.431 650.306C124.8 647.264 123.873 645.446 121.647 643.109C118.939 640.253 116.342 639.102 112.224 638.954C109.627 638.843 108.477 638.991 106.956 639.548ZM115.451 640.698C120.237 642.033 124.281 647.598 124.281 652.792C124.281 656.205 122.315 660.36 119.755 662.289C116.861 664.478 115.414 664.96 111.667 664.997C108.514 664.997 107.92 664.886 106.177 663.959C103.617 662.623 101.391 660.286 100.241 657.763C98.8312 654.721 98.8683 650.566 100.315 647.747C101.725 644.927 102.875 643.517 104.804 642.182C107.809 640.104 111.519 639.585 115.451 640.698Z" fill="#61A986"/>
<path d="M509.516 662.215C509.108 662.363 508.292 663.068 507.735 663.736C506.808 664.812 506.696 665.183 506.882 666.815C507.105 669.338 508.626 670.748 511.074 670.748C513.782 670.748 515.674 668.93 515.674 666.296C515.674 663.254 512.373 661.065 509.516 662.215ZM513.226 664.255C514.413 665.368 514.487 666.927 513.411 668.299C511.853 670.303 508.255 669.004 508.255 666.444C508.255 663.736 511.222 662.401 513.226 664.255Z" fill="#DC3838"/>
<rect x="251" y="375" width="292" height="35" fill="url(#paint10_linear_2311_213)"/>
<path d="M275.402 388.806L276.136 387.024V395.987L275.402 394.624H283.081V396.983H275.402L276.136 395.62V404.74H272.834V386.395H283.553V388.806H275.402ZM292.882 404.976C291.345 404.976 290.017 404.723 288.899 404.216C287.798 403.709 286.951 402.984 286.357 402.041C285.763 401.097 285.466 399.97 285.466 398.66V396.668C285.466 395.358 285.763 394.231 286.357 393.287C286.968 392.344 287.824 391.619 288.925 391.112C290.043 390.605 291.362 390.352 292.882 390.352C294.437 390.352 295.765 390.605 296.866 391.112C297.984 391.619 298.84 392.344 299.434 393.287C300.028 394.231 300.325 395.358 300.325 396.668V398.66C300.325 399.97 300.028 401.097 299.434 402.041C298.84 402.984 297.984 403.709 296.866 404.216C295.765 404.723 294.437 404.976 292.882 404.976ZM292.882 402.46C294.158 402.46 295.162 402.119 295.896 401.438C296.648 400.739 297.023 399.796 297.023 398.608V396.721C297.023 395.532 296.648 394.598 295.896 393.916C295.162 393.217 294.158 392.868 292.882 392.868C291.642 392.868 290.646 393.217 289.895 393.916C289.143 394.615 288.768 395.55 288.768 396.721V398.608C288.768 399.778 289.135 400.713 289.868 401.412C290.62 402.111 291.624 402.46 292.882 402.46ZM303.853 390.588H306.396L307.156 395.987V404.74H303.853V390.588ZM306.317 397.297C306.317 395.008 306.736 393.279 307.575 392.108C308.431 390.937 309.663 390.352 311.27 390.352C311.567 390.352 311.864 390.37 312.161 390.404C312.458 390.439 312.755 390.501 313.053 390.588L312.869 393.392C312.31 393.235 311.725 393.156 311.113 393.156C309.803 393.156 308.816 393.576 308.152 394.414C307.488 395.235 307.156 396.485 307.156 398.162L306.317 397.297ZM324.184 388.806L324.918 387.024V395.987L324.184 394.624H331.863V396.983H324.184L324.918 395.62V404.74H321.616V386.395H332.335V388.806H324.184ZM338.431 390.588V404.74H335.129V390.588H338.431ZM338.589 385.241V388.78H334.998V385.241H338.589ZM345.93 385.346V404.74H342.628V385.346H345.93ZM353.301 385.346V404.74H349.999V385.346H353.301ZM360.8 390.588V404.74H357.498V390.588H360.8ZM360.957 385.241V388.78H357.367V385.241H360.957ZM375.64 396.825C375.64 395.463 375.37 394.467 374.828 393.838C374.304 393.191 373.465 392.868 372.312 392.868C370.984 392.868 369.962 393.331 369.246 394.257C368.529 395.183 368.171 396.511 368.171 398.241L366.939 400.206V398.477C366.939 395.856 367.507 393.846 368.643 392.449C369.796 391.051 371.438 390.352 373.57 390.352C375.405 390.352 376.759 390.841 377.632 391.82C378.506 392.798 378.943 394.336 378.943 396.432V404.74H375.64V396.825ZM364.869 390.588H367.411L368.171 395.043V404.74H364.869V390.588ZM388.831 400.547C386.805 400.547 385.223 400.128 384.088 399.289C382.952 398.45 382.384 397.288 382.384 395.803V395.096C382.384 393.593 382.952 392.431 384.088 391.61C385.223 390.771 386.805 390.352 388.831 390.352C390.841 390.352 392.413 390.771 393.549 391.61C394.684 392.431 395.252 393.593 395.252 395.096V395.803C395.252 397.288 394.684 398.45 393.549 399.289C392.413 400.128 390.841 400.547 388.831 400.547ZM386.394 409.667C384.909 409.667 383.773 409.379 382.987 408.802C382.218 408.226 381.834 407.37 381.834 406.234C381.834 405.116 382.209 404.268 382.961 403.692C383.729 403.115 384.874 402.827 386.394 402.827H391.242C392.728 402.827 393.855 403.115 394.623 403.692C395.41 404.268 395.803 405.116 395.803 406.234C395.803 407.37 395.41 408.226 394.623 408.802C393.855 409.379 392.728 409.667 391.242 409.667H386.394ZM390.587 407.833C391.95 407.833 392.631 407.3 392.631 406.234C392.631 405.168 391.95 404.635 390.587 404.635H387.075C385.678 404.635 384.979 405.168 384.979 406.234C384.979 407.317 385.678 407.85 387.075 407.833H390.587ZM385.372 403.535C384.638 403.535 384.053 403.369 383.616 403.037C383.197 402.705 382.987 402.25 382.987 401.674C382.987 401.097 383.188 400.643 383.59 400.311C384.009 399.979 384.612 399.813 385.398 399.813H388.831V400.547H387.233C386.778 400.547 386.42 400.643 386.158 400.835C385.913 401.027 385.8 401.307 385.817 401.674C385.835 402.058 385.957 402.347 386.184 402.539C386.411 402.731 386.752 402.827 387.206 402.827H388.831V403.535H385.372ZM388.831 398.45C389.845 398.45 390.631 398.214 391.19 397.743C391.749 397.253 392.029 396.581 392.029 395.725V395.148C392.029 394.292 391.749 393.628 391.19 393.156C390.631 392.685 389.845 392.449 388.831 392.449C387.818 392.449 387.023 392.685 386.446 393.156C385.887 393.628 385.608 394.292 385.608 395.148V395.725C385.608 396.581 385.887 397.253 386.446 397.743C387.023 398.214 387.818 398.45 388.831 398.45ZM391.845 391.322L395.855 389.933H396.615V392.318L391.845 392.606V391.322ZM416.991 386.395V388.806H410.387L412.011 387.391V404.74H408.709V387.391L410.282 388.806H403.704V386.395H416.991ZM430.027 396.825C430.027 395.463 429.756 394.467 429.215 393.838C428.691 393.191 427.852 392.868 426.699 392.868C425.371 392.868 424.349 393.331 423.632 394.257C422.916 395.183 422.558 396.511 422.558 398.241L421.3 400.206L421.326 398.477C421.326 395.856 421.894 393.846 423.03 392.449C424.183 391.051 425.825 390.352 427.957 390.352C429.791 390.352 431.145 390.841 432.019 391.82C432.893 392.798 433.329 394.336 433.329 396.432V404.74H430.027V396.825ZM419.256 385.346H422.558V395.043V404.74H419.256V385.346ZM443.593 404.976C442.125 404.976 440.876 404.731 439.845 404.242C438.814 403.753 438.019 403.037 437.46 402.093C436.919 401.15 436.648 400.014 436.648 398.686V396.642C436.648 395.332 436.936 394.213 437.513 393.287C438.089 392.344 438.919 391.619 440.002 391.112C441.086 390.605 442.379 390.352 443.881 390.352C446.188 390.352 447.952 390.946 449.175 392.134C450.416 393.322 451.036 395.017 451.036 397.219V398.529H439.321V396.799H448.415L447.943 397.454V396.485C447.943 395.314 447.585 394.397 446.869 393.733C446.17 393.051 445.2 392.711 443.96 392.711C442.702 392.711 441.715 393.051 440.998 393.733C440.299 394.414 439.95 395.358 439.95 396.563V399.027C439.95 400.232 440.291 401.158 440.972 401.805C441.654 402.451 442.614 402.775 443.855 402.775C444.921 402.775 445.786 402.556 446.45 402.119C447.131 401.683 447.559 401.062 447.734 400.259L450.853 400.468C450.486 401.919 449.664 403.037 448.389 403.823C447.131 404.592 445.532 404.976 443.593 404.976ZM463.772 388.806L464.506 387.024V395.987L463.772 394.624H471.451V396.983H463.772L464.506 395.62V404.74H461.204V386.395H471.923V388.806H463.772ZM481.252 404.976C479.715 404.976 478.387 404.723 477.269 404.216C476.168 403.709 475.321 402.984 474.727 402.041C474.133 401.097 473.836 399.97 473.836 398.66V396.668C473.836 395.358 474.133 394.231 474.727 393.287C475.338 392.344 476.194 391.619 477.295 391.112C478.413 390.605 479.732 390.352 481.252 390.352C482.807 390.352 484.135 390.605 485.236 391.112C486.354 391.619 487.21 392.344 487.804 393.287C488.398 394.231 488.695 395.358 488.695 396.668V398.66C488.695 399.97 488.398 401.097 487.804 402.041C487.21 402.984 486.354 403.709 485.236 404.216C484.135 404.723 482.807 404.976 481.252 404.976ZM481.252 402.46C482.528 402.46 483.532 402.119 484.266 401.438C485.018 400.739 485.393 399.796 485.393 398.608V396.721C485.393 395.532 485.018 394.598 484.266 393.916C483.532 393.217 482.528 392.868 481.252 392.868C480.012 392.868 479.016 393.217 478.265 393.916C477.513 394.615 477.138 395.55 477.138 396.721V398.608C477.138 399.778 477.505 400.713 478.238 401.412C478.99 402.111 479.994 402.46 481.252 402.46ZM492.224 390.588H494.766L495.526 395.987V404.74H492.224V390.588ZM494.687 397.297C494.687 395.008 495.106 393.279 495.945 392.108C496.801 390.937 498.033 390.352 499.64 390.352C499.937 390.352 500.234 390.37 500.531 390.404C500.828 390.439 501.126 390.501 501.423 390.588L501.239 393.392C500.68 393.235 500.095 393.156 499.483 393.156C498.173 393.156 497.186 393.576 496.522 394.414C495.858 395.235 495.526 396.485 495.526 398.162L494.687 397.297ZM524.533 396.799C524.533 395.454 524.271 394.467 523.747 393.838C523.222 393.191 522.401 392.868 521.283 392.868C519.99 392.868 518.994 393.331 518.295 394.257C517.596 395.183 517.247 396.511 517.247 398.241L515.989 400.206V398.477C515.989 395.856 516.557 393.846 517.693 392.449C518.828 391.051 520.462 390.352 522.593 390.352C524.376 390.352 525.695 390.841 526.551 391.82C527.407 392.798 527.835 394.318 527.835 396.38V404.74H524.533V396.799ZM503.357 390.588H505.899L506.659 395.174V404.74H503.357V390.588ZM513.945 396.799C513.945 395.454 513.683 394.467 513.159 393.838C512.634 393.191 511.822 392.868 510.721 392.868C509.411 392.868 508.406 393.331 507.707 394.257C507.008 395.183 506.659 396.511 506.659 398.241L505.427 400.206V398.477C505.427 395.856 505.986 393.846 507.105 392.449C508.24 391.051 509.865 390.352 511.979 390.352C513.779 390.352 515.107 390.85 515.963 391.846C516.819 392.824 517.247 394.336 517.247 396.38V404.74H513.945V396.799Z" fill="#2B2A2A"/>
<defs>
<linearGradient id="paint0_linear_2311_213" x1="661.706" y1="161.951" x2="462.66" y2="179.933" gradientUnits="userSpaceOnUse">
<stop stop-color="#39EBA6"/>
<stop offset="1" stop-color="#617DA9"/>
</linearGradient>
<linearGradient id="paint1_linear_2311_213" x1="704.732" y1="420.14" x2="-211.378" y2="493.429" gradientUnits="userSpaceOnUse">
<stop stop-color="#39EBA6"/>
<stop offset="1" stop-color="#617DA9"/>
</linearGradient>
<linearGradient id="paint2_linear_2311_213" x1="488.372" y1="326.738" x2="449.392" y2="328.329" gradientUnits="userSpaceOnUse">
<stop stop-color="#39EBA6"/>
<stop offset="1" stop-color="#617DA9"/>
</linearGradient>
<linearGradient id="paint3_linear_2311_213" x1="294.144" y1="326.719" x2="256.41" y2="328.229" gradientUnits="userSpaceOnUse">
<stop stop-color="#39EBA6"/>
<stop offset="1" stop-color="#617DA9"/>
</linearGradient>
<linearGradient id="paint4_linear_2311_213" x1="323.516" y1="326.719" x2="285.294" y2="328.269" gradientUnits="userSpaceOnUse">
<stop stop-color="#39EBA6"/>
<stop offset="1" stop-color="#617DA9"/>
</linearGradient>
<linearGradient id="paint5_linear_2311_213" x1="356.324" y1="326.813" x2="313.798" y2="328.725" gradientUnits="userSpaceOnUse">
<stop stop-color="#39EBA6"/>
<stop offset="1" stop-color="#617DA9"/>
</linearGradient>
<linearGradient id="paint6_linear_2311_213" x1="385.337" y1="326.806" x2="346.728" y2="328.379" gradientUnits="userSpaceOnUse">
<stop stop-color="#39EBA6"/>
<stop offset="1" stop-color="#617DA9"/>
</linearGradient>
<linearGradient id="paint7_linear_2311_213" x1="419.382" y1="326.797" x2="379.459" y2="328.482" gradientUnits="userSpaceOnUse">
<stop stop-color="#39EBA6"/>
<stop offset="1" stop-color="#617DA9"/>
</linearGradient>
<linearGradient id="paint8_linear_2311_213" x1="460.83" y1="326.825" x2="417.543" y2="328.805" gradientUnits="userSpaceOnUse">
<stop stop-color="#39EBA6"/>
<stop offset="1" stop-color="#617DA9"/>
</linearGradient>
<linearGradient id="paint9_linear_2311_213" x1="519.558" y1="326.859" x2="481.532" y2="328.382" gradientUnits="userSpaceOnUse">
<stop stop-color="#39EBA6"/>
<stop offset="1" stop-color="#617DA9"/>
</linearGradient>
<linearGradient id="paint10_linear_2311_213" x1="702.514" y1="392.243" x2="62.9899" y2="-53.295" gradientUnits="userSpaceOnUse">
<stop stop-color="#39EBA6"/>
<stop offset="1" stop-color="#617DA9"/>
</linearGradient>
</defs>
</svg>
